<svg width="17" height="17" viewBox="0 0 17 17" fill="none" xmlns="http://www.w3.org/2000/svg">
<path d="M8.5 0C3.80573 0 0 3.80573 0 8.5C0 13.1943 3.80573 17 8.5 17C13.1943 17 17 13.1943 17 8.5C17 3.80573 13.1943 0 8.5 0ZM12.4383 5.36293L9.27973 8.52153L12.0745 11.6371C12.1778 11.7439 12.2349 11.8871 12.2336 12.0357C12.2323 12.1842 12.1727 12.3264 12.0676 12.4314C11.9626 12.5365 11.8204 12.5961 11.6719 12.5974C11.5233 12.5987 11.3801 12.5416 11.2733 12.4383L8.47847 9.3228L5.36293 12.4383C5.25606 12.5416 5.11292 12.5987 4.96434 12.5974C4.81576 12.5961 4.67363 12.5365 4.56857 12.4314C4.4635 12.3264 4.40391 12.1842 4.40262 12.0357C4.40133 11.8871 4.45844 11.7439 4.56167 11.6371L7.72027 8.47847L4.92547 5.36293C4.82224 5.25606 4.76513 5.11292 4.76642 4.96434C4.76771 4.81576 4.8273 4.67363 4.93237 4.56857C5.03743 4.4635 5.17956 4.40391 5.32814 4.40262C5.47672 4.40133 5.61986 4.45844 5.72673 4.56167L8.52153 7.6772L11.6371 4.56167C11.7439 4.45844 11.8871 4.40133 12.0357 4.40262C12.1842 4.40391 12.3264 4.4635 12.4314 4.56857C12.5365 4.67363 12.5961 4.81576 12.5974 4.96434C12.5987 5.11292 12.5416 5.25606 12.4383 5.36293Z" fill="#232323"/>
</svg>
