<svg width="22" height="16" viewBox="0 0 22 16" fill="none" xmlns="http://www.w3.org/2000/svg">
<path d="M20.3077 0H1.69231C1.24348 0 0.813035 0.187301 0.495665 0.520699C0.178296 0.854097 0 1.30628 0 1.77778V14.2222C0 14.6937 0.178296 15.1459 0.495665 15.4793C0.813035 15.8127 1.24348 16 1.69231 16H20.3077C20.7565 16 21.187 15.8127 21.5043 15.4793C21.8217 15.1459 22 14.6937 22 14.2222V1.77778C22 1.30628 21.8217 0.854097 21.5043 0.520699C21.187 0.187301 20.7565 0 20.3077 0ZM6.76923 13.3333H3.38462C3.1602 13.3333 2.94498 13.2397 2.78629 13.073C2.62761 12.9063 2.53846 12.6802 2.53846 12.4444C2.53846 12.2087 2.62761 11.9826 2.78629 11.8159C2.94498 11.6492 3.1602 11.5556 3.38462 11.5556H6.76923C6.99364 11.5556 7.20887 11.6492 7.36755 11.8159C7.52624 11.9826 7.61538 12.2087 7.61538 12.4444C7.61538 12.6802 7.52624 12.9063 7.36755 13.073C7.20887 13.2397 6.99364 13.3333 6.76923 13.3333ZM7.61538 7.11111C7.61538 7.34686 7.52624 7.57295 7.36755 7.73965C7.20887 7.90635 6.99364 8 6.76923 8H3.38462C3.1602 8 2.94498 7.90635 2.78629 7.73965C2.62761 7.57295 2.53846 7.34686 2.53846 7.11111V3.55556C2.53846 3.31981 2.62761 3.09372 2.78629 2.92702C2.94498 2.76032 3.1602 2.66667 3.38462 2.66667H6.76923C6.99364 2.66667 7.20887 2.76032 7.36755 2.92702C7.52624 3.09372 7.61538 3.31981 7.61538 3.55556V7.11111ZM18.6154 13.3333H11.8462C11.6217 13.3333 11.4065 13.2397 11.2478 13.073C11.0891 12.9063 11 12.6802 11 12.4444C11 12.2087 11.0891 11.9826 11.2478 11.8159C11.4065 11.6492 11.6217 11.5556 11.8462 11.5556H18.6154C18.8398 11.5556 19.055 11.6492 19.2137 11.8159C19.3724 11.9826 19.4615 12.2087 19.4615 12.4444C19.4615 12.6802 19.3724 12.9063 19.2137 13.073C19.055 13.2397 18.8398 13.3333 18.6154 13.3333Z" fill="black"/>
</svg>
