<svg width="13" height="13" viewBox="0 0 13 13" fill="none" xmlns="http://www.w3.org/2000/svg">
<path d="M12.7864 11.7612L10.3316 9.31364C11.1236 8.30463 11.5534 7.05862 11.5518 5.7759C11.5518 4.63354 11.213 3.51682 10.5784 2.56698C9.94372 1.61714 9.04165 0.876831 7.98624 0.439667C6.93083 0.00250259 5.76949 -0.111879 4.64908 0.110985C3.52866 0.333849 2.4995 0.88395 1.69172 1.69172C0.88395 2.4995 0.333849 3.52866 0.110985 4.64908C-0.111879 5.76949 0.00250259 6.93083 0.439667 7.98624C0.876831 9.04165 1.61714 9.94372 2.56698 10.5784C3.51682 11.213 4.63354 11.5518 5.7759 11.5518C7.05862 11.5534 8.30463 11.1236 9.31364 10.3316L11.7612 12.7864C11.8283 12.8541 11.9081 12.9078 11.9961 12.9444C12.0841 12.9811 12.1785 13 12.2738 13C12.3691 13 12.4635 12.9811 12.5514 12.9444C12.6394 12.9078 12.7193 12.8541 12.7864 12.7864C12.8541 12.7193 12.9078 12.6394 12.9444 12.5514C12.9811 12.4635 13 12.3691 13 12.2738C13 12.1785 12.9811 12.0841 12.9444 11.9961C12.9078 11.9081 12.8541 11.8283 12.7864 11.7612ZM1.44398 5.7759C1.44398 4.91913 1.69804 4.08159 2.17404 3.36921C2.65004 2.65683 3.32659 2.1016 4.11815 1.77373C4.9097 1.44585 5.78071 1.36007 6.62102 1.52721C7.46133 1.69436 8.2332 2.10694 8.83903 2.71277C9.44486 3.3186 9.85744 4.09047 10.0246 4.93078C10.1917 5.7711 10.1059 6.6421 9.77808 7.43366C9.4502 8.22521 8.89497 8.90176 8.18259 9.37776C7.47021 9.85376 6.63267 10.1078 5.7759 10.1078C4.627 10.1078 3.52516 9.65143 2.71277 8.83903C1.90037 8.02664 1.44398 6.9248 1.44398 5.7759Z" fill="#232323"/>
</svg>
