<svg width="15" height="15" viewBox="0 0 15 15" fill="none" xmlns="http://www.w3.org/2000/svg">
<path fill-rule="evenodd" clip-rule="evenodd" d="M14.7299 12.9958C14.2669 14.4027 12.453 15.1044 11.157 14.9874C9.38704 14.8274 7.4611 13.8886 5.99913 12.8547C3.85019 11.3347 1.83725 8.98355 0.664279 6.48862C-0.164698 4.72567 -0.350695 2.55813 0.882272 0.951174C1.33826 0.35719 1.83225 0.0399563 2.57223 0.00295725C3.6002 -0.0470414 3.7442 0.541044 4.09719 1.45702C4.36018 2.142 4.71117 2.84073 4.90717 3.55071C5.27416 4.87568 3.99119 4.93105 3.82919 6.01403C3.72919 6.69701 4.55617 7.61292 4.93016 8.09991C5.65103 9.04835 6.53393 9.86169 7.53809 10.5027C8.10808 10.8617 9.02605 11.5086 9.67804 11.1516C10.682 10.6016 10.588 8.90872 11.991 9.48171C12.718 9.7777 13.4219 10.2049 14.1159 10.5788C15.1889 11.1558 15.1389 11.7538 14.7299 12.9958C15.0359 12.0678 14.4239 13.9237 14.7299 12.9958Z" fill="#232323" fill-opacity="0.66"/>
</svg>
