<svg width="9" height="8" viewBox="0 0 9 8" fill="none" xmlns="http://www.w3.org/2000/svg">
<path d="M4.64405 0.723411L4.50427 0.8605L4.3645 0.723023C3.8817 0.25681 3.23127 -0.00303106 2.55469 2.66843e-05C1.87811 0.00308443 1.23012 0.268794 0.751704 0.739351C0.273285 1.20991 0.00313596 1.84724 2.71301e-05 2.5127C-0.0030817 3.17816 0.261101 3.81791 0.735104 4.29277L0.874878 4.43025L4.50427 8L8.13367 4.43025L8.27344 4.29277C8.74368 3.81717 9.00466 3.17862 8.99994 2.51522C8.99521 1.85183 8.72516 1.21693 8.2482 0.747858C7.77123 0.278783 7.1257 0.0132392 6.45122 0.0086643C5.77674 0.0040894 5.12755 0.260851 4.64405 0.723411Z" fill="#B40F0F"/>
</svg>
