<svg width="20" height="20" viewBox="0 0 20 20" fill="none" xmlns="http://www.w3.org/2000/svg">
<path d="M11.6667 0V4.16332C11.6667 5.46281 12.6581 6.53073 13.9259 6.65187L14.1667 6.66332H18.3333V8.4703C19.2296 8.7871 19.8913 9.60052 19.9878 10.5799L20 10.828V17.5C20 18.7996 19.0085 19.8674 17.7408 19.9886L17.5 20H2.5C1.2005 20 0.132585 19.0086 0.0114441 17.7408L0 17.5V10.828C0 9.82327 0.592757 8.95693 1.44767 8.55965L1.66667 8.4703V2.5C1.66667 1.20052 2.65814 0.132587 3.9259 0.0114441L4.16667 0H11.6667ZM17.5 9.99472H2.5C2.03977 9.99472 1.66667 10.3678 1.66667 10.828V17.5C1.66667 17.9603 2.03977 18.3333 2.5 18.3333H17.5C17.9602 18.3333 18.3333 17.9603 18.3333 17.5V10.828C18.3333 10.3678 17.9602 9.99472 17.5 9.99472ZM5.55493 11.6684C6.62893 11.6684 7.4996 12.5391 7.4996 13.6131C7.4996 14.6155 6.74115 15.4407 5.76683 15.5462L5.55493 15.5577H4.9996V15.8351C4.9996 16.2953 4.6265 16.6685 4.16627 16.6685C3.75716 16.6685 3.41692 16.3736 3.34636 15.9849L3.33293 15.8351V12.5017C3.33293 12.0926 3.62772 11.7524 4.01647 11.6818L4.16627 11.6684H5.55493ZM9.99957 11.6684C11.3803 11.6684 12.4996 12.7877 12.4996 14.1685C12.4996 15.4679 11.5081 16.5359 10.2403 16.657L9.99957 16.6685H9.16382C8.75472 16.6685 8.41447 16.3736 8.34391 15.9849L8.33048 15.8351V12.5017C8.33048 12.0926 8.62528 11.7524 9.01402 11.6818L9.16382 11.6684H9.99957ZM15.8313 11.6684C16.2915 11.6684 16.6647 12.0415 16.6647 12.5017C16.6647 12.962 16.2915 13.3351 15.8313 13.3351H14.9997L14.999 13.8925H15.8313C16.2915 13.8925 16.6647 14.2656 16.6647 14.7258C16.6647 15.1861 16.2915 15.5591 15.8313 15.5591H15L15.0008 15.833C15.002 16.2931 14.6298 16.6673 14.1695 16.6683C13.7093 16.6695 13.3353 16.2975 13.3342 15.8371L13.3313 14.7248L13.3342 12.5007C13.3347 12.0409 13.7077 11.6684 14.1675 11.6684H15.8313ZM9.99957 13.3351L9.99715 15.0018C10.4598 15.0018 10.8329 14.6286 10.8329 14.1685C10.8329 13.7081 10.4598 13.3351 9.99957 13.3351ZM5.55493 13.3351H4.9996V13.891H5.55493C5.70847 13.891 5.83293 13.7666 5.83293 13.6131C5.83293 13.4902 5.75327 13.3861 5.6428 13.3493L5.55493 13.3351ZM13.3333 0.492516L17.8427 4.99665H14.1667C13.7065 4.99665 13.3333 4.62355 13.3333 4.16332V0.492516Z" fill="#232323" fill-opacity="0.69"/>
</svg>
