<svg width="27" height="27" viewBox="0 0 27 27" fill="none" xmlns="http://www.w3.org/2000/svg">
<path d="M13.5 27C10.83 27 8.21987 26.2082 5.99981 24.7248C3.77974 23.2414 2.04941 21.133 1.02763 18.6662C0.00584936 16.1994 -0.261496 13.485 0.259405 10.8663C0.780305 8.24754 2.06605 5.84207 3.95406 3.95406C5.84207 2.06605 8.24754 0.780305 10.8663 0.259405C13.485 -0.261496 16.1994 0.00584936 18.6662 1.02763C21.133 2.04941 23.2414 3.77974 24.7248 5.99981C26.2082 8.21987 27 10.83 27 13.5C27 17.0804 25.5777 20.5142 23.0459 23.0459C20.5142 25.5777 17.0804 27 13.5 27ZM13.5 2.25001C11.275 2.25001 9.09989 2.90981 7.24984 4.14597C5.39979 5.38214 3.95785 7.13915 3.10636 9.19482C2.25487 11.2505 2.03209 13.5125 2.46617 15.6948C2.90025 17.8771 3.97171 19.8816 5.54505 21.455C7.11839 23.0283 9.12295 24.0998 11.3052 24.5338C13.4875 24.9679 15.7495 24.7451 17.8052 23.8936C19.8609 23.0422 21.6179 21.6002 22.854 19.7502C24.0902 17.9001 24.75 15.725 24.75 13.5C24.75 10.5163 23.5647 7.65484 21.455 5.54505C19.3452 3.43527 16.4837 2.25001 13.5 2.25001Z" fill="#232323" fill-opacity="0.5"/>
<path d="M19.125 19.6875C18.8462 19.6868 18.5776 19.5825 18.3712 19.395L12.7462 14.3325C12.6297 14.2273 12.5365 14.0989 12.4725 13.9555C12.4086 13.8122 12.3754 13.657 12.375 13.5V7.875C12.375 7.57663 12.4935 7.29048 12.7045 7.07951C12.9155 6.86853 13.2016 6.75 13.5 6.75C13.7984 6.75 14.0845 6.86853 14.2955 7.07951C14.5065 7.29048 14.625 7.57663 14.625 7.875V12.9937L19.8787 17.7187C20.0508 17.8704 20.1723 18.0711 20.2271 18.2938C20.2819 18.5165 20.2673 18.7506 20.1853 18.9648C20.1033 19.179 19.9578 19.363 19.7683 19.4921C19.5788 19.6213 19.3543 19.6895 19.125 19.6875Z" fill="#232323" fill-opacity="0.5"/>
</svg>
