<svg width="10" height="10" viewBox="0 0 10 10" fill="none" xmlns="http://www.w3.org/2000/svg">
<path d="M6.85671 5.35466C7.34932 4.96921 7.70889 4.44065 7.88538 3.8425C8.06187 3.24436 8.04651 2.60638 7.84144 2.01732C7.63637 1.42826 7.25178 0.917415 6.74117 0.555855C6.23057 0.194295 5.61935 0 4.99255 0C4.36574 0 3.75452 0.194295 3.24392 0.555855C2.73332 0.917415 2.34873 1.42826 2.14366 2.01732C1.93858 2.60638 1.92322 3.24436 2.09971 3.8425C2.27621 4.44065 2.63577 4.96921 3.12839 5.35466C2.28428 5.69099 1.54776 6.24882 0.997363 6.96869C0.446961 7.68856 0.103305 8.54347 0.00303081 9.4423C-0.00422756 9.50793 0.00158196 9.57433 0.0201275 9.63772C0.0386731 9.70111 0.0695915 9.76025 0.111118 9.81175C0.194983 9.91578 0.316965 9.9824 0.450228 9.99698C0.583491 10.0116 0.717119 9.9729 0.821716 9.88949C0.926313 9.80608 0.99331 9.68477 1.00797 9.55224C1.1183 8.5754 1.58666 7.67323 2.32354 7.0181C3.06043 6.36297 4.01419 6.0008 5.0026 6.0008C5.991 6.0008 6.94476 6.36297 7.68165 7.0181C8.41854 7.67323 8.88689 8.5754 8.99722 9.55224C9.01089 9.67503 9.0698 9.78843 9.16259 9.87056C9.25538 9.9527 9.37548 9.99773 9.49969 9.99698H9.55497C9.68668 9.98191 9.80707 9.91568 9.88989 9.81271C9.97272 9.70975 10.0113 9.57841 9.99714 9.4473C9.89639 8.54592 9.55088 7.68881 8.99765 6.96783C8.44442 6.24686 7.70433 5.68921 6.85671 5.35466ZM4.99255 4.99987C4.59503 4.99987 4.20644 4.88263 3.87592 4.663C3.5454 4.44336 3.28779 4.13119 3.13566 3.76594C2.98354 3.4007 2.94374 2.9988 3.02129 2.61106C3.09884 2.22332 3.29026 1.86716 3.57135 1.58762C3.85244 1.30807 4.21056 1.1177 4.60044 1.04058C4.99032 0.963451 5.39444 1.00304 5.76169 1.15432C6.12895 1.30561 6.44285 1.56181 6.6637 1.89052C6.88455 2.21923 7.00242 2.60568 7.00242 3.00102C7.00242 3.53115 6.79067 4.03956 6.41374 4.41442C6.03682 4.78927 5.5256 4.99987 4.99255 4.99987Z" fill="white"/>
</svg>
