<svg width="21" height="14" viewBox="0 0 21 14" fill="none" xmlns="http://www.w3.org/2000/svg">
<path d="M10.5 0C5.72727 0 1.65136 2.90267 0 7C1.65136 11.0973 5.72727 14 10.5 14C15.2775 14 19.3486 11.0973 21 7C19.3486 2.90267 15.2775 0 10.5 0ZM10.5 11.6667C7.86545 11.6667 5.72727 9.576 5.72727 7C5.72727 4.424 7.86545 2.33333 10.5 2.33333C13.1345 2.33333 15.2727 4.424 15.2727 7C15.2727 9.576 13.1345 11.6667 10.5 11.6667ZM10.5 4.2C8.92023 4.2 7.63636 5.45533 7.63636 7C7.63636 8.54467 8.92023 9.8 10.5 9.8C12.0798 9.8 13.3636 8.54467 13.3636 7C13.3636 5.45533 12.0798 4.2 10.5 4.2Z" fill="#ACA9A9"/>
</svg>
