<svg width="10" height="140" viewBox="0 0 10 140" fill="none" xmlns="http://www.w3.org/2000/svg">
<path d="M8.5 6.5C9.32843 6.5 10 7.17157 10 8V8.5C10 10.4714 8.14049 12.5 5 12.5C1.85951 12.5 0 10.4714 0 8.5V8C0 7.17157 0.671573 6.5 1.5 6.5H8.5ZM5 0C6.51878 0 7.75 1.23122 7.75 2.75C7.75 4.26878 6.51878 5.5 5 5.5C3.48122 5.5 2.25 4.26878 2.25 2.75C2.25 1.23122 3.48122 0 5 0Z" fill="#232323"/>
<path d="M8.5 70.5C9.32843 70.5 10 71.1716 10 72V72.5C10 74.4714 8.14049 76.5 5 76.5C1.85951 76.5 0 74.4714 0 72.5V72C0 71.1716 0.671573 70.5 1.5 70.5H8.5ZM5 64C6.51878 64 7.75 65.2312 7.75 66.75C7.75 68.2688 6.51878 69.5 5 69.5C3.48122 69.5 2.25 68.2688 2.25 66.75C2.25 65.2312 3.48122 64 5 64Z" fill="#232323"/>
<path d="M8.5 133.5C9.32843 133.5 10 134.172 10 135V135.5C10 137.471 8.14049 139.5 5 139.5C1.85951 139.5 0 137.471 0 135.5V135C0 134.172 0.671573 133.5 1.5 133.5H8.5ZM5 127C6.51878 127 7.75 128.231 7.75 129.75C7.75 131.269 6.51878 132.5 5 132.5C3.48122 132.5 2.25 131.269 2.25 129.75C2.25 128.231 3.48122 127 5 127Z" fill="#232323"/>
</svg>
