<svg width="27" height="27" viewBox="0 0 27 27" fill="none" xmlns="http://www.w3.org/2000/svg">
<path d="M14.1218 1.03589V4.04584H17.129L14.1218 1.03589Z" fill="#126695"/>
<path d="M8.56453 7.82828C10.0819 7.82828 11.3141 6.59609 11.3141 5.07869C11.3141 3.56408 10.0819 2.3291 8.56453 2.3291C7.04989 2.3291 5.81494 3.56408 5.81494 5.07869C5.81491 6.59609 7.04989 7.82828 8.56453 7.82828ZM8.5655 5.35283C8.0336 5.35283 7.60083 4.92016 7.60083 4.38826C7.60083 3.95326 7.89221 3.58884 8.28861 3.46897V2.96443H8.84241V3.46897C9.23879 3.58887 9.53006 3.95326 9.53006 4.38826H8.97626C8.97626 4.16166 8.79197 3.9774 8.5655 3.9774C8.33889 3.9774 8.15463 4.16169 8.15463 4.38826C8.15463 4.61473 8.33892 4.79902 8.5655 4.79902C9.0974 4.79902 9.53006 5.23179 9.53006 5.76369C9.53006 6.1987 9.23879 6.56303 8.84241 6.68288V7.19511H8.28861V6.68288C7.89218 6.563 7.60083 6.1987 7.60083 5.76369H8.15463C8.15463 5.99016 8.33892 6.17445 8.5655 6.17445C8.79197 6.17445 8.97626 5.99016 8.97626 5.76369C8.97626 5.53709 8.79197 5.35283 8.5655 5.35283Z" fill="#126695"/>
<path d="M17.5223 12.206L14.8723 10.8769C14.7034 10.7911 14.5511 10.6858 14.4155 10.5696H11.065V10.0157H13.9475C13.582 9.40103 13.5211 8.62572 13.8506 7.92515C14.3905 6.78432 15.7917 6.28313 16.9491 6.91171L17.5222 7.22461V4.5996H13.5681V0.645508H3.84619V18.871H17.5222V12.206H17.5223ZM8.56461 1.77524C10.3866 1.77524 11.868 3.25941 11.868 5.07863C11.868 6.90064 10.3866 8.38203 8.56461 8.38203C6.74263 8.38203 5.26118 6.90066 5.26118 5.07866C5.26118 3.25944 6.7426 1.77524 8.56461 1.77524ZM7.71218 12.6423H5.53893V12.0885H7.71218V12.6423ZM11.2426 14.253V14.8068H5.5389V14.253H11.2426ZM5.5389 10.5691V10.0153H9.78297V10.5691H5.5389ZM8.01775 16.9714H5.5389V16.4176H8.01775V16.9714ZM15.0536 16.9714H9.00217V16.4176H15.0536V16.9714ZM15.0536 14.8068H12.5726V14.253H15.0536V14.8068ZM15.0536 12.6423H9.00217V12.0885H15.0536V12.6423Z" fill="#126695"/>
<path d="M22.0855 10.1321C22.0495 10.1139 21.3153 9.74211 16.6832 7.39636C15.8055 6.92011 14.7532 7.30776 14.3517 8.16063C13.9669 8.98024 14.313 9.97431 15.1215 10.3813L18.0761 11.8655V19.4249H10.9265L15.5369 23.7168L22.0855 16.8995V10.1321ZM22.0855 10.1321C22.0875 10.1331 22.0871 10.1329 22.0855 10.1321V10.1321Z" fill="#126695"/>
<path d="M22.0094 10.0937C21.9945 10.0862 21.9976 10.0877 22.0094 10.0937V10.0937ZM22.0343 10.1063C22.0246 10.1014 22.0161 10.097 22.0094 10.0937C22.0149 10.0965 22.0231 10.1006 22.0343 10.1063ZM22.0343 10.1063C22.0559 10.1172 22.0799 10.1294 22.0856 10.1322C22.0631 10.1209 22.0473 10.1129 22.0343 10.1063Z" fill="#126695"/>
<path d="M22.9773 17.7053L16.3204 24.3647L18.5884 26.6296L25.245 19.973L22.9773 17.7053Z" fill="#126695"/>
<path d="M11.3558 22.3675L13.4128 24.3035L13.7878 23.905L11.7308 21.969L11.3558 22.3675Z" fill="#126695"/>
<path d="M10.1097 21.1925L10.8782 21.916L11.2532 21.5176L10.4848 20.7941L10.1097 21.1925Z" fill="#126695"/>
<path d="M24.0937 12.7175H23.5465V15.9187H24.0937V12.7175Z" fill="#126695"/>
<path d="M24.0937 10.571H23.5465V11.8031H24.0937V10.571Z" fill="#126695"/>
<path d="M2.02666 6.13306H1.47949V16.6945H2.02666V6.13306Z" fill="#126695"/>
<path d="M2.02666 2.9646H1.47949V4.52757H2.02666V2.9646Z" fill="#126695"/>
<path d="M16.6984 1.47499L18.1401 2.99805L18.5375 2.6219L17.0958 1.09885L16.6984 1.47499Z" fill="#126695"/>
<path d="M16.7278 0.710204L16.2261 0.180176L15.8287 0.556319L16.3304 1.08635L16.7278 0.710204Z" fill="#126695"/>
<path d="M20.9221 25.7195L21.309 26.1064L23.5833 23.8322L23.1964 23.4453L20.9221 25.7195Z" fill="#126695"/>
<path d="M24.509 22.1336L23.8149 22.8274L24.2018 23.2143L24.8958 22.5205L24.509 22.1336Z" fill="#126695"/>
</svg>
