<svg width="128" height="156" viewBox="0 0 128 156" fill="none" xmlns="http://www.w3.org/2000/svg">
<path d="M110.42 137.242C114.039 136.012 117.502 134.365 120.737 132.336C120.96 132.195 124.185 130.118 126.033 126.885C126.419 126.209 126.813 125.363 126.581 124.432C126.432 123.907 126.14 123.434 125.737 123.065C125.334 122.696 124.836 122.446 124.298 122.342C123.523 122.214 122.84 122.502 121.924 122.887C120.818 123.353 120.531 123.761 119.824 123.705C119.329 123.665 118.674 123.402 118.455 122.887C118.026 121.882 119.525 120.536 119.642 120.434C120.596 119.595 121.094 119.888 122.746 119.071C123.879 118.499 124.899 117.73 125.759 116.8C126.687 115.868 127.213 115.324 127.128 114.619C127.053 114.252 126.877 113.913 126.619 113.64C126.361 113.367 126.031 113.171 125.668 113.075C124.708 112.82 124.274 113.583 123.202 113.347C122.572 113.209 121.841 112.752 121.742 112.166C121.642 111.58 122.213 111.085 123.111 110.258C126.337 107.287 126.818 106.439 127.037 105.988C127.345 105.355 127.848 104.323 127.494 103.171C127.356 102.711 127.111 102.289 126.777 101.941C126.444 101.594 126.032 101.33 125.576 101.172C123.64 100.62 121.018 102.744 120.007 104.898C119.162 106.696 118.637 108.077 118.637 108.077C118.41 108.729 118.035 109.319 117.542 109.804C117.289 110.046 116.714 110.595 116.264 110.44C115.973 110.34 115.926 110.013 115.624 109.259C115.174 108.132 114.949 107.569 114.529 107.351C113.892 107.02 112.902 107.451 112.338 107.987C111.449 108.83 111.436 110.099 111.425 111.257C111.414 112.316 111.594 112.32 111.79 114.256C111.902 115.342 111.932 116.436 111.881 117.527C111.778 119.656 111.431 119.958 111.242 120.071C110.781 120.346 110.193 120.135 109.507 119.889C108.555 119.525 107.707 118.932 107.042 118.163C106.102 117.125 106.25 116.729 105.673 116.345C105.172 116.044 104.575 115.941 104.002 116.057C103.304 116.161 102.639 116.423 102.058 116.823C101.477 117.223 100.996 117.749 100.651 118.363C100.517 118.592 100.395 118.829 100.286 119.071C98.8841 122.174 99.9726 125.293 100.56 126.976C102.732 133.201 108.703 136.393 110.42 137.242Z" fill="#3CA05D"/>
<path d="M110.42 137.242C110.42 137.242 111.874 119.721 126.042 101.364L126.041 101.364C126.738 101.762 127.257 102.407 127.495 103.171C127.847 104.322 127.345 105.354 127.038 105.987C126.818 106.439 126.336 107.287 123.112 110.257C122.212 111.085 121.641 111.58 121.743 112.165C121.842 112.751 122.572 113.208 123.204 113.347C124.274 113.584 124.707 112.822 125.669 113.074C126.032 113.171 126.362 113.367 126.62 113.64C126.878 113.913 127.054 114.252 127.129 114.619C127.213 115.323 126.688 115.868 125.76 116.799C124.9 117.729 123.879 118.498 122.747 119.071C121.093 119.888 120.596 119.596 119.643 120.433C119.526 120.537 118.027 121.882 118.456 122.887C118.674 123.401 119.328 123.666 119.825 123.704C120.53 123.762 120.817 123.353 121.925 122.887C122.841 122.503 123.523 122.215 124.299 122.341C124.837 122.445 125.335 122.696 125.738 123.065C126.141 123.434 126.433 123.907 126.582 124.431C126.812 125.362 126.419 126.208 126.034 126.884C124.185 130.117 120.962 132.194 120.738 132.336C117.503 134.365 114.041 136.012 110.421 137.242" fill="#4FBA75"/>
<path d="M111.61 130.8C110.816 130.468 110.054 130.063 109.335 129.591C108.609 129.122 107.93 128.585 107.308 127.987C106.682 127.383 106.16 126.682 105.762 125.91C105.569 125.521 105.427 125.109 105.34 124.684C105.26 124.26 105.245 123.827 105.293 123.399C105.296 124.248 105.518 125.082 105.936 125.822C106.349 126.558 106.871 127.228 107.486 127.808C108.092 128.403 108.747 128.946 109.444 129.432C110.141 129.927 110.864 130.384 111.61 130.8ZM116.42 117.21C115.987 116.772 115.592 116.298 115.242 115.793C114.882 115.29 114.566 114.759 114.296 114.204C114.023 113.648 113.814 113.062 113.674 112.458C113.536 111.855 113.513 111.23 113.608 110.618C113.611 111.225 113.697 111.828 113.864 112.411C114.038 112.989 114.259 113.552 114.525 114.094C114.79 114.64 115.084 115.171 115.404 115.686C115.723 116.204 116.062 116.712 116.42 117.21Z" fill="#4FBA75"/>
<path d="M111.601 130.704C112.447 130.835 113.299 130.92 114.154 130.959C115.004 131.005 115.856 130.98 116.702 130.885C117.546 130.806 118.372 130.6 119.154 130.275C119.942 129.95 120.633 129.43 121.163 128.764C120.935 129.131 120.654 129.462 120.329 129.746C119.996 130.027 119.629 130.264 119.235 130.451C118.444 130.814 117.598 131.045 116.731 131.135C115.87 131.223 115.003 131.228 114.141 131.151C113.282 131.08 112.432 130.93 111.601 130.704ZM116.251 117.059C116.842 116.887 117.424 116.695 117.996 116.485C118.568 116.276 119.128 116.039 119.675 115.773C120.221 115.51 120.744 115.203 121.24 114.855C121.733 114.499 122.175 114.077 122.553 113.602C122.248 114.142 121.843 114.619 121.359 115.008C120.875 115.397 120.347 115.73 119.787 115.999C119.23 116.27 118.652 116.494 118.058 116.668C117.468 116.85 116.864 116.981 116.251 117.059Z" fill="#C0E2CC"/>
<path d="M110.564 136.063C110.743 134.581 111.03 133.113 111.344 131.653C111.682 130.198 112.052 128.749 112.484 127.318C112.699 126.602 112.905 125.883 113.156 125.179C113.404 124.474 113.621 123.757 113.894 123.061L114.687 120.963L115.551 118.892C116.741 116.148 118.091 113.474 119.592 110.885C120.316 109.575 121.146 108.328 121.946 107.066C122.339 106.429 122.793 105.833 123.222 105.221L124.524 103.395C122.842 105.866 121.2 108.364 119.762 110.98C118.29 113.577 116.962 116.251 115.784 118.992C114.589 121.726 113.55 124.524 112.67 127.374C112.216 128.794 111.827 130.234 111.464 131.681C111.111 133.129 110.784 134.587 110.564 136.063Z" fill="#C0E2CC"/>
<path d="M103.577 155.335H120.421L124.935 137.331H99.063L103.577 155.335Z" fill="#601F24"/>
<path d="M98.546 137.442H125.452C126.298 137.442 126.984 136.759 126.984 135.917C126.984 135.074 126.298 134.392 125.452 134.392H98.546C97.6996 134.392 97.0134 135.074 97.0134 135.917C97.0134 136.759 97.6996 137.442 98.546 137.442Z" fill="#7A3C43"/>
<path d="M55.2074 119.089L66.2364 143.882L59.9069 146.65L48.7817 127.943L55.2074 119.089Z" fill="#104F54"/>
<path d="M55.2073 119.089L48.7815 127.944L51.1671 131.955C54.1182 126.738 54.7868 121.567 55.4509 119.636L55.2073 119.089Z" fill="#0A3E3F"/>
<path d="M41.4715 97.3305C41.4715 97.3305 50.3801 107.201 51.8507 106.724C51.8507 106.724 52.3089 108.378 64.1587 99.6828C64.1587 99.6828 65.5014 101.618 67.2916 100.441L70.6803 98.4368C70.6803 98.4368 72.5345 101.141 73.2698 100.552C73.2698 100.552 73.4936 98.7708 69.3856 94.6828C69.3856 94.6828 69.3057 94.0942 63.6792 96.5757C60.1516 98.0928 56.3887 98.9966 52.554 99.248C52.554 99.248 49.712 97.0529 47.4406 92.5036L41.4715 97.3305Z" fill="#F6B98A"/>
<path d="M36.3457 112.514C36.3457 112.514 58.0632 108.845 55.7614 118.389C55.7614 118.389 53.8646 127.562 39.7664 146.65L34.2038 144.073C34.2038 144.073 42.2919 127.594 42.8034 122.949L36.7293 123.076L36.3457 112.514Z" fill="#104F54"/>
<path d="M9.65881 107.609L3.53474 107.201C3.21442 107.179 2.91113 107.05 2.67471 106.834C2.4383 106.617 2.28282 106.328 2.23384 106.012L0.0175588 91.9376C-0.0401685 91.5755 0.0456713 91.2052 0.256977 90.9049C0.468282 90.6045 0.788539 90.3975 1.15022 90.3276L7.30851 89.1552C7.4969 89.1197 7.69058 89.1228 7.87775 89.1642C8.06492 89.2057 8.24165 89.2846 8.39719 89.3961C8.55273 89.5077 8.68382 89.6496 8.78247 89.8132C8.88112 89.9769 8.94527 90.1587 8.97101 90.3478L11.1531 106.002C11.1826 106.21 11.1654 106.421 11.1025 106.621C11.0397 106.821 10.9328 107.005 10.7897 107.159C10.6467 107.313 10.4709 107.433 10.2753 107.511C10.0797 107.589 9.86908 107.622 9.65881 107.609Z" fill="#4FBA75"/>
<path d="M7.92552 155.287H5.95927L16.6955 128.23H20.5532L7.92552 155.287Z" fill="#874106"/>
<path d="M33.5171 155.315L21.0433 128.23H24.901L35.6636 155.315H33.5171Z" fill="#874106"/>
<path d="M112.463 108.76H61.9208V112.514H112.463V108.76Z" fill="#874106"/>
<path d="M106.326 155.335H104.134L99.5163 112.514H106.326V155.335Z" fill="#874106"/>
<path d="M34.2038 144.073C34.2038 144.073 29.5374 153.178 30.262 153.984L37.4377 154.111L38.2851 151.687L35.1735 150.796L37.593 145.643L34.2038 144.073ZM60.4761 146.401C60.4761 146.401 63.2577 152.923 63.4282 153.941H69.5886L68.9326 150.584C68.9326 150.584 66.8556 151.169 64.0152 144.853L60.4761 146.401Z" fill="#F6B98A"/>
<path d="M42.6277 152.122C41.3681 151.625 39.7875 150.48 39.1534 150.001C39.0634 149.933 38.9594 149.885 38.8489 149.861C38.7384 149.838 38.6241 149.838 38.5138 149.863L38.3352 149.903C38.2155 149.929 38.1038 149.984 38.0092 150.061C37.9147 150.139 37.84 150.238 37.7912 150.35C36.5659 153.188 35.9158 153.682 35.8053 153.749H29.2168C29.0168 153.75 28.8252 153.829 28.684 153.97C28.5428 154.111 28.4634 154.301 28.4634 154.5C28.4634 154.699 28.5428 154.89 28.684 155.031C28.8252 155.172 29.0168 155.251 29.2168 155.252L44.9614 155.207C46.4959 154.698 44.2421 152.758 42.6277 152.122ZM75.5733 152.122C74.3156 151.626 72.7378 150.483 72.1019 150.003C72.0109 149.934 71.906 149.886 71.7944 149.862C71.6828 149.838 71.5672 149.839 71.4559 149.864L71.2847 149.902C71.1638 149.929 71.051 149.984 70.9554 150.062C70.8599 150.141 70.7844 150.24 70.7352 150.354C69.5109 153.189 68.8615 153.682 68.7509 153.749H62.1624C61.9624 153.75 61.7708 153.829 61.6296 153.97C61.4883 154.111 61.409 154.301 61.409 154.5C61.409 154.699 61.4883 154.89 61.6296 155.031C61.7708 155.172 61.9624 155.251 62.1624 155.252H68.9078C68.9918 155.251 69.0749 155.236 69.1539 155.207H77.9071C79.4416 154.698 77.1878 152.758 75.5733 152.122Z" fill="#D4FCDF"/>
<path d="M40.5017 68.1346L34.4428 72.7125L36.058 82.0052L39.2869 77.265C39.3952 76.3735 39.7216 75.5221 40.2375 74.7853C40.7533 74.0486 41.443 73.449 42.2459 73.0391L42.3001 73.0114L40.5017 68.1346Z" fill="#F6B98A"/>
<path d="M40.5017 68.1346C40.5017 68.1346 42.196 67.0212 42.1002 66.9894C42.0118 66.9601 39.3196 65.5272 42.0434 63.4863C42.3314 63.257 42.675 63.107 43.0396 63.0514C43.4043 62.9958 43.7772 63.0365 44.121 63.1694C44.8066 63.4623 45.2954 64.1421 44.0822 65.7168L48.0464 62.5037L57.669 67.1166C57.669 67.1166 55.288 69.576 54.4181 71.6991C54.3676 71.8256 54.3289 71.9564 54.3026 72.0899L54.0191 73.46C53.9865 73.6239 53.9152 73.7778 53.8109 73.9087C53.7067 74.0397 53.5725 74.144 53.4197 74.2131C53.2668 74.2821 53.0995 74.3139 52.9318 74.3057C52.7642 74.2976 52.6008 74.2497 52.4554 74.1662C52.3416 74.0969 52.2353 74.0159 52.1384 73.9247L51.7958 74.4803C51.7272 74.5916 51.6173 74.6716 51.49 74.7031C51.3626 74.7345 51.2279 74.7149 51.1149 74.6485L49.4334 73.6597L48.4687 75.252C48.4337 75.3097 48.386 75.3588 48.3291 75.3954C48.2723 75.4321 48.2078 75.4554 48.1406 75.4635C48.0733 75.4717 48.0051 75.4645 47.9411 75.4426C47.877 75.4206 47.8189 75.3844 47.771 75.3367L47.5029 75.07C47.5029 75.07 45.2494 76.4885 42.3001 73.0115L40.5017 68.1346Z" fill="#F6B98A"/>
<path d="M55.9537 68.9842C55.3623 67.5022 53.6382 67.3088 53.6209 67.3067L53.6604 66.9263C53.7408 66.9343 55.6346 67.1477 56.3113 68.8431L55.9537 68.9842Z" fill="#020202"/>
<path d="M54.2201 69.7253C54.4938 69.2537 54.5421 68.7717 54.3281 68.6487C54.1141 68.5258 53.7188 68.8084 53.4452 69.28C53.1716 69.7517 53.1232 70.2337 53.3372 70.3566C53.5512 70.4796 53.9465 70.1969 54.2201 69.7253Z" fill="#020202"/>
<path d="M38.6911 69.5026C38.6911 69.5026 29.3765 59.1951 43.6346 49.2058C43.6346 49.2058 54.1204 44.052 59.4912 54.3595C59.4912 54.3595 67.867 55.3775 64.6062 63.0763C61.3454 70.7751 48.4939 66.5122 48.0463 62.5037C48.0463 62.5037 47.9184 64.667 44.0822 65.7168L42.1001 66.9894L38.6911 69.5026Z" fill="#874106"/>
<path d="M44.1211 63.1694C43.7977 63.0369 43.4455 62.9899 43.0985 63.0329C42.7515 63.0759 42.4216 63.2075 42.1407 63.4148C39.2566 65.4937 42.0108 66.9597 42.1002 66.9894L44.0823 65.7168C45.2954 64.142 44.8067 63.4623 44.1211 63.1694Z" fill="#F6B98A"/>
<path d="M34.6195 72.4931C34.6195 72.4931 33.7883 77.265 39.287 77.265L48.1743 91.4537C48.1743 91.4537 45.5528 95.9076 40.4378 97.7528L38.3918 94.8896C38.3918 94.8896 32.1259 102.716 36.3458 112.514L14.5431 111.146C14.5431 111.146 11.7298 91.581 34.6195 72.4931Z" fill="#ED860A"/>
<path d="M38.1077 128.23H3.38245C3.05272 128.23 2.7365 128.1 2.50335 127.868C2.2702 127.635 2.13922 127.321 2.13922 126.993V104.533C2.13922 104.351 2.17973 104.171 2.25786 104.006C2.33599 103.841 2.4498 103.695 2.59115 103.579C2.7325 103.463 2.89789 103.379 3.07548 103.334C3.25307 103.289 3.43847 103.284 3.6184 103.318L38.3436 109.998C38.6272 110.053 38.8828 110.204 39.0666 110.425C39.2504 110.647 39.3509 110.925 39.3509 111.213V126.993C39.3509 127.155 39.3188 127.316 39.2563 127.466C39.1938 127.616 39.1022 127.753 38.9868 127.867C38.8714 127.982 38.7343 128.074 38.5835 128.136C38.4326 128.198 38.271 128.23 38.1077 128.23Z" fill="#4FBA75"/>
<path d="M70.428 155.335H68.0591V112.514H74.8683L70.428 155.335Z" fill="#874106"/>
<path d="M127.615 155.718H1.61085C1.50881 155.718 1.41095 155.677 1.3388 155.606C1.26665 155.534 1.22611 155.436 1.22611 155.335C1.22611 155.233 1.26665 155.136 1.3388 155.064C1.41095 154.992 1.50881 154.952 1.61085 154.952H127.615C127.717 154.952 127.815 154.992 127.887 155.064C127.959 155.136 128 155.233 128 155.335C128 155.436 127.959 155.534 127.887 155.606C127.815 155.677 127.717 155.718 127.615 155.718Z" fill="#139DA0"/>
<path d="M97.3682 40.0073C97.2661 40.0073 97.1683 39.9669 97.0962 39.8951C97.024 39.8233 96.9835 39.726 96.9834 39.6245V0.382867C96.9834 0.281324 97.024 0.183941 97.0961 0.112139C97.1683 0.0403378 97.2661 0 97.3682 0C97.4702 0 97.5681 0.0403378 97.6402 0.112139C97.7124 0.183941 97.7529 0.281324 97.7529 0.382867V39.6245C97.7528 39.726 97.7123 39.8233 97.6401 39.8951C97.568 39.9669 97.4702 40.0073 97.3682 40.0073Z" fill="#161616"/>
<path d="M97.368 60.3298C99.687 60.3298 101.567 58.459 101.567 56.1512C101.567 53.8434 99.687 51.9726 97.368 51.9726C95.0489 51.9726 93.169 53.8434 93.169 56.1512C93.169 58.459 95.0489 60.3298 97.368 60.3298Z" fill="#ED860A"/>
<path d="M97.5138 39.339H97.5139C99.4161 39.339 101.3 39.7118 103.057 40.4362C104.814 41.1606 106.411 42.2224 107.756 43.5609C109.101 44.8994 110.168 46.4884 110.896 48.2372C111.624 49.986 111.999 51.8604 111.999 53.7533V56.1514H83.029V53.7533C83.029 49.9304 84.5551 46.2641 87.2715 43.5609C89.988 40.8576 93.6722 39.339 97.5138 39.339V39.339Z" fill="#139DA0"/>
<path d="M93.3047 108.997H64.6132C64.4753 108.998 64.3387 108.971 64.2113 108.919C64.0838 108.866 63.968 108.789 63.8704 108.692C63.7728 108.595 63.6954 108.48 63.6425 108.354C63.5897 108.227 63.5625 108.091 63.5625 107.954C63.5625 107.817 63.5897 107.681 63.6425 107.554C63.6954 107.427 63.7728 107.312 63.8704 107.215C63.968 107.118 64.0838 107.041 64.2113 106.989C64.3387 106.937 64.4753 106.91 64.6132 106.91H92.5712L100.327 85.771C100.423 85.5115 100.618 85.3004 100.87 85.1841C101.122 85.0678 101.41 85.0557 101.671 85.1505C101.932 85.2453 102.145 85.4393 102.262 85.6899C102.379 85.9404 102.392 86.2271 102.297 86.4869L94.2896 108.312C94.2159 108.513 94.0819 108.686 93.9057 108.809C93.7295 108.932 93.5197 108.997 93.3047 108.997Z" fill="#9F9E9F"/>
<path d="M110.42 97.9984H102.314V108.593H110.42V97.9984Z" fill="#63CECE"/>
<path d="M91.4295 106.345H64.6129V106.85H91.4295V106.345Z" fill="#6D6D6D"/>
<path d="M111.276 106.027H110.42V105.469H111.276C111.585 105.469 111.891 105.409 112.176 105.292C112.462 105.174 112.721 105.002 112.94 104.785C113.158 104.568 113.332 104.31 113.45 104.026C113.568 103.742 113.629 103.438 113.629 103.13C113.629 102.823 113.568 102.519 113.45 102.235C113.332 101.951 113.158 101.693 112.94 101.476C112.721 101.258 112.462 101.086 112.176 100.969C111.891 100.851 111.585 100.791 111.276 100.792H110.42V100.233H111.276C112.048 100.233 112.789 100.538 113.335 101.081C113.881 101.625 114.188 102.362 114.188 103.13C114.188 103.899 113.881 104.636 113.335 105.179C112.789 105.722 112.048 106.027 111.276 106.027Z" fill="#63CECE"/>
<path d="M90.0447 60.3298C88.9809 61.5689 87.8358 62.7248 86.6708 63.8604C85.4978 64.9876 84.3044 66.0941 83.029 67.1166C84.0923 65.8769 85.2374 64.7211 86.4029 63.5861C87.5765 62.4594 88.77 61.353 90.0447 60.3298ZM94.8449 62.5037C94.6998 63.8179 94.4829 65.1233 94.1949 66.414C93.9241 67.7083 93.5816 68.9869 93.1692 70.2437C93.3133 68.9293 93.5303 67.6239 93.8191 66.3334C94.0908 65.0392 94.4332 63.7608 94.8449 62.5037ZM99.6006 62.5037C100.26 63.5579 100.857 64.6494 101.389 65.7726C101.937 66.8883 102.418 68.035 102.831 69.2069C102.171 68.1531 101.574 67.0616 101.042 65.938C100.495 64.822 100.014 63.6753 99.6006 62.5037ZM103.707 60.3298C104.872 60.6498 106.017 61.0389 107.135 61.4952C108.26 61.9355 109.357 62.4432 110.42 63.0156C109.255 62.6965 108.11 62.3073 106.992 61.8502C105.867 61.4092 104.77 60.9015 103.707 60.3298Z" fill="#59C1BE"/>
</svg>
