<svg width="27" height="27" viewBox="0 0 27 27" fill="none" xmlns="http://www.w3.org/2000/svg">
<path d="M24.0487 16.1027C24.9306 14.7181 25.4648 13.0906 25.5281 11.3428C25.5323 11.2263 25.5344 11.1093 25.5344 10.9917C25.5344 5.73057 21.2694 1.46556 16.0083 1.46556C14.1276 1.46556 12.3742 2.01057 10.8973 2.95128C9.89534 3.00792 8.92492 3.18298 8 3.46269C8.68918 2.72997 9.47773 2.09182 10.3442 1.56982C10.3751 1.55123 10.406 1.53278 10.4371 1.51448C12.0609 0.557911 13.9519 0.00671236 15.9713 5.87021e-05L15.9829 2.93511e-05L16.0083 0C22.0789 0 27 4.92114 27 10.9917C27 11.0904 26.9988 11.1888 26.9961 11.2868L26.9952 11.3224C26.9405 13.1718 26.429 14.9065 25.5697 16.4176C25.542 16.4663 25.5139 16.5147 25.4856 16.5629C24.9536 17.466 24.2961 18.2863 23.5373 19C23.817 18.0751 23.9922 17.1047 24.0487 16.1027Z" fill="white"/>
<path fill-rule="evenodd" clip-rule="evenodd" d="M14.8405 11.7501C14.4564 10.5859 13.4202 9.75 12.2 9.75V9H10.8V9.75C9.25363 9.75 8 11.0932 8 12.75C8 14.4068 9.25363 15.75 10.8 15.75V18.75C10.1915 18.75 9.67202 18.3337 9.47945 17.7501C9.35065 17.3595 8.95074 17.1548 8.58625 17.2929C8.22169 17.4309 8.03066 17.8594 8.15953 18.2499C8.54355 19.4141 9.57976 20.25 10.8 20.25V21H12.2V20.25C13.7464 20.25 15 18.9068 15 17.25C15 15.5932 13.7464 14.25 12.2 14.25V11.25C12.8085 11.25 13.328 11.6663 13.5205 12.2499C13.6493 12.6405 14.0493 12.8452 14.4138 12.7071C14.7783 12.5691 14.9693 12.1406 14.8405 11.7501ZM10.8 11.25C10.0268 11.25 9.4 11.9216 9.4 12.75C9.4 13.5785 10.0268 14.25 10.8 14.25V11.25ZM12.2 18.75C12.9732 18.75 13.6 18.0785 13.6 17.25C13.6 16.4215 12.9732 15.75 12.2 15.75V18.75Z" fill="white"/>
<path fill-rule="evenodd" clip-rule="evenodd" d="M23 15.5C23 21.8513 17.8513 27 11.5 27C5.1487 27 0 21.8513 0 15.5C0 9.1487 5.1487 4 11.5 4C17.8513 4 23 9.1487 23 15.5ZM21.4667 15.5C21.4667 21.0044 17.0044 25.4667 11.5 25.4667C5.99556 25.4667 1.53333 21.0044 1.53333 15.5C1.53333 9.99556 5.99556 5.53333 11.5 5.53333C17.0044 5.53333 21.4667 9.99556 21.4667 15.5Z" fill="white"/>
</svg>
