<svg width="9" height="7" viewBox="0 0 9 7" fill="none" xmlns="http://www.w3.org/2000/svg">
<path d="M4.5 2.625C4.32272 2.625 4.14717 2.65895 3.98338 2.72491C3.81959 2.79087 3.67076 2.88755 3.54541 3.00942C3.42005 3.1313 3.32061 3.27599 3.25276 3.43523C3.18492 3.59447 3.15 3.76514 3.15 3.9375C3.15 4.10986 3.18492 4.28053 3.25276 4.43977C3.32061 4.59901 3.42005 4.7437 3.54541 4.86558C3.67076 4.98745 3.81959 5.08413 3.98338 5.15009C4.14717 5.21605 4.32272 5.25 4.5 5.25C4.85804 5.25 5.20142 5.11172 5.45459 4.86558C5.70777 4.61944 5.85 4.2856 5.85 3.9375C5.85 3.5894 5.70777 3.25556 5.45459 3.00942C5.20142 2.76328 4.85804 2.625 4.5 2.625ZM8.1 1.3125H7.02C6.94227 1.30905 6.86727 1.28362 6.8042 1.23932C6.74113 1.19502 6.69273 1.13378 6.66495 1.06312L6.3855 0.248938C6.35752 0.178357 6.309 0.117228 6.24587 0.0730193C6.18273 0.0288111 6.10772 0.00343796 6.03 0H2.97C2.8215 0 2.6613 0.112 2.61495 0.2485L2.33505 1.06312C2.30722 1.13375 2.25881 1.19496 2.19575 1.23925C2.13269 1.28354 2.05771 1.309 1.98 1.3125H0.9C0.405 1.3125 0 1.70625 0 2.1875V6.125C0 6.60625 0.405 7 0.9 7H8.1C8.595 7 9 6.60625 9 6.125V2.1875C9 1.70625 8.595 1.3125 8.1 1.3125ZM4.5 6.125C3.90326 6.125 3.33097 5.89453 2.90901 5.4843C2.48705 5.07406 2.25 4.51766 2.25 3.9375C2.25 3.35734 2.48705 2.80094 2.90901 2.3907C3.33097 1.98047 3.90326 1.75 4.5 1.75C5.09674 1.75 5.66903 1.98047 6.09099 2.3907C6.51295 2.80094 6.75 3.35734 6.75 3.9375C6.75 4.51766 6.51295 5.07406 6.09099 5.4843C5.66903 5.89453 5.09674 6.125 4.5 6.125ZM7.875 2.7125C7.79146 2.7125 7.71134 2.68023 7.65226 2.6228C7.59319 2.56537 7.56 2.48747 7.56 2.40625C7.56 2.32503 7.59319 2.24713 7.65226 2.1897C7.71134 2.13227 7.79146 2.1 7.875 2.1C7.95854 2.1 8.03866 2.13227 8.09774 2.1897C8.15681 2.24713 8.19 2.32503 8.19 2.40625C8.19 2.48747 8.15681 2.56537 8.09774 2.6228C8.03866 2.68023 7.95854 2.7125 7.875 2.7125Z" fill="white"/>
</svg>
