<svg width="11" height="13" viewBox="0 0 11 13" fill="none" xmlns="http://www.w3.org/2000/svg">
<path d="M9.781 11.6963H0.654624C0.481734 11.6963 0.315924 11.7649 0.193672 11.8872C0.0714205 12.0095 0.00273984 12.1753 0.00273984 12.3482C0.00273984 12.521 0.0714205 12.6869 0.193672 12.8091C0.315924 12.9314 0.481734 13 0.654624 13H9.781C9.9539 13 10.1197 12.9314 10.242 12.8091C10.3642 12.6869 10.4329 12.521 10.4329 12.3482C10.4329 12.1753 10.3642 12.0095 10.242 11.8872C10.1197 11.7649 9.9539 11.6963 9.781 11.6963ZM0.654624 10.3925H0.713294L3.43165 10.1448C3.72943 10.1151 4.00794 9.98392 4.22043 9.77321L10.0874 3.90625C10.3151 3.66568 10.4382 3.34466 10.4296 3.01352C10.4211 2.68238 10.2816 2.36813 10.0418 2.13964L8.2556 0.353478C8.02248 0.134508 7.717 0.00886533 7.39728 0.000451598C7.07756 -0.00796213 6.7659 0.10144 6.52158 0.307846L0.654624 6.17481C0.443913 6.3873 0.312714 6.66581 0.28305 6.96359L0.00273984 9.68194C-0.00604172 9.77742 0.00634758 9.87367 0.0390245 9.96381C0.0717014 10.054 0.123861 10.1358 0.191786 10.2035C0.252698 10.2639 0.324938 10.3117 0.404362 10.3441C0.483786 10.3765 0.568832 10.393 0.654624 10.3925ZM7.34948 1.26612L9.12912 3.04576L7.82535 4.31694L6.0783 2.56989L7.34948 1.26612ZM1.54771 7.07441L5.21781 3.43037L6.9779 5.19046L3.32735 8.84101L1.3717 9.02354L1.54771 7.07441Z" fill="white"/>
</svg>
