<svg width="17" height="17" viewBox="0 0 17 17" fill="none" xmlns="http://www.w3.org/2000/svg">
<path d="M8.5 10.2C8.28986 10.2 8.08444 10.2623 7.90971 10.3791C7.73498 10.4958 7.5988 10.6617 7.51838 10.8559C7.43796 11.05 7.41692 11.2637 7.45792 11.4698C7.49892 11.6759 7.60011 11.8652 7.7487 12.0138C7.89729 12.1624 8.08661 12.2636 8.29272 12.3046C8.49882 12.3456 8.71246 12.3245 8.9066 12.2441C9.10075 12.1637 9.26669 12.0275 9.38344 11.8528C9.50019 11.6781 9.5625 11.4726 9.5625 11.2625C9.5625 10.9807 9.45056 10.7105 9.2513 10.5112C9.05205 10.3119 8.78179 10.2 8.5 10.2ZM8.5 8.925C8.72544 8.925 8.94164 8.83544 9.10104 8.67604C9.26045 8.51663 9.35 8.30043 9.35 8.075V5.525C9.35 5.29956 9.26045 5.08336 9.10104 4.92396C8.94164 4.76455 8.72544 4.675 8.5 4.675C8.27457 4.675 8.05837 4.76455 7.89896 4.92396C7.73956 5.08336 7.65 5.29956 7.65 5.525V8.075C7.65 8.30043 7.73956 8.51663 7.89896 8.67604C8.05837 8.83544 8.27457 8.925 8.5 8.925ZM8.5 0C6.81886 0 5.17547 0.498516 3.77766 1.43251C2.37984 2.3665 1.29037 3.69402 0.647028 5.24719C0.00368291 6.80036 -0.164645 8.50943 0.163329 10.1583C0.491303 11.8071 1.30085 13.3217 2.4896 14.5104C3.67834 15.6992 5.1929 16.5087 6.84174 16.8367C8.49057 17.1646 10.1996 16.9963 11.7528 16.353C13.306 15.7096 14.6335 14.6202 15.5675 13.2223C16.5015 11.8245 17 10.1811 17 8.5C16.9975 6.24643 16.1012 4.08588 14.5076 2.49236C12.9141 0.898844 10.7536 0.00250629 8.5 0ZM8.5 15.3C7.15509 15.3 5.84038 14.9012 4.72213 14.154C3.60387 13.4068 2.7323 12.3448 2.21762 11.1022C1.70295 9.85971 1.56828 8.49245 1.83066 7.17338C2.09304 5.85431 2.74068 4.64267 3.69168 3.69167C4.64267 2.74068 5.85432 2.09304 7.17339 1.83066C8.49246 1.56828 9.85971 1.70294 11.1022 2.21762C12.3448 2.73229 13.4068 3.60387 14.154 4.72212C14.9012 5.84037 15.3 7.15509 15.3 8.5C15.2979 10.3028 14.5808 12.0312 13.306 13.306C12.0312 14.5808 10.3028 15.2979 8.5 15.3Z" fill="black"/>
</svg>
