<svg width="9" height="4" viewBox="0 0 9 4" fill="none" xmlns="http://www.w3.org/2000/svg">
<path d="M8.88022 2.23615C8.95692 2.17351 9 2.08857 9 2C9 1.91143 8.95692 1.82649 8.88022 1.76385L6.83475 0.0937628C6.75759 0.0329188 6.65425 -0.000748405 6.54699 1.26267e-05C6.43973 0.000773658 6.33712 0.035902 6.26127 0.0978315C6.18542 0.159761 6.1424 0.243537 6.14147 0.331115C6.14053 0.418693 6.18177 0.503067 6.25629 0.566063L7.60344 1.66598H0.409095C0.300596 1.66598 0.196541 1.70117 0.119821 1.76381C0.0431009 1.82645 0 1.91141 0 2C0 2.08859 0.0431009 2.17355 0.119821 2.23619C0.196541 2.29883 0.300596 2.33402 0.409095 2.33402H7.60344L6.25629 3.43394C6.18177 3.49693 6.14053 3.58131 6.14147 3.66888C6.1424 3.75646 6.18542 3.84024 6.26127 3.90217C6.33712 3.9641 6.43973 3.99923 6.54699 3.99999C6.65425 4.00075 6.75759 3.96708 6.83475 3.90624L8.88022 2.23615Z" fill="#232323"/>
</svg>
