<svg width="17" height="17" viewBox="0 0 17 17" fill="none" xmlns="http://www.w3.org/2000/svg">
<path d="M11.3333 17H5.66667C4.16377 17 2.72243 16.403 1.65973 15.3403C0.597022 14.2776 0 12.8362 0 11.3333V5.66667C0 4.16377 0.597022 2.72243 1.65973 1.65973C2.72243 0.597022 4.16377 0 5.66667 0H11.3333C12.8362 0 14.2776 0.597022 15.3403 1.65973C16.403 2.72243 17 4.16377 17 5.66667V11.3333C17 12.8362 16.403 14.2776 15.3403 15.3403C14.2776 16.403 12.8362 17 11.3333 17ZM5.66667 1.25926C4.49775 1.25926 3.37671 1.72361 2.55016 2.55016C1.72361 3.37671 1.25926 4.49775 1.25926 5.66667V11.3333C1.25926 12.5022 1.72361 13.6233 2.55016 14.4498C3.37671 15.2764 4.49775 15.7407 5.66667 15.7407H11.3333C12.5022 15.7407 13.6233 15.2764 14.4498 14.4498C15.2764 13.6233 15.7407 12.5022 15.7407 11.3333V5.66667C15.7407 4.49775 15.2764 3.37671 14.4498 2.55016C13.6233 1.72361 12.5022 1.25926 11.3333 1.25926H5.66667Z" fill="#232323" fill-opacity="0.5"/>
<path d="M8.49975 12.8256C8.33276 12.8256 8.17261 12.7592 8.05453 12.6411C7.93645 12.5231 7.87012 12.3629 7.87012 12.1959V4.80407C7.87012 4.63708 7.93645 4.47693 8.05453 4.35885C8.17261 4.24077 8.33276 4.17444 8.49975 4.17444C8.66674 4.17444 8.82688 4.24077 8.94496 4.35885C9.06304 4.47693 9.12938 4.63708 9.12938 4.80407V12.1959C9.12938 12.3629 9.06304 12.5231 8.94496 12.6411C8.82688 12.7592 8.66674 12.8256 8.49975 12.8256Z" fill="#232323" fill-opacity="0.5"/>
<path d="M4.97106 8.3961C4.84188 8.39623 4.71579 8.35662 4.60989 8.28265C4.50399 8.20867 4.42341 8.10392 4.37907 7.98259C4.33473 7.86126 4.32879 7.72923 4.36204 7.6044C4.39529 7.47958 4.46613 7.368 4.56495 7.28481L8.09402 4.3224C8.22177 4.21469 8.38707 4.16214 8.55356 4.17631C8.72005 4.19048 8.87409 4.27021 8.9818 4.39796C9.08951 4.5257 9.14206 4.691 9.12789 4.85749C9.11372 5.02398 9.03399 5.17803 8.90625 5.28573L5.37402 8.24814C5.26118 8.34314 5.11857 8.39551 4.97106 8.3961Z" fill="#232323" fill-opacity="0.5"/>
<path d="M12.0292 8.3961C11.8817 8.39551 11.7391 8.34314 11.6263 8.24814L8.09403 5.28573C7.96628 5.17803 7.88656 5.02398 7.87239 4.85749C7.86537 4.77505 7.87466 4.69204 7.89973 4.61319C7.92479 4.53435 7.96514 4.46121 8.01847 4.39796C8.0718 4.3347 8.13707 4.28257 8.21055 4.24454C8.28403 4.20651 8.36428 4.18333 8.44671 4.17631C8.61321 4.16214 8.77851 4.21469 8.90625 4.3224L12.4353 7.28481C12.5341 7.368 12.605 7.47958 12.6382 7.6044C12.6715 7.72923 12.6655 7.86126 12.6212 7.98259C12.5769 8.10392 12.4963 8.20867 12.3904 8.28265C12.2845 8.35662 12.1584 8.39623 12.0292 8.3961Z" fill="#232323" fill-opacity="0.5"/>
</svg>
