<svg width="10" height="7" viewBox="0 0 10 7" fill="none" xmlns="http://www.w3.org/2000/svg">
<path d="M9.75071 7C9.16213 5.51789 7.57924 4.45451 5.7142 4.45451V5.72726C5.71412 5.84244 5.67902 5.95546 5.61261 6.05429C5.5462 6.15312 5.45097 6.23407 5.33705 6.28854C5.22313 6.34292 5.09476 6.36869 4.96567 6.36308C4.83658 6.35748 4.71162 6.32071 4.60418 6.25672L0.318381 3.71123C0.220513 3.65317 0.140247 3.57448 0.0847073 3.48215C0.0291673 3.38981 7.07917e-05 3.2867 1.29015e-07 3.18194C-7.05337e-05 3.07719 0.0288868 2.97403 0.0843022 2.88164C0.139718 2.78925 0.219877 2.71048 0.317667 2.65231L4.60346 0.106822C4.71106 0.0429554 4.83608 0.00629263 4.96522 0.00074021C5.09435 -0.00481221 5.22276 0.0209539 5.33676 0.0752926C5.45075 0.129631 5.54606 0.210506 5.61253 0.309299C5.679 0.408092 5.71414 0.521101 5.7142 0.636283V1.90903C8.08068 1.90903 10 3.61896 10 5.72726C10 6.17399 9.90928 6.60163 9.75071 7Z" fill="#13B887"/>
</svg>
