<svg width="16" height="8" viewBox="0 0 16 8" fill="none" xmlns="http://www.w3.org/2000/svg">
<path d="M15.7871 4.4723C15.9234 4.34702 16 4.17714 16 4C16 3.82286 15.9234 3.65297 15.7871 3.5277L12.1507 0.187526C12.0135 0.0658376 11.8298 -0.00149681 11.6391 2.52534e-05C11.4484 0.00154732 11.266 0.071804 11.1311 0.195663C10.9963 0.319522 10.9198 0.487073 10.9182 0.66223C10.9165 0.837387 10.9898 1.00613 11.1223 1.13213L13.5172 3.33196H0.72728C0.534393 3.33196 0.349407 3.40235 0.213015 3.52763C0.0766239 3.65291 0 3.82283 0 4C0 4.17717 0.0766239 4.34709 0.213015 4.47237C0.349407 4.59765 0.534393 4.66803 0.72728 4.66803H13.5172L11.1223 6.86787C10.9898 6.99387 10.9165 7.16261 10.9182 7.33777C10.9198 7.51293 10.9963 7.68048 11.1311 7.80434C11.266 7.92819 11.4484 7.99845 11.6391 7.99997C11.8298 8.0015 12.0135 7.93416 12.1507 7.81247L15.7871 4.4723Z" fill="#232323"/>
</svg>
