<svg width="39" height="22" viewBox="0 0 39 22" fill="none" xmlns="http://www.w3.org/2000/svg">
<path d="M38.6202 5.0515C37.6794 4.44829 36.5605 4.16373 35.4367 4.24186C34.885 4.24505 34.3345 4.29214 33.7907 4.38266C33.6434 3.55342 33.3195 2.76333 32.8397 2.06313C32.36 1.36294 31.7351 0.768115 31.0051 0.316878L30.4444 0L30.0826 0.510421C29.6267 1.20342 29.2906 1.96448 29.0878 2.76331C28.8948 3.47053 28.853 4.20876 28.965 4.93231C29.0771 5.65587 29.3404 6.34937 29.7389 6.9699C28.8451 7.36774 27.881 7.5948 26.8991 7.63872H1.21415C0.892743 7.63874 0.584507 7.76299 0.357238 7.98414C0.129969 8.20528 0.00228167 8.50522 0.00226099 8.81796C-0.0331223 11.0083 0.347062 13.1862 1.12373 15.2422C1.82635 17.2669 3.20076 19.0067 5.03072 20.1881C7.68262 21.4935 10.6355 22.1118 13.6044 21.9834C15.2 21.9833 16.7923 21.8419 18.3616 21.561C20.5487 21.1756 22.6527 20.4317 24.5839 19.3609C26.1728 18.4639 27.6021 17.3227 28.8164 15.9815C30.6164 13.9259 32.0197 11.5705 32.9586 9.02913H33.3204C34.1203 9.06121 34.9187 8.9359 35.6678 8.66069C36.4168 8.38548 37.101 7.96604 37.6796 7.42748C38.1834 6.96352 38.5782 6.39917 38.8372 5.77301L39 5.31549L38.6202 5.0515Z" fill="#6563FF"/>
</svg>
