<svg width="20" height="16" viewBox="0 0 20 16" fill="none" xmlns="http://www.w3.org/2000/svg">
<path d="M10 6C9.60603 6 9.21593 6.0776 8.85195 6.22836C8.48797 6.37913 8.15726 6.6001 7.87868 6.87868C7.6001 7.15726 7.37913 7.48797 7.22836 7.85195C7.0776 8.21593 7 8.60603 7 9C7 9.39397 7.0776 9.78407 7.22836 10.1481C7.37913 10.512 7.6001 10.8427 7.87868 11.1213C8.15726 11.3999 8.48797 11.6209 8.85195 11.7716C9.21593 11.9224 9.60603 12 10 12C10.7956 12 11.5587 11.6839 12.1213 11.1213C12.6839 10.5587 13 9.79565 13 9C13 8.20435 12.6839 7.44129 12.1213 6.87868C11.5587 6.31607 10.7956 6 10 6ZM18 3H15.6C15.4273 2.99212 15.2606 2.93399 15.1204 2.83273C14.9803 2.73148 14.8727 2.59151 14.811 2.43L14.19 0.569C14.1278 0.407672 14.02 0.267949 13.8797 0.166901C13.7394 0.0658539 13.5727 0.0078582 13.4 0H6.6C6.27 0 5.914 0.256 5.811 0.568L5.189 2.43C5.12715 2.59144 5.01958 2.73134 4.87944 2.83257C4.73931 2.93381 4.57269 2.992 4.4 3H2C0.9 3 0 3.9 0 5V14C0 15.1 0.9 16 2 16H18C19.1 16 20 15.1 20 14V5C20 3.9 19.1 3 18 3ZM10 14C8.67392 14 7.40215 13.4732 6.46447 12.5355C5.52678 11.5979 5 10.3261 5 9C5 7.67392 5.52678 6.40215 6.46447 5.46447C7.40215 4.52678 8.67392 4 10 4C11.3261 4 12.5979 4.52678 13.5355 5.46447C14.4732 6.40215 15 7.67392 15 9C15 10.3261 14.4732 11.5979 13.5355 12.5355C12.5979 13.4732 11.3261 14 10 14ZM17.5 6.2C17.3143 6.2 17.1363 6.12625 17.005 5.99497C16.8738 5.8637 16.8 5.68565 16.8 5.5C16.8 5.31435 16.8738 5.1363 17.005 5.00503C17.1363 4.87375 17.3143 4.8 17.5 4.8C17.6857 4.8 17.8637 4.87375 17.995 5.00503C18.1262 5.1363 18.2 5.31435 18.2 5.5C18.2 5.68565 18.1262 5.8637 17.995 5.99497C17.8637 6.12625 17.6857 6.2 17.5 6.2Z" fill="#232323" fill-opacity="0.5"/>
</svg>
