<svg width="5" height="22" viewBox="0 0 5 22" fill="none" xmlns="http://www.w3.org/2000/svg">
<path d="M-9.78478e-05 11C-9.79009e-05 12.2151 0.984875 13.2 2.1999 13.2C3.41493 13.2 4.3999 12.2151 4.3999 11C4.3999 9.78502 3.41493 8.80005 2.1999 8.80005C0.984876 8.80005 -9.77947e-05 9.78502 -9.78478e-05 11Z" fill="black"/>
<path d="M-9.78478e-05 2.2C-9.79009e-05 3.41503 0.984875 4.4 2.1999 4.4C3.41493 4.4 4.3999 3.41503 4.3999 2.2C4.3999 0.984973 3.41493 -4.30546e-08 2.1999 -9.61651e-08C0.984876 -1.49276e-07 -9.77947e-05 0.984973 -9.78478e-05 2.2Z" fill="black"/>
<path d="M-9.78478e-05 19.8001C-9.79009e-05 21.0151 0.984875 22.0001 2.1999 22.0001C3.41493 22.0001 4.3999 21.0151 4.3999 19.8001C4.3999 18.5851 3.41493 17.6001 2.1999 17.6001C0.984876 17.6001 -9.77947e-05 18.5851 -9.78478e-05 19.8001Z" fill="black"/>
</svg>
