<svg width="29" height="29" viewBox="0 0 29 29" fill="none" xmlns="http://www.w3.org/2000/svg">
<path d="M28.9847 14.7713C28.9847 13.5832 28.886 12.7162 28.6725 11.8171H14.7888V17.1796H22.9382C22.774 18.5123 21.8867 20.5193 19.9151 21.8679L19.8874 22.0474L24.2772 25.3706L24.5813 25.4002C27.3744 22.8795 28.9847 19.1706 28.9847 14.7713Z" fill="#4285F4"/>
<path d="M14.7889 28.9004C18.7814 28.9004 22.1332 27.6159 24.5814 25.4002L19.9152 21.8679C18.6665 22.7189 16.9905 23.3129 14.7889 23.3129C10.8785 23.3129 7.5596 20.7922 6.3765 17.3081L6.20309 17.3225L1.63855 20.7745L1.57886 20.9367C4.01053 25.657 9.00538 28.9004 14.7889 28.9004Z" fill="#34A853"/>
<path d="M6.37639 17.3081C6.06422 16.409 5.88355 15.4456 5.88355 14.4502C5.88355 13.4547 6.06422 12.4914 6.35996 11.5922L6.3517 11.4008L1.72996 7.89331L1.57874 7.9636C0.576534 9.92243 0.00146484 12.1221 0.00146484 14.4502C0.00146484 16.7783 0.576534 18.9778 1.57874 20.9367L6.37639 17.3081Z" fill="#FBBC05"/>
<path d="M14.7889 5.58737C17.5656 5.58737 19.4386 6.75943 20.5067 7.7389L24.68 3.75705C22.1169 1.42897 18.7814 0 14.7889 0C9.00538 0 4.01053 3.24324 1.57886 7.9636L6.36008 11.5923C7.5596 8.10816 10.8785 5.58737 14.7889 5.58737Z" fill="#EB4335"/>
</svg>
