<svg width="41" height="41" viewBox="0 0 41 41" fill="none" xmlns="http://www.w3.org/2000/svg">
<path d="M40 25C40 31.6032 34.6667 37 28 37C21.3968 37 16 31.6032 16 25C16 18.3968 21.3333 13 27.9365 13C34.6667 13 40 18.3968 40 25Z" fill="#FFB600"/>
<path d="M28 13C34.6032 13 40 18.3968 40 25C40 31.6032 34.6667 37 28 37C21.3968 37 16 31.6032 16 25" fill="#F7981D"/>
<path d="M28 13C34.6032 13 40 18.3968 40 25C40 31.6032 34.6667 37 28 37" fill="#FF8500"/>
<path d="M11.9045 13C5.34748 13.0635 0 18.3968 0 25C0 31.6032 5.34748 37 12.0318 37C15.1512 37 17.9523 35.7936 20.1167 33.8889C20.5623 33.5079 20.9443 33.0635 21.3263 32.619H18.8435C18.5252 32.2381 18.2069 31.7936 17.9523 31.4127H22.2175C22.4722 31.0317 22.7268 30.5873 22.9178 30.1429H17.252C17.061 29.7619 16.87 29.3175 16.7427 28.873H23.3634C23.7454 27.6667 24 26.3968 24 25.0635C24 24.1746 23.8727 23.3492 23.7454 22.5238H16.3607C16.4244 22.0794 16.5517 21.6984 16.679 21.254H23.2997C23.1724 20.8095 22.9814 20.3651 22.7905 19.9841H17.1883C17.3793 19.5397 17.634 19.1587 17.8886 18.7143H22.1538C21.8992 18.2698 21.5809 17.8254 21.1989 17.4444H18.8435C19.2255 17 19.6074 16.619 20.0531 16.2381C17.9523 14.2698 15.0875 13.127 11.9682 13.127C11.9682 13 11.9682 13 11.9045 13Z" fill="#FF5050"/>
<path d="M0 24.9362C0 31.5745 5.34748 37 12.0318 37C15.1512 37 17.9523 35.7872 20.1167 33.8723C20.5623 33.4894 20.9443 33.0426 21.3263 32.5957H18.8435C18.5252 32.2128 18.2069 31.766 17.9523 31.383H22.2175C22.4722 31 22.7268 30.5532 22.9178 30.1064H17.252C17.061 29.7234 16.87 29.2766 16.7427 28.8298H23.3634C23.7454 27.617 24 26.3404 24 25C24 24.1064 23.8727 23.2766 23.7454 22.4468H16.3607C16.4244 22 16.5517 21.617 16.679 21.1702H23.2997C23.1724 20.7234 22.9814 20.2766 22.7905 19.8936H17.1883C17.3793 19.4468 17.634 19.0638 17.8886 18.617H22.1538C21.8992 18.1702 21.5809 17.7234 21.1989 17.3404H18.8435C19.2255 16.8936 19.6074 16.5106 20.0531 16.1277C17.9523 14.1489 15.0875 13 11.9682 13H11.9045" fill="#E52836"/>
<path d="M12.1263 37C15.2211 37 18 35.7872 20.1474 33.8723C20.5895 33.4894 20.9684 33.0426 21.3474 32.5957H18.8842C18.5684 32.2128 18.2526 31.766 18 31.383H22.2316C22.4842 31 22.7368 30.5532 22.9263 30.1064H17.3053C17.1158 29.7234 16.9263 29.2766 16.8 28.8298H23.3684C23.7474 27.617 24 26.3404 24 25C24 24.1064 23.8737 23.2766 23.7474 22.4468H16.4211C16.4842 22 16.6105 21.617 16.7368 21.1702H23.3053C23.1789 20.7234 22.9895 20.2766 22.8 19.8936H17.2421C17.4316 19.4468 17.6842 19.0638 17.9368 18.617H22.1684C21.9158 18.1702 21.6 17.7234 21.2211 17.3404H18.8842C19.2632 16.8936 19.6421 16.5106 20.0842 16.1277C18 14.1489 15.1579 13 12.0632 13H12" fill="#CB2026"/>
<path d="M16.175 27.8022L16.4 26.6813C16.325 26.6813 16.175 26.7473 16.025 26.7473C15.5 26.7473 15.425 26.4835 15.5 26.3516L15.95 24.044H16.775L17 22.7912H16.25L16.4 22H14.9C14.9 22 14 26.3517 14 26.8791C14 27.6703 14.525 28 15.2 28C15.65 28 16.025 27.8681 16.175 27.8022Z" fill="white"/>
<path d="M17 25.816C17 27.5632 18.1692 28 19.1538 28C20.0769 28 20.4462 27.8128 20.4462 27.8128L20.6923 26.6272C20.6923 26.6272 20.0154 26.9392 19.4 26.9392C18.0462 26.9392 18.2923 25.9408 18.2923 25.9408H20.8154C20.8154 25.9408 21 25.1295 21 24.8175C21 24.0063 20.5692 23.0079 19.2154 23.0079C17.9231 22.8831 17 24.2559 17 25.816ZM19.1538 24.0063C19.8308 24.0063 19.7077 24.8175 19.7077 24.8799H18.3538C18.3538 24.8175 18.4769 24.0063 19.1538 24.0063Z" fill="white"/>
<path d="M27.1884 27.82L27.4203 26.5C27.4203 26.5 26.8406 26.8 26.4348 26.8C25.6232 26.8 25.2754 26.14 25.2754 25.42C25.2754 23.98 25.971 23.2 26.7826 23.2C27.3623 23.2 27.8261 23.56 27.8261 23.56L28 22.3C28 22.3 27.3043 22 26.6667 22C25.3333 22 24 23.2 24 25.48C24 26.98 24.6957 28 26.087 28C26.5507 28 27.1884 27.82 27.1884 27.82Z" fill="white"/>
<path d="M9.33846 23C8.47692 23 7.86154 23.2469 7.86154 23.2469L7.67692 24.2963C7.67692 24.2963 8.23077 24.0494 9.03077 24.0494C9.46154 24.0494 9.83077 24.1111 9.83077 24.4815C9.83077 24.7284 9.76923 24.7901 9.76923 24.7901H9.21538C8.16923 24.7901 7 25.2222 7 26.642C7 27.7531 7.73846 28 8.16923 28C9.03077 28 9.4 27.4444 9.46154 27.4444L9.4 27.9383H10.5077L11 24.5432C11 23.0617 9.76923 23 9.33846 23ZM9.58462 25.7778C9.58462 25.963 9.46154 26.9506 8.72308 26.9506C8.35385 26.9506 8.23077 26.642 8.23077 26.4568C8.23077 26.1481 8.41538 25.716 9.33846 25.716C9.52308 25.7778 9.58462 25.7778 9.58462 25.7778Z" fill="white"/>
<path d="M12.2105 27.9997C12.4737 27.9997 13.7895 28.0607 13.7895 26.4144C13.7895 24.8901 12.5263 25.195 12.5263 24.5853C12.5263 24.2804 12.7368 24.1585 13.1053 24.1585C13.2632 24.1585 13.8421 24.2194 13.8421 24.2194L14 23.1219C14 23.1219 13.6316 23 13 23C12.2105 23 11.4211 23.3658 11.4211 24.5853C11.4211 25.9876 12.7368 25.8657 12.7368 26.4144C12.7368 26.7803 12.3684 26.8412 12.1053 26.8412C11.6316 26.8412 11.1579 26.6583 11.1579 26.6583L11 27.7558C11.0526 27.8778 11.3158 27.9997 12.2105 27.9997Z" fill="white"/>
<path d="M2.15152 28L2.87879 23.5L3 28H3.84848L5.42424 23.5L4.75758 28H6.0303L7 22H5L3.78788 25.6875L3.72727 22H1.9697L1 28H2.15152Z" fill="white"/>
<path d="M22.32 27.9367C22.68 25.8481 22.74 24.1392 23.58 24.4557C23.7 23.6329 23.88 23.3165 24 23H23.76C23.22 23 22.8 23.7595 22.8 23.7595L22.92 23.0633H21.78L21 28H22.32V27.9367Z" fill="white"/>
<path d="M30.3372 23C29.4761 23 28.8611 23.2469 28.8611 23.2469L28.6766 24.2963C28.6766 24.2963 29.2301 24.0494 30.0297 24.0494C30.4602 24.0494 30.8293 24.1111 30.8293 24.4815C30.8293 24.7284 30.7678 24.7901 30.7678 24.7901H30.2142C29.1686 24.7901 28 25.2222 28 26.642C28 27.7531 28.7381 28 29.1686 28C30.0297 28 30.3987 27.4444 30.4602 27.4444L30.3987 27.9383H31.5058L31.9979 24.5432C32.0594 23.0617 30.7678 23 30.3372 23ZM30.6447 25.7778C30.6447 25.963 30.5217 26.9506 29.7837 26.9506C29.4146 26.9506 29.2916 26.642 29.2916 26.4568C29.2916 26.1481 29.4761 25.716 30.3987 25.716C30.5832 25.7778 30.5832 25.7778 30.6447 25.7778Z" fill="white"/>
<path d="M14.2349 27.163C14.2349 27.9317 14.6833 28.252 15.2599 28.252C15.7083 28.252 16.0927 28.1239 16.2208 28.0599L16.413 26.9708C16.3489 26.9708 16.2208 27.0349 16.0927 27.0349C15.6442 27.0349 15.5802 26.7786 15.6442 26.6505L16.0286 24.4083H16.7333L16.9255 23.1911H16.2849L16.413 22.4224" fill="#DCE5E5"/>
<path d="M17.3096 26.0096C17.3096 27.8033 17.8861 28.2518 18.9111 28.2518C19.8721 28.2518 20.2564 28.0596 20.2564 28.0596L20.5127 26.8424C20.5127 26.8424 19.808 27.1627 19.1674 27.1627C17.758 27.1627 18.0143 26.1377 18.0143 26.1377H20.6408C20.6408 26.1377 20.833 25.3049 20.833 24.9846C20.833 24.1518 20.3846 23.1268 18.9752 23.1268C17.6299 22.9986 17.3096 24.408 17.3096 26.0096ZM18.9111 24.1518C19.6158 24.1518 19.7439 24.9846 19.7439 25.0486H18.0783C18.0783 24.9846 18.2064 24.1518 18.9111 24.1518Z" fill="#DCE5E5"/>
<path d="M27.0474 28.0598L27.3036 26.6504C27.3036 26.6504 26.663 26.9707 26.2146 26.9707C25.3177 26.9707 24.9333 26.266 24.9333 25.4973C24.9333 23.9598 25.7021 23.127 26.5989 23.127C27.2396 23.127 27.752 23.5113 27.752 23.5113L27.9442 22.166C27.9442 22.166 27.1755 21.8457 26.4708 21.8457C24.9974 21.8457 24.1646 23.127 24.1646 25.5613C24.1646 27.1629 24.2927 28.252 25.8302 28.252C26.3427 28.252 27.0474 28.0598 27.0474 28.0598Z" fill="#DCE5E5"/>
<path d="M7.44394 24.4082C7.44394 24.4082 8.02051 24.152 8.85332 24.152C9.30176 24.152 9.68613 24.216 9.68613 24.6004C9.68613 24.8566 9.62207 24.9207 9.62207 24.9207H9.04551C7.95644 24.9207 6.73926 25.3691 6.73926 26.8426C6.73926 27.9957 7.50801 28.252 7.95645 28.252C8.85332 28.252 9.2377 27.6754 9.30176 27.6754L9.23769 28.1879H10.3908L10.9033 24.6645C10.9033 23.191 9.62207 23.127 9.10957 23.127M10.0705 25.8816C10.0705 26.0738 9.30176 27.0988 8.53301 27.0988C8.14863 27.0988 8.02051 26.7785 8.02051 26.5863C8.02051 26.266 8.2127 25.8176 9.17363 25.8176C9.36582 25.8816 10.0705 25.8816 10.0705 25.8816Z" fill="#DCE5E5"/>
<path d="M10.7114 28.0596C10.7114 28.0596 11.0958 28.1877 12.1849 28.1877C12.5052 28.1877 14.1067 28.2518 14.1067 26.5221C14.1067 24.9205 12.5692 25.2408 12.5692 24.6002C12.5692 24.2799 12.8255 24.1518 13.2739 24.1518C13.4661 24.1518 14.1708 24.2158 14.1708 24.2158L14.363 23.0627C14.363 23.0627 13.9146 22.9346 13.1458 22.9346C12.1849 22.9346 11.8646 23.3189 11.8646 24.6002C11.8646 26.0736 12.8255 25.9455 12.8255 26.5221C12.8255 26.9064 12.3771 26.9705 12.0567 26.9705" fill="#DCE5E5"/>
<path d="M37.4254 23.7037C37.4254 23.7037 36.9129 23.0631 36.2082 23.0631C35.055 23.0631 34.6707 24.4725 34.6707 26.1381C34.6707 27.1631 34.5425 28.2521 35.6316 28.2521C36.4004 28.2521 36.8488 27.7396 36.8488 27.7396L36.7847 28.1881H38.066L39.0269 22.0381M37.3613 25.3693C37.3613 26.074 36.7847 26.9709 36.08 26.9709C35.6316 26.9709 35.3754 26.5865 35.3754 25.9459C35.3754 24.9209 35.8238 24.2803 36.4003 24.2803C36.8488 24.2803 37.3613 24.6006 37.3613 25.3693Z" fill="#DCE5E5"/>
<path d="M2.19082 28.1236L2.95957 23.5111L3.0877 28.1236H3.98457L5.6502 23.5111L4.94551 28.1236H6.29082L7.31582 21.9736H5.71426L3.92051 25.7533L3.85645 21.9736H3.15176L0.973633 28.1236H2.19082Z" fill="#DCE5E5"/>
<path d="M20.7046 28.1238H22.0499C22.4343 26.0098 22.4983 24.2801 23.3952 24.6004C23.5233 23.7676 23.7155 23.4473 23.8437 23.127H23.5874C23.0108 23.127 22.5624 23.8957 22.5624 23.8957L22.6905 23.191" fill="#DCE5E5"/>
<path d="M28.2643 24.4082C28.2643 24.4082 28.8408 24.152 29.6736 24.152C30.1221 24.152 30.5064 24.216 30.5064 24.6004C30.5064 24.8566 30.4424 24.9207 30.4424 24.9207H29.8658C28.7768 24.9207 27.5596 25.3691 27.5596 26.8426C27.5596 27.9957 28.3283 28.252 28.7768 28.252C29.6736 28.252 30.058 27.6754 30.1221 27.6754L30.058 28.1879H31.2111L31.7236 24.6645C31.7236 23.191 30.4424 23.127 29.9299 23.127M30.8908 25.8816C30.8908 26.0738 30.1221 27.0988 29.3533 27.0988C28.9689 27.0988 28.8408 26.7785 28.8408 26.5863C28.8408 26.266 29.033 25.8176 29.9939 25.8176C30.2502 25.8816 30.8908 25.8816 30.8908 25.8816Z" fill="#DCE5E5"/>
<path d="M31.4673 28.1238H32.8126C33.197 26.0098 33.261 24.2801 34.1579 24.6004C34.286 23.7676 34.4782 23.4473 34.6063 23.127H34.3501C33.7735 23.127 33.3251 23.8957 33.3251 23.8957L33.4532 23.191" fill="#DCE5E5"/>
</svg>
