<svg width="26" height="26" viewBox="0 0 26 26" fill="none" xmlns="http://www.w3.org/2000/svg">
<path d="M25.4796 0.617676V23.1795C25.4796 24.3958 24.4936 25.3818 23.2773 25.3818H6.38437L6.36426 22.8459V0.617676H25.4796Z" fill="#D7DCE2"/>
<path d="M23.3062 25.3824H5.60433V25.3773C5.03465 25.3617 4.52191 25.1235 4.14385 24.7454C3.75024 24.3518 3.50684 23.808 3.50684 23.2124V23.0156H21.131V23.2124C21.131 23.808 21.3745 24.3518 21.7681 24.7454C22.1616 25.139 22.7055 25.3824 23.3062 25.3824Z" fill="#17416B"/>
<path d="M23.5957 25.3618V25.3826H23.3057C23.4041 25.3826 23.5025 25.3774 23.5957 25.3618Z" fill="#4498FB"/>
<path d="M23.3068 21.3273H8.9668V13.1675H9.2268V21.0673H23.3068V21.3273Z" fill="white"/>
<path d="M10.5962 19.8942L10.4043 19.719L13.2768 16.5849L15.6615 19.0378L16.9402 16.6707L18.5199 18.3124L21.0955 14.3604L21.3129 14.5023L18.56 18.7278L17.0005 17.1075L15.7218 19.4725L13.282 16.964L10.5962 19.8942Z" fill="white"/>
<path d="M21.3684 15.5512L21.1058 14.5913L20.1448 14.8565L20.0762 14.6053L21.2878 14.2715L21.619 15.482L21.3684 15.5512Z" fill="white"/>
<path d="M18.3611 2.55713C15.628 2.55713 13.4131 4.77208 13.4131 7.50257C13.4131 10.2357 15.628 12.4506 18.3611 12.4506C21.0916 12.4506 23.3066 10.2357 23.3066 7.50257C23.3066 4.77208 21.0916 2.55713 18.3611 2.55713ZM18.3611 10.917C16.4752 10.917 14.9467 9.38853 14.9467 7.50257C14.9467 5.61922 16.4752 4.09075 18.3611 4.09075C20.2445 4.09075 21.7729 5.61921 21.7729 7.50257C21.7729 9.38853 20.2445 10.917 18.3611 10.917Z" fill="white"/>
<path d="M15.9467 5.09072L14.8612 4.00526C13.9675 4.90161 13.4131 6.13992 13.4131 7.50515C13.4131 8.8704 13.9675 10.1061 14.8612 11.0025L15.9467 9.917C15.3301 9.30044 14.9467 8.44554 14.9467 7.50516C14.9467 6.56217 15.3301 5.70987 15.9467 5.09072ZM21.7729 7.50516H23.3066C23.3066 6.13992 22.7522 4.90161 21.8584 4.00526C20.9621 3.11152 19.7238 2.55713 18.3585 2.55713V4.09076C19.3015 4.09076 20.1538 4.47159 20.773 5.09072C21.3921 5.70987 21.7729 6.56217 21.7729 7.50516ZM18.3585 10.917V12.4506C19.7238 12.4506 20.9621 11.8962 21.8584 11.0025L20.773 9.91701C20.1538 10.5336 19.3015 10.917 18.3585 10.917Z" fill="#4498FB"/>
<path d="M18.3591 10.9097C20.2402 10.9097 21.7651 9.38474 21.7651 7.50366C21.7651 5.62257 20.2402 4.09766 18.3591 4.09766C16.478 4.09766 14.9531 5.62257 14.9531 7.50366C14.9531 9.38474 16.478 10.9097 18.3591 10.9097Z" fill="white"/>
<path d="M18.3588 10.2317C19.8654 10.2317 21.0867 9.01039 21.0867 7.5038C21.0867 5.99721 19.8654 4.77588 18.3588 4.77588C16.8522 4.77588 15.6309 5.99721 15.6309 7.5038C15.6309 9.01039 16.8522 10.2317 18.3588 10.2317Z" fill="white"/>
<path d="M18.3599 10.3619C16.7842 10.3619 15.502 9.07969 15.502 7.50395C15.502 5.92821 16.7842 4.64648 18.3599 4.64648C19.9357 4.64648 21.2174 5.9282 21.2174 7.50395C21.2174 9.07969 19.9357 10.3619 18.3599 10.3619ZM18.3599 4.90648C16.9274 4.90648 15.762 6.07191 15.762 7.50395C15.762 8.93648 16.9274 10.1019 18.3599 10.1019C19.792 10.1019 20.9574 8.93648 20.9574 7.50395C20.9574 6.07191 19.792 4.90648 18.3599 4.90648Z" fill="#FED932"/>
<path d="M18.3592 9.51043C19.4675 9.51043 20.3659 8.61201 20.3659 7.50375C20.3659 6.39549 19.4675 5.49707 18.3592 5.49707C17.251 5.49707 16.3525 6.39549 16.3525 7.50375C16.3525 8.61201 17.251 9.51043 18.3592 9.51043Z" fill="#FED932"/>
<path d="M18.3597 7.63398C18.0256 7.63398 17.7539 7.3623 17.7539 7.02816C17.7539 6.69453 18.0256 6.42285 18.3597 6.42285C18.6934 6.42285 18.965 6.69453 18.965 7.02816H18.705C18.705 6.83773 18.5502 6.68285 18.3597 6.68285C18.1688 6.68285 18.0139 6.83773 18.0139 7.02816C18.0139 7.2191 18.1688 7.37398 18.3597 7.37398V7.63398Z" fill="white"/>
<path d="M18.3597 8.58518C18.0256 8.58518 17.7539 8.3135 17.7539 7.97936H18.0139C18.0139 8.17029 18.1688 8.32518 18.3597 8.32518C18.5502 8.32518 18.705 8.17029 18.705 7.97936C18.705 7.78842 18.5502 7.63354 18.3597 7.63354V7.37354C18.6934 7.37354 18.965 7.64521 18.965 7.97936C18.965 8.3135 18.6934 8.58518 18.3597 8.58518Z" fill="white"/>
<path d="M18.4895 6.23242H18.2295V6.55274H18.4895V6.23242Z" fill="white"/>
<path d="M19.5216 7.74587C19.6554 7.74587 19.7639 7.63738 19.7639 7.50355C19.7639 7.36972 19.6554 7.26123 19.5216 7.26123C19.3878 7.26123 19.2793 7.36972 19.2793 7.50355C19.2793 7.63738 19.3878 7.74587 19.5216 7.74587Z" fill="white"/>
<path d="M17.1974 7.74587C17.3312 7.74587 17.4397 7.63738 17.4397 7.50355C17.4397 7.36972 17.3312 7.26123 17.1974 7.26123C17.0636 7.26123 16.9551 7.36972 16.9551 7.50355C16.9551 7.63738 17.0636 7.74587 17.1974 7.74587Z" fill="white"/>
<path d="M18.4895 8.45508H18.2295V8.7754H18.4895V8.45508Z" fill="white"/>
<path d="M9.84426 4.25883L9.22754 3.48195L9.43086 3.32023L9.88482 3.89119L11.0829 2.92139L11.2462 3.12315L9.84426 4.25883Z" fill="white"/>
<path d="M9.84426 6.52305L9.22754 5.74565L9.43086 5.58445L9.88482 6.15541L11.0829 5.18457L11.2462 5.38685L9.84426 6.52305Z" fill="white"/>
<path d="M9.84426 8.78568L9.22754 8.00932L9.43086 7.8476L9.88482 8.41804L11.0829 7.44824L11.2462 7.65052L9.84426 8.78568Z" fill="white"/>
<path d="M9.84426 11.0499L9.22754 10.2725L9.43086 10.1113L9.88482 10.6822L11.0829 9.71191L11.2462 9.91419L9.84426 11.0499Z" fill="white"/>
<path d="M5.16537 9.63364H4.90537V4.09252H3.66309V3.83252H5.16537V9.63364Z" fill="#17416B"/>
<path d="M0.519531 2.75146V17.0322L2.17625 20.1397L3.83349 17.0322V2.75146H0.519531Z" fill="#D7DCE2"/>
<path d="M2.96924 0.617676H1.36816V2.75124H2.96924V0.617676Z" fill="#4498FB"/>
</svg>
