<svg width="31" height="31" viewBox="0 0 31 31" fill="none" xmlns="http://www.w3.org/2000/svg">
<path fill-rule="evenodd" clip-rule="evenodd" d="M24.645 13.795C19.685 10.85 11.3925 10.54 6.665 12.0125C5.89 12.245 5.115 11.78 4.8825 11.0825C4.65 10.3075 5.115 9.5325 5.8125 9.3C11.315 7.6725 20.3825 7.98251 26.1175 11.3925C26.815 11.78 27.0475 12.71 26.66 13.4075C26.2725 13.95 25.3425 14.1825 24.645 13.795ZM24.49 18.135C24.1025 18.6775 23.405 18.91 22.8625 18.5225C18.6775 15.965 12.3225 15.19 7.44 16.74C6.82 16.895 6.1225 16.585 5.9675 15.965C5.8125 15.345 6.1225 14.6475 6.7425 14.4925C12.4 12.7875 19.375 13.64 24.18 16.585C24.645 16.8175 24.8775 17.5925 24.49 18.135ZM22.63 22.3975C22.32 22.8625 21.7775 23.0175 21.3125 22.7075C17.67 20.46 13.0975 19.995 7.6725 21.235C7.13 21.39 6.665 21.0025 6.51 20.5375C6.355 19.995 6.7425 19.53 7.2075 19.375C13.0975 18.0575 18.2125 18.6 22.2425 21.08C22.785 21.3125 22.8625 21.9325 22.63 22.3975ZM15.5 0C6.975 0 0 6.975 0 15.5C0 24.025 6.975 31 15.5 31C24.025 31 31 24.025 31 15.5C31 6.975 24.1025 0 15.5 0Z" fill="#00DA5A"/>
</svg>
