<svg width="12" height="6" viewBox="0 0 12 6" fill="none" xmlns="http://www.w3.org/2000/svg">
<path d="M11.8403 3.35423C11.9426 3.26027 12 3.13285 12 3C12 2.86715 11.9426 2.73973 11.8403 2.64577L9.113 0.140644C9.01012 0.0493782 8.87234 -0.00112261 8.72932 1.894e-05C8.5863 0.00116049 8.4495 0.053853 8.34836 0.146747C8.24723 0.239642 8.18986 0.365305 8.18862 0.496673C8.18738 0.62804 8.24236 0.7546 8.34172 0.849095L10.1379 2.49897H0.54546C0.400795 2.49897 0.262055 2.55176 0.159761 2.64572C0.0574679 2.73968 0 2.86712 0 3C0 3.13288 0.0574679 3.26032 0.159761 3.35428C0.262055 3.44824 0.400795 3.50103 0.54546 3.50103H10.1379L8.34172 5.1509C8.24236 5.2454 8.18738 5.37196 8.18862 5.50333C8.18986 5.63469 8.24723 5.76036 8.34836 5.85325C8.4495 5.94615 8.5863 5.99884 8.72932 5.99998C8.87234 6.00112 9.01012 5.95062 9.113 5.85936L11.8403 3.35423Z" fill="white"/>
</svg>
