<svg width="12" height="11" viewBox="0 0 12 11" fill="none" xmlns="http://www.w3.org/2000/svg">
<path fill-rule="evenodd" clip-rule="evenodd" d="M6.42368 0.610534L7.79927 3.26312C7.86672 3.39644 7.99946 3.48964 8.15392 3.51211L11.2329 3.93897C11.3578 3.95531 11.4707 4.01819 11.5464 4.11362C11.622 4.20905 11.6543 4.32911 11.6359 4.44712C11.6204 4.54413 11.5713 4.63351 11.4962 4.7012L9.26621 6.77448C9.1535 6.87666 9.10298 7.02575 9.13187 7.17085L9.66921 10.0928C9.7081 10.3335 9.5361 10.5594 9.28233 10.6009C9.17769 10.6164 9.07055 10.6004 8.97605 10.5552L6.23024 9.17807C6.09308 9.10664 5.92679 9.10664 5.78962 9.17807L3.0277 10.5653C2.79598 10.6778 2.51171 10.5942 2.38827 10.3773C2.34014 10.2899 2.32317 10.1901 2.33991 10.0928L2.87724 7.17085C2.90323 7.02593 2.85314 6.87811 2.74291 6.77448L0.496831 4.7012C0.313148 4.5251 0.313148 4.24211 0.496831 4.06601C0.571796 4.00037 0.664995 3.9563 0.765501 3.93897L3.84446 3.51211C3.99819 3.488 4.13021 3.3953 4.1991 3.26312L5.57469 0.610534C5.62904 0.50298 5.72702 0.420741 5.8464 0.382471C5.96578 0.344201 6.09644 0.353144 6.20875 0.407271C6.30141 0.451711 6.37669 0.522907 6.42368 0.610534Z" fill="white" stroke="white" stroke-width="0.7" stroke-linecap="round" stroke-linejoin="round"/>
</svg>
