<svg width="37" height="31" viewBox="0 0 37 31" fill="none" xmlns="http://www.w3.org/2000/svg">
<path d="M18.4977 5.50965V9.86099H14.8136C14.3794 9.86099 13.9629 10.0335 13.6558 10.3406C13.3487 10.6476 13.1762 11.0641 13.1762 11.4984V18.8666C13.1762 19.3008 13.3487 19.7173 13.6558 20.0244C13.9629 20.3315 14.3794 20.504 14.8136 20.504H18.4977V24.8553C18.4983 25.9863 18.1156 27.0842 17.412 27.9697C16.7084 28.8553 15.7254 29.4762 14.6235 29.7313C13.5216 29.9863 12.3658 29.8604 11.3447 29.3741C10.3235 28.8878 9.49735 28.0698 9.00091 27.0535C8.61648 27.1478 8.22192 27.1945 7.82609 27.1927C7.13765 27.1969 6.45589 27.0575 5.82439 26.7833C4.92979 26.3936 4.1687 25.7508 3.63484 24.934C3.10098 24.1173 2.81767 23.1622 2.8198 22.1864C2.82511 21.8365 2.86625 21.4881 2.9426 21.1466C2.11287 20.6524 1.44393 19.9286 1.01656 19.0626C0.589194 18.1965 0.421665 17.2253 0.534204 16.2661C0.646743 15.3069 1.03454 14.4008 1.65077 13.6572C2.267 12.9136 3.08531 12.3643 4.0069 12.0755C3.38935 11.3478 2.99309 10.4584 2.86498 9.51259C2.73687 8.56676 2.88225 7.60403 3.28395 6.73821C3.68564 5.87239 4.32685 5.13969 5.13176 4.62674C5.93667 4.11379 6.87163 3.84204 7.82609 3.84361C8.13513 3.84303 8.44353 3.87182 8.74712 3.92957C9.12109 2.80074 9.88498 1.84206 10.9018 1.22545C11.9186 0.608844 13.1218 0.374652 14.2957 0.564874C15.4695 0.755095 16.5372 1.35729 17.3073 2.26345C18.0773 3.16962 18.4994 4.32048 18.4977 5.50965Z" fill="#40E0D0"/>
<path opacity="0.4" d="M13.1066 28.973C12.4039 28.4839 11.8397 27.821 11.4693 27.0491C11.0848 27.1434 10.6903 27.1901 10.2944 27.1883C9.606 27.1925 8.92424 27.0531 8.29275 26.7789C7.40006 26.3901 6.64027 25.7491 6.10656 24.9348C5.57285 24.1204 5.28841 23.1679 5.28815 22.1942C5.28807 21.8449 5.32374 21.4965 5.39458 21.1545C4.56515 20.659 3.89696 19.9339 3.47075 19.0669C3.04454 18.1998 2.87856 17.2278 2.99285 16.2685C3.10715 15.3091 3.49683 14.4033 4.11481 13.6607C4.73279 12.918 5.55263 12.3702 6.47525 12.0834C5.85629 11.3572 5.45817 10.4689 5.32792 9.5236C5.19767 8.5783 5.34075 7.61548 5.74025 6.7489C6.13974 5.88232 6.77896 5.14821 7.58235 4.63333C8.38575 4.11844 9.31975 3.8443 10.274 3.84329C10.583 3.84271 10.8914 3.8715 11.195 3.92925C11.4594 3.13299 11.9196 2.41587 12.5332 1.8437C13.1469 1.27153 13.8944 0.862619 14.7072 0.654491C14.306 0.551364 13.8934 0.499104 13.4792 0.498939C12.4287 0.499073 11.4049 0.829619 10.5527 1.44378C9.70055 2.05794 9.06314 2.92461 8.73075 3.92107C8.42715 3.86331 8.11876 3.83453 7.80972 3.8351C6.85514 3.83533 5.92059 4.10891 5.11659 4.62349C4.31258 5.13807 3.67275 5.87212 3.27276 6.73885C2.87276 7.60558 2.72933 8.56873 2.85943 9.5144C2.98953 10.4601 3.38772 11.3487 4.0069 12.0752C3.08531 12.3639 2.267 12.9133 1.65077 13.6569C1.03454 14.4005 0.646743 15.3066 0.534204 16.2658C0.421665 17.2249 0.589194 18.1962 1.01656 19.0622C1.44393 19.9283 2.11287 20.6521 2.9426 21.1463C2.87176 21.4884 2.8361 21.8367 2.83617 22.1861C2.83364 23.1561 3.11323 24.106 3.64087 24.92C4.16852 25.734 4.92146 26.377 5.80802 26.7707C6.43952 27.0449 7.12128 27.1843 7.80972 27.1801C8.21051 27.1873 8.61064 27.1447 9.00091 27.0532C9.50131 28.0904 10.3462 28.9219 11.3913 29.4057C12.4365 29.8894 13.6171 29.9955 14.7317 29.7057C14.1503 29.5614 13.5998 29.3132 13.1066 28.973Z" fill="white"/>
<path d="M22.1819 9.86065H14.8137C14.3794 9.86065 13.963 10.0332 13.6559 10.3402C13.3488 10.6473 13.1763 11.0638 13.1763 11.498V18.8662C13.1763 19.3005 13.3488 19.717 13.6559 20.0241C13.963 20.3311 14.3794 20.5036 14.8137 20.5036H22.1819C22.6162 20.5036 23.0326 20.3311 23.3397 20.0241C23.6468 19.717 23.8193 19.3005 23.8193 18.8662V11.498C23.8193 11.0638 23.6468 10.6473 23.3397 10.3402C23.0326 10.0332 22.6162 9.86065 22.1819 9.86065ZM19.7258 17.4335H17.2698C17.0526 17.4335 16.8444 17.3473 16.6909 17.1938C16.5373 17.0402 16.4511 16.832 16.4511 16.6148V13.7494C16.4511 13.5323 16.5373 13.3241 16.6909 13.1705C16.8444 13.017 17.0526 12.9307 17.2698 12.9307H19.7258C19.943 12.9307 20.1512 13.017 20.3047 13.1705C20.4583 13.3241 20.5445 13.5323 20.5445 13.7494V16.6148C20.5445 16.832 20.4583 17.0402 20.3047 17.1938C20.1512 17.3473 19.943 17.4335 19.7258 17.4335Z" fill="#633A82"/>
<path d="M19.7258 12.9307H17.2697C16.8176 12.9307 16.451 13.2973 16.451 13.7494V16.6149C16.451 17.067 16.8176 17.4335 17.2697 17.4335H19.7258C20.178 17.4335 20.5445 17.067 20.5445 16.6149V13.7494C20.5445 13.2973 20.178 12.9307 19.7258 12.9307Z" fill="#F1FCFC"/>
<path d="M34.0528 21.1463C34.1236 21.4884 34.1593 21.8367 34.1592 22.186C34.1618 23.1561 33.8822 24.106 33.3545 24.92C32.8269 25.734 32.0739 26.377 31.1874 26.7707C30.5559 27.0449 29.8741 27.1843 29.1857 27.1801C28.7849 27.1873 28.3848 27.1447 27.9945 27.0532C27.4981 28.0694 26.6719 28.8875 25.6507 29.3738C24.6296 29.8601 23.4738 29.986 22.3719 29.731C21.27 29.4759 20.287 28.855 19.5834 27.9694C18.8798 27.0839 18.4971 25.986 18.4977 24.855V20.5036H22.1818C22.6161 20.5036 23.0325 20.3311 23.3396 20.0241C23.6467 19.717 23.8192 19.3005 23.8192 18.8663V11.498C23.8192 11.0638 23.6467 10.6473 23.3396 10.3402C23.0325 10.0332 22.6161 9.86066 22.1818 9.86066H18.4977V5.50932C18.496 4.32015 18.9181 3.16929 19.6881 2.26313C20.4582 1.35696 21.5259 0.754767 22.6997 0.564546C23.8736 0.374324 25.0768 0.608516 26.0936 1.22512C27.1104 1.84173 27.8743 2.80041 28.2483 3.92925C28.5519 3.87149 28.8603 3.84271 29.1693 3.84328C30.1238 3.84171 31.0587 4.11346 31.8636 4.62642C32.6686 5.13937 33.3098 5.87206 33.7115 6.73788C34.1132 7.6037 34.2585 8.56644 34.1304 9.51226C34.0023 10.4581 33.6061 11.3475 32.9885 12.0752C33.9101 12.3639 34.7284 12.9133 35.3446 13.6569C35.9609 14.4005 36.3487 15.3066 36.4612 16.2658C36.5737 17.2249 36.4062 18.1962 35.9788 19.0622C35.5515 19.9283 34.8825 20.6521 34.0528 21.1463Z" fill="#40E0D0"/>
<path opacity="0.2" d="M36.5091 16.8482C36.5087 15.781 36.1668 14.742 35.5333 13.8831C34.8999 13.0243 34.0082 12.3907 32.9887 12.0752C33.6062 11.3475 34.0025 10.4581 34.1306 9.51226C34.2587 8.56643 34.1133 7.6037 33.7117 6.73788C33.31 5.87206 32.6688 5.13936 31.8638 4.62641C31.0589 4.11346 30.124 3.84171 29.1695 3.84328C28.8605 3.8427 28.5521 3.87149 28.2485 3.92924C27.9161 2.93278 27.2787 2.06612 26.4265 1.45196C25.5743 0.837796 24.5505 0.507249 23.5001 0.507116C23.0856 0.507691 22.6729 0.561342 22.272 0.666761C23.0833 0.8761 23.8292 1.28555 24.4413 1.85765C25.0535 2.42975 25.5124 3.14623 25.776 3.94152C26.0752 3.88041 26.3795 3.84752 26.6848 3.84328C27.6392 3.84171 28.5742 4.11346 29.3791 4.62641C30.184 5.13936 30.8252 5.87206 31.2269 6.73788C31.6286 7.6037 31.774 8.56643 31.6459 9.51226C31.5178 10.4581 31.1215 11.3475 30.504 12.0752C31.4274 12.3605 32.2484 12.9072 32.8677 13.6492C33.487 14.3911 33.8781 15.2966 33.9937 16.2561C34.1093 17.2157 33.9444 18.1881 33.5191 19.056C33.0938 19.9238 32.4261 20.6498 31.5969 21.1463C31.6678 21.4883 31.7034 21.8367 31.7034 22.186C31.7031 23.1597 31.4187 24.1122 30.8849 24.9266C30.3512 25.741 29.5914 26.3819 28.6988 26.7707C28.0673 27.0449 27.3855 27.1843 26.6971 27.1801C26.3017 27.186 25.9072 27.1433 25.5222 27.0532C25.2044 27.7035 24.7492 28.2771 24.188 28.7343C23.6269 29.1916 22.9732 29.5216 22.272 29.7016C22.6729 29.807 23.0856 29.8607 23.5001 29.8613C24.4369 29.8602 25.3546 29.5965 26.149 29.1001C26.9435 28.6038 27.5829 27.8946 27.9947 27.0532C28.3791 27.1475 28.7737 27.1942 29.1695 27.1923C29.8579 27.1966 30.5397 27.0572 31.1712 26.783C32.0639 26.3941 32.8237 25.7532 33.3574 24.9388C33.8911 24.1245 34.1755 23.172 34.1758 22.1983C34.1713 21.8443 34.1302 21.4918 34.053 21.1463C34.7998 20.7042 35.4189 20.0756 35.8495 19.3221C36.28 18.5685 36.5073 17.716 36.5091 16.8482Z" fill="black"/>
<path d="M27.9781 10.5074C28.9954 10.5074 29.8201 9.68271 29.8201 8.66538C29.8201 7.64804 28.9954 6.82332 27.9781 6.82332C26.9607 6.82332 26.136 7.64804 26.136 8.66538C26.136 9.68271 26.9607 10.5074 27.9781 10.5074Z" fill="#633A82"/>
<path d="M28.8052 23.5573C29.8225 23.5573 30.6472 22.7326 30.6472 21.7153C30.6472 20.698 29.8225 19.8732 28.8052 19.8732C27.7878 19.8732 26.9631 20.698 26.9631 21.7153C26.9631 22.7326 27.7878 23.5573 28.8052 23.5573Z" fill="#633A82"/>
<path d="M5.61153 20.0943C6.62887 20.0943 7.45358 19.2696 7.45358 18.2522C7.45358 17.2349 6.62887 16.4102 5.61153 16.4102C4.59419 16.4102 3.76947 17.2349 3.76947 18.2522C3.76947 19.2696 4.59419 20.0943 5.61153 20.0943Z" fill="#633A82"/>
<path d="M10.278 8.92735C11.2953 8.92735 12.12 8.10264 12.12 7.0853C12.12 6.06796 11.2953 5.24325 10.278 5.24325C9.26061 5.24325 8.4359 6.06796 8.4359 7.0853C8.4359 8.10264 9.26061 8.92735 10.278 8.92735Z" fill="#633A82"/>
<path d="M18.4977 24.8553C18.4983 25.9863 18.1156 27.0842 17.412 27.9697C16.7084 28.8553 15.7254 29.4762 14.6235 29.7313C13.5216 29.9863 12.3658 29.8604 11.3447 29.3741C10.3235 28.8878 9.49735 28.0698 9.00091 27.0535C8.61648 27.1478 8.22192 27.1945 7.82609 27.1927C7.13765 27.1969 6.45589 27.0575 5.82439 26.7833C4.92979 26.3936 4.1687 25.7508 3.63484 24.934C3.10098 24.1173 2.81767 23.1622 2.8198 22.1864C2.82511 21.8365 2.86625 21.4881 2.9426 21.1466C2.11287 20.6524 1.44393 19.9286 1.01656 19.0626C0.589194 18.1965 0.421665 17.2253 0.534204 16.2661C0.646743 15.3069 1.03454 14.4008 1.65077 13.6572C2.267 12.9136 3.08531 12.3643 4.0069 12.0755C3.38935 11.3478 2.99309 10.4584 2.86498 9.51259C2.73687 8.56677 2.88225 7.60403 3.28395 6.73821C3.68564 5.87239 4.32685 5.13969 5.13176 4.62674C5.93667 4.11379 6.87163 3.84204 7.82609 3.84361C8.13513 3.84303 8.44353 3.87182 8.74712 3.92958C9.12109 2.80074 9.88498 1.84206 10.9018 1.22545C11.9186 0.608844 13.1218 0.374652 14.2957 0.564874C15.4695 0.755095 16.5372 1.35729 17.3073 2.26345C18.0773 3.16962 18.4994 4.32048 18.4977 5.50965" stroke="#192965" stroke-linecap="round" stroke-linejoin="round"/>
<path d="M22.1819 9.86065H14.8137C14.3794 9.86065 13.963 10.0332 13.6559 10.3402C13.3488 10.6473 13.1763 11.0638 13.1763 11.498V18.8662C13.1763 19.3005 13.3488 19.717 13.6559 20.0241C13.963 20.3311 14.3794 20.5036 14.8137 20.5036H22.1819C22.6162 20.5036 23.0326 20.3311 23.3397 20.0241C23.6468 19.717 23.8193 19.3005 23.8193 18.8662V11.498C23.8193 11.0638 23.6468 10.6473 23.3397 10.3402C23.0326 10.0332 22.6162 9.86065 22.1819 9.86065ZM19.7258 17.4335H17.2698C17.0526 17.4335 16.8444 17.3473 16.6909 17.1938C16.5373 17.0402 16.4511 16.832 16.4511 16.6148V13.7494C16.4511 13.5323 16.5373 13.3241 16.6909 13.1705C16.8444 13.017 17.0526 12.9307 17.2698 12.9307H19.7258C19.943 12.9307 20.1512 13.017 20.3047 13.1705C20.4583 13.3241 20.5445 13.5323 20.5445 13.7494V16.6148C20.5445 16.832 20.4583 17.0402 20.3047 17.1938C20.1512 17.3473 19.943 17.4335 19.7258 17.4335Z" stroke="#192965" stroke-linecap="round" stroke-linejoin="round"/>
<path d="M19.7258 12.9307H17.2697C16.8176 12.9307 16.451 13.2973 16.451 13.7494V16.6149C16.451 17.067 16.8176 17.4335 17.2697 17.4335H19.7258C20.178 17.4335 20.5445 17.067 20.5445 16.6149V13.7494C20.5445 13.2973 20.178 12.9307 19.7258 12.9307Z" stroke="#192965" stroke-linecap="round" stroke-linejoin="round"/>
<path d="M18.4977 5.50932C18.496 4.32015 18.9181 3.16929 19.6881 2.26313C20.4582 1.35696 21.5259 0.754767 22.6997 0.564546C23.8736 0.374324 25.0768 0.608516 26.0936 1.22512C27.1104 1.84173 27.8743 2.80041 28.2483 3.92925C28.5519 3.87149 28.8603 3.84271 29.1693 3.84328C30.326 3.83964 31.448 4.23762 32.3439 4.96925C33.2398 5.70088 33.8539 6.7208 34.0815 7.85487M33.8809 23.8766C33.6513 24.5163 33.2941 25.1026 32.8311 25.6001C32.3681 26.0976 31.8089 26.4958 31.1874 26.7707C30.5559 27.0449 29.8741 27.1843 29.1857 27.1801C28.7849 27.1873 28.3848 27.1447 27.9945 27.0532C27.4981 28.0694 26.6719 28.8875 25.6507 29.3738C24.6296 29.8601 23.4738 29.986 22.3719 29.731C21.27 29.4759 20.287 28.855 19.5834 27.9694C18.8798 27.0839 18.4971 25.986 18.4977 24.855M35.0803 13.3524C35.6071 13.8927 36.0047 14.5452 36.2433 15.2611C36.482 15.977 36.5554 16.7377 36.4581 17.486C36.3608 18.2343 36.0954 18.9509 35.6816 19.582C35.2679 20.2131 34.7166 20.7423 34.0692 21.1299C34.14 21.472 34.1757 21.8204 34.1756 22.1697C34.1773 22.7461 34.0776 23.3184 33.8809 23.8603M34.0774 7.85487C34.2264 8.59489 34.2058 9.35905 34.0172 10.09C33.8286 10.8209 33.4769 11.4996 32.9885 12.0752M28.805 10.3109C30.5979 12.7261 32.9885 12.0752 32.9885 12.0752" stroke="#192965" stroke-linecap="round" stroke-linejoin="round"/>
<path d="M27.9781 10.5074C28.9954 10.5074 29.8201 9.68271 29.8201 8.66538C29.8201 7.64804 28.9954 6.82332 27.9781 6.82332C26.9607 6.82332 26.136 7.64804 26.136 8.66538C26.136 9.68271 26.9607 10.5074 27.9781 10.5074Z" stroke="#192965" stroke-linecap="round" stroke-linejoin="round"/>
<path d="M28.8052 23.5573C29.8225 23.5573 30.6472 22.7326 30.6472 21.7153C30.6472 20.698 29.8225 19.8732 28.8052 19.8732C27.7878 19.8732 26.9631 20.698 26.9631 21.7153C26.9631 22.7326 27.7878 23.5573 28.8052 23.5573Z" stroke="#192965" stroke-linecap="round" stroke-linejoin="round"/>
<path d="M5.61153 20.0943C6.62887 20.0943 7.45358 19.2696 7.45358 18.2522C7.45358 17.2349 6.62887 16.4102 5.61153 16.4102C4.59419 16.4102 3.76947 17.2349 3.76947 18.2522C3.76947 19.2696 4.59419 20.0943 5.61153 20.0943Z" stroke="#192965" stroke-linecap="round" stroke-linejoin="round"/>
<path d="M10.278 8.92735C11.2953 8.92735 12.12 8.10264 12.12 7.0853C12.12 6.06796 11.2953 5.24325 10.278 5.24325C9.26061 5.24325 8.4359 6.06796 8.4359 7.0853C8.4359 8.10264 9.26061 8.92735 10.278 8.92735Z" stroke="#192965" stroke-linecap="round" stroke-linejoin="round"/>
<path d="M15.8083 7.43734V9.86066" stroke="#192965" stroke-linecap="round" stroke-linejoin="round"/>
<path d="M18.4977 7.43734V9.86066" stroke="#192965" stroke-linecap="round" stroke-linejoin="round"/>
<path d="M21.1873 7.43734V9.86066" stroke="#192965" stroke-linecap="round" stroke-linejoin="round"/>
<path d="M23.819 17.5318H26.2424" stroke="#192965" stroke-linecap="round" stroke-linejoin="round"/>
<path d="M23.819 14.8424H26.2424" stroke="#192965" stroke-linecap="round" stroke-linejoin="round"/>
<path d="M23.819 12.153H26.2424" stroke="#192965" stroke-linecap="round" stroke-linejoin="round"/>
<path d="M10.7282 17.5563H13.1515" stroke="#192965" stroke-linecap="round" stroke-linejoin="round"/>
<path d="M10.7282 14.867H13.1515" stroke="#192965" stroke-linecap="round" stroke-linejoin="round"/>
<path d="M10.7282 12.1776H13.1515" stroke="#192965" stroke-linecap="round" stroke-linejoin="round"/>
<path d="M15.8083 20.5036V22.927" stroke="#192965" stroke-linecap="round" stroke-linejoin="round"/>
<path d="M18.4977 20.5036V22.927" stroke="#192965" stroke-linecap="round" stroke-linejoin="round"/>
<path d="M21.1873 20.5036V22.927" stroke="#192965" stroke-linecap="round" stroke-linejoin="round"/>
<path d="M4.00684 12.0752C4.00684 12.0752 7.63364 13.2541 6.4056 16.578M9.33651 5.50523C8.97576 5.05691 8.76906 4.50428 8.74706 3.92925M9.00085 27.0532C9.00085 27.0532 8.22309 24.4579 9.49206 22.6895M29.2634 23.496C29.2225 25.2971 27.9945 27.0491 27.9945 27.0491M34.0528 21.1463C34.0528 21.1463 31.5476 20.3563 32.9721 17.1634M8.76343 25.2725C8.76343 25.2725 11.8663 27.2824 13.9949 24.5316M27.5033 27.8719C27.5033 27.8719 25.7185 24.7199 22.7712 27.0532" stroke="#192965" stroke-linecap="round" stroke-linejoin="round"/>
</svg>
