<svg width="16" height="20" viewBox="0 0 16 20" fill="none" xmlns="http://www.w3.org/2000/svg">
<path d="M7.781 20C8.90921 20 9.83228 19.0769 9.83228 17.9487H5.72972C5.72972 19.0769 6.64254 20 7.781 20ZM13.9348 13.8462V8.71795C13.9348 5.56923 12.2528 2.93333 9.31946 2.2359V1.53846C9.31946 0.68718 8.63228 0 7.781 0C6.92972 0 6.24254 0.68718 6.24254 1.53846V2.2359C3.29895 2.93333 1.62716 5.55897 1.62716 8.71795V13.8462L0.304079 15.1692C-0.342075 15.8154 0.109207 16.9231 1.02203 16.9231H14.5297C15.4425 16.9231 15.9041 15.8154 15.2579 15.1692L13.9348 13.8462Z" fill="#232323"/>
</svg>
