<svg width="58" height="64" viewBox="0 0 58 64" fill="none" xmlns="http://www.w3.org/2000/svg">
<path d="M23.2 32C26.6611 32 29.9804 30.6208 32.4277 28.1658C34.8751 25.7107 36.25 22.381 36.25 18.9091V13.0909C36.25 9.61898 34.8751 6.28926 32.4277 3.83424C29.9804 1.37922 26.6611 0 23.2 0C19.7389 0 16.4196 1.37922 13.9723 3.83424C11.5249 6.28926 10.15 9.61898 10.15 13.0909V18.9091C10.15 22.381 11.5249 25.7107 13.9723 28.1658C16.4196 30.6208 19.7389 32 23.2 32ZM13.05 13.0909C13.05 10.3905 14.1194 7.80074 16.0229 5.89128C17.9264 3.98181 20.5081 2.90909 23.2 2.90909C25.8919 2.90909 28.4736 3.98181 30.3771 5.89128C32.2806 7.80074 33.35 10.3905 33.35 13.0909V18.9091C33.35 21.6095 32.2806 24.1993 30.3771 26.1087C28.4736 28.0182 25.8919 29.0909 23.2 29.0909C20.5081 29.0909 17.9264 28.0182 16.0229 26.1087C14.1194 24.1993 13.05 21.6095 13.05 18.9091V13.0909ZM2.9 58.1818H30.45V61.0909H1.45C1.06544 61.0909 0.696623 60.9377 0.424695 60.6649C0.152768 60.3921 0 60.0221 0 59.6364V48C0 44.5281 1.37491 41.1983 3.82226 38.7433C6.26961 36.2883 9.58893 34.9091 13.05 34.9091H30.45V37.8182H13.05C10.3581 37.8182 7.77636 38.8909 5.87287 40.8004C3.96937 42.7098 2.9 45.2996 2.9 48V58.1818ZM43.5 34.9091C40.6322 34.9091 37.8287 35.7622 35.4442 37.3604C33.0597 38.9587 31.2012 41.2304 30.1037 43.8882C29.0063 46.5461 28.7191 49.4707 29.2786 52.2922C29.8381 55.1138 31.2191 57.7055 33.247 59.7397C35.2748 61.7739 37.8585 63.1593 40.6712 63.7205C43.4839 64.2818 46.3994 63.9937 49.0489 62.8928C51.6984 61.7919 53.963 59.9276 55.5563 57.5356C57.1496 55.1436 58 52.3314 58 49.4545C58 45.5968 56.4723 41.8972 53.7531 39.1694C51.0338 36.4416 47.3456 34.9091 43.5 34.9091ZM43.5 61.0909C41.2057 61.0909 38.963 60.4084 37.0554 59.1298C35.1478 57.8512 33.661 56.0339 32.783 53.9076C31.905 51.7813 31.6753 49.4416 32.1229 47.1844C32.5705 44.9272 33.6753 42.8538 35.2976 41.2264C36.9198 39.599 38.9868 38.4908 41.237 38.0418C43.4871 37.5928 45.8195 37.8232 47.9391 38.7039C50.0588 39.5847 51.8704 41.0761 53.1451 42.9897C54.4197 44.9033 55.1 47.1531 55.1 49.4545C55.1 52.5407 53.8779 55.5005 51.7024 57.6827C49.527 59.8649 46.5765 61.0909 43.5 61.0909ZM44.95 48H50.75V50.9091H44.95V56.7273H42.05V50.9091H36.25V48H42.05V42.1818H44.95V48Z" fill="#232323" fill-opacity="0.49"/>
</svg>
