<svg width="18" height="18" viewBox="0 0 18 18" fill="none" xmlns="http://www.w3.org/2000/svg">
<path d="M7.29238 4.13036C7.0581 1.43387 4.24669 0.11079 4.12771 0.0567868C4.01648 0.00446945 3.89183 -0.0122459 3.77076 0.00892019C0.525136 0.547727 0.0369424 2.43785 0.0173166 2.5164C-0.00938527 2.62586 -0.00513834 2.74059 0.0295827 2.84778C3.90078 14.866 11.9462 17.0936 14.5907 17.8264C14.7944 17.8828 14.9624 17.9282 15.09 17.97C15.2356 18.0175 15.3937 18.0083 15.5328 17.9442C15.6137 17.9074 17.5248 17.0065 17.9922 14.0682C18.0129 13.9399 17.9923 13.8084 17.9333 13.6926C17.8916 13.6116 16.8919 11.708 14.1197 11.0354C14.0257 11.0114 13.9272 11.0105 13.8328 11.033C13.7383 11.0554 13.6507 11.1005 13.5776 11.1643C12.703 11.9118 11.4948 12.7083 10.9735 12.7905C7.47883 11.0808 5.52728 7.80014 5.45368 7.17787C5.41075 6.82807 6.21173 5.5995 7.13292 4.60044C7.19082 4.53756 7.23492 4.46325 7.26238 4.38229C7.28985 4.30133 7.30006 4.21551 7.29238 4.13036Z" fill="#232323"/>
</svg>
