<svg width="21" height="24" viewBox="0 0 21 24" fill="none" xmlns="http://www.w3.org/2000/svg">
<path fill-rule="evenodd" clip-rule="evenodd" d="M21.0002 7.49994C21.0002 6.25756 19.9925 5.25037 18.75 5.25037C15.1176 5.25037 5.88262 5.25037 2.25024 5.25037C1.00773 5.25037 0 6.25756 0 7.49994C0 9.80552 0 14.1943 0 16.4998C0 17.7422 1.00773 18.7494 2.25024 18.7494C5.88262 18.7502 15.1176 18.7502 18.75 18.7502C19.9925 18.7494 21.0002 17.7422 21.0002 16.4998V7.49994ZM19.4995 7.49994C19.4995 7.08555 19.1641 6.75035 18.75 6.75035C15.1176 6.75035 5.88262 6.75035 2.25024 6.74955C1.83607 6.75035 1.50068 7.08555 1.50068 7.49994C1.50068 9.80552 1.50068 14.1943 1.50068 16.4998C1.50068 16.9142 1.83607 17.2494 2.25024 17.2494C5.88262 17.2502 15.1176 17.2502 18.75 17.2502C19.1641 17.2494 19.4995 16.9142 19.4995 16.4998V7.49994Z" fill="#232323"/>
<path fill-rule="evenodd" clip-rule="evenodd" d="M16.5001 0.749992V23.2498C16.5001 23.6637 16.8361 23.9997 17.2501 23.9997C17.6641 23.9997 18.0001 23.6637 18.0001 23.2498V0.749992C18.0001 0.335996 17.6641 0 17.2501 0C16.8361 0 16.5001 0.335996 16.5001 0.749992Z" fill="#232323"/>
<path fill-rule="evenodd" clip-rule="evenodd" d="M14.2502 1.49998H20.25C20.664 1.49998 21 1.16399 21 0.749992C21 0.335996 20.664 0 20.25 0H14.2502C13.8362 0 13.5002 0.335996 13.5002 0.749992C13.5002 1.16399 13.8362 1.49998 14.2502 1.49998Z" fill="#232323"/>
<path fill-rule="evenodd" clip-rule="evenodd" d="M14.2502 23.9997H20.25C20.664 23.9997 21 23.6637 21 23.2497C21 22.8357 20.664 22.4997 20.25 22.4997H14.2502C13.8362 22.4997 13.5002 22.8357 13.5002 23.2497C13.5002 23.6637 13.8362 23.9997 14.2502 23.9997Z" fill="#232323"/>
<path fill-rule="evenodd" clip-rule="evenodd" d="M4.71814 10.7214L3.22231 12.2173C2.9295 12.5101 2.9295 12.9851 3.22231 13.2779C3.51512 13.5707 3.99004 13.5707 4.28285 13.2779L5.77869 11.782C6.0715 11.4892 6.07149 11.0143 5.77869 10.7215C5.48588 10.4286 5.01095 10.4286 4.71814 10.7214Z" fill="#232323"/>
<path fill-rule="evenodd" clip-rule="evenodd" d="M5.77866 12.2177L4.28283 10.7219C3.99002 10.429 3.51509 10.429 3.22229 10.7219C2.92948 11.0147 2.92948 11.4896 3.22229 11.7824L4.71812 13.2783C5.01093 13.5711 5.48585 13.5711 5.77866 13.2783C6.07147 12.9855 6.07147 12.5105 5.77866 12.2177Z" fill="#232323"/>
<path fill-rule="evenodd" clip-rule="evenodd" d="M9.21804 10.7217L7.7222 12.2176C7.42939 12.5104 7.42939 12.9853 7.7222 13.2781C8.01501 13.5709 8.48994 13.5709 8.78275 13.2781L10.2786 11.7823C10.5714 11.4894 10.5714 11.0145 10.2786 10.7217C9.98577 10.4289 9.51085 10.4289 9.21804 10.7217Z" fill="#232323"/>
<path fill-rule="evenodd" clip-rule="evenodd" d="M10.2786 12.218L8.78273 10.7221C8.48992 10.4293 8.01499 10.4293 7.72218 10.7221C7.42937 11.0149 7.42937 11.4899 7.72218 11.7827L9.21801 13.2785C9.51082 13.5713 9.98575 13.5713 10.2786 13.2785C10.5714 12.9857 10.5714 12.5108 10.2786 12.218Z" fill="#232323"/>
<path fill-rule="evenodd" clip-rule="evenodd" d="M13.7179 10.7219L12.2221 12.2178C11.9293 12.5106 11.9293 12.9855 12.2221 13.2784C12.5149 13.5712 12.9898 13.5712 13.2826 13.2784L14.7785 11.7825C15.0713 11.4897 15.0713 11.0148 14.7785 10.7219C14.4857 10.4291 14.0107 10.4291 13.7179 10.7219Z" fill="#232323"/>
<path fill-rule="evenodd" clip-rule="evenodd" d="M14.7785 12.2177L13.2826 10.7219C12.9898 10.429 12.5149 10.429 12.2221 10.7219C11.9293 11.0147 11.9293 11.4896 12.2221 11.7824L13.7179 13.2783C14.0107 13.5711 14.4856 13.5711 14.7785 13.2783C15.0713 12.9855 15.0713 12.5105 14.7785 12.2177Z" fill="#232323"/>
</svg>
