<svg width="37" height="31" viewBox="0 0 37 31" fill="none" xmlns="http://www.w3.org/2000/svg">
<path d="M18.4977 5.50955V9.86087H14.8136C14.3793 9.86087 13.9628 10.0334 13.6558 10.3404C13.3487 10.6475 13.1762 11.064 13.1762 11.4982V18.8664C13.1762 19.3007 13.3487 19.7172 13.6558 20.0242C13.9628 20.3313 14.3793 20.5038 14.8136 20.5038H18.4977V24.8551C18.4983 25.9862 18.1155 27.084 17.4119 27.9696C16.7083 28.8551 15.7254 29.4761 14.6235 29.7311C13.5216 29.9862 12.3658 29.8603 11.3446 29.3739C10.3235 28.8876 9.49731 28.0696 9.00088 27.0533C8.61645 27.1476 8.22189 27.1944 7.82607 27.1925C7.13763 27.1968 6.45587 27.0573 5.82438 26.7831C4.92978 26.3935 4.16868 25.7507 3.63483 24.9339C3.10097 24.1171 2.81766 23.162 2.81979 22.1862C2.8251 21.8364 2.86625 21.488 2.94259 21.1465C2.11286 20.6523 1.44393 19.9285 1.01656 19.0624C0.589192 18.1964 0.421663 17.2251 0.534202 16.2659C0.646741 15.3068 1.03453 14.4007 1.65076 13.6571C2.26699 12.9135 3.0853 12.3641 4.00689 12.0754C3.38934 11.3477 2.99309 10.4583 2.86497 9.51248C2.73686 8.56665 2.88224 7.60392 3.28393 6.7381C3.68563 5.87229 4.32683 5.13959 5.13174 4.62664C5.93665 4.1137 6.87161 3.84194 7.82607 3.84352C8.1351 3.84294 8.4435 3.87172 8.74709 3.92948C9.12106 2.80065 9.88494 1.84197 10.9018 1.22536C11.9186 0.608758 13.1218 0.374567 14.2956 0.564788C15.4695 0.755009 16.5372 1.3572 17.3072 2.26336C18.0773 3.16953 18.4993 4.32038 18.4977 5.50955Z" fill="#40E0D0"/>
<path opacity="0.4" d="M13.1066 28.9729C12.4038 28.4837 11.8397 27.8209 11.4692 27.0489C11.0848 27.1433 10.6902 27.19 10.2944 27.1881C9.60597 27.1924 8.92421 27.053 8.29272 26.7788C7.40004 26.3899 6.64025 25.749 6.10654 24.9346C5.57283 24.1203 5.2884 23.1678 5.28813 22.1941C5.28806 21.8448 5.32372 21.4964 5.39456 21.1544C4.56513 20.6589 3.89695 19.9338 3.47074 19.0668C3.04453 18.1997 2.87855 17.2277 2.99284 16.2684C3.10713 15.309 3.49682 14.4032 4.1148 13.6606C4.73278 12.9179 5.55261 12.3701 6.47523 12.0833C5.85627 11.3571 5.45815 10.4688 5.3279 9.52353C5.19766 8.57824 5.34074 7.61541 5.74023 6.74884C6.13972 5.88226 6.77894 5.14816 7.58233 4.63327C8.38572 4.11839 9.31972 3.84425 10.2739 3.84324C10.583 3.84266 10.8914 3.87145 11.195 3.9292C11.4594 3.13294 11.9195 2.41583 12.5332 1.84366C13.1468 1.27149 13.8943 0.862578 14.7071 0.65445C14.3059 0.551325 13.8934 0.499064 13.4791 0.498899C12.4287 0.499033 11.4049 0.829578 10.5527 1.44374C9.70052 2.0579 9.06311 2.92456 8.73072 3.92101C8.42712 3.86326 8.11873 3.83448 7.80969 3.83505C6.85512 3.83528 5.92057 4.10886 5.11657 4.62343C4.31257 5.13801 3.67274 5.87207 3.27275 6.73879C2.87275 7.60552 2.72932 8.56866 2.85942 9.51433C2.98952 10.46 3.38771 11.3486 4.00689 12.0751C3.0853 12.3639 2.26699 12.9132 1.65076 13.6568C1.03453 14.4004 0.646741 15.3065 0.534202 16.2657C0.421663 17.2248 0.589192 18.1961 1.01656 19.0621C1.44393 19.9282 2.11286 20.652 2.94259 21.1462C2.87175 21.4882 2.83609 21.8366 2.83616 22.1859C2.83363 23.156 3.11322 24.1058 3.64086 24.9198C4.16851 25.7338 4.92145 26.3769 5.808 26.7706C6.4395 27.0448 7.12125 27.1842 7.80969 27.1799C8.21048 27.1872 8.61062 27.1446 9.00088 27.053C9.50128 28.0903 10.3462 28.9218 11.3913 29.4055C12.4364 29.8893 13.6171 29.9953 14.7317 29.7056C14.1503 29.5613 13.5997 29.3131 13.1066 28.9729Z" fill="white"/>
<path d="M22.1817 9.86053H14.8135C14.3793 9.86053 13.9628 10.033 13.6557 10.3401C13.3487 10.6472 13.1761 11.0636 13.1761 11.4979V18.8661C13.1761 19.3004 13.3487 19.7168 13.6557 20.0239C13.9628 20.331 14.3793 20.5035 14.8135 20.5035H22.1817C22.616 20.5035 23.0324 20.331 23.3395 20.0239C23.6466 19.7168 23.8191 19.3004 23.8191 18.8661V11.4979C23.8191 11.0636 23.6466 10.6472 23.3395 10.3401C23.0324 10.033 22.616 9.86053 22.1817 9.86053ZM19.7256 17.4334H17.2696C17.0525 17.4334 16.8442 17.3471 16.6907 17.1936C16.5372 17.0401 16.4509 16.8318 16.4509 16.6147V13.7493C16.4509 13.5322 16.5372 13.3239 16.6907 13.1704C16.8442 13.0169 17.0525 12.9306 17.2696 12.9306H19.7256C19.9428 12.9306 20.151 13.0169 20.3045 13.1704C20.4581 13.3239 20.5443 13.5322 20.5443 13.7493V16.6147C20.5443 16.8318 20.4581 17.0401 20.3045 17.1936C20.151 17.3471 19.9428 17.4334 19.7256 17.4334Z" fill="#633A82"/>
<path d="M19.7257 12.9306H17.2697C16.8175 12.9306 16.451 13.2971 16.451 13.7493V16.6147C16.451 17.0668 16.8175 17.4334 17.2697 17.4334H19.7257C20.1779 17.4334 20.5444 17.0668 20.5444 16.6147V13.7493C20.5444 13.2971 20.1779 12.9306 19.7257 12.9306Z" fill="#F1FCFC"/>
<path d="M34.0528 21.1462C34.1237 21.4883 34.1593 21.8367 34.1592 22.186C34.1618 23.156 33.8822 24.1059 33.3545 24.9199C32.8269 25.7339 32.074 26.3769 31.1874 26.7706C30.5559 27.0448 29.8742 27.1842 29.1857 27.18C28.7849 27.1872 28.3848 27.1446 27.9945 27.0531C27.4981 28.0693 26.6719 28.8874 25.6508 29.3737C24.6296 29.86 23.4738 29.9859 22.3719 29.7309C21.27 29.4758 20.2871 28.8549 19.5835 27.9693C18.8799 27.0838 18.4972 25.9859 18.4977 24.8549V20.5036H22.1818C22.6161 20.5036 23.0326 20.3311 23.3396 20.024C23.6467 19.7169 23.8192 19.3005 23.8192 18.8662V11.498C23.8192 11.0637 23.6467 10.6473 23.3396 10.3402C23.0326 10.0331 22.6161 9.86063 22.1818 9.86063H18.4977V5.5093C18.4961 4.32014 18.9181 3.16928 19.6882 2.26312C20.4582 1.35695 21.5259 0.754765 22.6998 0.564544C23.8736 0.374323 25.0768 0.608514 26.0936 1.22512C27.1105 1.84172 27.8744 2.8004 28.2483 3.92923C28.5519 3.87148 28.8603 3.84269 29.1693 3.84327C30.1238 3.8417 31.0588 4.11345 31.8637 4.6264C32.6686 5.13935 33.3098 5.87204 33.7115 6.73786C34.1132 7.60368 34.2586 8.56641 34.1304 9.51223C34.0023 10.4581 33.6061 11.3474 32.9885 12.0752C33.9101 12.3639 34.7284 12.9132 35.3446 13.6568C35.9609 14.4004 36.3487 15.3065 36.4612 16.2657C36.5737 17.2249 36.4062 18.1961 35.9788 19.0622C35.5515 19.9282 34.8825 20.652 34.0528 21.1462Z" fill="#40E0D0"/>
<path opacity="0.2" d="M36.5088 16.848C36.5085 15.7808 36.1665 14.7418 35.5331 13.8829C34.8996 13.0241 34.0079 12.3905 32.9885 12.075C33.606 11.3473 34.0023 10.4579 34.1304 9.51207C34.2585 8.56625 34.1131 7.60352 33.7114 6.7377C33.3097 5.87188 32.6685 5.13919 31.8636 4.62624C31.0587 4.11329 30.1237 3.84154 29.1693 3.84311C28.8603 3.84253 28.5519 3.87132 28.2483 3.92907C27.9159 2.93262 27.2785 2.06596 26.4263 1.4518C25.5741 0.837637 24.5503 0.507091 23.4999 0.506958C23.0854 0.507533 22.6727 0.561184 22.2718 0.666602C23.0831 0.875941 23.829 1.28539 24.4411 1.85749C25.0533 2.42958 25.5122 3.14606 25.7758 3.94135C26.075 3.88024 26.3792 3.84735 26.6846 3.84311C27.639 3.84154 28.574 4.11329 29.3789 4.62624C30.1838 5.13919 30.825 5.87188 31.2267 6.7377C31.6284 7.60352 31.7738 8.56625 31.6457 9.51207C31.5176 10.4579 31.1213 11.3473 30.5038 12.075C31.4271 12.3603 32.2481 12.907 32.8674 13.6489C33.4867 14.3909 33.8778 15.2964 33.9934 16.2559C34.109 17.2154 33.9442 18.1879 33.5189 19.0558C33.0935 19.9236 32.4259 20.6496 31.5967 21.1461C31.6675 21.4881 31.7032 21.8365 31.7031 22.1858C31.7029 23.1595 31.4184 24.1119 30.8847 24.9263C30.351 25.7407 29.5912 26.3816 28.6985 26.7705C28.067 27.0447 27.3853 27.1841 26.6969 27.1798C26.3015 27.1857 25.907 27.1431 25.522 27.0529C25.2042 27.7032 24.7489 28.2768 24.1878 28.7341C23.6267 29.1913 22.973 29.5214 22.2718 29.7014C22.6727 29.8068 23.0854 29.8604 23.4999 29.861C24.4367 29.8599 25.3544 29.5962 26.1488 29.0999C26.9433 28.6035 27.5827 27.8943 27.9945 27.0529C28.3789 27.1472 28.7735 27.194 29.1693 27.1921C29.8577 27.1964 30.5395 27.0569 31.171 26.7827C32.0637 26.3939 32.8234 25.753 33.3572 24.9386C33.8909 24.1242 34.1753 23.1718 34.1756 22.1981C34.1711 21.8441 34.1299 21.4916 34.0528 21.1461C34.7996 20.704 35.4186 20.0754 35.8492 19.3218C36.2798 18.5683 36.5071 17.7158 36.5088 16.848Z" fill="black"/>
<path d="M27.978 10.5073C28.9953 10.5073 29.82 9.68256 29.82 8.66522C29.82 7.64789 28.9953 6.82318 27.978 6.82318C26.9606 6.82318 26.1359 7.64789 26.1359 8.66522C26.1359 9.68256 26.9606 10.5073 27.978 10.5073Z" fill="#633A82"/>
<path d="M28.805 23.5573C29.8223 23.5573 30.647 22.7326 30.647 21.7152C30.647 20.6979 29.8223 19.8732 28.805 19.8732C27.7876 19.8732 26.9629 20.6979 26.9629 21.7152C26.9629 22.7326 27.7876 23.5573 28.805 23.5573Z" fill="#633A82"/>
<path d="M5.61163 20.0943C6.62897 20.0943 7.45368 19.2696 7.45368 18.2522C7.45368 17.2349 6.62897 16.4102 5.61163 16.4102C4.5943 16.4102 3.76958 17.2349 3.76958 18.2522C3.76958 19.2696 4.5943 20.0943 5.61163 20.0943Z" fill="#633A82"/>
<path d="M10.278 8.9273C11.2954 8.9273 12.1201 8.10259 12.1201 7.08525C12.1201 6.06792 11.2954 5.24321 10.278 5.24321C9.2607 5.24321 8.43599 6.06792 8.43599 7.08525C8.43599 8.10259 9.2607 8.9273 10.278 8.9273Z" fill="#633A82"/>
<path d="M18.4977 24.8551C18.4983 25.9862 18.1155 27.084 17.4119 27.9696C16.7083 28.8551 15.7254 29.4761 14.6235 29.7311C13.5216 29.9862 12.3658 29.8603 11.3446 29.3739C10.3235 28.8876 9.49731 28.0696 9.00088 27.0533C8.61645 27.1476 8.22189 27.1944 7.82607 27.1925C7.13763 27.1968 6.45587 27.0573 5.82438 26.7831C4.92978 26.3935 4.16868 25.7507 3.63483 24.9339C3.10097 24.1171 2.81766 23.162 2.81979 22.1862C2.8251 21.8364 2.86625 21.488 2.94259 21.1465C2.11286 20.6523 1.44393 19.9285 1.01656 19.0624C0.589192 18.1964 0.421663 17.2251 0.534202 16.2659C0.646741 15.3068 1.03453 14.4007 1.65076 13.6571C2.26699 12.9135 3.0853 12.3641 4.00689 12.0754C3.38934 11.3477 2.99308 10.4583 2.86497 9.51248C2.73686 8.56665 2.88224 7.60392 3.28393 6.7381C3.68563 5.87229 4.32683 5.13959 5.13174 4.62664C5.93665 4.1137 6.87161 3.84194 7.82607 3.84352C8.1351 3.84294 8.4435 3.87172 8.74709 3.92948C9.12106 2.80065 9.88494 1.84197 10.9018 1.22536C11.9186 0.608758 13.1218 0.374567 14.2956 0.564788C15.4695 0.755009 16.5372 1.3572 17.3072 2.26336C18.0773 3.16952 18.4993 4.32038 18.4977 5.50955" stroke="#192965" stroke-linecap="round" stroke-linejoin="round"/>
<path d="M22.1817 9.86053H14.8135C14.3793 9.86053 13.9628 10.033 13.6557 10.3401C13.3487 10.6472 13.1761 11.0636 13.1761 11.4979V18.8661C13.1761 19.3004 13.3487 19.7168 13.6557 20.0239C13.9628 20.331 14.3793 20.5035 14.8135 20.5035H22.1817C22.616 20.5035 23.0324 20.331 23.3395 20.0239C23.6466 19.7168 23.8191 19.3004 23.8191 18.8661V11.4979C23.8191 11.0636 23.6466 10.6472 23.3395 10.3401C23.0324 10.033 22.616 9.86053 22.1817 9.86053ZM19.7256 17.4334H17.2696C17.0525 17.4334 16.8442 17.3471 16.6907 17.1936C16.5372 17.0401 16.4509 16.8318 16.4509 16.6147V13.7493C16.4509 13.5322 16.5372 13.3239 16.6907 13.1704C16.8442 13.0169 17.0525 12.9306 17.2696 12.9306H19.7256C19.9428 12.9306 20.151 13.0169 20.3045 13.1704C20.4581 13.3239 20.5443 13.5322 20.5443 13.7493V16.6147C20.5443 16.8318 20.4581 17.0401 20.3045 17.1936C20.151 17.3471 19.9428 17.4334 19.7256 17.4334Z" stroke="#192965" stroke-linecap="round" stroke-linejoin="round"/>
<path d="M19.7257 12.9306H17.2697C16.8175 12.9306 16.451 13.2971 16.451 13.7493V16.6147C16.451 17.0668 16.8175 17.4334 17.2697 17.4334H19.7257C20.1779 17.4334 20.5444 17.0668 20.5444 16.6147V13.7493C20.5444 13.2971 20.1779 12.9306 19.7257 12.9306Z" stroke="#192965" stroke-linecap="round" stroke-linejoin="round"/>
<path d="M18.4977 5.5093C18.4961 4.32014 18.9181 3.16928 19.6882 2.26312C20.4582 1.35695 21.5259 0.754765 22.6998 0.564544C23.8736 0.374323 25.0768 0.608514 26.0936 1.22512C27.1105 1.84172 27.8743 2.8004 28.2483 3.92923C28.5519 3.87148 28.8603 3.84269 29.1693 3.84327C30.326 3.83963 31.4481 4.2376 32.3439 4.96923C33.2398 5.70086 33.8539 6.72078 34.0815 7.85484M33.8809 23.8766C33.6513 24.5162 33.2941 25.1025 32.8311 25.6C32.3681 26.0975 31.8089 26.4957 31.1874 26.7706C30.5559 27.0448 29.8742 27.1842 29.1857 27.18C28.7849 27.1872 28.3848 27.1446 27.9945 27.0531C27.4981 28.0693 26.6719 28.8874 25.6508 29.3737C24.6296 29.86 23.4738 29.9859 22.3719 29.7309C21.27 29.4758 20.2871 28.8549 19.5835 27.9693C18.8799 27.0838 18.4972 25.9859 18.4977 24.8549M35.0803 13.3523C35.6071 13.8926 36.0047 14.5452 36.2434 15.2611C36.482 15.977 36.5554 16.7376 36.4581 17.4859C36.3608 18.2343 36.0954 18.9508 35.6816 19.5819C35.2679 20.213 34.7166 20.7422 34.0692 21.1299C34.14 21.4719 34.1757 21.8203 34.1756 22.1696C34.1773 22.7461 34.0776 23.3183 33.8809 23.8602M34.0774 7.85484C34.2264 8.59486 34.2058 9.35902 34.0172 10.09C33.8286 10.8209 33.4769 11.4996 32.9885 12.0752M28.805 10.3109C30.598 12.726 32.9885 12.0752 32.9885 12.0752" stroke="#192965" stroke-linecap="round" stroke-linejoin="round"/>
<path d="M27.978 10.5073C28.9953 10.5073 29.82 9.68256 29.82 8.66522C29.82 7.64789 28.9953 6.82318 27.978 6.82318C26.9606 6.82318 26.1359 7.64789 26.1359 8.66522C26.1359 9.68256 26.9606 10.5073 27.978 10.5073Z" stroke="#192965" stroke-linecap="round" stroke-linejoin="round"/>
<path d="M28.805 23.5573C29.8223 23.5573 30.647 22.7326 30.647 21.7152C30.647 20.6979 29.8223 19.8732 28.805 19.8732C27.7876 19.8732 26.9629 20.6979 26.9629 21.7152C26.9629 22.7326 27.7876 23.5573 28.805 23.5573Z" stroke="#192965" stroke-linecap="round" stroke-linejoin="round"/>
<path d="M5.61163 20.0943C6.62897 20.0943 7.45368 19.2696 7.45368 18.2522C7.45368 17.2349 6.62897 16.4102 5.61163 16.4102C4.5943 16.4102 3.76958 17.2349 3.76958 18.2522C3.76958 19.2696 4.5943 20.0943 5.61163 20.0943Z" stroke="#192965" stroke-linecap="round" stroke-linejoin="round"/>
<path d="M10.278 8.9273C11.2954 8.9273 12.1201 8.10259 12.1201 7.08525C12.1201 6.06792 11.2954 5.24321 10.278 5.24321C9.2607 5.24321 8.43599 6.06792 8.43599 7.08525C8.43599 8.10259 9.2607 8.9273 10.278 8.9273Z" stroke="#192965" stroke-linecap="round" stroke-linejoin="round"/>
<path d="M15.8083 7.43734V9.86065" stroke="#192965" stroke-linecap="round" stroke-linejoin="round"/>
<path d="M18.4977 7.43734V9.86065" stroke="#192965" stroke-linecap="round" stroke-linejoin="round"/>
<path d="M21.1871 7.43734V9.86065" stroke="#192965" stroke-linecap="round" stroke-linejoin="round"/>
<path d="M23.8191 17.5318H26.2424" stroke="#192965" stroke-linecap="round" stroke-linejoin="round"/>
<path d="M23.8191 14.8422H26.2424" stroke="#192965" stroke-linecap="round" stroke-linejoin="round"/>
<path d="M23.8191 12.1528H26.2424" stroke="#192965" stroke-linecap="round" stroke-linejoin="round"/>
<path d="M10.7283 17.5562H13.1516" stroke="#192965" stroke-linecap="round" stroke-linejoin="round"/>
<path d="M10.7283 14.8669H13.1516" stroke="#192965" stroke-linecap="round" stroke-linejoin="round"/>
<path d="M10.7283 12.1775H13.1516" stroke="#192965" stroke-linecap="round" stroke-linejoin="round"/>
<path d="M15.8083 20.5035V22.9268" stroke="#192965" stroke-linecap="round" stroke-linejoin="round"/>
<path d="M18.4977 20.5035V22.9268" stroke="#192965" stroke-linecap="round" stroke-linejoin="round"/>
<path d="M21.1871 20.5035V22.9268" stroke="#192965" stroke-linecap="round" stroke-linejoin="round"/>
<path d="M4.00695 12.0751C4.00695 12.0751 7.63373 13.254 6.4057 16.5779M9.3366 5.50514C8.97585 5.05682 8.76915 4.50419 8.74715 3.92917M9.00094 27.053C9.00094 27.053 8.22319 24.4578 9.49215 22.6894M29.2635 23.4958C29.2225 25.2969 27.9945 27.0489 27.9945 27.0489M34.0528 21.1462C34.0528 21.1462 31.5476 20.3561 32.9721 17.1633M8.76352 25.2724C8.76352 25.2724 11.8663 27.2822 13.9949 24.5314M27.5033 27.8717C27.5033 27.8717 25.7185 24.7197 22.7713 27.053" stroke="#192965" stroke-linecap="round" stroke-linejoin="round"/>
</svg>
