<svg width="186" height="225" viewBox="0 0 186 225" fill="none" xmlns="http://www.w3.org/2000/svg">
<path d="M160.245 198.305C165.497 196.526 170.522 194.147 175.217 191.216C175.541 191.012 180.221 188.011 182.902 183.339C183.463 182.362 184.035 181.14 183.697 179.794C183.481 179.036 183.058 178.353 182.473 177.82C181.888 177.287 181.165 176.925 180.385 176.775C179.261 176.59 178.269 177.006 176.94 177.562C175.334 178.235 174.919 178.825 173.892 178.744C173.174 178.687 172.223 178.306 171.905 177.562C171.283 176.11 173.458 174.166 173.627 174.018C175.013 172.806 175.735 173.229 178.132 172.049C179.776 171.222 181.257 170.111 182.505 168.767C183.852 167.42 184.615 166.634 184.492 165.616C184.384 165.085 184.128 164.595 183.753 164.201C183.378 163.807 182.9 163.524 182.372 163.384C180.979 163.017 180.35 164.118 178.795 163.778C177.88 163.578 176.82 162.917 176.675 162.071C176.53 161.224 177.358 160.51 178.662 159.314C183.344 155.022 184.041 153.796 184.36 153.144C184.807 152.229 185.536 150.738 185.022 149.075C184.823 148.409 184.467 147.8 183.983 147.298C183.499 146.795 182.902 146.414 182.24 146.186C179.43 145.388 175.624 148.458 174.157 151.569C172.931 154.168 172.17 156.164 172.17 156.164C171.839 157.105 171.295 157.958 170.58 158.658C170.213 159.008 169.379 159.801 168.725 159.577C168.303 159.432 168.235 158.961 167.797 157.87C167.144 156.243 166.818 155.429 166.207 155.113C165.283 154.635 163.847 155.259 163.027 156.032C161.738 157.251 161.719 159.085 161.702 160.759C161.687 162.289 161.949 162.294 162.232 165.091C162.395 166.661 162.439 168.24 162.365 169.817C162.216 172.894 161.711 173.33 161.437 173.493C160.769 173.89 159.916 173.586 158.92 173.23C157.537 172.705 156.308 171.848 155.343 170.736C153.978 169.237 154.193 168.665 153.355 168.11C152.628 167.675 151.763 167.526 150.931 167.693C149.917 167.844 148.952 168.223 148.109 168.8C147.266 169.378 146.568 170.139 146.068 171.025C145.874 171.357 145.697 171.699 145.538 172.049C143.503 176.532 145.083 181.039 145.935 183.47C149.088 192.466 157.753 197.078 160.245 198.305Z" fill="#3CA05D"/>
<path d="M160.245 198.305C160.245 198.305 162.355 172.987 182.916 146.464L182.915 146.463C183.926 147.038 184.679 147.971 185.024 149.074C185.535 150.736 184.807 152.228 184.361 153.143C184.041 153.796 183.342 155.021 178.664 159.313C177.357 160.51 176.529 161.224 176.676 162.07C176.82 162.916 177.88 163.576 178.796 163.777C180.35 164.12 180.979 163.019 182.374 163.383C182.902 163.523 183.379 163.807 183.754 164.201C184.128 164.595 184.384 165.085 184.494 165.615C184.615 166.632 183.853 167.42 182.506 168.766C181.258 170.109 179.777 171.221 178.134 172.048C175.734 173.229 175.013 172.806 173.629 174.017C173.46 174.166 171.284 176.11 171.906 177.562C172.223 178.305 173.173 178.688 173.894 178.743C174.917 178.827 175.333 178.236 176.941 177.562C178.27 177.007 179.26 176.591 180.386 176.774C181.166 176.924 181.889 177.286 182.474 177.819C183.059 178.352 183.483 179.036 183.699 179.793C184.034 181.139 183.463 182.361 182.904 183.338C180.221 188.009 175.543 191.01 175.219 191.215C170.524 194.147 165.499 196.526 160.247 198.304" fill="#4FBA75"/>
<path d="M161.972 188.996C160.819 188.516 159.714 187.931 158.67 187.25C157.616 186.572 156.631 185.796 155.728 184.932C154.82 184.059 154.062 183.045 153.485 181.931C153.204 181.369 152.998 180.773 152.872 180.159C152.756 179.546 152.734 178.921 152.805 178.302C152.809 179.528 153.13 180.733 153.737 181.803C154.336 182.866 155.094 183.834 155.986 184.673C156.866 185.532 157.817 186.317 158.829 187.019C159.839 187.735 160.889 188.395 161.972 188.996ZM168.951 169.359C168.323 168.727 167.751 168.042 167.242 167.311C166.72 166.585 166.262 165.818 165.87 165.016C165.473 164.212 165.17 163.366 164.967 162.494C164.766 161.622 164.733 160.719 164.871 159.835C164.875 160.711 165 161.583 165.242 162.426C165.494 163.261 165.815 164.074 166.201 164.858C166.586 165.646 167.012 166.413 167.477 167.158C167.941 167.906 168.432 168.64 168.951 169.359Z" fill="#4FBA75"/>
<path d="M161.959 188.857C163.186 189.046 164.423 189.169 165.663 189.225C166.897 189.292 168.134 189.256 169.361 189.119C170.585 189.005 171.785 188.707 172.92 188.237C174.063 187.768 175.066 187.016 175.834 186.054C175.504 186.584 175.097 187.062 174.624 187.473C174.142 187.879 173.609 188.222 173.038 188.492C171.889 189.016 170.661 189.349 169.403 189.48C168.154 189.607 166.895 189.615 165.645 189.504C164.399 189.401 163.165 189.184 161.959 188.857ZM168.707 169.141C169.564 168.892 170.408 168.615 171.239 168.311C172.069 168.01 172.882 167.667 173.676 167.283C174.468 166.903 175.227 166.459 175.946 165.957C176.662 165.442 177.304 164.833 177.853 164.146C177.41 164.926 176.822 165.615 176.12 166.178C175.417 166.74 174.651 167.221 173.838 167.61C173.03 168.001 172.191 168.324 171.329 168.576C170.473 168.839 169.596 169.028 168.707 169.141Z" fill="#C0E2CC"/>
<path d="M160.454 196.601C160.714 194.459 161.13 192.338 161.585 190.228C162.077 188.126 162.613 186.032 163.24 183.964C163.552 182.93 163.851 181.891 164.215 180.874C164.575 179.855 164.89 178.819 165.286 177.813L166.436 174.781L167.691 171.79C169.419 167.824 171.377 163.961 173.555 160.22C174.606 158.327 175.81 156.526 176.972 154.701C177.542 153.781 178.201 152.92 178.824 152.036L180.713 149.398C178.272 152.968 175.889 156.577 173.802 160.358C171.666 164.11 169.739 167.974 168.028 171.934C166.295 175.884 164.787 179.928 163.51 184.045C162.851 186.098 162.287 188.179 161.76 190.269C161.247 192.361 160.773 194.467 160.454 196.601Z" fill="#C0E2CC"/>
<path d="M150.313 224.447H174.758L181.308 198.432H143.763L150.313 224.447Z" fill="#601F24"/>
<path d="M143.013 198.592H182.059C183.287 198.592 184.283 197.606 184.283 196.389C184.283 195.172 183.287 194.186 182.059 194.186L143.013 194.186C141.784 194.186 140.789 195.172 140.789 196.389C140.789 197.606 141.784 198.592 143.013 198.592Z" fill="#7A3C43"/>
<path d="M80.1186 172.074L96.1243 207.898L86.9386 211.897L70.7935 184.868L80.1186 172.074Z" fill="#104F54"/>
<path d="M80.1186 172.074L70.7933 184.869L74.2553 190.664C78.538 183.127 79.5083 175.654 80.4721 172.865L80.1186 172.074Z" fill="#0A3E3F"/>
<path d="M60.1846 140.635C60.1846 140.635 73.113 154.898 75.2472 154.208C75.2472 154.208 75.9122 156.598 93.1089 144.034C93.1089 144.034 95.0574 146.83 97.6555 145.129L102.573 142.234C102.573 142.234 105.264 146.141 106.331 145.29C106.331 145.29 106.656 142.716 100.694 136.809C100.694 136.809 100.578 135.959 92.413 139.544C87.2936 141.736 81.8328 143.043 76.2679 143.406C76.2679 143.406 72.1435 140.234 68.8472 133.661L60.1846 140.635Z" fill="#F6B98A"/>
<path d="M52.7461 162.574C52.7461 162.574 84.2631 157.273 80.9227 171.063C80.9227 171.063 78.17 184.317 57.7102 211.898L49.6377 208.174C49.6377 208.174 61.3754 184.363 62.1177 177.652L53.3028 177.836L52.7461 162.574Z" fill="#104F54"/>
<path d="M14.0171 155.487L5.12971 154.898C4.66485 154.866 4.22471 154.679 3.88162 154.366C3.53853 154.054 3.3129 153.635 3.24181 153.179L0.0254818 132.843C-0.0582937 132.32 0.0662795 131.785 0.372932 131.351C0.679584 130.917 1.14435 130.618 1.66923 130.516L10.6063 128.822C10.8797 128.771 11.1608 128.776 11.4324 128.836C11.704 128.895 11.9605 129.009 12.1862 129.171C12.412 129.332 12.6022 129.537 12.7454 129.773C12.8885 130.01 12.9816 130.273 13.019 130.546L16.1857 153.165C16.2286 153.465 16.2035 153.77 16.1123 154.06C16.0211 154.349 15.866 154.614 15.6584 154.837C15.4507 155.059 15.1957 155.233 14.9118 155.345C14.6279 155.458 14.3223 155.506 14.0171 155.487Z" fill="#4FBA75"/>
<path d="M11.5019 224.378H8.64841L24.2291 185.282H29.8276L11.5019 224.378Z" fill="#874106"/>
<path d="M48.6412 224.418L30.5387 185.282H36.1372L51.7562 224.418H48.6412Z" fill="#874106"/>
<path d="M163.21 157.15H89.8613V162.574H163.21V157.15Z" fill="#874106"/>
<path d="M154.303 224.447H151.122L144.421 162.574H154.303V224.447Z" fill="#874106"/>
<path d="M49.6377 208.174C49.6377 208.174 42.8656 221.33 43.9172 222.495L54.3308 222.679L55.5606 219.176L51.045 217.889L54.5561 210.443L49.6377 208.174ZM87.7647 211.538C87.7647 211.538 91.8016 220.962 92.049 222.433H100.989L100.037 217.582C100.037 217.582 97.023 218.428 92.9009 209.302L87.7647 211.538Z" fill="#F6B98A"/>
<path d="M61.8624 219.804C60.0346 219.087 57.7406 217.432 56.8205 216.739C56.6898 216.641 56.539 216.572 56.3786 216.538C56.2183 216.504 56.0523 216.504 55.8923 216.54L55.6331 216.598C55.4594 216.636 55.2973 216.714 55.16 216.827C55.0228 216.939 54.9144 217.082 54.8437 217.244C53.0654 221.345 52.122 222.058 51.9616 222.155H42.4002C42.11 222.156 41.8319 222.271 41.627 222.474C41.422 222.678 41.3069 222.954 41.3069 223.241C41.3069 223.529 41.422 223.804 41.627 224.008C41.8319 224.211 42.11 224.326 42.4002 224.327L65.2493 224.263C67.4762 223.527 64.2054 220.723 61.8624 219.804ZM109.674 219.804C107.849 219.088 105.559 217.437 104.636 216.742C104.504 216.643 104.352 216.574 104.19 216.539C104.028 216.504 103.86 216.505 103.699 216.542L103.45 216.597C103.275 216.635 103.111 216.715 102.972 216.828C102.834 216.941 102.724 217.086 102.653 217.249C100.876 221.346 99.9337 222.058 99.7733 222.155H90.2117C89.9216 222.156 89.6435 222.271 89.4385 222.474C89.2336 222.678 89.1185 222.954 89.1185 223.241C89.1185 223.529 89.2336 223.804 89.4385 224.008C89.6435 224.211 89.9216 224.326 90.2117 224.327H100.001C100.123 224.325 100.243 224.304 100.358 224.263H113.061C115.288 223.527 112.017 220.723 109.674 219.804Z" fill="#D4FCDF"/>
<path d="M58.7773 98.4493L49.9843 105.064L52.3285 118.491L57.0143 111.642C57.1714 110.354 57.6451 109.124 58.3938 108.059C59.1424 106.994 60.1432 106.128 61.3084 105.536L61.3871 105.496L58.7773 98.4493Z" fill="#F6B98A"/>
<path d="M58.7773 98.4494C58.7773 98.4494 61.2361 96.8405 61.097 96.7946C60.9687 96.7522 57.0617 94.6818 61.0146 91.7329C61.4326 91.4016 61.9312 91.1849 62.4603 91.1045C62.9895 91.0241 63.5307 91.0829 64.0297 91.275C65.0247 91.6982 65.734 92.6804 63.9734 94.9558L69.7262 90.3131L83.6909 96.9784C83.6909 96.9784 80.2355 100.532 78.9731 103.6C78.8998 103.782 78.8437 103.971 78.8054 104.164L78.3941 106.144C78.3468 106.381 78.2433 106.603 78.092 106.792C77.9407 106.982 77.746 107.132 77.5241 107.232C77.3023 107.332 77.0596 107.378 76.8162 107.366C76.5729 107.354 76.3358 107.285 76.1248 107.164C75.9596 107.064 75.8054 106.947 75.6647 106.816L75.1676 107.618C75.068 107.779 74.9086 107.895 74.7237 107.94C74.5389 107.986 74.3434 107.957 74.1794 107.861L71.7392 106.433L70.3391 108.733C70.2884 108.817 70.2191 108.888 70.1366 108.941C70.0541 108.994 69.9606 109.027 69.863 109.039C69.7654 109.051 69.6664 109.04 69.5735 109.009C69.4805 108.977 69.3961 108.925 69.3266 108.856L68.9375 108.47C68.9375 108.47 65.6672 110.52 61.3871 105.496L58.7773 98.4494Z" fill="#F6B98A"/>
<path d="M81.2018 99.6767C80.3436 97.5354 77.8415 97.256 77.8164 97.2529L77.8737 96.7032C77.9904 96.7149 80.7386 97.0232 81.7207 99.4729L81.2018 99.6767Z" fill="#020202"/>
<path d="M78.6858 100.748C79.0829 100.066 79.1531 99.3698 78.8425 99.1921C78.5319 99.0145 77.9583 99.4229 77.5612 100.104C77.1641 100.786 77.0939 101.482 77.4045 101.66C77.715 101.838 78.2887 101.429 78.6858 100.748Z" fill="#020202"/>
<path d="M56.1498 100.426C56.1498 100.426 42.6321 85.5324 63.3239 71.0985C63.3239 71.0985 78.5411 63.6518 86.3353 78.5453C86.3353 78.5453 98.4906 80.0163 93.7584 91.1404C89.0262 102.265 70.3758 96.1049 69.7262 90.313C69.7262 90.313 69.5406 93.4388 63.9734 94.9558L61.0969 96.7945L56.1498 100.426Z" fill="#874106"/>
<path d="M64.0297 91.2748C63.5605 91.0835 63.0493 91.0155 62.5457 91.0777C62.0422 91.1398 61.5634 91.3299 61.1558 91.6294C56.9702 94.6332 60.9672 96.7516 61.0969 96.7944L63.9735 94.9556C65.734 92.6802 65.0247 91.6981 64.0297 91.2748Z" fill="#F6B98A"/>
<path d="M50.2408 104.747C50.2408 104.747 49.0345 111.642 57.0143 111.642L69.9118 132.144C69.9118 132.144 66.1075 138.579 58.6845 141.245L55.7153 137.108C55.7153 137.108 46.622 148.416 52.746 162.574L21.1053 160.598C21.1053 160.598 17.0226 132.327 50.2408 104.747Z" fill="#ED860A"/>
<path d="M55.3028 185.282H4.90858C4.43007 185.282 3.97117 185.094 3.63281 184.759C3.29446 184.423 3.10437 183.969 3.10437 183.495V151.042C3.10437 150.779 3.16316 150.518 3.27655 150.28C3.38993 150.042 3.5551 149.831 3.76023 149.663C3.96536 149.496 4.20538 149.375 4.4631 149.31C4.72082 149.245 4.98987 149.237 5.251 149.287L55.6452 158.939C56.0567 159.017 56.4277 159.236 56.6944 159.556C56.9611 159.876 57.107 160.279 57.107 160.694V183.495C57.107 183.729 57.0604 183.962 56.9697 184.179C56.879 184.396 56.7462 184.593 56.5786 184.759C56.4111 184.925 56.2122 185.056 55.9933 185.146C55.7744 185.236 55.5398 185.282 55.3028 185.282Z" fill="#4FBA75"/>
<path d="M102.207 224.447H98.7692V162.574H108.651L102.207 224.447Z" fill="#874106"/>
<path d="M185.199 225H2.33758C2.1895 225 2.04748 224.942 1.94277 224.838C1.83806 224.734 1.77924 224.593 1.77924 224.447C1.77924 224.3 1.83806 224.159 1.94277 224.056C2.04748 223.952 2.1895 223.894 2.33758 223.894H185.199C185.347 223.894 185.489 223.952 185.594 224.056C185.698 224.159 185.757 224.3 185.757 224.447C185.757 224.593 185.698 224.734 185.594 224.838C185.489 224.942 185.347 225 185.199 225Z" fill="#139DA0"/>
<path d="M141.303 57.8075C141.155 57.8074 141.013 57.7491 140.909 57.6453C140.804 57.5416 140.745 57.401 140.745 57.2543V0.553213C140.745 0.406492 140.804 0.26578 140.909 0.162033C141.013 0.058285 141.155 0 141.303 0C141.451 0 141.593 0.058285 141.698 0.162033C141.803 0.26578 141.862 0.406492 141.862 0.553213V57.2543C141.862 57.401 141.803 57.5416 141.698 57.6453C141.593 57.7491 141.451 57.8074 141.303 57.8075Z" fill="#161616"/>
<path d="M141.303 87.1718C144.669 87.1718 147.397 84.4686 147.397 81.1341C147.397 77.7995 144.669 75.0963 141.303 75.0963C137.938 75.0963 135.209 77.7995 135.209 81.1341C135.209 84.4686 137.938 87.1718 141.303 87.1718Z" fill="#ED860A"/>
<path d="M141.515 56.8418H141.515C144.275 56.8418 147.009 57.3806 149.559 58.4272C152.11 59.4739 154.427 61.0081 156.379 62.9421C158.331 64.8761 159.879 67.1721 160.936 69.6991C161.992 72.226 162.536 74.9343 162.536 77.6695V81.1344H120.494V77.6695C120.494 72.1456 122.709 66.848 126.651 62.9421C130.593 59.0362 135.94 56.8418 141.515 56.8418V56.8418Z" fill="#139DA0"/>
<path d="M135.406 157.493H93.7684C93.5683 157.493 93.3701 157.455 93.1851 157.379C93.0001 157.303 92.832 157.192 92.6904 157.052C92.5487 156.912 92.4364 156.746 92.3597 156.563C92.283 156.379 92.2436 156.183 92.2436 155.985C92.2436 155.787 92.283 155.59 92.3597 155.407C92.4364 155.224 92.5487 155.058 92.6904 154.918C92.832 154.777 93.0001 154.666 93.1851 154.591C93.3701 154.515 93.5683 154.476 93.7684 154.477H134.342L145.598 123.932C145.737 123.558 146.02 123.253 146.386 123.084C146.751 122.916 147.17 122.899 147.548 123.036C147.927 123.173 148.235 123.453 148.405 123.815C148.576 124.177 148.594 124.591 148.456 124.967L136.836 156.502C136.729 156.792 136.534 157.043 136.278 157.221C136.023 157.398 135.718 157.493 135.406 157.493Z" fill="#9F9E9F"/>
<path d="M160.245 141.6H148.481V156.908H160.245V141.6Z" fill="#63CECE"/>
<path d="M132.685 153.661H93.7681V154.39H132.685V153.661Z" fill="#6D6D6D"/>
<path d="M161.487 153.202H160.245V152.394H161.487C161.935 152.395 162.379 152.308 162.794 152.138C163.208 151.969 163.584 151.72 163.901 151.406C164.219 151.092 164.47 150.72 164.642 150.309C164.814 149.899 164.902 149.459 164.902 149.015C164.902 148.571 164.814 148.131 164.642 147.721C164.47 147.311 164.219 146.938 163.901 146.624C163.584 146.311 163.208 146.062 162.794 145.892C162.379 145.723 161.935 145.636 161.487 145.636H160.245V144.829H161.487C162.608 144.829 163.682 145.27 164.475 146.055C165.267 146.84 165.712 147.905 165.712 149.015C165.712 150.126 165.267 151.19 164.475 151.975C163.682 152.761 162.608 153.202 161.487 153.202Z" fill="#63CECE"/>
<path d="M130.675 87.172C129.131 88.9624 127.47 90.6326 125.779 92.2734C124.077 93.9022 122.345 95.5009 120.494 96.9784C122.037 95.1871 123.699 93.517 125.39 91.8771C127.093 90.2491 128.825 88.6505 130.675 87.172ZM137.641 90.3131C137.431 92.2121 137.116 94.0982 136.698 95.9632C136.305 97.8334 135.808 99.6808 135.21 101.497C135.419 99.5977 135.734 97.7114 136.153 95.8467C136.547 93.9767 137.044 92.1295 137.641 90.3131ZM144.543 90.3131C145.5 91.8364 146.367 93.4135 147.139 95.0364C147.934 96.6485 148.632 98.3055 149.231 99.9987C148.273 98.476 147.407 96.8989 146.636 95.2754C145.842 93.6629 145.143 92.006 144.543 90.3131ZM150.502 87.172C152.193 87.6343 153.855 88.1967 155.478 88.856C157.11 89.492 158.702 90.2257 160.245 91.0528C158.554 90.5917 156.892 90.0293 155.27 89.3688C153.637 88.7316 152.045 87.9981 150.502 87.172Z" fill="#59C1BE"/>
</svg>
