<svg width="3" height="12" viewBox="0 0 3 12" fill="none" xmlns="http://www.w3.org/2000/svg">
<path d="M1.5 4.56472C1.30302 4.56472 1.10796 4.60185 0.925975 4.67398C0.743986 4.7461 0.578628 4.85183 0.43934 4.98511C0.300052 5.11838 0.189563 5.27661 0.114181 5.45074C0.0387987 5.62488 1.55112e-07 5.81152 1.55112e-07 6C1.55112e-07 6.18848 0.0387987 6.37512 0.114181 6.54926C0.189563 6.72339 0.300052 6.88162 0.43934 7.01489C0.578628 7.14817 0.743986 7.25389 0.925975 7.32602C1.10796 7.39815 1.30302 7.43528 1.5 7.43528C1.89783 7.43519 2.27932 7.28389 2.56056 7.01466C2.8418 6.74544 2.99975 6.38033 2.99966 5.99967C2.99957 5.61901 2.84145 5.25398 2.56008 4.98487C2.27871 4.71577 1.89714 4.56463 1.49932 4.56472H1.5ZM1.5 2.86925C1.69689 2.86917 1.89184 2.83198 2.07371 2.7598C2.25558 2.68762 2.42082 2.58188 2.55998 2.4486C2.69914 2.31532 2.8095 2.15712 2.88477 1.98303C2.96003 1.80894 2.99873 1.62237 2.99864 1.43397C2.99855 1.24558 2.95968 1.05904 2.88425 0.885017C2.80882 0.710992 2.6983 0.552888 2.55902 0.419731C2.41973 0.286575 2.25439 0.180973 2.07245 0.108955C1.89051 0.0369374 1.69553 -8.54872e-05 1.49864 1.48219e-07C1.10099 0.000173102 0.719707 0.151487 0.438658 0.420654C0.157609 0.689821 -0.000180592 1.05479 1.55112e-07 1.43528C0.000180902 1.81577 0.158318 2.1806 0.439622 2.44952C0.720927 2.71844 1.10236 2.86943 1.5 2.86925ZM1.5 9.12944C1.10218 9.12944 0.720645 9.28066 0.43934 9.54983C0.158036 9.81899 1.55112e-07 10.1841 1.55112e-07 10.5647C1.55112e-07 10.9454 0.158036 11.3104 0.43934 11.5796C0.720645 11.8488 1.10218 12 1.5 12C1.89783 12 2.27936 11.8488 2.56066 11.5796C2.84196 11.3104 3 10.9454 3 10.5647C3 10.1841 2.84196 9.81899 2.56066 9.54983C2.27936 9.28066 1.89783 9.12944 1.5 9.12944Z" fill="white"/>
</svg>
