<svg width="24" height="24" viewBox="0 0 24 24" fill="none" xmlns="http://www.w3.org/2000/svg">
<path d="M18.7501 1.875H5.25014C4.80581 1.871 4.36514 1.95556 3.95386 2.12375C3.54258 2.29194 3.16893 2.54039 2.85473 2.85459C2.54053 3.16879 2.29208 3.54244 2.12389 3.95372C1.9557 4.365 1.87113 4.80567 1.87514 5.25V18.75C1.87113 19.1943 1.9557 19.635 2.12389 20.0463C2.29208 20.4576 2.54053 20.8312 2.85473 21.1454C3.16893 21.4596 3.54258 21.7081 3.95386 21.8762C4.36514 22.0444 4.80581 22.129 5.25014 22.125H18.7501C19.1945 22.129 19.6351 22.0444 20.0464 21.8762C20.4577 21.7081 20.8313 21.4596 21.1455 21.1454C21.4597 20.8312 21.7082 20.4576 21.8764 20.0463C22.0446 19.635 22.1291 19.1943 22.1251 18.75V5.25C22.1291 4.80567 22.0446 4.365 21.8764 3.95372C21.7082 3.54244 21.4597 3.16879 21.1455 2.85459C20.8313 2.54039 20.4577 2.29194 20.0464 2.12375C19.6351 1.95556 19.1945 1.871 18.7501 1.875ZM21.3751 5.25V5.625H19.6576L21.1576 4.125C21.3135 4.47895 21.3879 4.86344 21.3751 5.25ZM20.7151 3.54L18.5926 5.625H15.9076L18.9076 2.625C19.253 2.64304 19.5912 2.73074 19.9018 2.88282C20.2124 3.03491 20.4891 3.24824 20.7151 3.51V3.54ZM12.1576 5.625L15.1576 2.625H17.8426L14.8426 5.625H12.1576ZM8.40764 5.625L11.4076 2.625H14.0926L11.0926 5.625H8.40764ZM4.65764 5.625L7.65764 2.625H10.3426L7.34264 5.625H4.65764ZM5.25014 2.625H6.59264L3.59264 5.625H2.62514V5.25C2.62111 4.90416 2.68626 4.56101 2.81676 4.24072C2.94725 3.92042 3.14046 3.62944 3.38502 3.38488C3.62958 3.14032 3.92056 2.94712 4.24085 2.81662C4.56115 2.68613 4.9043 2.62098 5.25014 2.625ZM18.7501 21.375H5.25014C4.9043 21.379 4.56115 21.3139 4.24085 21.1834C3.92056 21.0529 3.62958 20.8597 3.38502 20.6151C3.14046 20.3706 2.94725 20.0796 2.81676 19.7593C2.68626 19.439 2.62111 19.0958 2.62514 18.75V6.375H21.3751V18.75C21.3792 19.0958 21.314 19.439 21.1835 19.7593C21.053 20.0796 20.8598 20.3706 20.6153 20.6151C20.3707 20.8597 20.0797 21.0529 19.7594 21.1834C19.4391 21.3139 19.096 21.379 18.7501 21.375Z" fill="#232323"/>
<path d="M5.13753 19.875C4.99015 19.875 4.84422 19.8458 4.70815 19.7892C4.57207 19.7326 4.44855 19.6496 4.34468 19.545C4.24081 19.4405 4.15865 19.3164 4.10294 19.1799C4.04722 19.0435 4.01905 18.8974 4.02003 18.75V12.5925C4.02003 12.493 3.98053 12.3977 3.9102 12.3273C3.83987 12.257 3.74449 12.2175 3.64503 12.2175C3.54558 12.2175 3.4502 12.257 3.37987 12.3273C3.30954 12.3977 3.27003 12.493 3.27003 12.5925V18.75C3.26905 18.9959 3.31662 19.2395 3.41003 19.467C3.50344 19.6944 3.64084 19.9012 3.81435 20.0754C3.98787 20.2496 4.19407 20.3878 4.42114 20.4821C4.6482 20.5764 4.89166 20.625 5.13753 20.625C5.23699 20.625 5.33237 20.5855 5.4027 20.5152C5.47303 20.4448 5.51253 20.3495 5.51253 20.25C5.51253 20.1505 5.47303 20.0552 5.4027 19.9848C5.33237 19.9145 5.23699 19.875 5.13753 19.875ZM7.12503 19.875H6.42753C6.32808 19.875 6.2327 19.9145 6.16237 19.9848C6.09204 20.0552 6.05253 20.1505 6.05253 20.25C6.05253 20.3495 6.09204 20.4448 6.16237 20.5152C6.2327 20.5855 6.32808 20.625 6.42753 20.625H7.12503C7.22449 20.625 7.31987 20.5855 7.3902 20.5152C7.46053 20.4448 7.50003 20.3495 7.50003 20.25C7.50003 20.1505 7.46053 20.0552 7.3902 19.9848C7.31987 19.9145 7.22449 19.875 7.12503 19.875ZM15.5775 12.375L10.5 9.255C10.3258 9.14813 10.1262 9.08973 9.92185 9.08584C9.7175 9.08195 9.51582 9.13272 9.33766 9.23289C9.15949 9.33305 9.01132 9.47899 8.90845 9.65561C8.80558 9.83222 8.75176 10.0331 8.75253 10.2375V16.5C8.75253 16.8063 8.87422 17.1001 9.09083 17.3167C9.30743 17.5333 9.60121 17.655 9.90753 17.655C10.1177 17.6572 10.3239 17.5972 10.5 17.4825L15.6075 14.37C15.775 14.2665 15.9132 14.1219 16.0091 13.9499C16.105 13.778 16.1553 13.5844 16.1553 13.3875C16.1553 13.1906 16.105 12.997 16.0091 12.8251C15.9132 12.6531 15.775 12.5085 15.6075 12.405L15.5775 12.375ZM15.18 13.695L10.08 16.815C10.0193 16.8529 9.94913 16.873 9.87753 16.873C9.80594 16.873 9.73578 16.8529 9.67503 16.815C9.61268 16.7799 9.56095 16.7286 9.52531 16.6666C9.48967 16.6046 9.47144 16.534 9.47254 16.4625V10.2375C9.47116 10.1669 9.48935 10.0973 9.52509 10.0364C9.56083 9.97552 9.61273 9.92571 9.67503 9.8925C9.7369 9.85789 9.80664 9.83981 9.87753 9.84C9.94933 9.8406 10.0195 9.86139 10.08 9.9L15.18 13.0125C15.2394 13.0485 15.2885 13.0991 15.3226 13.1595C15.3568 13.2199 15.3748 13.2881 15.375 13.3575C15.3766 13.4262 15.3592 13.4941 15.3248 13.5536C15.2904 13.6131 15.2403 13.662 15.18 13.695Z" fill="#232323"/>
</svg>
