<svg width="10" height="10" viewBox="0 0 10 10" fill="none" xmlns="http://www.w3.org/2000/svg">
<path d="M3.96595 7.82498L3.07409 8.69077C2.84023 8.9244 2.52305 9.05565 2.19232 9.05565C1.86159 9.05565 1.5444 8.9244 1.31054 8.69077C1.07668 8.45715 0.945294 8.14028 0.945294 7.80988C0.945294 7.47948 1.07668 7.16261 1.31054 6.92898L3.59812 4.63865C3.82265 4.41362 4.12518 4.28341 4.44312 4.27498C4.76106 4.26655 5.07008 4.38053 5.30625 4.59335L5.36672 4.64369C5.46227 4.73714 5.59106 4.78884 5.72477 4.78743C5.85848 4.78601 5.98615 4.73159 6.0797 4.63614C6.17324 4.54068 6.225 4.41201 6.22358 4.27844C6.22216 4.14486 6.16769 4.01732 6.07214 3.92387C6.0437 3.88714 6.01343 3.85185 5.98144 3.81816C5.55131 3.44432 4.99503 3.24777 4.42526 3.26833C3.8555 3.28889 3.31486 3.52503 2.91285 3.9289L0.595039 6.21923C0.20119 6.64749 -0.0118154 7.2112 0.00050626 7.79264C0.012828 8.37407 0.249524 8.92827 0.661163 9.3395C1.0728 9.75073 1.62756 9.98719 2.20957 9.99949C2.79159 10.0118 3.35586 9.79901 3.78456 9.40556L4.65626 8.55486C4.74233 8.46106 4.78964 8.33817 4.78868 8.21093C4.78772 8.08368 4.73855 7.96152 4.65107 7.86903C4.56359 7.77654 4.4443 7.72057 4.31718 7.7124C4.19007 7.70423 4.06457 7.74445 3.96595 7.82498ZM9.35235 0.657003C8.92848 0.23619 8.35518 0 7.75759 0C7.16001 0 6.5867 0.23619 6.16284 0.657003L5.29114 1.5077C5.20507 1.6015 5.15775 1.72439 5.15871 1.85163C5.15968 1.97888 5.20884 2.10104 5.29632 2.19353C5.3838 2.28602 5.5031 2.34199 5.63021 2.35016C5.75732 2.35833 5.88282 2.31811 5.98144 2.23758L6.85314 1.37179C7.087 1.13816 7.40419 1.00691 7.73492 1.00691C8.06565 1.00691 8.38284 1.13816 8.6167 1.37179C8.85056 1.60542 8.98194 1.92228 8.98194 2.25268C8.98194 2.58308 8.85056 2.89995 8.6167 3.13358L6.32911 5.42391C6.10458 5.64894 5.80205 5.77915 5.48411 5.78758C5.16617 5.79601 4.85715 5.68203 4.62099 5.46921L4.56052 5.41887C4.46497 5.32542 4.33617 5.27372 4.20246 5.27513C4.06876 5.27655 3.94108 5.33097 3.84754 5.42642C3.75399 5.52188 3.70224 5.65055 3.70366 5.78412C3.70507 5.9177 3.75955 6.04524 3.8551 6.13869C3.8917 6.17609 3.93039 6.21138 3.97099 6.2444C4.40164 6.61712 4.95769 6.81293 5.5271 6.79238C6.09651 6.77183 6.63697 6.53645 7.03958 6.13366L9.3322 3.84333C9.75612 3.42255 9.99618 2.8513 9.99995 2.25432C10.0037 1.65733 9.77092 1.0831 9.35235 0.657003Z" fill="white"/>
</svg>
