<svg width="18" height="18" viewBox="0 0 18 18" fill="none" xmlns="http://www.w3.org/2000/svg">
<path d="M9 0C7.21997 0 5.47991 0.527841 3.99987 1.51677C2.51983 2.50571 1.36628 3.91131 0.685088 5.55585C0.00389957 7.20038 -0.17433 9.00998 0.172936 10.7558C0.520203 12.5016 1.37737 14.1053 2.63604 15.364C3.89471 16.6226 5.49836 17.4798 7.24419 17.8271C8.99002 18.1743 10.7996 17.9961 12.4442 17.3149C14.0887 16.6337 15.4943 15.4802 16.4832 14.0001C17.4722 12.5201 18 10.78 18 9C18 6.61305 17.0518 4.32387 15.364 2.63604C13.6761 0.948211 11.3869 0 9 0ZM9 16.5C7.51664 16.5 6.0666 16.0601 4.83323 15.236C3.59986 14.4119 2.63856 13.2406 2.07091 11.8701C1.50325 10.4997 1.35473 8.99168 1.64411 7.53682C1.9335 6.08196 2.64781 4.74559 3.6967 3.6967C4.7456 2.6478 6.08197 1.9335 7.53683 1.64411C8.99168 1.35472 10.4997 1.50325 11.8701 2.0709C13.2406 2.63856 14.4119 3.59985 15.236 4.83322C16.0601 6.06659 16.5 7.51664 16.5 9C16.5 10.9891 15.7098 12.8968 14.3033 14.3033C12.8968 15.7098 10.9891 16.5 9 16.5Z" fill="#231F20"/>
<path d="M9.00036 7.2751C8.80144 7.2751 8.61068 7.35412 8.47003 7.49477C8.32937 7.63543 8.25036 7.82619 8.25036 8.0251V13.1251C8.25036 13.324 8.32937 13.5148 8.47003 13.6554C8.61068 13.7961 8.80144 13.8751 9.00036 13.8751C9.19927 13.8751 9.39003 13.7961 9.53069 13.6554C9.67134 13.5148 9.75036 13.324 9.75036 13.1251V8.0251C9.75036 7.82619 9.67134 7.63543 9.53069 7.49477C9.39003 7.35412 9.19927 7.2751 9.00036 7.2751ZM9.00036 4.2001C8.79732 4.20774 8.60491 4.29282 8.46264 4.43788C8.32038 4.58293 8.23905 4.77696 8.23536 4.9801V5.1001C8.235 5.19796 8.25502 5.29481 8.29414 5.38451C8.33326 5.4742 8.39063 5.55477 8.46259 5.62109C8.53454 5.6874 8.61952 5.73801 8.71211 5.76969C8.80469 5.80137 8.90286 5.81343 9.00036 5.8051C9.1969 5.79768 9.38338 5.71628 9.52246 5.5772C9.66153 5.43813 9.74293 5.25165 9.75036 5.0551V4.8751C9.75095 4.77978 9.73134 4.68542 9.69283 4.59822C9.65432 4.51102 9.59777 4.43297 9.52692 4.3692C9.45607 4.30543 9.37251 4.25739 9.28175 4.22825C9.19099 4.1991 9.09509 4.18951 9.00036 4.2001Z" fill="#231F20"/>
</svg>
