<svg width="55" height="55" viewBox="0 0 55 55" fill="none" xmlns="http://www.w3.org/2000/svg">
<path d="M37.3214 19.6429C47.0851 19.6429 55 27.5578 55 37.3214C55 47.0851 47.0851 55 37.3214 55C27.5578 55 19.6429 47.0851 19.6429 37.3214C19.6429 27.5578 27.5578 19.6429 37.3214 19.6429ZM37.3214 27.5C36.2368 27.5 35.3571 28.3794 35.3571 29.4643V35.3571H29.4643C28.3794 35.3571 27.5 36.2368 27.5 37.3214C27.5 38.4061 28.3794 39.2857 29.4643 39.2857H35.3571V45.1786C35.3571 46.2633 36.2368 47.1429 37.3214 47.1429C38.4061 47.1429 39.2857 46.2633 39.2857 45.1786V39.2857H45.1786C46.2633 39.2857 47.1429 38.4061 47.1429 37.3214C47.1429 36.2368 46.2633 35.3571 45.1786 35.3571H39.2857V29.4643C39.2857 28.3794 38.4061 27.5 37.3214 27.5ZM20.6531 23.5714C17.5679 27.3073 15.7143 32.098 15.7143 37.3214C15.7143 39.3643 15.9977 41.3407 16.5275 43.2135L15.9507 43.2174C6.02123 43.2174 0.383692 39.8992 0.0188893 33.2112L0 32.5074V29.4643C0 26.4012 2.33705 23.8839 5.32533 23.5984L5.89286 23.5714H20.6531ZM15.7143 0C21.1394 0 25.5373 4.39792 25.5373 9.823C25.5373 15.2481 21.1394 19.646 15.7143 19.646C10.2892 19.646 5.89125 15.2481 5.89125 9.823C5.89125 4.39792 10.2892 0 15.7143 0ZM35.3571 3.92857C39.6966 3.92857 43.2143 7.44633 43.2143 11.7857C43.2143 13.4189 42.7161 14.9357 41.8633 16.1924C40.3987 15.8792 38.8795 15.7143 37.3214 15.7143C34.6013 15.7143 31.999 16.2169 29.6014 17.1343C28.2975 15.7317 27.5 13.8518 27.5 11.7857C27.5 7.44633 31.0178 3.92857 35.3571 3.92857Z" fill="#232323"/>
</svg>
