<svg width="13" height="13" viewBox="0 0 13 13" fill="none" xmlns="http://www.w3.org/2000/svg">
<path d="M6.49977 12.74C9.94602 12.74 12.7398 9.94627 12.7398 6.50001C12.7398 3.05375 9.94602 0.26001 6.49977 0.26001C3.05351 0.26001 0.259766 3.05375 0.259766 6.50001C0.259766 9.94627 3.05351 12.74 6.49977 12.74Z" fill="#ECB751"/>
<path d="M6.49977 0.26001C5.68032 0.26001 4.86889 0.421416 4.11182 0.735005C3.35475 1.04859 2.66686 1.50823 2.08742 2.08767C1.50798 2.6671 1.04835 3.35499 0.734761 4.11206C0.421171 4.86913 0.259766 5.68056 0.259766 6.50001C0.260941 7.03768 0.331605 7.57295 0.47 8.09251L8.08871 0.473799C7.57046 0.334507 7.0364 0.262651 6.49977 0.26001ZM8.63918 0.646455L0.64418 8.64145C0.739789 8.90418 0.852948 9.16019 0.982891 9.40774L9.4075 0.983135C9.15924 0.853802 8.90255 0.741321 8.63918 0.646455ZM12.3838 4.44438L4.44414 12.384C4.66688 12.4625 4.8939 12.5283 5.1241 12.5811L12.5788 5.12638C12.5268 4.89553 12.4617 4.66783 12.3838 4.44438Z" fill="#FDEFB4"/>
<path d="M6.50006 11.4401C9.22834 11.4401 11.4401 9.22834 11.4401 6.50006C11.4401 3.77177 9.22834 1.56006 6.50006 1.56006C3.77177 1.56006 1.56006 3.77177 1.56006 6.50006C1.56006 9.22834 3.77177 11.4401 6.50006 11.4401Z" fill="#FAD461"/>
<path d="M8.38777 1.93677C9.0257 2.39349 9.54567 2.99558 9.90463 3.6932C10.2636 4.39083 10.4512 5.16392 10.452 5.94849C10.452 7.25866 9.93157 8.51516 9.00514 9.44159C8.07871 10.368 6.8222 10.8885 5.51203 10.8885C4.8644 10.8878 4.22323 10.7598 3.625 10.5117C4.46294 11.1138 5.4684 11.4384 6.50023 11.44C7.8104 11.44 9.06691 10.9195 9.99334 9.99308C10.9198 9.06665 11.4402 7.81014 11.4402 6.49997C11.4398 5.52273 11.1496 4.56756 10.6063 3.75529C10.0629 2.94303 9.29087 2.31017 8.38777 1.93677Z" fill="#ECB751"/>
<path d="M6.5 0C2.91323 0 0 2.91323 0 6.5C0 10.0868 2.91323 13 6.5 13C10.0868 13 13 10.0868 13 6.5C13 2.91323 10.0868 0 6.5 0ZM6.5 0.52C9.80574 0.52 12.48 3.19426 12.48 6.5C12.48 9.80574 9.80574 12.48 6.5 12.48C3.19426 12.48 0.52 9.80574 0.52 6.5C0.52 3.19426 3.19426 0.52 6.5 0.52ZM6.5 1.3C3.6312 1.3 1.3 3.6312 1.3 6.5C1.3 7.66443 1.68369 8.74231 2.33137 9.60934C2.37265 9.66462 2.4342 9.70125 2.50248 9.71115C2.57077 9.72106 2.64018 9.70343 2.69547 9.66215C2.75075 9.62087 2.78738 9.55931 2.79729 9.49103C2.80719 9.42275 2.78956 9.35333 2.74828 9.29805C2.16514 8.51741 1.82 7.55037 1.82 6.5C1.82 3.91223 3.91223 1.82 6.5 1.82C9.08777 1.82 11.18 3.91223 11.18 6.5C11.18 9.08777 9.08777 11.18 6.5 11.18C5.74518 11.18 5.03391 11.002 4.40324 10.6854C4.37273 10.67 4.33949 10.6609 4.30543 10.6583C4.27137 10.6558 4.23715 10.6601 4.20473 10.6708C4.1723 10.6815 4.14231 10.6985 4.11646 10.7209C4.0906 10.7432 4.0694 10.7704 4.05406 10.8009C4.03872 10.8314 4.02954 10.8646 4.02705 10.8987C4.02455 10.9328 4.0288 10.967 4.03953 10.9994C4.05026 11.0318 4.06728 11.0618 4.0896 11.0877C4.11193 11.1135 4.13913 11.1347 4.16965 11.15C4.87066 11.502 5.6632 11.7 6.5 11.7C9.3688 11.7 11.7 9.3688 11.7 6.5C11.7 3.6312 9.3688 1.3 6.5 1.3ZM6.49594 3.38254C6.42708 3.38361 6.36144 3.41197 6.31346 3.46138C6.26547 3.5108 6.23906 3.57722 6.24 3.64609V4.12141C6.20646 4.12736 6.17287 4.12988 6.13945 4.13817C6.13928 4.13817 6.1391 4.13817 6.13893 4.13817C5.52846 4.28973 5.08573 4.81374 5.08573 5.42345C5.08573 6.03104 5.52602 6.55265 6.13334 6.70618C6.49478 6.8157 6.71084 6.77028 6.9626 6.87274C7.30951 7.06349 7.46605 7.42183 7.36631 7.76649C7.2656 8.11446 6.91584 8.3713 6.501 8.3713C6.08615 8.3713 5.73589 8.11446 5.63518 7.76649C5.62568 7.73367 5.60982 7.70305 5.58848 7.67636C5.56715 7.64968 5.54077 7.62745 5.51084 7.61097C5.48092 7.59448 5.44805 7.58405 5.41409 7.58027C5.38014 7.57649 5.34577 7.57944 5.31296 7.58894C5.28014 7.59844 5.24951 7.61432 5.22284 7.63566C5.19616 7.657 5.17394 7.68339 5.15746 7.71332C5.14098 7.74325 5.13057 7.77613 5.1268 7.81008C5.12303 7.84404 5.12598 7.87841 5.13549 7.91122C5.28142 8.41537 5.71979 8.7746 6.23998 8.86641V9.35391C6.2395 9.38837 6.24586 9.42258 6.25871 9.45455C6.27156 9.48652 6.29063 9.51562 6.31482 9.54015C6.33901 9.56469 6.36784 9.58418 6.39963 9.59747C6.43141 9.61077 6.46553 9.61762 6.49998 9.61762C6.53444 9.61762 6.56855 9.61077 6.60034 9.59747C6.63213 9.58418 6.66095 9.56469 6.68514 9.54015C6.70934 9.51562 6.72841 9.48652 6.74126 9.45455C6.75411 9.42258 6.76047 9.38837 6.75998 9.35391V8.86692C7.28098 8.7757 7.71989 8.41604 7.866 7.91122C8.03584 7.32431 7.75201 6.70124 7.20077 6.40657C7.19397 6.40305 7.18703 6.39983 7.17994 6.39692C6.78964 6.23098 6.52747 6.28508 6.27858 6.20802C6.27388 6.20653 6.26913 6.20518 6.26435 6.20396C5.86509 6.10484 5.60572 5.78158 5.60572 5.42345C5.60572 5.0652 5.86508 4.74207 6.26435 4.64295C6.66361 4.54393 7.0825 4.70957 7.27998 5.02634C7.29804 5.05533 7.32165 5.08047 7.34944 5.10033C7.37722 5.1202 7.40865 5.13439 7.44192 5.14211C7.47519 5.14982 7.50966 5.15091 7.54335 5.1453C7.57704 5.13969 7.6093 5.1275 7.63828 5.10943C7.66726 5.09135 7.6924 5.06775 7.71225 5.03996C7.73211 5.01217 7.74629 4.98073 7.75399 4.94746C7.7617 4.91418 7.76278 4.87972 7.75716 4.84603C7.75155 4.81234 7.73936 4.78009 7.72127 4.75111C7.50666 4.40685 7.15178 4.18408 6.75998 4.11584V3.64611C6.76045 3.61132 6.75395 3.5768 6.74084 3.54457C6.72773 3.51235 6.70829 3.48308 6.68367 3.4585C6.65905 3.43393 6.62974 3.41455 6.59749 3.4015C6.56524 3.38846 6.53071 3.38201 6.49592 3.38255L6.49594 3.38254ZM10.3685 7.38309C10.3408 7.3848 10.3144 7.39533 10.2931 7.41315C10.2718 7.43097 10.2568 7.45513 10.2502 7.48211C10.0604 8.207 9.66376 8.86319 9.10763 9.36863C9.09442 9.37994 9.08361 9.39378 9.07585 9.40934C9.06808 9.42491 9.06352 9.44187 9.06243 9.45922C9.06134 9.47658 9.06374 9.49398 9.06949 9.51039C9.07524 9.5268 9.08423 9.54189 9.09591 9.55477C9.1076 9.56765 9.12175 9.57805 9.13753 9.58536C9.15331 9.59267 9.17039 9.59673 9.18777 9.59732C9.20515 9.59791 9.22247 9.59502 9.23871 9.58879C9.25495 9.58257 9.26978 9.57315 9.28231 9.56109C9.87581 9.02169 10.2995 8.3217 10.5021 7.54812C10.5074 7.52919 10.5083 7.5093 10.5048 7.48995C10.5014 7.4706 10.4935 7.45229 10.4819 7.43641C10.4704 7.42052 10.4553 7.40746 10.438 7.39822C10.4206 7.38899 10.4014 7.38382 10.3817 7.38309C10.3773 7.38286 10.3729 7.38286 10.3685 7.38309H10.3685ZM8.67294 9.73477C8.64814 9.73526 8.624 9.74284 8.60337 9.75661C8.54946 9.79141 8.49427 9.82486 8.43833 9.85716C8.40843 9.8744 8.3866 9.90281 8.37765 9.93614C8.3687 9.96947 8.37335 10.005 8.39059 10.0349C8.40783 10.0648 8.43624 10.0866 8.46957 10.0956C8.5029 10.1045 8.53843 10.0999 8.56833 10.0826C8.628 10.0482 8.68652 10.0121 8.74403 9.97497C8.7681 9.9599 8.78658 9.93735 8.79663 9.91079C8.80668 9.88422 8.80776 9.8551 8.7997 9.82787C8.79164 9.80064 8.77488 9.77678 8.75199 9.75997C8.7291 9.74316 8.70134 9.73431 8.67294 9.73477V9.73477ZM3.2561 9.9582C3.20219 9.95647 3.14908 9.97155 3.10411 10.0013C3.05915 10.0311 3.02457 10.0742 3.00515 10.1245C2.98574 10.1748 2.98245 10.2299 2.99575 10.2822C3.00905 10.3345 3.03828 10.3813 3.07938 10.4162C3.14618 10.4746 3.21428 10.5314 3.28403 10.5864C3.31076 10.6083 3.34159 10.6247 3.37472 10.6346C3.40786 10.6445 3.44264 10.6476 3.47702 10.6439C3.51139 10.6402 3.54468 10.6297 3.57494 10.6129C3.60519 10.5962 3.63181 10.5736 3.65322 10.5464C3.67463 10.5193 3.69041 10.4881 3.69964 10.4548C3.70886 10.4215 3.71135 10.3866 3.70695 10.3523C3.70255 10.318 3.69135 10.285 3.67402 10.255C3.65668 10.2251 3.63355 10.199 3.60598 10.1781C3.54318 10.1286 3.4818 10.0773 3.42165 10.0247C3.37604 9.98372 3.3174 9.96016 3.2561 9.9582Z" fill="#2D3A66"/>
<path d="M3.23137 6.6497C3.8922 7.03123 4.86542 6.58273 5.40512 5.64795C5.94482 4.71316 5.84662 3.64608 5.18579 3.26455C4.52496 2.88302 3.55175 3.33152 3.01205 4.26631C2.47235 5.20109 2.57054 6.26817 3.23137 6.6497Z" fill="#FDEFB4"/>
<path d="M3.56221 8.42785C3.98625 8.42785 4.33 8.16849 4.33 7.84857C4.33 7.52864 3.98625 7.26929 3.56221 7.26929C3.13818 7.26929 2.79443 7.52864 2.79443 7.84857C2.79443 8.16849 3.13818 8.42785 3.56221 8.42785Z" fill="#FDEFB4"/>
<path d="M5.74914 4.30078C5.34984 4.53775 5.08594 4.95418 5.08594 5.42355C5.08594 5.60912 5.13093 5.78461 5.20527 5.94609C5.27804 5.85175 5.34502 5.75196 5.40535 5.64801C5.65395 5.21692 5.7769 4.73509 5.74914 4.30078Z" fill="#8D8D81"/>
<path d="M5.74914 4.30078C5.34984 4.53775 5.08594 4.95418 5.08594 5.42355C5.08594 5.60912 5.13093 5.78461 5.20527 5.94609C5.27804 5.85175 5.34502 5.75196 5.40535 5.64801C5.65395 5.21692 5.7769 4.73509 5.74914 4.30078Z" fill="#8D8D81"/>
</svg>
