<svg width="14" height="17" viewBox="0 0 14 17" fill="none" xmlns="http://www.w3.org/2000/svg">
<path d="M7 0C5.14412 0.00202484 3.36486 0.71912 2.05255 1.99396C0.740252 3.2688 0.00208434 4.99728 0 6.80018C0 9.567 2.06763 11.8646 4.25775 14.2965C4.95075 15.0666 5.66825 15.8631 6.307 16.6689C6.38874 16.7719 6.49372 16.8554 6.61387 16.9128C6.73401 16.9702 6.86611 17 7 17C7.13389 17 7.26599 16.9702 7.38613 16.9128C7.50628 16.8554 7.61126 16.7719 7.693 16.6689C8.33175 15.8631 9.04925 15.0666 9.74225 14.2965C11.9324 11.8646 14 9.567 14 6.80018C13.9979 4.99728 13.2597 3.2688 11.9474 1.99396C10.6351 0.71912 8.85588 0.00202484 7 0ZM7 9.35024C6.48082 9.35024 5.97331 9.20068 5.54163 8.92048C5.10995 8.64028 4.7735 8.24201 4.57482 7.77605C4.37614 7.31008 4.32415 6.79735 4.42544 6.30268C4.52672 5.80802 4.77673 5.35364 5.14384 4.99701C5.51096 4.64037 5.97869 4.3975 6.48789 4.29911C6.99709 4.20071 7.52489 4.25121 8.00454 4.44422C8.4842 4.63723 8.89417 4.96408 9.18261 5.38344C9.47105 5.80279 9.625 6.29582 9.625 6.80018C9.625 7.4765 9.34844 8.12512 8.85616 8.60335C8.36387 9.08158 7.69619 9.35024 7 9.35024Z" fill="#232323" fill-opacity="0.66"/>
</svg>
