<svg width="22" height="22" viewBox="0 0 22 22" fill="none" xmlns="http://www.w3.org/2000/svg">
<path d="M11.0004 10.1755C10.5448 10.1755 10.1754 10.5448 10.1754 11.0004C10.1754 11.456 10.5448 11.8254 11.0004 11.8254C11.456 11.8254 11.8254 11.456 11.8254 11.0004C11.8254 10.5448 11.456 10.1755 11.0004 10.1755ZM7.70053 10.1755C7.24495 10.1755 6.87557 10.5448 6.87557 11.0004C6.87557 11.456 7.24495 11.8254 7.70053 11.8254C8.15612 11.8254 8.5255 11.456 8.5255 11.0004C8.5255 10.5448 8.15612 10.1755 7.70053 10.1755ZM14.3003 10.1755C13.8447 10.1755 13.4753 10.5448 13.4753 11.0004C13.4753 11.456 13.8447 11.8254 14.3003 11.8254C14.7558 11.8254 15.1252 11.456 15.1252 11.0004C15.1252 10.5448 14.7558 10.1755 14.3003 10.1755ZM19.1569 3.62003C15.081 -0.884863 8.1249 -1.23269 3.62002 2.84313C-0.88486 6.91903 -1.23269 13.8751 2.84312 18.38L0.161989 21.0612C0.0588682 21.1643 0.000930045 21.3041 0.000930045 21.45C0.000862837 21.7537 0.247117 21.9999 0.550839 22H11.0004C13.7276 21.9999 16.3576 20.9866 18.38 19.1569C22.8849 15.081 23.2327 8.12493 19.1569 3.62003ZM11.0004 20.9H1.87845L4.00001 18.7785C4.00007 18.7785 4.00014 18.7784 4.00014 18.7783C4.21484 18.5636 4.21478 18.2155 4.00001 18.0008C2.14397 16.1448 1.10108 13.6275 1.10082 11.0026C1.10021 5.53583 5.53138 1.10364 10.9982 1.10304C16.4649 1.10243 20.8971 5.53361 20.8978 11.0004C20.8984 16.4672 16.4672 20.8994 11.0004 20.9Z" fill="#232323" fill-opacity="0.5"/>
</svg>
