<svg width="23" height="21" viewBox="0 0 23 21" fill="none" xmlns="http://www.w3.org/2000/svg">
<path fill-rule="evenodd" clip-rule="evenodd" d="M20.3769 2.62285C19.864 2.1097 19.255 1.70263 18.5848 1.4249C17.9145 1.14717 17.1961 1.00422 16.4705 1.00422C15.745 1.00422 15.0266 1.14717 14.3563 1.4249C13.686 1.70263 13.077 2.1097 12.5641 2.62285L11.4996 3.68733L10.4352 2.62285C9.39911 1.5868 7.99393 1.00476 6.52873 1.00476C5.06354 1.00476 3.65836 1.5868 2.62231 2.62285C1.58627 3.6589 1.00422 5.06408 1.00422 6.52927C1.00422 7.99446 1.58627 9.39964 2.62231 10.4357L3.68679 11.5002L11.4996 19.313L19.3125 11.5002L20.3769 10.4357C20.8901 9.92278 21.2972 9.31379 21.5749 8.64351C21.8526 7.97324 21.9956 7.25481 21.9956 6.52927C21.9956 5.80373 21.8526 5.08531 21.5749 4.41503C21.2972 3.74475 20.8901 3.13576 20.3769 2.62285V2.62285Z" stroke="white" stroke-width="2" stroke-linecap="round" stroke-linejoin="round"/>
</svg>
