<svg width="21" height="21" viewBox="0 0 21 21" fill="none" xmlns="http://www.w3.org/2000/svg">
<path d="M9.7545 13.9545C9.70935 14.0044 9.66727 14.057 9.6285 14.112C9.58877 14.1705 9.55699 14.2341 9.534 14.301C9.50373 14.3605 9.4825 14.4242 9.471 14.49C9.46585 14.5599 9.46585 14.6301 9.471 14.7C9.46745 14.8377 9.49622 14.9744 9.555 15.099C9.60216 15.2293 9.6774 15.3476 9.77538 15.4456C9.87337 15.5436 9.9917 15.6188 10.122 15.666C10.2477 15.7215 10.3836 15.7502 10.521 15.7502C10.6584 15.7502 10.7943 15.7215 10.92 15.666C11.0503 15.6188 11.1686 15.5436 11.2666 15.4456C11.3646 15.3476 11.4398 15.2293 11.487 15.099C11.5336 14.9713 11.555 14.8358 11.55 14.7C11.5508 14.5618 11.5243 14.4248 11.4721 14.2969C11.4198 14.169 11.3428 14.0526 11.2455 13.9545C11.1479 13.8561 11.0318 13.778 10.9038 13.7247C10.7759 13.6714 10.6386 13.6439 10.5 13.6439C10.3614 13.6439 10.2241 13.6714 10.0962 13.7247C9.96825 13.778 9.85211 13.8561 9.7545 13.9545ZM10.5 0C8.4233 0 6.39323 0.615814 4.66652 1.76957C2.9398 2.92332 1.59399 4.5632 0.799269 6.48182C0.00454948 8.40044 -0.203386 10.5116 0.201759 12.5484C0.606904 14.5852 1.60693 16.4562 3.07538 17.9246C4.54383 19.3931 6.41476 20.3931 8.45156 20.7982C10.4884 21.2034 12.5996 20.9955 14.5182 20.2007C16.4368 19.406 18.0767 18.0602 19.2304 16.3335C20.3842 14.6068 21 12.5767 21 10.5C21 9.12112 20.7284 7.75574 20.2007 6.48182C19.6731 5.2079 18.8996 4.05039 17.9246 3.07538C16.9496 2.10036 15.7921 1.32694 14.5182 0.799265C13.2443 0.271591 11.8789 0 10.5 0ZM10.5 18.9C8.83864 18.9 7.21459 18.4073 5.83321 17.4843C4.45184 16.5613 3.37519 15.2494 2.73942 13.7145C2.10364 12.1796 1.93729 10.4907 2.26141 8.86124C2.58552 7.2318 3.38555 5.73506 4.56031 4.5603C5.73507 3.38554 7.2318 2.58552 8.86125 2.2614C10.4907 1.93729 12.1796 2.10364 13.7145 2.73941C15.2494 3.37519 16.5613 4.45184 17.4843 5.83321C18.4073 7.21458 18.9 8.83863 18.9 10.5C18.9 12.7278 18.015 14.8644 16.4397 16.4397C14.8644 18.015 12.7278 18.9 10.5 18.9ZM10.5 5.25C9.94672 5.24964 9.4031 5.39503 8.92386 5.67151C8.44461 5.948 8.04664 6.34584 7.77 6.825C7.69403 6.94451 7.64302 7.07815 7.62004 7.21788C7.59705 7.35762 7.60257 7.50056 7.63626 7.6381C7.66995 7.77565 7.73112 7.90496 7.81608 8.01825C7.90104 8.13155 8.00804 8.22649 8.13065 8.29735C8.25325 8.36822 8.38892 8.41356 8.5295 8.43064C8.67008 8.44771 8.81266 8.43617 8.94867 8.39672C9.08467 8.35726 9.21129 8.2907 9.3209 8.20104C9.43052 8.11138 9.52086 8.00048 9.5865 7.875C9.67901 7.71476 9.81222 7.58182 9.97264 7.48963C10.1331 7.39743 10.315 7.34926 10.5 7.35C10.7785 7.35 11.0456 7.46062 11.2425 7.65754C11.4394 7.85445 11.55 8.12152 11.55 8.4C11.55 8.67848 11.4394 8.94555 11.2425 9.14246C11.0456 9.33937 10.7785 9.45 10.5 9.45C10.2215 9.45 9.95445 9.56062 9.75754 9.75753C9.56063 9.95445 9.45 10.2215 9.45 10.5V11.55C9.45 11.8285 9.56063 12.0955 9.75754 12.2925C9.95445 12.4894 10.2215 12.6 10.5 12.6C10.7785 12.6 11.0456 12.4894 11.2425 12.2925C11.4394 12.0955 11.55 11.8285 11.55 11.55V11.361C12.2444 11.109 12.8282 10.621 13.1993 9.98221C13.5704 9.34343 13.7052 8.59455 13.5801 7.86648C13.455 7.13841 13.078 6.47747 12.5149 5.99919C11.9519 5.52091 11.2387 5.25573 10.5 5.25Z" fill="#232323"/>
</svg>
