<svg width="14" height="9" viewBox="0 0 14 9" fill="none" xmlns="http://www.w3.org/2000/svg">
<path d="M12.2638 4.13597C11.152 3.00516 9.56813 2.38554 7.74055 2.27711V0.619621C7.74055 0.371773 7.55779 0.139415 7.32935 0.0464715C7.1009 -0.0464717 6.82676 1.66195e-07 6.644 0.185887L2.88224 4.05852C2.65379 4.30637 2.63856 4.69363 2.88224 4.92599L6.62877 8.79862C6.7963 8.98451 7.1009 9.03098 7.32935 8.93804C7.55779 8.84509 7.74055 8.61274 7.74055 8.36489V6.69191C8.95893 6.66093 11.8221 6.78485 12.8578 8.6747C12.9644 8.87608 13.1624 8.98451 13.3756 8.98451C13.4213 8.98451 13.467 8.98451 13.5279 8.96902C13.802 8.89157 14 8.65921 14 8.36489C13.9848 8.27194 14 5.90189 12.2638 4.13597ZM7.02475 5.48365C6.72015 5.51463 6.52217 5.77797 6.52217 6.10327V6.84682L4.23769 4.49225L6.52217 2.13769V2.88124C6.52217 3.22203 6.76584 3.50086 7.1009 3.50086C10.3753 3.50086 11.7612 5.09639 12.3552 6.45955C10.2078 5.15835 7.19228 5.46816 7.02475 5.48365ZM4.77074 7.93115C4.99918 8.179 4.99918 8.56627 4.77074 8.81411C4.6489 8.93804 4.4966 9 4.3443 9C4.192 9 4.02448 8.93804 3.91787 8.81411L0.171335 4.94148C-0.0571118 4.69363 -0.0571118 4.30637 0.171335 4.07401L3.91787 0.201377C4.16155 -0.0464717 4.54229 -0.0464717 4.77074 0.201377C5.01441 0.449225 5.01441 0.836489 4.77074 1.08434L1.43541 4.49225L4.77074 7.93115Z" fill="#13B887"/>
</svg>
