<svg width="17" height="18" viewBox="0 0 17 18" fill="none" xmlns="http://www.w3.org/2000/svg">
<path d="M16.2668 9.36764L13.9042 11.6616C12.6893 12.7799 11.262 13.6108 9.71797 14.0987L10.3448 17.1871C10.3769 17.3447 10.4436 17.4923 10.5395 17.6177C10.6355 17.7432 10.7581 17.8431 10.8973 17.9093C11.0366 17.9755 11.1887 18.0062 11.3412 17.999C11.4938 17.9917 11.6426 17.9466 11.7757 17.8674L15.579 15.6023C16.1143 15.2589 16.5324 14.7448 16.7731 14.1341C17.0137 13.5235 17.0645 12.8479 16.9181 12.2049L16.2668 9.36764ZM6.06934 3.35579L8.10348 0.805555L5.56671 0.159246C4.94999 -0.0678372 4.27629 -0.0515886 3.67003 0.20499C3.06378 0.461569 2.56593 0.941144 2.26845 1.55513L0.125729 5.56567C0.0506507 5.70615 0.00792358 5.86331 0.00100063 6.02444C-0.00592232 6.18558 0.0231531 6.34618 0.0858772 6.49326C0.148601 6.64034 0.243214 6.76977 0.36207 6.8711C0.480926 6.97243 0.62069 7.04281 0.770068 7.07655L3.76256 7.75393C4.25867 6.14588 5.04168 4.65297 6.06934 3.35579ZM15.2901 3.39731C15.5791 3.39731 15.8615 3.30684 16.1017 3.13735C16.342 2.96785 16.5292 2.72693 16.6398 2.44507C16.7503 2.1632 16.7793 1.85305 16.7229 1.55382C16.6665 1.2546 16.5274 0.979739 16.3231 0.764009C16.1188 0.548279 15.8585 0.401365 15.5751 0.341845C15.2918 0.282325 14.998 0.312873 14.7311 0.429625C14.4642 0.546378 14.236 0.74409 14.0755 0.997762C13.915 1.25143 13.8293 1.54967 13.8293 1.85476C13.8295 2.26382 13.9834 2.65609 14.2573 2.94534C14.5313 3.2346 14.9028 3.39716 15.2901 3.39731Z" fill="#6563FF"/>
</svg>
