<svg width="51" height="51" viewBox="0 0 51 51" fill="none" xmlns="http://www.w3.org/2000/svg">
<g filter="url(#filter0_d_502_1633)">
<circle cx="25.5" cy="21.5" r="15.5" fill="#232323"/>
</g>
<path d="M31.5008 22.9457C31.3125 22.7596 31.1631 22.5383 31.0615 22.2946C30.9598 22.0509 30.9078 21.7895 30.9085 21.5257V19.874C30.9085 18.5813 30.3913 17.3416 29.4707 16.4276C28.5502 15.5135 27.3016 15 25.9997 15C24.6978 15 23.4493 15.5135 22.5287 16.4276C21.6081 17.3416 21.091 18.5813 21.091 19.874V21.5257C21.0917 21.7895 21.0397 22.0509 20.938 22.2946C20.8363 22.5383 20.687 22.7596 20.4986 22.9457C20.2606 23.1821 20.0984 23.4832 20.0327 23.8111C19.967 24.139 20.0007 24.4788 20.1296 24.7877C20.2584 25.0966 20.4766 25.3605 20.7566 25.5463C21.0366 25.732 21.3657 25.8311 21.7024 25.8311H23.3272C23.4524 26.4432 23.7868 26.9935 24.2739 27.3888C24.7609 27.7841 25.3707 28 25.9997 28C26.6288 28 27.2385 27.7841 27.7256 27.3888C28.2126 26.9935 28.5471 26.4432 28.6723 25.8311H30.2976C30.6343 25.8311 30.9634 25.732 31.2434 25.5463C31.5234 25.3605 31.7416 25.0966 31.8704 24.7877C31.9993 24.4788 32.033 24.139 31.9673 23.8111C31.9016 23.4832 31.7394 23.1821 31.5014 22.9457H31.5008ZM25.9997 26.9142C25.6625 26.9128 25.334 26.808 25.059 26.6141C24.7841 26.4202 24.5762 26.1467 24.4638 25.8311H27.5356C27.4232 26.1467 27.2153 26.4202 26.9404 26.6141C26.6655 26.808 26.3369 26.9128 25.9997 26.9142ZM30.2971 24.748H21.7024C21.5814 24.748 21.4631 24.7125 21.3625 24.6458C21.2619 24.5791 21.1835 24.4842 21.1372 24.3733C21.0909 24.2623 21.0787 24.1402 21.1024 24.0223C21.126 23.9045 21.1843 23.7963 21.2699 23.7114C21.5598 23.425 21.7897 23.0844 21.9463 22.7092C22.1028 22.3341 22.1829 21.9318 22.1818 21.5257V19.874C22.1818 18.8686 22.584 17.9044 23.3 17.1934C24.016 16.4825 24.9872 16.0831 25.9997 16.0831C27.0123 16.0831 27.9834 16.4825 28.6994 17.1934C29.4154 17.9044 29.8177 18.8686 29.8177 19.874V21.5257C29.8166 21.9318 29.8967 22.3341 30.0532 22.7092C30.2097 23.0844 30.4396 23.425 30.7296 23.7114C30.8152 23.7963 30.8735 23.9045 30.8971 24.0223C30.9207 24.1402 30.9086 24.2623 30.8623 24.3733C30.816 24.4842 30.7376 24.5791 30.6369 24.6458C30.5363 24.7125 30.4181 24.748 30.2971 24.748Z" fill="white"/>
<circle cx="36.5" cy="10.5" r="4.5" fill="#10C8CD"/>
<defs>
<filter id="filter0_d_502_1633" x="0" y="0" width="51" height="51" filterUnits="userSpaceOnUse" color-interpolation-filters="sRGB">
<feFlood flood-opacity="0" result="BackgroundImageFix"/>
<feColorMatrix in="SourceAlpha" type="matrix" values="0 0 0 0 0 0 0 0 0 0 0 0 0 0 0 0 0 0 127 0" result="hardAlpha"/>
<feOffset dy="4"/>
<feGaussianBlur stdDeviation="5"/>
<feComposite in2="hardAlpha" operator="out"/>
<feColorMatrix type="matrix" values="0 0 0 0 0 0 0 0 0 0 0 0 0 0 0 0 0 0 0.15 0"/>
<feBlend mode="normal" in2="BackgroundImageFix" result="effect1_dropShadow_502_1633"/>
<feBlend mode="normal" in="SourceGraphic" in2="effect1_dropShadow_502_1633" result="shape"/>
</filter>
</defs>
</svg>
