<svg width="19" height="19" viewBox="0 0 19 19" fill="none" xmlns="http://www.w3.org/2000/svg">
<path d="M18.6254 1.09024C18.5794 0.916485 18.4878 0.757988 18.3601 0.630931C18.2324 0.503875 18.0731 0.412811 17.8985 0.367038C15.807 -0.173911 13.6044 -0.115904 11.5446 0.534373C9.48473 1.18465 7.65145 2.40074 6.25596 4.04252L2.9896 7.90126C1.35787 9.8377 0.322726 12.2017 0.00852417 14.7093C-0.0116267 14.8634 0.00406323 15.02 0.0543841 15.1672C0.104705 15.3143 0.188312 15.4479 0.298758 15.5578L3.45957 18.7028C3.5542 18.797 3.66657 18.8718 3.79026 18.9228C3.91395 18.9738 4.04652 19 4.18041 19C4.20979 19 4.23916 18.9985 4.26903 18.996C6.82795 18.7856 9.25291 17.7694 11.192 16.0948L14.9268 12.6779C16.5827 11.293 17.8094 9.46883 18.4642 7.41748C19.1189 5.36613 19.1748 3.17197 18.6254 1.09024ZM12.6431 7.94218C12.3406 7.94218 12.0449 7.85293 11.7934 7.68573C11.5419 7.51852 11.3459 7.28086 11.2301 7.00281C11.1144 6.72475 11.0841 6.41879 11.1431 6.12361C11.2021 5.82843 11.3478 5.55729 11.5617 5.34447C11.7755 5.13166 12.0481 4.98673 12.3447 4.92802C12.6414 4.8693 12.9489 4.89944 13.2284 5.01461C13.5078 5.12978 13.7467 5.32482 13.9147 5.57507C14.0828 5.82531 14.1725 6.11951 14.1725 6.42048C14.1723 6.82401 14.0111 7.21098 13.7244 7.49632C13.4376 7.78167 13.0487 7.94204 12.6431 7.94218Z" fill="#B2B1FF"/>
</svg>
