<svg width="12" height="11" viewBox="0 0 12 11" fill="none" xmlns="http://www.w3.org/2000/svg">
<path d="M8.54083 3.26687e-05C8.0759 -0.00111552 7.61575 0.0959914 7.18932 0.28525C6.7629 0.474509 6.3794 0.751828 6.06294 1.09978L6 1.16765L5.93855 1.10182C5.63009 0.764115 5.25868 0.492774 4.84615 0.303727C4.43361 0.11468 3.98825 0.0117379 3.53622 0.000946534C3.0842 -0.00984487 2.63462 0.0717315 2.21389 0.240885C1.79315 0.410039 1.40975 0.663361 1.08618 0.985974C0.390973 1.72146 0.00168207 2.70344 5.4382e-06 3.72583C-0.00167119 4.74821 0.384397 5.73152 1.07719 6.46938L4.79053 10.4637C4.94541 10.6329 5.13269 10.7679 5.34074 10.8601C5.54879 10.9524 5.77319 11 6 11C6.22681 11 6.4512 10.9524 6.65925 10.8601C6.86731 10.7679 7.05458 10.6329 7.20947 10.4637L10.9228 6.46938C11.6155 5.73161 12.0016 4.74845 12 3.72619C11.9984 2.70392 11.6093 1.72202 10.9143 0.986485C10.2792 0.354295 9.4276 0.000352276 8.54083 3.26687e-05ZM10.1979 5.76667L6.48508 9.76096C6.42233 9.82773 6.34701 9.88087 6.26365 9.91716C6.18029 9.95345 6.09061 9.97216 6 9.97216C5.90938 9.97216 5.8197 9.95345 5.73634 9.91716C5.65298 9.88087 5.57766 9.82773 5.51491 9.76096L1.80357 5.76667C1.2969 5.22152 1.01259 4.49964 1.00851 3.74794C1.00442 2.99624 1.28087 2.27119 1.78159 1.72033C2.2303 1.27293 2.83213 1.02193 3.45916 1.02068C3.78837 1.02029 4.11408 1.08955 4.41579 1.22411C4.71749 1.35867 4.98865 1.55559 5.21217 1.80249L5.6378 2.26178C5.73404 2.35957 5.86426 2.41446 6 2.41446C6.13574 2.41446 6.26595 2.35957 6.36219 2.26178L6.78932 1.80249C7.01285 1.55615 7.28384 1.35972 7.58526 1.22552C7.88669 1.09133 8.21203 1.02228 8.54083 1.02272C9.16868 1.02377 9.77133 1.27517 10.2204 1.72339C10.72 2.27434 10.9955 2.9989 10.9911 3.74987C10.9866 4.50085 10.7025 5.22194 10.1964 5.76667H10.1979Z" fill="#13B887"/>
</svg>
