<svg width="15" height="11" viewBox="0 0 15 11" fill="none" xmlns="http://www.w3.org/2000/svg">
<path d="M1.33929 11H13.6607C14.3989 11 15 10.4858 15 9.85417V2.97917C15 2.34758 14.3989 1.83333 13.6607 1.83333H10.9232L10.6414 0.868084C10.5693 0.61998 10.4021 0.399695 10.1665 0.24236C9.93097 0.0850259 9.64062 -0.000296405 9.34179 7.73687e-07H5.65768C5.35891 -0.000274115 5.06864 0.0850652 4.83318 0.242404C4.59772 0.399743 4.43063 0.620017 4.35857 0.868084L4.07679 1.83333H1.33929C0.984216 1.8337 0.64381 1.95454 0.392737 2.16934C0.141665 2.38415 0.000425319 2.67538 0 2.97917V9.85417C0 10.4858 0.601071 11 1.33929 11ZM13.6607 10.5417H1.33929C0.89625 10.5417 0.535714 10.2332 0.535714 9.85417V5.11958L6.16071 6.54546V8.02083C6.16071 8.08161 6.18893 8.1399 6.23917 8.18288C6.2894 8.22586 6.35753 8.25 6.42857 8.25H8.57143C8.64247 8.25 8.7106 8.22586 8.76083 8.18288C8.81106 8.1399 8.83929 8.08161 8.83929 8.02083V6.54546L14.4643 5.11958V9.85417C14.4643 10.2332 14.1037 10.5417 13.6607 10.5417ZM7.5 7.33333C7.42896 7.33333 7.36083 7.35748 7.3106 7.40045C7.26036 7.44343 7.23214 7.50172 7.23214 7.5625V7.79167H6.69643V6.875H8.30357V7.79167H7.76786V7.5625C7.76786 7.50172 7.73964 7.44343 7.6894 7.40045C7.63917 7.35748 7.57104 7.33333 7.5 7.33333ZM8.30357 6.37404V6.41667H6.69643V5.95833H8.30357V6.37404ZM4.87821 0.979001C4.92155 0.830134 5.02191 0.697972 5.16328 0.603602C5.30466 0.509231 5.4789 0.458089 5.65821 0.458334H9.34232C9.52159 0.458249 9.69574 0.509451 9.83708 0.603796C9.97841 0.698142 10.0788 0.830213 10.1223 0.979001L10.3714 1.83333H4.62857L4.87821 0.979001ZM0.535714 2.97917C0.535714 2.60013 0.89625 2.29167 1.33929 2.29167H13.6607C14.1037 2.29167 14.4643 2.60013 14.4643 2.97917V4.64108L8.83929 6.06696V5.72917C8.83929 5.66839 8.81106 5.6101 8.76083 5.56712C8.7106 5.52414 8.64247 5.5 8.57143 5.5H6.42857C6.35753 5.5 6.2894 5.52414 6.23917 5.56712C6.18893 5.6101 6.16071 5.66839 6.16071 5.72917V6.06742L0.535714 4.64108V2.97917Z" fill="black"/>
</svg>
