<svg width="27" height="27" viewBox="0 0 27 27" fill="none" xmlns="http://www.w3.org/2000/svg">
<path d="M14.1221 1.03592V4.04587H17.1293L14.1221 1.03592Z" fill="#126695"/>
<path d="M8.56502 7.82835C10.0824 7.82835 11.3146 6.59615 11.3146 5.07875C11.3146 3.56414 10.0824 2.32916 8.56502 2.32916C7.05038 2.32916 5.81543 3.56414 5.81543 5.07875C5.8154 6.59615 7.05038 7.82835 8.56502 7.82835ZM8.56599 5.35289C8.03409 5.35289 7.60131 4.92023 7.60131 4.38833C7.60131 3.95332 7.89269 3.58891 8.2891 3.46903V2.96449H8.8429V3.46903C9.23928 3.58893 9.53055 3.95332 9.53055 4.38833H8.97674C8.97674 4.16172 8.79245 3.97746 8.56599 3.97746C8.33938 3.97746 8.15512 4.16175 8.15512 4.38833C8.15512 4.6148 8.33941 4.79908 8.56599 4.79908C9.09789 4.79908 9.53055 5.23186 9.53055 5.76376C9.53055 6.19876 9.23928 6.56309 8.8429 6.68294V7.19517H8.2891V6.68294C7.89267 6.56307 7.60131 6.19876 7.60131 5.76376H8.15512C8.15512 5.99022 8.33941 6.17451 8.56599 6.17451C8.79245 6.17451 8.97674 5.99022 8.97674 5.76376C8.97674 5.53715 8.79245 5.35289 8.56599 5.35289Z" fill="#126695"/>
<path d="M17.5218 12.2061L14.8718 10.877C14.7029 10.7912 14.5506 10.6859 14.415 10.5696H11.0645V10.0158H13.947C13.5815 9.40112 13.5206 8.62581 13.8501 7.92524C14.39 6.78441 15.7912 6.28323 16.9486 6.9118L17.5218 7.2247V4.59969H13.5676V0.645599H3.8457V18.8711H17.5218V12.2061H17.5218ZM8.56412 1.77533C10.3861 1.77533 11.8675 3.2595 11.8675 5.07872C11.8675 6.90073 10.3861 8.38212 8.56412 8.38212C6.74214 8.38212 5.2607 6.90076 5.2607 5.07875C5.2607 3.25953 6.74211 1.77533 8.56412 1.77533ZM7.71169 12.6424H5.53844V12.0886H7.71169V12.6424ZM11.2422 14.2531V14.8069H5.53841V14.2531H11.2422ZM5.53841 10.5692V10.0154H9.78248V10.5692H5.53841ZM8.01726 16.9715H5.53841V16.4177H8.01726V16.9715ZM15.0532 16.9715H9.00168V16.4177H15.0532V16.9715ZM15.0532 14.8069H12.5722V14.2531H15.0532V14.8069ZM15.0532 12.6424H9.00168V12.0886H15.0532V12.6424Z" fill="#126695"/>
<path d="M22.0858 10.1321C22.0498 10.1139 21.3156 9.74211 16.6835 7.39636C15.8057 6.92011 14.7535 7.30776 14.352 8.16063C13.9671 8.98024 14.3132 9.97431 15.1218 10.3813L18.0763 11.8655V19.4249H10.9268L15.5371 23.7168L22.0858 16.8995V10.1321ZM22.0858 10.1321C22.0877 10.1331 22.0874 10.1329 22.0858 10.1321V10.1321Z" fill="#126695"/>
<path d="M22.0091 10.0936C21.9942 10.0861 21.9973 10.0876 22.0091 10.0936V10.0936ZM22.0339 10.1061C22.0242 10.1012 22.0157 10.0969 22.0091 10.0936C22.0146 10.0964 22.0227 10.1005 22.0339 10.1061ZM22.0339 10.1061C22.0555 10.1171 22.0795 10.1293 22.0852 10.1321C22.0627 10.1208 22.047 10.1128 22.0339 10.1061Z" fill="#126695"/>
<path d="M22.9772 17.7054L16.3203 24.3647L18.5883 26.6297L25.2449 19.9731L22.9772 17.7054Z" fill="#126695"/>
<path d="M11.3561 22.3675L13.4131 24.3035L13.7881 23.905L11.7311 21.969L11.3561 22.3675Z" fill="#126695"/>
<path d="M10.1094 21.1926L10.8779 21.9161L11.253 21.5177L10.4845 20.7942L10.1094 21.1926Z" fill="#126695"/>
<path d="M24.094 12.7176H23.5469V15.9187H24.094V12.7176Z" fill="#126695"/>
<path d="M24.094 10.571H23.5469V11.8031H24.094V10.571Z" fill="#126695"/>
<path d="M2.02666 6.13312H1.47949V16.6945H2.02666V6.13312Z" fill="#126695"/>
<path d="M2.02666 2.96448H1.47949V4.52745H2.02666V2.96448Z" fill="#126695"/>
<path d="M16.6989 1.4749L18.1406 2.99796L18.538 2.62181L17.0963 1.09876L16.6989 1.4749Z" fill="#126695"/>
<path d="M16.7273 0.710113L16.2256 0.180084L15.8282 0.556227L16.3299 1.08626L16.7273 0.710113Z" fill="#126695"/>
<path d="M20.9217 25.7195L21.3086 26.1064L23.5829 23.8322L23.196 23.4452L20.9217 25.7195Z" fill="#126695"/>
<path d="M24.5085 22.1337L23.8145 22.8275L24.2013 23.2144L24.8953 22.5206L24.5085 22.1337Z" fill="#126695"/>
</svg>
