<svg width="21" height="21" viewBox="0 0 21 21" fill="none" xmlns="http://www.w3.org/2000/svg">
<g clip-path="url(#clip0_503_2569)">
<path d="M6.70688 11.8518C6.98578 11.8518 7.26797 11.8486 7.54031 11.8387L7.62563 11.8354L7.60266 11.7534C7.44844 11.1726 7.36969 10.5656 7.36969 9.94871C7.36969 9.53527 7.40578 9.13168 7.47141 8.74777L7.48453 8.6723L7.40578 8.66902C7.18594 8.66246 6.95297 8.65918 6.70359 8.65918C2.86781 8.65918 0 9.50246 0 10.2571C0 11.0086 2.86781 11.8518 6.70688 11.8518Z" fill="#4D3D8C"/>
<path d="M2.32641 14.303C3.56672 14.5754 5.12203 14.7263 6.70688 14.7263C7.48453 14.7263 8.25234 14.6902 8.99062 14.618L9.11859 14.6049L9.03656 14.5064C8.505 13.8797 8.09484 13.1775 7.81266 12.413L7.79625 12.3671L7.74703 12.3704C7.40906 12.3835 7.05797 12.39 6.70688 12.39C3.81281 12.39 1.22063 11.9143 0.105 11.1793L0 11.1104V13.1349C0 13.3777 0.488906 13.8994 2.32641 14.303Z" fill="#4D3D8C"/>
<path d="M9.61406 15.1168L9.59109 15.0938L9.55828 15.0971C8.67234 15.2054 7.71422 15.2612 6.70688 15.2612C5.07281 15.2612 3.47812 15.107 2.21156 14.8248C1.575 14.687 0.695625 14.4409 0.105 14.0603L0 13.9946V16.006C0 16.6721 2.55281 17.5974 6.70688 17.5974C8.9775 17.5974 11.0184 17.3153 12.308 16.8231L12.4884 16.7542L12.3047 16.6951C11.3072 16.3834 10.3786 15.8387 9.61406 15.1168Z" fill="#4D3D8C"/>
<path d="M14.4539 3.39941C10.8446 3.39941 7.90784 6.33613 7.90784 9.94879C7.90784 13.5582 10.8446 16.4949 14.4539 16.4949C18.0633 16.4949 21 13.5582 21 9.94879C21 6.33941 18.0633 3.39941 14.4539 3.39941ZM14.4539 14.9297C11.7075 14.9297 9.47299 12.6952 9.47299 9.94879C9.47299 7.20238 11.7075 4.96785 14.4539 4.96785C17.2003 4.96785 19.4349 7.20238 19.4349 9.94879C19.4349 12.6952 17.2003 14.9297 14.4539 14.9297Z" fill="#4D3D8C"/>
<path d="M15.7467 9.88975C15.6483 9.79131 15.5269 9.706 15.3891 9.63053C15.2644 9.5649 15.1332 9.50584 14.9724 9.44021C14.8575 9.39756 14.7394 9.35162 14.6246 9.31225C14.5196 9.27287 14.4178 9.22693 14.3128 9.17115C14.2341 9.13178 14.1717 9.07928 14.1258 9.01693C14.0864 8.96443 14.0667 8.90209 14.0667 8.82662C14.0667 8.77412 14.0766 8.72818 14.0996 8.68225C14.1127 8.64943 14.1357 8.6199 14.1717 8.59037C14.2144 8.55756 14.2702 8.53131 14.3358 8.5149C14.408 8.49521 14.4999 8.48537 14.6114 8.48537C14.7394 8.48537 14.8477 8.4985 14.9396 8.52475C15.0446 8.55428 15.1364 8.58381 15.2152 8.61662C15.2972 8.65271 15.3661 8.68225 15.4219 8.7085C15.5039 8.75115 15.5663 8.77084 15.6188 8.77084C15.6614 8.77084 15.7041 8.75771 15.7336 8.73475C15.773 8.7085 15.8058 8.66256 15.8157 8.62318C15.8321 8.58381 15.8386 8.53459 15.8452 8.47881C15.8485 8.42959 15.8517 8.36725 15.8517 8.29178C15.8517 8.23271 15.8485 8.1835 15.8452 8.15068C15.8452 8.10146 15.8419 8.05553 15.8321 8.01943C15.8222 7.9735 15.8124 7.94068 15.7927 7.90787C15.7697 7.87178 15.7402 7.83896 15.7238 7.82584C15.691 7.79303 15.6417 7.76021 15.5794 7.73068C15.5236 7.70771 15.4646 7.68146 15.3957 7.65521C15.33 7.63553 15.2578 7.61256 15.1824 7.59615C15.1528 7.58959 15.1233 7.58303 15.0905 7.57646L15.1463 7.0285C15.1463 6.9924 15.1397 6.95631 15.1299 6.91693C15.1135 6.86443 15.0741 6.82178 15.0019 6.78568C14.9592 6.76928 14.9133 6.75943 14.8641 6.75287C14.8116 6.74631 14.746 6.73975 14.6672 6.73975C14.5983 6.73975 14.5392 6.73975 14.5064 6.74631C14.4507 6.75287 14.4047 6.76271 14.3785 6.77584C14.3227 6.79881 14.2932 6.8349 14.2702 6.86115C14.2571 6.88084 14.2341 6.9235 14.2341 6.96615L14.175 7.56334C13.9978 7.58959 13.8403 7.63553 13.7058 7.69131C13.5352 7.76021 13.3842 7.85865 13.2563 7.98006C13.1349 8.10146 13.0397 8.24256 12.9774 8.39678C12.9117 8.55428 12.8789 8.72818 12.8789 8.92506C12.8789 9.13834 12.9117 9.32209 12.9741 9.46646C13.0364 9.6174 13.1217 9.74865 13.23 9.85693C13.3317 9.95865 13.4499 10.0472 13.5844 10.1227C13.7091 10.1916 13.8371 10.2507 13.965 10.2966C14.093 10.3491 14.2177 10.3951 14.3358 10.4377C14.4441 10.4771 14.5458 10.523 14.641 10.5788C14.7197 10.6215 14.7788 10.6707 14.828 10.733C14.8674 10.7822 14.8838 10.8446 14.8838 10.9266C14.8838 11.0546 14.8378 11.1497 14.7361 11.2252C14.6278 11.3072 14.4539 11.3499 14.2111 11.3499C14.0438 11.3499 13.906 11.3335 13.7911 11.3007C13.6796 11.2712 13.5778 11.2351 13.4827 11.1924C13.3974 11.153 13.3285 11.1169 13.2727 11.0841C13.1644 11.0185 13.1053 11.0119 13.0725 11.0119C13.0299 11.0119 12.9872 11.0218 12.9413 11.048C12.8921 11.0776 12.8658 11.1235 12.8428 11.1727C12.8297 11.2121 12.8199 11.258 12.81 11.3269C12.8067 11.3794 12.8035 11.4516 12.8035 11.5304C12.8035 11.6387 12.81 11.7272 12.8232 11.7962C12.8428 11.8749 12.8724 11.934 12.915 11.9766C12.9478 12.0094 12.9938 12.0422 13.0692 12.0849C13.1217 12.1144 13.1939 12.144 13.2694 12.1735C13.3449 12.203 13.4302 12.226 13.5253 12.2522C13.5811 12.2654 13.6369 12.2752 13.6927 12.2883L13.6369 12.8494C13.6238 12.8987 13.6271 12.9479 13.65 13.0135C13.673 13.0562 13.7091 13.0922 13.7583 13.1251C13.801 13.1447 13.8469 13.1579 13.906 13.1677C13.9552 13.1743 14.0208 13.1808 14.1061 13.1808C14.1717 13.1808 14.2308 13.1776 14.2735 13.1677C14.3292 13.1579 14.3621 13.148 14.3752 13.1415C14.431 13.1251 14.4802 13.089 14.49 13.0594C14.5163 13.0233 14.5261 12.984 14.5327 12.9446L14.595 12.3047C14.7886 12.2785 14.9691 12.2358 15.1299 12.1768C15.3235 12.1013 15.4941 12.0029 15.6417 11.8716C15.7861 11.7404 15.901 11.5862 15.9764 11.409C16.0552 11.2383 16.0913 11.0382 16.0913 10.8151C16.0913 10.6018 16.0585 10.4246 15.9928 10.2769C15.9403 10.126 15.8517 9.99803 15.7467 9.88975Z" fill="#4D3D8C"/>
</g>
<defs>
<clipPath id="clip0_503_2569">
<rect width="21" height="21" fill="white"/>
</clipPath>
</defs>
</svg>
