<svg width="15" height="15" viewBox="0 0 15 15" fill="none" xmlns="http://www.w3.org/2000/svg">
<path d="M11.25 10.125V11.25C11.25 11.7 10.95 12 10.5 12C10.05 12 9.75 11.7 9.75 11.25V10.125H5.25V11.25C5.25 11.7 4.95 12 4.5 12C4.05 12 3.75 11.7 3.75 11.25V10.125H2.25C1.725 10.125 1.2 9.975 0.75 9.75V12.75C0.75 14.025 1.725 15 3 15H12C13.275 15 14.25 14.025 14.25 12.75V9.75C13.8 9.975 13.275 10.125 12.75 10.125H11.25ZM14.25 3H11.25V2.25C11.25 0.975 10.275 0 9 0H6C4.725 0 3.75 0.975 3.75 2.25V3H0.75C0.3 3 0 3.3 0 3.75V6.75C0 8.025 0.975 9 2.25 9H12.75C14.025 9 15 8.025 15 6.75V3.75C15 3.3 14.7 3 14.25 3ZM9.75 3H5.25V2.25C5.25 1.8 5.55 1.5 6 1.5H9C9.45 1.5 9.75 1.8 9.75 2.25V3Z" fill="#232323"/>
</svg>
