<svg width="12" height="14" viewBox="0 0 12 14" fill="none" xmlns="http://www.w3.org/2000/svg">
<path d="M10.933 8.03547L6.70583 12.2652C5.33277 13.6395 3.10642 13.6397 1.73315 12.2655C0.359876 10.8914 0.359748 8.66337 1.73281 7.28904L7.70029 1.31696C8.52414 0.492272 9.86002 0.492143 10.684 1.31662C11.5081 2.1411 11.5082 3.47801 10.6844 4.30266L5.21413 9.77712C4.93589 10.0431 4.49785 10.0431 4.21966 9.77712C3.94563 9.50207 3.94563 9.05694 4.21966 8.78189L7.94887 5.04904C7.95058 5.04741 7.95226 5.04573 7.95393 5.04401C8.08983 4.90522 8.0876 4.68244 7.94887 4.54644C7.81018 4.4104 7.58757 4.41267 7.45168 4.55147L3.72243 8.28427C3.72225 8.28444 3.72208 8.28462 3.72191 8.28479C3.17295 8.83443 3.17321 9.72536 3.72243 10.2747C4.27898 10.8064 5.1548 10.8064 5.71136 10.2747L11.1816 4.80027C12.2729 3.70203 12.2728 1.92781 11.1813 0.829744C10.0856 -0.272494 8.30449 -0.277177 7.20306 0.819348L1.23557 6.79143C0.444437 7.58334 0 8.65736 0 9.77716C0 12.1094 1.88922 14 4.21966 14C5.33938 14.0032 6.41373 13.5576 7.20306 12.7628L11.4302 8.53308C11.4319 8.53141 11.4336 8.52973 11.4352 8.52806C11.5712 8.38926 11.5689 8.16648 11.4302 8.03044C11.2915 7.89444 11.0689 7.89667 10.933 8.03547Z" fill="#232323" fill-opacity="0.5"/>
</svg>
