<svg width="24" height="24" viewBox="0 0 24 24" fill="none" xmlns="http://www.w3.org/2000/svg">
<g clip-path="url(#clip0_218_1725)">
<path d="M17 20H2.5C1.8372 19.9992 1.20178 19.7356 0.73311 19.2669C0.264441 18.7982 0.000793929 18.1628 0 17.5L0 2.5C0 1.122 1.122 0 2.5 0H10.5C10.6042 5.94992e-06 10.7059 0.0325885 10.7907 0.0931914C10.8755 0.153794 10.9392 0.239387 10.973 0.338L17.473 19.338C17.4983 19.4133 17.5054 19.4935 17.4937 19.572C17.482 19.6506 17.4518 19.7252 17.4056 19.7898C17.3595 19.8545 17.2986 19.9072 17.2281 19.9437C17.1576 19.9803 17.0794 19.9996 17 20ZM2.5 1C1.673 1 1 1.673 1 2.5V17.5C1 18.327 1.673 19 2.5 19H16.3L10.143 1H2.5Z" fill="#232323" fill-opacity="0.5"/>
<path d="M21.5 24H13.5C13.3983 24 13.299 23.969 13.2154 23.9111C13.1318 23.8532 13.0678 23.7712 13.032 23.676L11.532 19.676C11.4853 19.5519 11.4899 19.4143 11.5446 19.2935C11.5994 19.1728 11.6999 19.0787 11.824 19.032C11.9481 18.9853 12.0857 18.9899 12.2065 19.0446C12.3272 19.0994 12.4213 19.1999 12.468 19.324L13.847 23H21.5C22.327 23 23 22.327 23 21.5V6.5C23 5.673 22.327 5 21.5 5H12C11.8674 5 11.7402 4.94732 11.6464 4.85355C11.5527 4.75979 11.5 4.63261 11.5 4.5C11.5 4.36739 11.5527 4.24021 11.6464 4.14645C11.7402 4.05268 11.8674 4 12 4H21.5C22.878 4 24 5.122 24 6.5V21.5C24 22.878 22.878 24 21.5 24Z" fill="#232323" fill-opacity="0.5"/>
<path d="M13.4999 24.0001C13.4037 24.0002 13.3096 23.9725 13.2287 23.9204C13.1479 23.8683 13.0838 23.794 13.0441 23.7064C13.0044 23.6188 12.9908 23.5216 13.005 23.4265C13.0191 23.3314 13.0604 23.2423 13.1239 23.1701L16.6239 19.1701C16.6672 19.1206 16.7197 19.0802 16.7786 19.0511C16.8375 19.022 16.9016 19.0047 16.9671 19.0004C17.0327 18.996 17.0985 19.0046 17.1607 19.0257C17.223 19.0467 17.2804 19.0798 17.3299 19.1231C17.3793 19.1664 17.4198 19.2189 17.4489 19.2778C17.478 19.3367 17.4952 19.4008 17.4996 19.4664C17.504 19.5319 17.4954 19.5977 17.4743 19.6599C17.4533 19.7222 17.4202 19.7796 17.3769 19.8291L13.8769 23.8291C13.8298 23.8828 13.7718 23.9258 13.7068 23.9553C13.6418 23.9847 13.5713 24 13.4999 24.0001Z" fill="#232323" fill-opacity="0.5"/>
<path d="M9.50007 13.9999C9.39686 14.0001 9.29615 13.9683 9.2118 13.9088C9.12745 13.8493 9.0636 13.7652 9.02907 13.6679L7.00007 7.98695L4.97107 13.6679C4.92651 13.7929 4.83415 13.895 4.71432 13.9518C4.59448 14.0086 4.45698 14.0155 4.33207 13.9709C4.20715 13.9264 4.10505 13.834 4.04822 13.7142C3.9914 13.5944 3.98451 13.4569 4.02907 13.3319L6.52907 6.33195C6.67107 5.93395 7.32907 5.93395 7.47007 6.33195L9.97007 13.3319C9.99696 13.4073 10.0054 13.4881 9.99457 13.5674C9.98378 13.6467 9.95411 13.7222 9.90806 13.7877C9.86201 13.8531 9.80092 13.9066 9.72992 13.9435C9.65892 13.9804 9.5801 13.9998 9.50007 13.9999Z" fill="#232323" fill-opacity="0.5"/>
<path d="M8 11H6C5.86739 11 5.74021 10.9473 5.64645 10.8536C5.55268 10.7598 5.5 10.6326 5.5 10.5C5.5 10.3674 5.55268 10.2402 5.64645 10.1464C5.74021 10.0527 5.86739 10 6 10H8C8.13261 10 8.25979 10.0527 8.35355 10.1464C8.44732 10.2402 8.5 10.3674 8.5 10.5C8.5 10.6326 8.44732 10.7598 8.35355 10.8536C8.25979 10.9473 8.13261 11 8 11Z" fill="#232323" fill-opacity="0.5"/>
<path d="M21.5 11H14.5C14.3674 11 14.2402 10.9473 14.1464 10.8536C14.0527 10.7598 14 10.6326 14 10.5C14 10.3674 14.0527 10.2402 14.1464 10.1464C14.2402 10.0527 14.3674 10 14.5 10H21.5C21.6326 10 21.7598 10.0527 21.8536 10.1464C21.9473 10.2402 22 10.3674 22 10.5C22 10.6326 21.9473 10.7598 21.8536 10.8536C21.7598 10.9473 21.6326 11 21.5 11Z" fill="#232323" fill-opacity="0.5"/>
<path d="M17.5 11C17.3674 11 17.2402 10.9473 17.1464 10.8536C17.0527 10.7598 17 10.6326 17 10.5V9.5C17 9.36739 17.0527 9.24021 17.1464 9.14645C17.2402 9.05268 17.3674 9 17.5 9C17.6326 9 17.7598 9.05268 17.8536 9.14645C17.9473 9.24021 18 9.36739 18 9.5V10.5C18 10.6326 17.9473 10.7598 17.8536 10.8536C17.7598 10.9473 17.6326 11 17.5 11Z" fill="#232323" fill-opacity="0.5"/>
<path d="M16 17C15.8935 17.0012 15.7893 16.9683 15.7028 16.906C15.6164 16.8436 15.5522 16.7552 15.5197 16.6537C15.4873 16.5522 15.4883 16.4429 15.5225 16.342C15.5568 16.241 15.6225 16.1538 15.71 16.093C17.899 14.538 19.5 11.366 19.5 10.501C19.5 10.3684 19.5527 10.2412 19.6465 10.1474C19.7402 10.0537 19.8674 10.001 20 10.001C20.1326 10.001 20.2598 10.0537 20.3536 10.1474C20.4473 10.2412 20.5 10.3684 20.5 10.501C20.5 11.819 18.573 15.286 16.29 16.909C16.2049 16.9683 16.1037 17 16 17Z" fill="#232323" fill-opacity="0.5"/>
<path d="M20 17.9999C19.8751 18.0004 19.7547 17.9536 19.663 17.8689C19.3 17.5369 16.105 14.5859 15.537 13.1879C15.4923 13.0662 15.4966 12.9319 15.5491 12.8133C15.6016 12.6947 15.6981 12.6011 15.8182 12.5524C15.9384 12.5036 16.0728 12.5034 16.1931 12.5518C16.3134 12.6002 16.4101 12.6935 16.463 12.8119C16.872 13.8189 19.399 16.2709 20.338 17.1309C20.4124 17.199 20.4645 17.2879 20.4875 17.3861C20.5104 17.4843 20.5031 17.5872 20.4666 17.6812C20.43 17.7752 20.3659 17.8559 20.2826 17.9128C20.1993 17.9697 20.1008 18 20 17.9999Z" fill="#232323" fill-opacity="0.5"/>
</g>
<defs>
<clipPath id="clip0_218_1725">
<rect width="24" height="24" fill="white"/>
</clipPath>
</defs>
</svg>
