<svg width="23" height="12" viewBox="0 0 23 12" fill="none" xmlns="http://www.w3.org/2000/svg">
<path d="M0.305242 11.9997H3.71663C3.75681 12 3.79665 11.9926 3.83384 11.9779C3.87103 11.9632 3.90482 11.9415 3.93323 11.914C3.96165 11.8865 3.98412 11.8538 3.99933 11.8178C4.01455 11.7819 4.0222 11.7433 4.02186 11.7045V8.75232C4.0222 8.71346 4.01455 8.67492 3.99933 8.63895C3.98412 8.60298 3.96165 8.5703 3.93323 8.54281C3.90482 8.51533 3.87103 8.4936 3.83384 8.47888C3.79665 8.46416 3.75681 8.45675 3.71663 8.45708H0.305242C0.26506 8.45675 0.225212 8.46416 0.188023 8.47888C0.150833 8.4936 0.117046 8.51533 0.0886334 8.54281C0.0602208 8.5703 0.037751 8.60298 0.0225354 8.63895C0.00731977 8.67492 -0.000337067 8.71346 1.13798e-05 8.75232V11.7045C0.00227828 11.7821 0.0351633 11.8559 0.0919206 11.9108C0.148678 11.9657 0.225005 11.9975 0.305242 11.9997ZM5.00938 11.9997H8.42076C8.46094 12 8.50079 11.9926 8.53798 11.9779C8.57517 11.9632 8.60896 11.9415 8.63737 11.914C8.66578 11.8865 8.68825 11.8538 8.70347 11.8178C8.71868 11.7819 8.72634 11.7433 8.72599 11.7045V8.75232C8.72634 8.71346 8.71868 8.67492 8.70347 8.63895C8.68825 8.60298 8.66578 8.5703 8.63737 8.54281C8.60896 8.51533 8.57517 8.4936 8.53798 8.47888C8.50079 8.46416 8.46094 8.45675 8.42076 8.45708H5.00938C4.9692 8.45675 4.92935 8.46416 4.89216 8.47888C4.85497 8.4936 4.82118 8.51533 4.79277 8.54281C4.76436 8.5703 4.74189 8.60298 4.72667 8.63895C4.71146 8.67492 4.7038 8.71346 4.70415 8.75232V11.7045C4.70642 11.7821 4.7393 11.8559 4.79606 11.9108C4.85282 11.9657 4.92914 11.9975 5.00938 11.9997ZM9.80327 11.9997H13.2147C13.2549 12 13.2947 11.9926 13.3319 11.9779C13.3691 11.9632 13.4029 11.9415 13.4313 11.914C13.4597 11.8865 13.4822 11.8538 13.4974 11.8178C13.5126 11.7819 13.5203 11.7433 13.5199 11.7045V8.75232C13.5203 8.71346 13.5126 8.67492 13.4974 8.63895C13.4822 8.60298 13.4597 8.5703 13.4313 8.54281C13.4029 8.51533 13.3691 8.4936 13.3319 8.47888C13.2947 8.46416 13.2549 8.45675 13.2147 8.45708H9.80319C9.76301 8.45675 9.72316 8.46416 9.68597 8.47888C9.64878 8.4936 9.615 8.51533 9.58659 8.54281C9.55817 8.5703 9.5357 8.60298 9.52049 8.63895C9.50527 8.67492 9.49761 8.71346 9.49796 8.75232V11.7045C9.49612 11.7437 9.50275 11.7829 9.51744 11.8195C9.53213 11.8562 9.55454 11.8894 9.58326 11.9172C9.61198 11.945 9.64637 11.9667 9.68424 11.9809C9.72211 11.9951 9.76262 12.0015 9.80319 11.9997H9.80327ZM9.73148 11.9997H17.9367C17.9769 12 18.0168 11.9926 18.054 11.9779C18.0911 11.9632 18.1249 11.9415 18.1533 11.914C18.1818 11.8865 18.2042 11.8538 18.2194 11.8178C18.2347 11.7819 18.2423 11.7433 18.242 11.7045V8.75232C18.2423 8.71346 18.2347 8.67492 18.2194 8.63895C18.2042 8.60298 18.1818 8.5703 18.1533 8.54281C18.1249 8.51533 18.0911 8.4936 18.054 8.47888C18.0168 8.46416 17.9769 8.45675 17.9367 8.45708H14.5254C14.4852 8.45675 14.4453 8.46416 14.4082 8.47888C14.371 8.4936 14.3372 8.51533 14.3088 8.54281C14.2803 8.5703 14.2579 8.60298 14.2427 8.63895C14.2274 8.67492 14.2198 8.71346 14.2201 8.75232V11.7045C14.2198 11.7433 14.2274 11.7819 14.2427 11.8178C14.2579 11.8538 14.2803 11.8865 14.3088 11.914C14.3372 11.9415 14.371 11.9632 14.4082 11.9779C14.4453 11.9926 14.4852 12 14.5254 11.9997H9.73148ZM0.215486 7.77991H8.42076C8.50097 7.77763 8.57724 7.74579 8.63397 7.69091C8.69071 7.63604 8.72363 7.56227 8.72599 7.4847V4.53245C8.72634 4.49359 8.71868 4.45505 8.70347 4.41908C8.68825 4.38311 8.66578 4.35043 8.63737 4.32295C8.60896 4.29547 8.57517 4.27374 8.53798 4.25902C8.50079 4.2443 8.46094 4.2369 8.42076 4.23724H5.00938C4.9692 4.2369 4.92935 4.2443 4.89216 4.25902C4.85497 4.27374 4.82118 4.29547 4.79277 4.32295C4.76436 4.35043 4.74189 4.38311 4.72667 4.41908C4.71146 4.45505 4.7038 4.49359 4.70415 4.53245V7.48462C4.70951 7.56121 4.74338 7.63333 4.79951 7.68761C4.85563 7.74189 4.93019 7.77466 5.00938 7.77984M9.80327 7.77984H13.2147C13.2949 7.77755 13.3711 7.74572 13.4279 7.69084C13.4846 7.63596 13.5175 7.5622 13.5199 7.48462V4.53245C13.5203 4.49359 13.5126 4.45505 13.4974 4.41908C13.4822 4.38311 13.4597 4.35043 13.4313 4.32295C13.4029 4.29547 13.3691 4.27374 13.3319 4.25902C13.2947 4.2443 13.2549 4.2369 13.2147 4.23724H9.80319C9.76301 4.2369 9.72317 4.2443 9.68598 4.25902C9.64879 4.27374 9.615 4.29547 9.58659 4.32295C9.55817 4.35043 9.5357 4.38311 9.52049 4.41908C9.50527 4.45505 9.49761 4.49359 9.49796 4.53245V7.48462C9.49762 7.52348 9.50528 7.56202 9.52049 7.59799C9.53571 7.63396 9.55818 7.66664 9.58659 7.69412C9.61501 7.7216 9.64879 7.74333 9.68598 7.75805C9.72317 7.77277 9.76301 7.78017 9.80319 7.77984M14.5253 7.77984H17.9367C18.0169 7.77755 18.0932 7.74572 18.1499 7.69084C18.2067 7.63596 18.2396 7.5622 18.242 7.48462V4.53245C18.2396 4.45488 18.2067 4.38111 18.1499 4.32623C18.0932 4.27136 18.0169 4.23952 17.9367 4.23724H14.5254C14.4852 4.2369 14.4453 4.2443 14.4082 4.25902C14.371 4.27374 14.3372 4.29547 14.3088 4.32295C14.2803 4.35043 14.2579 4.38311 14.2427 4.41908C14.2274 4.45505 14.2198 4.49359 14.2201 4.53245V7.48462C14.2225 7.5622 14.2554 7.63596 14.3122 7.69084C14.3689 7.74572 14.4452 7.77755 14.5254 7.77984M14.5254 3.54262H17.9367C17.9769 3.54295 18.0168 3.53554 18.054 3.52082C18.0911 3.5061 18.1249 3.48437 18.1533 3.45689C18.1818 3.42941 18.2042 3.39673 18.2194 3.36076C18.2347 3.32478 18.2423 3.28624 18.242 3.24738V0.295228C18.2396 0.217655 18.2067 0.143887 18.1499 0.0890109C18.0932 0.0341348 18.0169 0.00229763 17.9367 1.10084e-05H14.5254C14.4852 -0.000326043 14.4453 0.00707987 14.4082 0.0217966C14.371 0.0365132 14.3372 0.0582458 14.3088 0.0857267C14.2803 0.113207 14.2579 0.145886 14.2427 0.181856C14.2274 0.217825 14.2198 0.256366 14.2201 0.295228V3.24738C14.2225 3.32496 14.2554 3.39873 14.3122 3.45361C14.3689 3.50849 14.4452 3.54033 14.5254 3.54262ZM19.2834 11.9997H22.6948C22.7349 12 22.7748 11.9926 22.812 11.9779C22.8492 11.9632 22.883 11.9415 22.9114 11.914C22.9398 11.8865 22.9622 11.8538 22.9775 11.8179C22.9927 11.7819 23.0003 11.7434 23 11.7045V8.75232C23.0003 8.71346 22.9927 8.67492 22.9775 8.63895C22.9622 8.60298 22.9398 8.5703 22.9114 8.54282C22.883 8.51534 22.8492 8.49361 22.812 8.47889C22.7748 8.46417 22.7349 8.45677 22.6948 8.4571H19.2834C19.2432 8.45677 19.2033 8.46417 19.1662 8.47889C19.129 8.49361 19.0952 8.51534 19.0668 8.54282C19.0384 8.5703 19.0159 8.60298 19.0007 8.63895C18.9855 8.67492 18.9778 8.71346 18.9781 8.75232V11.7045C18.9804 11.7821 19.0133 11.8559 19.0701 11.9108C19.1268 11.9657 19.2031 11.9975 19.2834 11.9997Z" fill="#D8D8FF"/>
</svg>
