<svg width="10" height="11" viewBox="0 0 10 11" fill="none" xmlns="http://www.w3.org/2000/svg">
<path d="M9.58401 6.72326C9.42705 6.56583 9.3026 6.37858 9.21788 6.17234C9.13315 5.96611 9.08983 5.74499 9.09041 5.52176V4.12414C9.09041 3.03035 8.65943 1.98136 7.89229 1.20793C7.12514 0.434506 6.08468 0 4.99977 0C3.91487 0 2.8744 0.434506 2.10726 1.20793C1.34012 1.98136 0.909139 3.03035 0.909139 4.12414V5.52176C0.909718 5.74499 0.866391 5.96611 0.781666 6.17234C0.696941 6.37858 0.572498 6.56583 0.415536 6.72326C0.217128 6.92327 0.0820072 7.17811 0.0272635 7.45555C-0.0274803 7.73299 0.000611753 8.02057 0.107987 8.28191C0.215362 8.54325 0.397196 8.76661 0.630494 8.92376C0.863792 9.08091 1.13807 9.16477 1.41865 9.16475H2.77265C2.87697 9.68269 3.15568 10.1483 3.56157 10.4828C3.96746 10.8173 4.47556 11 4.99977 11C5.52399 11 6.03209 10.8173 6.43797 10.4828C6.84386 10.1483 7.12258 9.68269 7.2269 9.16475H8.58135C8.86193 9.16477 9.13621 9.08091 9.3695 8.92376C9.6028 8.76661 9.78464 8.54325 9.89201 8.28191C9.99939 8.02057 10.0275 7.73299 9.97274 7.45555C9.91799 7.17811 9.78287 6.92327 9.58446 6.72326H9.58401ZM4.99977 10.0812C4.71876 10.0801 4.44498 9.99137 4.21587 9.82732C3.98676 9.66327 3.81353 9.43186 3.71986 9.16475H6.27969C6.18602 9.43186 6.01278 9.66327 5.78367 9.82732C5.55457 9.99137 5.28078 10.0801 4.99977 10.0812ZM8.58089 8.24828H1.41865C1.31783 8.24834 1.21927 8.21824 1.13542 8.1618C1.05158 8.10536 0.986226 8.02511 0.947637 7.93121C0.909049 7.83731 0.898958 7.73398 0.918643 7.63429C0.938327 7.53461 0.986902 7.44305 1.05822 7.37121C1.29986 7.12889 1.49145 6.84066 1.62189 6.52321C1.75233 6.20576 1.81905 5.86538 1.81817 5.52176V4.12414C1.81817 3.27341 2.15337 2.45753 2.75004 1.85598C3.34671 1.25442 4.15596 0.916475 4.99977 0.916475C5.84359 0.916475 6.65284 1.25442 7.24951 1.85598C7.84617 2.45753 8.18138 3.27341 8.18138 4.12414V5.52176C8.1805 5.86538 8.24721 6.20576 8.37766 6.52321C8.5081 6.84066 8.69968 7.12889 8.94133 7.37121C9.01264 7.44305 9.06122 7.53461 9.0809 7.63429C9.10059 7.73398 9.0905 7.83731 9.05191 7.93121C9.01332 8.02511 8.94797 8.10536 8.86412 8.1618C8.78028 8.21824 8.68171 8.24834 8.58089 8.24828Z" fill="white"/>
</svg>
