<svg width="23" height="26" viewBox="0 0 23 26" fill="none" xmlns="http://www.w3.org/2000/svg">
<path d="M11.4999 25.9998C11.2232 25.9996 10.9543 25.9097 10.7349 25.7441C10.7349 25.7441 9.77472 25.0332 7.12054 23.6039C3.05859 21.4176 1.19025 18.7942 0.672429 14.5496C0.271699 11.2639 0.0114844 4.40093 0.00107585 4.10944C-0.00632017 3.93408 0.024484 3.75919 0.0914268 3.59647C0.15837 3.43376 0.259907 3.28697 0.389245 3.16593C0.518582 3.04488 0.672737 2.95238 0.841393 2.89461C1.01005 2.83684 1.18932 2.81514 1.3672 2.83094C1.39322 2.83094 4.10986 3.05596 6.44658 2.4116C7.98561 1.97546 9.42599 1.25518 10.6907 0.289304C10.9175 0.102426 11.204 0 11.4999 0C11.7959 0 12.0824 0.102426 12.3092 0.289304C13.5726 1.26128 15.013 1.98764 16.5533 2.4295C18.8952 3.07386 21.6067 2.84884 21.6353 2.84884C21.8131 2.833 21.9922 2.8547 22.1608 2.91249C22.3293 2.97028 22.4833 3.06282 22.6124 3.18391C22.7416 3.30499 22.8429 3.45182 22.9095 3.61454C22.9761 3.77726 23.0066 3.9521 22.9988 4.12733C22.9988 4.41883 22.7386 11.2869 22.3275 14.5675C21.807 18.8121 19.9413 21.4355 15.8819 23.6192C13.2278 25.0486 12.2728 25.7568 12.2624 25.7645C12.0411 25.9225 11.7734 26.0051 11.4999 25.9998ZM2.56158 5.3419C2.65266 7.54346 2.87905 11.921 3.17309 14.2581C3.53739 17.2446 4.49758 19.3721 8.33314 21.4407C9.89442 22.2768 10.8988 22.8854 11.5104 23.2766C12.1219 22.8854 13.1341 22.2768 14.6876 21.4407C18.5257 19.3772 19.4729 17.2446 19.8268 14.2581C20.1208 11.921 20.3472 7.54346 20.4383 5.3419C18.899 5.35616 17.3644 5.17132 15.8741 4.79215C14.3158 4.35105 12.8392 3.66827 11.4999 2.76958C10.1607 3.66827 8.68408 4.35105 7.12574 4.79215C5.63548 5.17132 4.10092 5.35616 2.56158 5.3419Z" fill="#232323"/>
</svg>
