<svg width="16" height="14" viewBox="0 0 16 14" fill="none" xmlns="http://www.w3.org/2000/svg">
<path d="M3.35484 0C2.94418 0 2.55034 0.158035 2.25996 0.43934C1.96958 0.720644 1.80645 1.10218 1.80645 1.5C1.80645 1.89782 1.96958 2.27936 2.25996 2.56066C2.55034 2.84196 2.94418 3 3.35484 3C3.7655 3 4.15933 2.84196 4.44971 2.56066C4.74009 2.27936 4.90323 1.89782 4.90323 1.5C4.90323 1.10218 4.74009 0.720644 4.44971 0.43934C4.15933 0.158035 3.7655 0 3.35484 0ZM12.1452 2C12.0448 1.99389 11.9462 2.04639 11.8982 2.13867L10.3498 5.1377C10.286 5.26123 10.3372 5.41162 10.4647 5.47363C10.5018 5.4917 10.5418 5.5 10.5806 5.5C10.6754 5.5 10.7661 5.44971 10.8115 5.3623L11.3548 4.30859V6H11.0968C10.9541 6 10.8387 6.11182 10.8387 6.25C10.8387 6.38818 10.9541 6.5 11.0968 6.5H12.129C12.2717 6.5 12.3871 6.38818 12.3871 6.25C12.3871 6.11182 12.2717 6 12.129 6H11.871V3.32324C11.871 3.31955 11.8691 3.31714 11.869 3.31348L12.3599 2.36133C12.4236 2.23779 12.3725 2.08838 12.245 2.02637C12.213 2.01086 12.1786 2.00204 12.1452 2ZM3.09677 3.33594C2.24168 3.33594 1.54839 4.00732 1.54839 4.83594V8.5C1.54839 9.32861 2.24168 10 3.09677 10H5.67742V13.25C5.67742 13.6641 6.02394 14 6.45161 14C6.87928 14 7.22581 13.6641 7.22581 13.25V9.25C7.22581 8.83594 6.87928 8.5 6.45161 8.5H4.64516V5.87988L5.54032 6.39453C5.65978 6.46338 5.79637 6.5 5.93548 6.5H8C8.1181 6.5 8.22848 6.47256 8.32863 6.42676C8.37531 6.47211 8.44065 6.5 8.5121 6.5H9.54839C9.69103 6.5 9.80645 6.38818 9.80645 6.25C9.80645 6.11182 9.69103 6 9.54839 6H8.72681C8.75564 5.92145 8.77419 5.83813 8.77419 5.75C8.77419 5.33594 8.42767 5 8 5H6.14819L4.35786 3.96973C4.07727 3.58701 3.6182 3.33594 3.09677 3.33594ZM0.517137 5.99609C0.232107 5.99609 0.00100806 6.21973 0.00100806 6.49609L0 11C0 11.2069 0.129851 11.3839 0.314516 11.46L0.315524 11.4609C0.377299 11.4862 0.44484 11.5 0.516129 11.5H2.06452V12.082V12.8428L1.125 13.5488C1.01235 13.6333 0.992187 13.79 1.07964 13.8994C1.13029 13.9629 1.20615 13.9961 1.28327 13.9961C1.33846 13.9961 1.39466 13.9785 1.44153 13.9434L2.06452 13.4756V13.5V13.7461C2.06452 13.8843 2.17994 13.9961 2.32258 13.9961C2.46522 13.9961 2.58065 13.8843 2.58065 13.7461V13.4863L3.18952 13.9434C3.23639 13.9785 3.29259 13.9961 3.34778 13.9961C3.4249 13.9961 3.50076 13.9629 3.55141 13.8994C3.63886 13.79 3.6187 13.6333 3.50605 13.5488L2.58065 12.8535V11.5H4.12198C4.40701 11.5 4.6381 11.2764 4.6381 11C4.6381 10.7236 4.40701 10.5 4.12198 10.5H1.03226L1.03327 6.49609C1.03327 6.22022 0.802419 5.99609 0.517137 5.99609ZM6.70968 7C6.42465 7 6.19355 7.22363 6.19355 7.5C6.19355 7.77637 6.42465 8 6.70968 8H7.74194V13.5C7.74194 13.7764 7.97303 14 8.25806 14C8.54309 14 8.77419 13.7764 8.77419 13.5V8H13.4194V13.5C13.4194 13.7764 13.6505 14 13.9355 14C14.2205 14 14.4516 13.7764 14.4516 13.5V8H15.4839C15.7689 8 16 7.77637 16 7.5C16 7.22363 15.7689 7 15.4839 7H6.70968Z" fill="#232323"/>
</svg>
