<svg width="29" height="27" viewBox="0 0 29 27" fill="none" xmlns="http://www.w3.org/2000/svg">
<path d="M15.6979 14.7262C17.6999 14.7262 19.3228 16.3745 19.3228 18.4077L19.3209 20.2445C19.5695 24.7521 16.1511 27 9.81195 27C3.49327 27 0 24.7815 0 20.3088V18.4077C0 16.3745 1.62294 14.7262 3.62493 14.7262H15.6979ZM25.3658 14.7262C27.3678 14.7262 28.9907 16.3745 28.9907 18.4077L28.9889 19.7001C29.2074 23.7436 26.1869 25.7708 20.666 25.7708C19.9165 25.7708 19.212 25.7337 18.554 25.6595C19.851 24.4431 20.5448 22.7924 20.5425 20.7064L20.5273 20.1759L20.5311 18.4077C20.5311 16.9411 19.8978 15.6247 18.8937 14.7252L25.3658 14.7262ZM9.66649 0C13.0037 0 15.709 2.74759 15.709 6.13691C15.709 9.52623 13.0037 12.2738 9.66649 12.2738C6.32929 12.2738 3.62395 9.52623 3.62395 6.13691C3.62395 2.74759 6.32929 0 9.66649 0ZM21.7496 2.45436C24.4189 2.45436 26.5828 4.65208 26.5828 7.36309C26.5828 10.0741 24.4189 12.2718 21.7496 12.2718C19.0803 12.2718 16.9164 10.0741 16.9164 7.36309C16.9164 4.65208 19.0803 2.45436 21.7496 2.45436Z" fill="#232323"/>
</svg>
