<svg width="14" height="14" viewBox="0 0 14 14" fill="none" xmlns="http://www.w3.org/2000/svg">
<path d="M6.503 9.303C6.4729 9.33626 6.44485 9.37133 6.419 9.408C6.39251 9.44702 6.37132 9.48939 6.356 9.534C6.33582 9.57368 6.32166 9.61614 6.314 9.66C6.31057 9.7066 6.31057 9.75339 6.314 9.8C6.31164 9.89182 6.33082 9.98292 6.37 10.066C6.40144 10.1529 6.4516 10.2318 6.51692 10.2971C6.58224 10.3624 6.66114 10.4126 6.748 10.444C6.83179 10.481 6.92239 10.5002 7.014 10.5002C7.10561 10.5002 7.19621 10.481 7.28 10.444C7.36687 10.4126 7.44576 10.3624 7.51108 10.2971C7.57641 10.2318 7.62656 10.1529 7.658 10.066C7.68909 9.98088 7.70335 9.89055 7.7 9.8C7.70053 9.70787 7.68288 9.61655 7.64804 9.53126C7.61321 9.44598 7.56188 9.36841 7.497 9.303C7.43193 9.23739 7.35451 9.18531 7.26921 9.14977C7.1839 9.11424 7.09241 9.09594 7 9.09594C6.90759 9.09594 6.8161 9.11424 6.7308 9.14977C6.6455 9.18531 6.56808 9.23739 6.503 9.303ZM7 0C5.61553 0 4.26215 0.410543 3.11101 1.17971C1.95987 1.94888 1.06266 3.04213 0.532846 4.32121C0.00303299 5.6003 -0.13559 7.00776 0.134506 8.36563C0.404603 9.7235 1.07129 10.9708 2.05026 11.9497C3.02922 12.9287 4.2765 13.5954 5.63437 13.8655C6.99224 14.1356 8.3997 13.997 9.67879 13.4672C10.9579 12.9373 12.0511 12.0401 12.8203 10.889C13.5895 9.73784 14 8.38447 14 7C14 6.08075 13.8189 5.17049 13.4672 4.32121C13.1154 3.47194 12.5998 2.70026 11.9497 2.05025C11.2997 1.40024 10.5281 0.884626 9.67879 0.532843C8.82951 0.18106 7.91925 0 7 0ZM7 12.6C5.89243 12.6 4.80972 12.2716 3.88881 11.6562C2.96789 11.0409 2.25013 10.1663 1.82628 9.14302C1.40243 8.11976 1.29153 6.99379 1.50761 5.90749C1.72368 4.8212 2.25703 3.82337 3.0402 3.0402C3.82338 2.25703 4.8212 1.72368 5.9075 1.5076C6.99379 1.29153 8.11976 1.40242 9.14303 1.82627C10.1663 2.25012 11.0409 2.96789 11.6562 3.88881C12.2716 4.80972 12.6 5.89242 12.6 7C12.6 8.48521 12.01 9.90959 10.9598 10.9598C9.9096 12.01 8.48521 12.6 7 12.6ZM7 3.5C6.63115 3.49976 6.26874 3.59668 5.94924 3.78101C5.62974 3.96533 5.36443 4.23056 5.18 4.55C5.12935 4.62967 5.09535 4.71877 5.08002 4.81192C5.0647 4.90508 5.06838 5.00037 5.09084 5.09207C5.1133 5.18377 5.15408 5.26997 5.21072 5.3455C5.26736 5.42103 5.3387 5.48432 5.42043 5.53157C5.50217 5.57882 5.59262 5.60904 5.68634 5.62042C5.78005 5.63181 5.87511 5.62412 5.96578 5.59781C6.05645 5.57151 6.14086 5.52713 6.21394 5.46736C6.28701 5.40759 6.34724 5.33365 6.391 5.25C6.45268 5.14318 6.54148 5.05455 6.64842 4.99308C6.75537 4.93162 6.87666 4.89951 7 4.9C7.18565 4.9 7.3637 4.97375 7.49498 5.10502C7.62625 5.2363 7.7 5.41435 7.7 5.6C7.7 5.78565 7.62625 5.9637 7.49498 6.09497C7.3637 6.22625 7.18565 6.3 7 6.3C6.81435 6.3 6.6363 6.37375 6.50503 6.50502C6.37375 6.6363 6.3 6.81435 6.3 7V7.7C6.3 7.88565 6.37375 8.0637 6.50503 8.19497C6.6363 8.32625 6.81435 8.4 7 8.4C7.18565 8.4 7.3637 8.32625 7.49498 8.19497C7.62625 8.0637 7.7 7.88565 7.7 7.7V7.574C8.16296 7.40601 8.55215 7.08066 8.79954 6.65481C9.04693 6.22896 9.13678 5.7297 9.05338 5.24432C8.96998 4.75894 8.71864 4.31831 8.3433 3.99946C7.96795 3.68061 7.49248 3.50382 7 3.5Z" fill="black" fill-opacity="0.51"/>
</svg>
