<svg width="21" height="22" viewBox="0 0 21 22" fill="none" xmlns="http://www.w3.org/2000/svg">
<path d="M8.80641 6.12051C10.1159 6.12051 11.1774 5.05899 11.1774 3.74953C11.1774 2.44007 10.1159 1.37855 8.80641 1.37855C7.49695 1.37855 6.43542 2.44007 6.43542 3.74953C6.43542 5.05899 7.49695 6.12051 8.80641 6.12051Z" fill="#B7DBF9"/>
<path d="M14.2497 11.0692V11.0421L11.706 7.24849L11.6619 7.18752C11.542 7.03341 11.3812 6.91606 11.1979 6.84881C11.0818 6.8125 10.9605 6.79534 10.8389 6.798H6.4356V6.86575C6.24026 6.94176 6.07256 7.07521 5.95463 7.24849L3.38719 11.0421L3.37026 11.0692C3.27255 11.2068 3.21936 11.3711 3.21783 11.54C3.21783 11.7645 3.30705 11.9799 3.46585 12.1387C3.62465 12.2975 3.84003 12.3867 4.06461 12.3867H6.21205L6.14092 14.1243L5.04688 15.0897L5.00623 15.1269C4.86006 15.2549 4.75135 15.4202 4.6917 15.6051C4.63205 15.79 4.62369 15.9876 4.66752 16.1769L5.7785 20.8986C5.84493 21.1516 6.00638 21.3692 6.22923 21.5062C6.45209 21.6432 6.71918 21.6889 6.97492 21.6339C7.23066 21.579 7.45534 21.4275 7.6022 21.211C7.74906 20.9945 7.80678 20.7298 7.76335 20.4718L6.97415 16.4073L8.41706 15.2658H9.1961L10.6356 16.3971L9.84643 20.4616C9.80299 20.7196 9.86071 20.9844 10.0076 21.2008C10.1544 21.4173 10.3791 21.5688 10.6349 21.6238C10.8906 21.6788 11.1577 21.633 11.3805 21.496C11.6034 21.3591 11.7648 21.1414 11.8313 20.8884L12.9423 16.1668C12.9852 15.9769 12.9765 15.7791 12.9169 15.5938C12.8573 15.4085 12.7491 15.2426 12.6035 15.1134L12.5629 15.0795L11.4689 14.1142L11.4147 12.7255H10.1614C9.84702 12.7255 9.54548 12.6006 9.32316 12.3782C9.10084 12.1559 8.97594 11.8544 8.97594 11.54C8.97594 11.2256 9.10084 10.924 9.32316 10.7017C9.54548 10.4794 9.84702 10.3545 10.1614 10.3545H11.3198V10.0564L11.8177 10.6932H10.1614C9.93685 10.6932 9.72147 10.7824 9.56266 10.9412C9.40386 11.1 9.31465 11.3154 9.31465 11.54C9.31465 11.7645 9.40386 11.9799 9.56266 12.1387C9.72147 12.2975 9.93685 12.3867 10.1614 12.3867H13.5485C13.7166 12.387 13.8808 12.3362 14.0194 12.2411C14.1115 12.1794 14.1907 12.1001 14.2522 12.0077C14.3136 11.9154 14.3563 11.8118 14.3777 11.7029C14.3991 11.5941 14.3988 11.482 14.3768 11.3733C14.3549 11.2645 14.3117 11.1612 14.2497 11.0692ZM5.80559 10.6932L6.3035 10.0666L6.27979 10.6932H5.80559Z" fill="#88B8F9"/>
<path d="M6.09681 5.44324H0.677424C0.303293 5.44324 0 5.74654 0 6.12067V10.1852C0 10.5593 0.303293 10.8626 0.677424 10.8626H6.09681C6.47094 10.8626 6.77424 10.5593 6.77424 10.1852V6.12067C6.77424 5.74654 6.47094 5.44324 6.09681 5.44324Z" fill="#2F79F0"/>
<path d="M16.5969 12.2174H0.338712C0.151646 12.2174 0 12.3691 0 12.5561V13.2335C0 13.4206 0.151646 13.5723 0.338712 13.5723H16.5969C16.7839 13.5723 16.9356 13.4206 16.9356 13.2335V12.5561C16.9356 12.3691 16.7839 12.2174 16.5969 12.2174Z" fill="#2F79F0"/>
<path d="M3.3871 21.7014H2.03225L1.69354 14.9271H3.72581L3.3871 21.7014Z" fill="#0C3798"/>
<path d="M14.9032 21.7014H13.5484L13.2097 14.9271H15.2419L14.9032 21.7014Z" fill="#0C3798"/>
<path d="M0.338807 13.5721H16.597V15.6044C16.597 15.7841 16.5256 15.9564 16.3986 16.0834C16.2715 16.2105 16.0992 16.2818 15.9196 16.2818H1.01623C0.836567 16.2818 0.664261 16.2105 0.537219 16.0834C0.410178 15.9564 0.338807 15.7841 0.338807 15.6044V13.5721Z" fill="#0C3798"/>
<path d="M3.3872 8.83007C3.76133 8.83007 4.06463 8.52678 4.06463 8.15265C4.06463 7.77852 3.76133 7.47523 3.3872 7.47523C3.01307 7.47523 2.70978 7.77852 2.70978 8.15265C2.70978 8.52678 3.01307 8.83007 3.3872 8.83007Z" fill="#FFFEFF"/>
<path d="M11.8549 11.5399H5.75806V12.2173H11.8549V11.5399Z" fill="#F8CF6D"/>
<path d="M4.40324 11.5399H2.37097L2.64533 10.4425C2.66387 10.3674 2.7076 10.3008 2.76923 10.254C2.83086 10.2071 2.90667 10.1828 2.98404 10.1851H3.8105C3.88787 10.1828 3.96368 10.2071 4.02531 10.254C4.08694 10.3008 4.13066 10.3674 4.14921 10.4425L4.40324 11.5399Z" fill="#B7DBF9"/>
<path d="M5.08066 11.5399H1.69354V12.2173H5.08066V11.5399Z" fill="#0C3798"/>
<path d="M16.9593 2.03227C16.8968 2.03259 16.8356 2.0143 16.7835 1.9797C16.7314 1.94511 16.6907 1.8958 16.6667 1.83804C16.6428 1.78028 16.6365 1.71669 16.6488 1.65537C16.6611 1.59405 16.6914 1.53778 16.7358 1.49372C16.7656 1.46497 16.7893 1.43051 16.8055 1.39239C16.8217 1.35427 16.83 1.31328 16.83 1.27186C16.83 1.23045 16.8217 1.18946 16.8055 1.15134C16.7893 1.11322 16.7656 1.07876 16.7358 1.05001L16.2243 0.535165C16.1653 0.476629 16.0856 0.443783 16.0024 0.443783C15.9193 0.443783 15.8396 0.476629 15.7806 0.535165C15.7367 0.579343 15.6808 0.609537 15.6198 0.621934C15.5588 0.634332 15.4955 0.628377 15.4378 0.604821C15.3802 0.581265 15.3309 0.541165 15.296 0.489583C15.2612 0.438001 15.2424 0.377251 15.242 0.315002C15.242 0.231458 15.2089 0.151336 15.1498 0.092262C15.0907 0.0331876 15.0106 0 14.927 0H14.2022C14.1186 0 14.0385 0.0331876 13.9795 0.092262C13.9204 0.151336 13.8872 0.231458 13.8872 0.315002C13.8868 0.377251 13.8681 0.438001 13.8332 0.489583C13.7984 0.541165 13.749 0.581265 13.6914 0.604821C13.6338 0.628377 13.5705 0.634332 13.5095 0.621934C13.4485 0.609537 13.3925 0.579343 13.3486 0.535165C13.2896 0.476629 13.2099 0.443783 13.1268 0.443783C13.0437 0.443783 12.9639 0.476629 12.9049 0.535165L12.3935 1.03985C12.3637 1.0686 12.34 1.10306 12.3238 1.14118C12.3076 1.1793 12.2992 1.22029 12.2992 1.2617C12.2992 1.30312 12.3076 1.34411 12.3238 1.38223C12.34 1.42034 12.3637 1.45481 12.3935 1.48356C12.4379 1.52762 12.4681 1.58389 12.4804 1.64521C12.4927 1.70653 12.4865 1.77012 12.4625 1.82788C12.4385 1.88564 12.3979 1.93495 12.3458 1.96954C12.2937 2.00413 12.2325 2.02243 12.1699 2.02211C12.0864 2.02211 12.0063 2.0553 11.9472 2.11437C11.8881 2.17345 11.8549 2.25357 11.8549 2.33711V3.07212C11.8549 3.15566 11.8881 3.23578 11.9472 3.29486C12.0063 3.35393 12.0864 3.38712 12.1699 3.38712C12.2318 3.38746 12.2921 3.406 12.3435 3.44042C12.3949 3.47485 12.435 3.52363 12.4589 3.5807C12.4827 3.63777 12.4892 3.70059 12.4776 3.76133C12.4659 3.82208 12.4367 3.87805 12.3935 3.92228C12.3636 3.95133 12.3398 3.98608 12.3236 4.02448C12.3073 4.06288 12.2989 4.10414 12.2989 4.14583C12.2989 4.18752 12.3073 4.22879 12.3236 4.26719C12.3398 4.30559 12.3636 4.34034 12.3935 4.36938L12.9049 4.88084C12.9337 4.91065 12.9681 4.93436 13.0063 4.95055C13.0444 4.96675 13.0854 4.97509 13.1268 4.97509C13.1682 4.97509 13.2092 4.96675 13.2473 4.95055C13.2854 4.93436 13.3199 4.91065 13.3486 4.88084C13.3927 4.83646 13.449 4.80619 13.5103 4.7939C13.5716 4.78161 13.6352 4.78785 13.693 4.81183C13.7507 4.8358 13.8 4.87643 13.8346 4.92853C13.8692 4.98063 13.8875 5.04185 13.8872 5.10439C13.8872 5.18793 13.9204 5.26805 13.9795 5.32713C14.0385 5.3862 14.1186 5.41939 14.2022 5.41939H14.927C15.0106 5.41939 15.0907 5.3862 15.1498 5.32713C15.2089 5.26805 15.242 5.18793 15.242 5.10439C15.2417 5.04185 15.26 4.98063 15.2946 4.92853C15.3292 4.87643 15.3785 4.8358 15.4363 4.81183C15.494 4.78785 15.5576 4.78161 15.6189 4.7939C15.6803 4.80619 15.7365 4.83646 15.7806 4.88084C15.8093 4.91065 15.8438 4.93436 15.8819 4.95055C15.92 4.96675 15.961 4.97509 16.0024 4.97509C16.0439 4.97509 16.0849 4.96675 16.123 4.95055C16.1611 4.93436 16.1956 4.91065 16.2243 4.88084L16.7358 4.36938C16.7657 4.34034 16.7894 4.30559 16.8057 4.26719C16.8219 4.22879 16.8303 4.18752 16.8303 4.14583C16.8303 4.10414 16.8219 4.06288 16.8057 4.02448C16.7894 3.98608 16.7657 3.95133 16.7358 3.92228C16.6925 3.87805 16.6633 3.82208 16.6517 3.76133C16.64 3.70059 16.6465 3.63777 16.6704 3.5807C16.6942 3.52363 16.7343 3.47485 16.7857 3.44042C16.8371 3.406 16.8975 3.38746 16.9593 3.38712C17.0429 3.38712 17.123 3.35393 17.182 3.29486C17.2411 3.23578 17.2743 3.15566 17.2743 3.07212V2.34727C17.2743 2.26373 17.2411 2.18361 17.182 2.12453C17.123 2.06546 17.0429 2.03227 16.9593 2.03227Z" fill="#F8CF6D"/>
<path d="M14.5646 3.72575C15.1258 3.72575 15.5807 3.27081 15.5807 2.70962C15.5807 2.14842 15.1258 1.69348 14.5646 1.69348C14.0034 1.69348 13.5485 2.14842 13.5485 2.70962C13.5485 3.27081 14.0034 3.72575 14.5646 3.72575Z" fill="#FFFEFF"/>
<path d="M21 8.49162V7.81419C21 7.72436 20.9643 7.63821 20.9008 7.57469C20.8373 7.51117 20.7511 7.47548 20.6613 7.47548H20.4682C20.3948 7.47956 20.322 7.45963 20.2609 7.41868C20.1998 7.37774 20.1537 7.31802 20.1295 7.24855C20.0994 7.1851 20.0897 7.11386 20.1019 7.04468C20.114 6.9755 20.1473 6.91181 20.1973 6.86241L20.3327 6.72354C20.3645 6.69205 20.3897 6.65459 20.4069 6.61332C20.4241 6.57204 20.4329 6.52777 20.4329 6.48306C20.4329 6.43834 20.4241 6.39407 20.4069 6.3528C20.3897 6.31152 20.3645 6.27406 20.3327 6.24257L19.8586 5.76837C19.8271 5.73663 19.7896 5.71143 19.7483 5.69423C19.7071 5.67704 19.6628 5.66818 19.6181 5.66818C19.5734 5.66818 19.5291 5.67704 19.4878 5.69423C19.4465 5.71143 19.4091 5.73663 19.3776 5.76837L19.2387 5.90386C19.1893 5.95379 19.1256 5.98713 19.0564 5.99927C18.9873 6.01141 18.916 6.00174 18.8526 5.9716C18.7831 5.94744 18.7234 5.90132 18.6824 5.84021C18.6415 5.77911 18.6216 5.70633 18.6256 5.63289V5.44321C18.6256 5.35338 18.59 5.26723 18.5264 5.20371C18.4629 5.14018 18.3768 5.1045 18.2869 5.1045H17.6129C17.5231 5.1045 17.4369 5.14018 17.3734 5.20371C17.3099 5.26723 17.2742 5.35338 17.2742 5.44321V5.63628C17.2783 5.70972 17.2583 5.78249 17.2174 5.8436C17.1764 5.90471 17.1167 5.95083 17.0472 5.97499C16.9838 6.00512 16.9126 6.01479 16.8434 6.00266C16.7742 5.99052 16.7105 5.95718 16.6611 5.90725L16.5222 5.77176C16.4908 5.74001 16.4533 5.71482 16.412 5.69762C16.3707 5.68042 16.3265 5.67157 16.2818 5.67157C16.237 5.67157 16.1928 5.68042 16.1515 5.69762C16.1102 5.71482 16.0728 5.74001 16.0413 5.77176L15.5671 6.24596C15.5353 6.27745 15.5101 6.31491 15.4929 6.35618C15.4757 6.39746 15.4669 6.44173 15.4669 6.48644C15.4669 6.53116 15.4757 6.57543 15.4929 6.6167C15.5101 6.65798 15.5353 6.69544 15.5671 6.72693L15.7026 6.8658C15.7525 6.9152 15.7858 6.97889 15.798 7.04807C15.8101 7.11725 15.8004 7.18849 15.7703 7.25193C15.7461 7.32141 15.7 7.38113 15.6389 7.42207C15.5778 7.46301 15.505 7.48295 15.4316 7.47887H15.2419C15.1521 7.47887 15.0659 7.51455 15.0024 7.57808C14.9389 7.6416 14.9032 7.72775 14.9032 7.81758V8.495C14.9032 8.58484 14.9389 8.67099 15.0024 8.73451C15.0659 8.79803 15.1521 8.83372 15.2419 8.83372H15.435C15.5084 8.82964 15.5812 8.84957 15.6423 8.89052C15.7034 8.93146 15.7495 8.99118 15.7737 9.06065C15.8038 9.1241 15.8135 9.19534 15.8014 9.26452C15.7892 9.3337 15.7559 9.39739 15.7059 9.44679L15.5705 9.58566C15.5387 9.61714 15.5135 9.65461 15.4963 9.69588C15.4791 9.73716 15.4703 9.78143 15.4703 9.82614C15.4703 9.87086 15.4791 9.91513 15.4963 9.9564C15.5135 9.99768 15.5387 10.0351 15.5705 10.0666L16.0447 10.5408C16.0761 10.5726 16.1136 10.5978 16.1549 10.615C16.1962 10.6322 16.2404 10.641 16.2851 10.641C16.3299 10.641 16.3741 10.6322 16.4154 10.615C16.4567 10.5978 16.4941 10.5726 16.5256 10.5408L16.6645 10.4053C16.7139 10.3554 16.7776 10.3221 16.8468 10.3099C16.9159 10.2978 16.9872 10.3075 17.0506 10.3376C17.1201 10.3618 17.1798 10.4079 17.2208 10.469C17.2617 10.5301 17.2816 10.6029 17.2776 10.6763V10.8626C17.2776 10.9524 17.3133 11.0386 17.3768 11.1021C17.4403 11.1656 17.5264 11.2013 17.6163 11.2013H18.2937C18.3835 11.2013 18.4697 11.1656 18.5332 11.1021C18.5967 11.0386 18.6324 10.9524 18.6324 10.8626V10.6695C18.6283 10.5961 18.6483 10.5233 18.6892 10.4622C18.7302 10.4011 18.7899 10.355 18.8594 10.3308C18.9228 10.3007 18.994 10.291 19.0632 10.3032C19.1324 10.3153 19.1961 10.3486 19.2455 10.3986L19.3844 10.5341C19.4158 10.5658 19.4533 10.591 19.4946 10.6082C19.5359 10.6254 19.5801 10.6342 19.6248 10.6342C19.6696 10.6342 19.7138 10.6254 19.7551 10.6082C19.7964 10.591 19.8338 10.5658 19.8653 10.5341L20.3395 10.0599C20.3713 10.0284 20.3965 9.9909 20.4137 9.94963C20.4309 9.90835 20.4397 9.86408 20.4397 9.81937C20.4397 9.77465 20.4309 9.73038 20.4137 9.68911C20.3965 9.64783 20.3713 9.61037 20.3395 9.57888L20.204 9.44001C20.1541 9.39062 20.1208 9.32692 20.1086 9.25774C20.0965 9.18856 20.1062 9.11732 20.1363 9.05388C20.1605 8.9844 20.2066 8.92468 20.2677 8.88374C20.3288 8.8428 20.4016 8.82286 20.475 8.82694H20.6613C20.7505 8.82695 20.8362 8.79173 20.8996 8.72894C20.963 8.66615 20.9991 8.58086 21 8.49162Z" fill="#EE7231"/>
<path d="M17.9516 9.50743C18.6999 9.50743 19.3065 8.90084 19.3065 8.15258C19.3065 7.40432 18.6999 6.79773 17.9516 6.79773C17.2034 6.79773 16.5968 7.40432 16.5968 8.15258C16.5968 8.90084 17.2034 9.50743 17.9516 9.50743Z" fill="#FFFEFF"/>
</svg>
