<svg width="19" height="17" viewBox="0 0 19 17" fill="none" xmlns="http://www.w3.org/2000/svg">
<path d="M13.775 0C12.1125 0 10.5451 0.717929 9.5 1.88453C8.45486 0.717929 6.8875 0 5.225 0C2.27991 0 0 2.15357 0 4.9355C0 8.3453 3.22991 11.0825 8.12232 15.2998L9.5 16.4667L10.8777 15.2998C15.77 11.0825 19 8.34525 19 4.9355C19 2.15357 16.7201 0 13.775 0ZM10.0863 14.1192L9.89357 14.2853L9.5 14.6186L9.10648 14.2853L8.91401 14.1194C6.61127 12.1347 4.62253 10.4207 3.30783 8.88805C2.03094 7.39949 1.46154 6.18049 1.46154 4.9355C1.46154 3.955 1.8462 3.05165 2.54468 2.39191C3.24082 1.73436 4.1927 1.37222 5.225 1.37222C6.41862 1.37222 7.59863 1.89397 8.38147 2.76782L9.5 4.01637L10.6185 2.76782C11.4014 1.89397 12.5813 1.37222 13.775 1.37222C14.8073 1.37222 15.7592 1.73436 16.4554 2.39187C17.1538 3.05165 17.5385 3.95496 17.5385 4.9355C17.5385 6.18049 16.9691 7.39945 15.6923 8.88797C14.3776 10.4206 12.389 12.1345 10.0863 14.1192Z" fill="#232323"/>
</svg>
