<svg width="82" height="14" viewBox="0 0 82 14" fill="none" xmlns="http://www.w3.org/2000/svg">
<path fill-rule="evenodd" clip-rule="evenodd" d="M7 0L8.80283 4.26182C8.87208 4.42551 8.98111 4.56711 9.11896 4.67243C9.25681 4.77775 9.4186 4.843 9.58805 4.86168L14 5.34752L10.7023 8.46733C10.5756 8.58717 10.4812 8.73995 10.4285 8.91035C10.3759 9.08071 10.3668 9.2627 10.4023 9.43791L11.3262 14L7.48528 11.6663C7.33775 11.5767 7.1704 11.5295 7 11.5295C6.8296 11.5295 6.66225 11.5767 6.51472 11.6663L2.67376 14L3.59768 9.43791C3.63317 9.2627 3.62411 9.08071 3.57148 8.91035C3.51881 8.73995 3.4244 8.58717 3.29774 8.46733L0 5.34752L4.41195 4.86168C4.5814 4.843 4.74319 4.77775 4.88104 4.67243C5.01889 4.56711 5.12792 4.42551 5.19717 4.26182L7 0Z" fill="#FFB33E"/>
<path fill-rule="evenodd" clip-rule="evenodd" d="M24 0L25.8028 4.26182C25.8721 4.42551 25.9811 4.56711 26.119 4.67243C26.2568 4.77775 26.4186 4.843 26.5881 4.86168L31 5.34752L27.7023 8.46733C27.5756 8.58717 27.4812 8.73995 27.4285 8.91035C27.3759 9.08071 27.3668 9.2627 27.4023 9.43791L28.3262 14L24.4853 11.6663C24.3378 11.5767 24.1704 11.5295 24 11.5295C23.8296 11.5295 23.6622 11.5767 23.5147 11.6663L19.6738 14L20.5977 9.43791C20.6332 9.2627 20.6241 9.08071 20.5715 8.91035C20.5188 8.73995 20.4244 8.58717 20.2977 8.46733L17 5.34752L21.4119 4.86168C21.5814 4.843 21.7432 4.77775 21.881 4.67243C22.0189 4.56711 22.1279 4.42551 22.1972 4.26182L24 0Z" fill="#FFB33E"/>
<path fill-rule="evenodd" clip-rule="evenodd" d="M41 0L42.8028 4.26182C42.8721 4.42551 42.9811 4.56711 43.119 4.67243C43.2568 4.77775 43.4186 4.843 43.5881 4.86168L48 5.34752L44.7023 8.46733C44.5756 8.58717 44.4812 8.73995 44.4285 8.91035C44.3759 9.08071 44.3668 9.2627 44.4023 9.43791L45.3262 14L41.4853 11.6663C41.3378 11.5767 41.1704 11.5295 41 11.5295C40.8296 11.5295 40.6622 11.5767 40.5147 11.6663L36.6738 14L37.5977 9.43791C37.6332 9.2627 37.6241 9.08071 37.5715 8.91035C37.5188 8.73995 37.4244 8.58717 37.2977 8.46733L34 5.34752L38.4119 4.86168C38.5814 4.843 38.7432 4.77775 38.881 4.67243C39.0189 4.56711 39.1279 4.42551 39.1972 4.26182L41 0Z" fill="#FFB33E"/>
<path fill-rule="evenodd" clip-rule="evenodd" d="M58 0L59.8028 4.26182C59.8721 4.42551 59.9811 4.56711 60.119 4.67243C60.2568 4.77775 60.4186 4.843 60.5881 4.86168L65 5.34752L61.7023 8.46733C61.5756 8.58717 61.4812 8.73995 61.4285 8.91035C61.3759 9.08071 61.3668 9.2627 61.4023 9.43791L62.3262 14L58.4853 11.6663C58.3378 11.5767 58.1704 11.5295 58 11.5295C57.8296 11.5295 57.6622 11.5767 57.5147 11.6663L53.6738 14L54.5977 9.43791C54.6332 9.2627 54.6241 9.08071 54.5715 8.91035C54.5188 8.73995 54.4244 8.58717 54.2977 8.46733L51 5.34752L55.4119 4.86168C55.5814 4.843 55.7432 4.77775 55.881 4.67243C56.0189 4.56711 56.1279 4.42551 56.1972 4.26182L58 0Z" fill="#FFB33E"/>
<path fill-rule="evenodd" clip-rule="evenodd" d="M75 0L76.8028 4.26182C76.8721 4.42551 76.9811 4.56711 77.119 4.67243C77.2568 4.77775 77.4186 4.843 77.5881 4.86168L82 5.34752L78.7023 8.46733C78.5756 8.58717 78.4812 8.73995 78.4285 8.91035C78.3759 9.08071 78.3668 9.2627 78.4023 9.43791L79.3262 14L75.4853 11.6663C75.3378 11.5767 75.1704 11.5295 75 11.5295C74.8296 11.5295 74.6622 11.5767 74.5147 11.6663L70.6738 14L71.5977 9.43791C71.6332 9.2627 71.6241 9.08071 71.5715 8.91035C71.5188 8.73995 71.4244 8.58717 71.2977 8.46733L68 5.34752L72.4119 4.86168C72.5814 4.843 72.7432 4.77775 72.881 4.67243C73.0189 4.56711 73.1279 4.42551 73.1972 4.26182L75 0Z" fill="#FFB33E"/>
</svg>
