<svg width="32" height="32" viewBox="0 0 32 32" fill="none" xmlns="http://www.w3.org/2000/svg">
<path d="M26 7H25V6C25 4.3457 23.6543 3 22 3H6C4.3457 3 3 4.3457 3 6V22C3 23.6543 4.3457 25 6 25H7V26C7 27.6543 8.3457 29 10 29H26C27.6543 29 29 27.6543 29 26V10C29 8.3457 27.6543 7 26 7ZM6 5H22C22.5518 5 23 5.4487 23 6V11.6237L16.8994 18.5967L10.6504 13.2407C10.2539 12.9004 9.6621 12.9228 9.293 13.2929L5 17.5859V6C5 5.4487 5.4482 5 6 5ZM27 26C27 26.5513 26.5518 27 26 27H10C9.4482 27 9 26.5513 9 26V25H22C23.6543 25 25 23.6543 25 22V9H26C26.5518 9 27 9.4487 27 10V26Z" fill="#13B887"/>
<path d="M16 13C17.6543 13 19 11.6543 19 10C19 8.3457 17.6543 7 16 7C14.3457 7 13 8.3457 13 10C13 11.6543 14.3457 13 16 13Z" fill="#13B887"/>
</svg>
