<svg width="23" height="26" viewBox="0 0 23 26" fill="none" xmlns="http://www.w3.org/2000/svg">
<path d="M16.2917 0H2.875C2.1125 0 1.38123 0.293494 0.842067 0.815916C0.302901 1.33834 0 2.0469 0 2.78571V19.5C0 20.2388 0.302901 20.9474 0.842067 21.4698C1.38123 21.9922 2.1125 22.2857 2.875 22.2857H3.83333V23.2143C3.83333 23.9531 4.13623 24.6616 4.6754 25.1841C5.21456 25.7065 5.94583 26 6.70833 26H16.2917C16.4178 26.0007 16.5428 25.9773 16.6596 25.9311C16.7763 25.8848 16.8825 25.8168 16.9721 25.7307L22.7221 20.1593C22.8109 20.0725 22.8812 19.9696 22.9288 19.8565C22.9765 19.7433 23.0007 19.6222 23 19.5V6.5C23 5.76118 22.6971 5.05262 22.1579 4.5302C21.6187 4.00778 20.8875 3.71428 20.125 3.71428H19.1667V2.78571C19.1667 2.0469 18.8638 1.33834 18.3246 0.815916C17.7854 0.293494 17.0542 0 16.2917 0ZM6.70833 3.71428C5.94583 3.71428 5.21456 4.00778 4.6754 4.5302C4.13623 5.05262 3.83333 5.76118 3.83333 6.5V20.4286H2.875C2.62083 20.4286 2.37708 20.3307 2.19735 20.1566C2.01763 19.9824 1.91667 19.7463 1.91667 19.5V2.78571C1.91667 2.53944 2.01763 2.30325 2.19735 2.12911C2.37708 1.95497 2.62083 1.85714 2.875 1.85714H16.2917C16.5458 1.85714 16.7896 1.95497 16.9693 2.12911C17.149 2.30325 17.25 2.53944 17.25 2.78571V3.71428H6.70833ZM19.7321 20.4286L17.25 22.8428V21.3571C17.25 21.1109 17.351 20.8747 17.5307 20.7005C17.7104 20.5264 17.9542 20.4286 18.2083 20.4286H19.7321Z" fill="#00DA5A"/>
</svg>
