<svg width="10" height="12" viewBox="0 0 10 12" fill="none" xmlns="http://www.w3.org/2000/svg">
<path d="M5 0C3.67437 0.0014293 2.40347 0.507614 1.46611 1.4075C0.528751 2.30739 0.00148882 3.52749 0 4.80013C0 6.75318 1.47688 8.37502 3.04125 10.0917C3.53625 10.6353 4.04875 11.1975 4.505 11.7663C4.56339 11.839 4.63837 11.8979 4.72419 11.9384C4.81001 11.9789 4.90437 12 5 12C5.09563 12 5.18999 11.9789 5.27581 11.9384C5.36163 11.8979 5.43661 11.839 5.495 11.7663C5.95125 11.1975 6.46375 10.6353 6.95875 10.0917C8.52312 8.37502 10 6.75318 10 4.80013C9.99851 3.52749 9.47125 2.30739 8.53389 1.4075C7.59653 0.507614 6.32563 0.0014293 5 0ZM5 6.60017C4.62916 6.60017 4.26665 6.4946 3.95831 6.29681C3.64996 6.09902 3.40964 5.81789 3.26773 5.48897C3.12581 5.16006 3.08868 4.79813 3.16103 4.44895C3.23337 4.09978 3.41195 3.77904 3.67417 3.5273C3.9364 3.27556 4.27049 3.10412 4.63421 3.03467C4.99792 2.96521 5.37492 3.00086 5.71753 3.1371C6.06014 3.27334 6.35298 3.50406 6.55901 3.80007C6.76503 4.09609 6.875 4.44411 6.875 4.80013C6.875 5.27753 6.67746 5.73538 6.32583 6.07295C5.97419 6.41052 5.49728 6.60017 5 6.60017Z" fill="white" fill-opacity="0.43"/>
</svg>
