<svg width="34" height="33" viewBox="0 0 34 33" fill="none" xmlns="http://www.w3.org/2000/svg">
<path d="M24.2011 16.4993H20.901V26.9497H24.2011V16.4993Z" fill="#64C37D"/>
<path d="M18.1507 17.5994H14.8506V20.8995H18.1507V17.5994Z" fill="#FF5023"/>
<path d="M31.3513 11.549V13.7491H29.1512V11.549C29.1521 11.2575 29.2683 10.9782 29.4744 10.7721C29.6805 10.566 29.9598 10.4498 30.2513 10.449C30.5424 10.4511 30.8209 10.5677 31.0268 10.7736C31.2326 10.9794 31.3492 11.2579 31.3513 11.549Z" fill="#D80027"/>
<path d="M32.4513 4.94877V6.04881L16.5006 9.34895L0.549927 6.04881V4.94877L16.5006 0.548584L32.4513 4.94877Z" fill="#FFDA44"/>
<path d="M26.951 7.1875V14.8493C26.951 16.4829 24.2009 17.8744 20.3123 18.4355C19.0496 18.614 17.7758 18.7022 16.5006 18.6995C10.7309 18.6995 6.05017 16.9779 6.05017 14.8493V7.1875L16.5006 9.34909L26.951 7.1875Z" fill="#FF9811"/>
<path d="M7.15039 16.5708C8.20643 17.3463 9.95551 17.9734 12.1006 18.3419V30.2499H7.15039V16.5708Z" fill="#9BFBFF"/>
<path d="M18.1507 22.5496V29.6999L17.0507 28.5998L16.5007 29.1498L15.9506 28.5998L14.8506 29.6999V22.5496H18.1507Z" fill="#FF5023"/>
<path d="M18.1507 20.8994H14.8506V22.5495H18.1507V20.8994Z" fill="#E0E0E2"/>
<path d="M18.1507 29.6999V30.2499L16.5007 32.45L14.8506 30.2499V29.6999L15.9506 28.5999L16.5007 29.1499L17.0507 28.5999L18.1507 29.6999Z" fill="#2D2D30"/>
<path d="M24.2011 26.9497L22.5511 30.2498L20.901 26.9497H24.2011Z" fill="#00665A"/>
<path d="M32.5999 4.4208L16.6492 0.0206205C16.5521 -0.00687349 16.4493 -0.00687349 16.3522 0.0206205L0.401517 4.4208C0.286245 4.45313 0.184666 4.52218 0.112201 4.61748C0.0397364 4.71277 0.000342582 4.82911 1.14656e-08 4.94883V6.04887C-2.58677e-05 6.17567 0.043758 6.29858 0.123941 6.39681C0.204125 6.49503 0.315783 6.56254 0.440018 6.58789L5.50023 7.63294V14.8492C5.51975 15.2445 5.62893 15.6302 5.81952 15.9771C6.0101 16.3239 6.27709 16.6229 6.60028 16.8513V30.2499C6.60028 30.3958 6.65823 30.5357 6.76137 30.6388C6.86452 30.742 7.00442 30.7999 7.1503 30.7999H12.1005C12.2464 30.7999 12.3863 30.742 12.4894 30.6388C12.5926 30.5357 12.6505 30.3958 12.6505 30.2499V18.9799C13.1896 19.0569 13.7451 19.1174 14.3006 19.1614V30.2499C14.3 30.369 14.3386 30.485 14.4106 30.5799L16.0607 32.78C16.1119 32.8483 16.1783 32.9037 16.2547 32.9419C16.3311 32.9801 16.4153 33 16.5007 33C16.5861 33 16.6703 32.9801 16.7467 32.9419C16.823 32.9037 16.8895 32.8483 16.9407 32.78L18.5908 30.5799C18.6628 30.485 18.7014 30.369 18.7008 30.2499V19.1614C19.2563 19.1174 19.8118 19.0569 20.3509 18.9799V26.9497C20.3514 27.0358 20.3721 27.1206 20.4114 27.1973L22.0614 30.4974C22.1076 30.5875 22.1777 30.6631 22.2641 30.7159C22.3504 30.7687 22.4497 30.7966 22.5509 30.7966C22.6522 30.7966 22.7514 30.7687 22.8378 30.7159C22.9242 30.6631 22.9943 30.5875 23.0405 30.4974L24.6905 27.1973C24.7298 27.1206 24.7505 27.0358 24.751 26.9497V17.8249C26.4176 17.0988 27.5012 16.0978 27.5012 14.8492V7.63294L29.7012 7.18192V9.99804C29.3807 10.1122 29.1032 10.3224 28.9063 10.5999C28.7095 10.8774 28.6029 11.2089 28.6012 11.5491V13.7492C28.6012 13.8951 28.6591 14.035 28.7623 14.1381C28.8654 14.2413 29.0053 14.2992 29.1512 14.2992H31.3513C31.4972 14.2992 31.6371 14.2413 31.7402 14.1381C31.8434 14.035 31.9013 13.8951 31.9013 13.7492V11.5491C31.8996 11.2089 31.793 10.8774 31.5962 10.5999C31.3994 10.3224 31.1218 10.1122 30.8013 9.99804V6.95091L32.5614 6.58789C32.6856 6.56254 32.7973 6.49503 32.8774 6.39681C32.9576 6.29858 33.0014 6.17567 33.0014 6.04887V4.94883C33.001 4.82911 32.9616 4.71277 32.8892 4.61748C32.8167 4.52218 32.7151 4.45313 32.5999 4.4208ZM11.5505 29.6999H7.70032V27.4998H9.90041V26.3997H7.70032V23.6496H8.80037V22.5496H7.70032V19.7994H9.90041V18.6994H7.70032V17.5609C8.92007 18.15 10.2159 18.5665 11.5505 18.7984V29.6999ZM17.6007 30.0684L16.5007 31.5314L15.4006 30.0684V29.9254L15.9507 29.3753L16.1102 29.5404C16.214 29.6434 16.3544 29.7012 16.5007 29.7012C16.647 29.7012 16.7874 29.6434 16.8912 29.5404L17.0507 29.3753L17.6007 29.9254V30.0684ZM17.6007 28.3743L17.4412 28.2093C17.3374 28.1063 17.197 28.0484 17.0507 28.0484C16.9044 28.0484 16.764 28.1063 16.6602 28.2093L16.5007 28.3743L16.3412 28.2093C16.2373 28.1063 16.097 28.0484 15.9507 28.0484C15.8044 28.0484 15.664 28.1063 15.5602 28.2093L15.4006 28.3743V23.0996H17.6007V28.3743ZM17.6007 21.9995H15.4006V21.4495H17.6007V21.9995ZM17.6007 20.3495H15.4006V19.2274C15.7692 19.2439 16.1322 19.2494 16.5007 19.2494C16.8692 19.2494 17.2322 19.2439 17.6007 19.2274V20.3495ZM22.5509 29.0178L21.7919 27.4998H23.31L22.5509 29.0178ZM23.651 26.3997H21.4509V18.7984C22.1959 18.6603 22.9309 18.4729 23.651 18.2374V26.3997ZM26.4011 14.8492C26.4011 16.4113 22.3364 18.1494 16.5007 18.1494C10.6649 18.1494 6.60028 16.4113 6.60028 14.8492V7.86395L16.3907 9.88803C16.4633 9.9027 16.5381 9.9027 16.6107 9.88803L26.4011 7.86395V14.8492ZM30.8013 13.1992H29.7012V11.5491C29.7012 11.4032 29.7592 11.2633 29.8623 11.1602C29.9655 11.057 30.1054 10.9991 30.2513 10.9991C30.3971 10.9991 30.537 11.057 30.6402 11.1602C30.7433 11.2633 30.8013 11.4032 30.8013 11.5491V13.1992ZM31.9013 5.60335L30.8013 5.82886V5.49885H29.7012V6.05437L16.5007 8.78799L1.10005 5.60335V5.36684L16.5007 1.12067L31.9013 5.36684V5.60335Z" fill="black"/>
<path d="M23.101 19.2495H22.001V25.2998H23.101V19.2495Z" fill="black"/>
</svg>
