<svg width="20" height="20" viewBox="0 0 20 20" fill="none" xmlns="http://www.w3.org/2000/svg">
<path d="M17 0H3C1.34387 0.0018311 0.0018311 1.34387 0 3V12.0684V17C0.0018311 18.6561 1.34387 19.9982 3 20H17C17.1823 19.9998 17.3621 19.978 17.5396 19.9451C17.6057 19.933 17.6687 19.9147 17.7332 19.8984C17.8392 19.8713 17.9433 19.8397 18.0457 19.8011C18.1202 19.7733 18.1929 19.744 18.2644 19.7105C18.3484 19.671 18.4286 19.6251 18.5089 19.5778C18.584 19.5336 18.66 19.4921 18.7308 19.4418C18.7366 19.4376 18.7432 19.4349 18.749 19.4307C18.7565 19.4253 18.7629 19.4186 18.77 19.4128C18.7837 19.4018 18.8008 19.3964 18.8134 19.3839C18.82 19.3772 18.8221 19.3683 18.8282 19.3614C19.5355 18.8126 19.999 17.9643 20 17V14.0703V3C19.9982 1.34387 18.6561 0.0018311 17 0ZM17.575 18.9054C17.3884 18.9632 17.1955 18.9999 17 19H3C1.896 18.9986 1.0014 18.104 1 17V12.2754L4.7627 8.5127C5.44672 7.83105 6.55328 7.83105 7.2373 8.5127L10.6422 11.9172C10.644 11.9192 10.6445 11.9218 10.6465 11.9238L17.6155 18.8928C17.6021 18.8972 17.5885 18.9012 17.575 18.9054ZM19 17C18.9993 17.5163 18.798 17.9822 18.4766 18.337L11.7081 11.5692L12.7637 10.5137C13.4549 9.85156 14.5451 9.85156 15.2363 10.5137L19 14.2773V17ZM19 12.8633L15.9434 9.80664C14.8696 8.73438 13.1304 8.73438 12.0566 9.80664L11.0011 10.8622L7.94434 7.80566C6.86987 6.7334 5.13013 6.7334 4.05566 7.80566L1 10.8613V3C1.0014 1.896 1.896 1.0014 3 1H17C18.104 1.0014 18.9986 1.896 19 3V12.8633ZM11.5 4C10.6716 4 10 4.67157 10 5.5C10 6.32843 10.6716 7 11.5 7C12.3281 6.99908 12.9991 6.32806 13 5.5C13 4.67157 12.3284 4 11.5 4ZM11.5 6C11.2239 6 11 5.77612 11 5.5C11 5.22388 11.2239 5 11.5 5C11.7759 5.00055 11.9995 5.22406 12 5.5C12 5.77612 11.7761 6 11.5 6Z" fill="white"/>
</svg>
