<svg width="51" height="21" viewBox="0 0 51 21" fill="none" xmlns="http://www.w3.org/2000/svg">
<path d="M41 0C39.1074 0.000155744 37.2537 0.537336 35.6543 1.54913C34.0549 2.56092 32.7754 4.00578 31.9645 5.71584C31.1536 7.42591 30.8446 9.33096 31.0733 11.2097C31.3021 13.0884 32.0593 14.8636 33.2568 16.3291L31.293 18.293C31.1531 18.4328 31.0579 18.611 31.0193 18.805C30.9807 18.9989 31.0005 19.2 31.0762 19.3827C31.1519 19.5654 31.28 19.7216 31.4445 19.8315C31.6089 19.9414 31.8022 20 32 20H41C43.6522 20 46.1957 18.9464 48.0711 17.0711C49.9464 15.1957 51 12.6522 51 10C51 7.34784 49.9464 4.8043 48.0711 2.92893C46.1957 1.05357 43.6522 0 41 0ZM37 11C36.8022 11 36.6089 10.9414 36.4444 10.8315C36.28 10.7216 36.1518 10.5654 36.0761 10.3827C36.0004 10.2 35.9806 9.99889 36.0192 9.80491C36.0578 9.61093 36.153 9.43275 36.2929 9.29289C36.4327 9.15304 36.6109 9.0578 36.8049 9.01921C36.9989 8.98063 37.2 9.00043 37.3827 9.07612C37.5654 9.15181 37.7216 9.27998 37.8315 9.44443C37.9414 9.60888 38 9.80222 38 10C38 10.2652 37.8946 10.5196 37.7071 10.7071C37.5196 10.8946 37.2652 11 37 11ZM41 11C40.8022 11 40.6089 10.9414 40.4444 10.8315C40.28 10.7216 40.1518 10.5654 40.0761 10.3827C40.0004 10.2 39.9806 9.99889 40.0192 9.80491C40.0578 9.61093 40.153 9.43275 40.2929 9.29289C40.4327 9.15304 40.6109 9.0578 40.8049 9.01921C40.9989 8.98063 41.2 9.00043 41.3827 9.07612C41.5654 9.15181 41.7216 9.27998 41.8315 9.44443C41.9414 9.60888 42 9.80222 42 10C42 10.2652 41.8946 10.5196 41.7071 10.7071C41.5196 10.8946 41.2652 11 41 11ZM45 11C44.8022 11 44.6089 10.9414 44.4444 10.8315C44.28 10.7216 44.1518 10.5654 44.0761 10.3827C44.0004 10.2 43.9806 9.99889 44.0192 9.80491C44.0578 9.61093 44.153 9.43275 44.2929 9.29289C44.4327 9.15304 44.6109 9.0578 44.8049 9.01921C44.9989 8.98063 45.2 9.00043 45.3827 9.07612C45.5654 9.15181 45.7216 9.27998 45.8315 9.44443C45.9414 9.60888 46 9.80222 46 10C46 10.2652 45.8946 10.5196 45.7071 10.7071C45.5196 10.8946 45.2652 11 45 11Z" fill="#B2B1FF"/>
<path d="M16.2865 0H4.71354C2.11033 0 0 2.11033 0 4.71354V16.2865C0 18.8897 2.11033 21 4.71354 21H16.2865C18.8897 21 21 18.8897 21 16.2865V4.71354C21 2.11033 18.8897 0 16.2865 0Z" fill="#0B86CA"/>
<path d="M5.81879 8.72878H8.00099V15.77H5.81879V8.72878ZM6.93171 5.23C7.18173 5.23 7.42614 5.30405 7.63412 5.44281C7.8421 5.58156 8.00432 5.7788 8.10033 6.00965C8.19633 6.2405 8.22182 6.49461 8.17357 6.73993C8.12532 6.98524 8.0055 7.21077 7.82922 7.38807C7.65294 7.56536 7.4281 7.68648 7.18306 7.73613C6.93802 7.78578 6.68377 7.76176 6.45238 7.66707C6.22098 7.57239 6.02281 7.4113 5.88287 7.20412C5.74292 6.99694 5.66747 6.75295 5.66604 6.50294C5.66508 6.33612 5.69711 6.17076 5.76028 6.01636C5.82346 5.86196 5.91654 5.72157 6.03416 5.60327C6.15179 5.48497 6.29164 5.39109 6.44567 5.32703C6.59971 5.26297 6.76489 5.22999 6.93171 5.23Z" fill="white"/>
<path d="M9.3979 8.72878H11.5001V9.68895C11.7105 9.32983 12.0145 9.03459 12.3796 8.83474C12.7447 8.63488 13.1573 8.53792 13.5732 8.5542C15.7554 8.5542 16.1991 10.009 16.1991 11.9075V15.77H14.0169V12.3658C14.0169 11.5511 14.0169 10.4964 12.8821 10.4964C11.7474 10.4964 11.5728 11.3838 11.5728 12.3003V15.7845H9.39062L9.3979 8.72878Z" fill="white"/>
</svg>
