<svg width="10" height="9" viewBox="0 0 10 9" fill="none" xmlns="http://www.w3.org/2000/svg">
<path d="M9.99229 3.60386C10.0423 3.36804 9.84241 3.08505 9.5926 3.08505L6.7448 2.70773L5.4458 0.255141C5.39584 0.160811 5.34588 0.113646 5.24595 0.0664811C4.99615 -0.0750142 4.69638 0.019316 4.54649 0.255141L3.29746 2.70773L0.449653 3.08505C0.299769 3.08505 0.199846 3.13221 0.149884 3.22654C-0.0499615 3.4152 -0.0499615 3.69819 0.149884 3.88685L2.1983 5.77346L1.69869 8.46187C1.69869 8.5562 1.69869 8.65053 1.74865 8.74486C1.89854 8.98068 2.1983 9.07501 2.44811 8.93352L4.99615 7.66006L7.54418 8.93352C7.59414 8.98068 7.69407 8.98068 7.79399 8.98068C7.84395 8.98068 7.84395 8.98068 7.89391 8.98068C8.14372 8.93352 8.34356 8.69769 8.2936 8.4147L7.79399 5.72629L9.84241 3.83969C9.94233 3.79252 9.99229 3.69819 9.99229 3.60386Z" fill="#FFB33E"/>
</svg>
