<svg width="20" height="18" viewBox="0 0 20 18" fill="none" xmlns="http://www.w3.org/2000/svg">
<path d="M0.666667 3.2139H0.761333C0.906848 3.76524 1.2387 4.25411 1.70448 4.60328C2.17025 4.95244 2.74338 5.142 3.33333 5.142C3.92328 5.142 4.49642 4.95244 4.96219 4.60328C5.42796 4.25411 5.75982 3.76524 5.90533 3.2139H19.3333C19.5101 3.2139 19.6797 3.14616 19.8047 3.0256C19.9298 2.90503 20 2.74151 20 2.571C20 2.40049 19.9298 2.23697 19.8047 2.1164C19.6797 1.99583 19.5101 1.9281 19.3333 1.9281H5.90533C5.75982 1.37676 5.42796 0.887888 4.96219 0.538722C4.49642 0.189556 3.92328 0 3.33333 0C2.74338 0 2.17025 0.189556 1.70448 0.538722C1.2387 0.887888 0.906848 1.37676 0.761333 1.9281H0.666667C0.489856 1.9281 0.320286 1.99583 0.195262 2.1164C0.0702379 2.23697 0 2.40049 0 2.571C0 2.74151 0.0702379 2.90503 0.195262 3.0256C0.320286 3.14616 0.489856 3.2139 0.666667 3.2139ZM3.33333 1.2852C3.59704 1.2852 3.85483 1.36061 4.07409 1.5019C4.29336 1.64318 4.46426 1.844 4.56517 2.07894C4.66609 2.31389 4.69249 2.57243 4.64105 2.82185C4.5896 3.07127 4.46261 3.30037 4.27614 3.4802C4.08967 3.66002 3.8521 3.78248 3.59345 3.83209C3.33481 3.88171 3.06672 3.85624 2.82309 3.75892C2.57945 3.6616 2.37122 3.4968 2.22471 3.28535C2.0782 3.0739 2 2.82531 2 2.571C2 2.22998 2.14048 1.90294 2.39052 1.6618C2.64057 1.42067 2.97971 1.2852 3.33333 1.2852ZM19.3333 8.3571H19.2387C19.0932 7.80576 18.7613 7.31689 18.2955 6.96772C17.8298 6.61856 17.2566 6.429 16.6667 6.429C16.0767 6.429 15.5036 6.61856 15.0378 6.96772C14.572 7.31689 14.2402 7.80576 14.0947 8.3571H0.666667C0.489856 8.3571 0.320286 8.42483 0.195262 8.5454C0.0702379 8.66597 0 8.82949 0 9C0 9.17051 0.0702379 9.33403 0.195262 9.4546C0.320286 9.57517 0.489856 9.6429 0.666667 9.6429H14.0947C14.2402 10.1942 14.572 10.6831 15.0378 11.0323C15.5036 11.3814 16.0767 11.571 16.6667 11.571C17.2566 11.571 17.8298 11.3814 18.2955 11.0323C18.7613 10.6831 19.0932 10.1942 19.2387 9.6429H19.3333C19.5101 9.6429 19.6797 9.57517 19.8047 9.4546C19.9298 9.33403 20 9.17051 20 9C20 8.82949 19.9298 8.66597 19.8047 8.5454C19.6797 8.42483 19.5101 8.3571 19.3333 8.3571ZM16.6667 10.2858C16.403 10.2858 16.1452 10.2104 15.9259 10.0691C15.7066 9.92782 15.5357 9.727 15.4348 9.49205C15.3339 9.2571 15.3075 8.99857 15.359 8.74915C15.4104 8.49973 15.5374 8.27062 15.7239 8.0908C15.9103 7.91098 16.1479 7.78852 16.4065 7.73891C16.6652 7.68929 16.9333 7.71476 17.1769 7.81207C17.4205 7.90939 17.6288 8.0742 17.7753 8.28565C17.9218 8.4971 18 8.74569 18 9C18 9.34101 17.8595 9.66806 17.6095 9.9092C17.3594 10.1503 17.0203 10.2858 16.6667 10.2858ZM19.3333 14.7861H12.572C12.4265 14.2348 12.0946 13.7459 11.6289 13.3967C11.1631 13.0476 10.59 12.858 10 12.858C9.41005 12.858 8.83692 13.0476 8.37114 13.3967C7.90537 13.7459 7.57351 14.2348 7.428 14.7861H0.666667C0.489856 14.7861 0.320286 14.8538 0.195262 14.9744C0.0702379 15.095 0 15.2585 0 15.429C0 15.5995 0.0702379 15.763 0.195262 15.8836C0.320286 16.0042 0.489856 16.0719 0.666667 16.0719H7.428C7.57351 16.6232 7.90537 17.1121 8.37114 17.4613C8.83692 17.8104 9.41005 18 10 18C10.59 18 11.1631 17.8104 11.6289 17.4613C12.0946 17.1121 12.4265 16.6232 12.572 16.0719H19.3333C19.5101 16.0719 19.6797 16.0042 19.8047 15.8836C19.9298 15.763 20 15.5995 20 15.429C20 15.2585 19.9298 15.095 19.8047 14.9744C19.6797 14.8538 19.5101 14.7861 19.3333 14.7861ZM10 16.7148C9.73629 16.7148 9.47851 16.6394 9.25924 16.4981C9.03997 16.3568 8.86908 16.156 8.76816 15.9211C8.66724 15.6861 8.64084 15.4276 8.69229 15.1782C8.74373 14.9287 8.87072 14.6996 9.05719 14.5198C9.24366 14.34 9.48124 14.2175 9.73988 14.1679C9.99852 14.1183 10.2666 14.1438 10.5102 14.2411C10.7539 14.3384 10.9621 14.5032 11.1086 14.7146C11.2551 14.9261 11.3333 15.1747 11.3333 15.429C11.3333 15.77 11.1929 16.0971 10.9428 16.3382C10.6928 16.5793 10.3536 16.7148 10 16.7148Z" fill="white"/>
</svg>
