<svg width="47" height="47" viewBox="0 0 47 47" fill="none" xmlns="http://www.w3.org/2000/svg">
<path d="M17.9964 21.8316C17.5539 21.389 16.9537 21.1404 16.3279 21.1404C15.7021 21.1404 15.1019 21.389 14.6594 21.8316C14.2169 22.2741 13.9683 22.8743 13.9683 23.5001C13.9683 24.1259 14.2169 24.7261 14.6594 25.1686L21.7094 32.2186C21.929 32.4364 22.1894 32.6087 22.4757 32.7257C22.762 32.8426 23.0686 32.9019 23.3779 32.9001C23.6996 32.8899 24.0158 32.8137 24.3069 32.6763C24.5979 32.5388 24.8576 32.3431 25.0699 32.1011L41.52 13.301C41.8998 12.8294 42.0829 12.2294 42.0312 11.6261C41.9795 11.0228 41.6968 10.4628 41.2423 10.0627C40.7877 9.66271 40.1963 9.45359 39.5913 9.47898C38.9863 9.50437 38.4144 9.76231 37.995 10.199L23.3779 27.1191L17.9964 21.8316Z" fill="#232323"/>
<path d="M44.5281 21.1501C43.9048 21.1501 43.3071 21.3977 42.8664 21.8384C42.4257 22.2791 42.1781 22.8768 42.1781 23.5001C42.1781 28.4862 40.1974 33.268 36.6717 36.7937C33.146 40.3194 28.3641 42.3002 23.378 42.3002C19.6652 42.2985 16.036 41.1974 12.9481 39.136C9.8602 37.0745 7.45183 34.1448 6.02668 30.7164C4.60154 27.288 4.22343 23.5144 4.94006 19.8714C5.65668 16.2284 7.43594 12.8792 10.0535 10.246C11.7941 8.48208 13.8691 7.08302 16.157 6.13073C18.445 5.17844 20.8998 4.69205 23.378 4.70002C24.8807 4.70943 26.3779 4.88278 27.843 5.21702C28.1496 5.31185 28.4724 5.34288 28.7914 5.3082C29.1105 5.27351 29.4191 5.17384 29.6981 5.01534C29.9772 4.85683 30.2208 4.64285 30.414 4.38658C30.6072 4.13031 30.7458 3.83719 30.8214 3.52528C30.897 3.21337 30.9078 2.88929 30.8534 2.57302C30.7989 2.25675 30.6802 1.95499 30.5046 1.68635C30.3291 1.4177 30.1003 1.18786 29.8325 1.011C29.5647 0.834139 29.2635 0.714005 28.9475 0.658002C27.1219 0.228521 25.2534 0.00777248 23.378 0C18.7352 0.0241194 14.2035 1.42298 10.355 4.02005C6.50638 6.61712 3.51332 10.296 1.75352 14.5924C-0.00629215 18.8889 -0.453989 23.6104 0.466923 28.161C1.38784 32.7116 3.63609 36.8875 6.92795 40.1616C11.2912 44.5269 17.2061 46.9858 23.378 47.0002C29.6106 47.0002 35.588 44.5243 39.9951 40.1172C44.4022 35.71 46.8781 29.7327 46.8781 23.5001C46.8781 22.8768 46.6305 22.2791 46.1898 21.8384C45.7491 21.3977 45.1513 21.1501 44.5281 21.1501Z" fill="#232323"/>
</svg>
