<svg width="27" height="26" viewBox="0 0 27 26" fill="none" xmlns="http://www.w3.org/2000/svg">
<path fill-rule="evenodd" clip-rule="evenodd" d="M14.0116 3.99504V4.99405C13.9936 5.88006 12.5606 6.38506 12.1076 5.41705C12.0466 5.28605 12.0166 5.14105 12.0136 4.99405V3.99504H9.01758C8.24858 3.95804 7.73357 2.95303 8.26258 2.34202C8.44458 2.13202 8.59158 2.01802 9.01758 1.99702C10.0156 1.99702 11.0146 1.99402 12.0136 1.98802V0.999009C12.0166 0.836008 12.0326 0.783007 12.0636 0.686007C12.1956 0.285003 12.5906 0 13.0326 0C13.5656 0.0210002 13.9996 0.420004 14.0116 0.999009V1.97602C16.0087 1.96402 18.0067 1.95302 20.0047 1.96302V0.999009C20.0147 0.465004 20.4047 0.0230002 20.9837 0C20.9967 0 21.0097 0 21.0227 0C21.5567 0.0210002 21.9907 0.420004 22.0017 0.999009V1.98102C22.3597 1.98602 22.7177 1.99202 23.0747 1.99802C24.6057 2.04602 25.9677 3.36303 25.9967 4.95705C26.0347 10.9741 26.0347 16.9922 25.9967 23.0102C25.9687 24.5552 24.6317 25.9392 23.0377 25.9692C16.3547 26.0102 9.67059 26.0102 2.98753 25.9692C1.44851 25.9402 0.0585005 24.6302 0.0285003 23.0102C-0.00950009 16.9922 -0.00950009 10.9741 0.0285003 4.95705C0.0565005 3.40103 1.38951 2.00802 3.02153 1.99702H4.02354V0.999009C4.02654 0.836008 4.04154 0.783007 4.07354 0.686007C4.20554 0.285003 4.60054 0 5.04155 0C5.57555 0.0210002 6.00956 0.420004 6.02056 0.999009V4.99405C6.00356 5.87905 4.61154 6.37506 4.13454 5.45305C4.06154 5.31205 4.02654 5.15505 4.02354 4.99405V3.99104C3.68153 3.98904 3.34053 3.98904 2.99953 3.99504C2.49252 4.01104 2.04152 4.45504 2.02552 4.96905C1.91452 10.9771 1.91352 16.9892 2.02552 22.9972C2.04152 23.5052 2.48552 23.9552 2.99953 23.9712C9.67359 24.0952 16.3517 24.0952 23.0257 23.9712C23.5327 23.9552 23.9837 23.5112 23.9997 22.9972C24.1107 16.9892 24.1107 10.9771 23.9997 4.96905C23.9837 4.45204 23.5227 3.99804 22.9977 3.99504H22.0017V4.99405C21.9847 5.87105 20.5887 6.36606 20.1157 5.45305C20.0437 5.31205 20.0077 5.15505 20.0047 4.99405V3.99504H14.0116ZM5.02155 19.9762C5.57355 19.9762 6.02056 20.4242 6.02056 20.9752C6.02056 21.5262 5.57355 21.9742 5.02155 21.9742C4.47054 21.9742 4.02354 21.5262 4.02354 20.9752C4.02354 20.4242 4.47054 19.9762 5.02155 19.9762ZM9.01758 19.9762C9.56859 19.9762 10.0156 20.4242 10.0156 20.9752C10.0156 21.5262 9.56859 21.9742 9.01758 21.9742C8.46558 21.9742 8.01857 21.5262 8.01857 20.9752C8.01857 20.4242 8.46558 19.9762 9.01758 19.9762ZM13.0126 19.9762C13.5636 19.9762 14.0116 20.4242 14.0116 20.9752C14.0116 21.5262 13.5636 21.9742 13.0126 21.9742C12.4616 21.9742 12.0136 21.5262 12.0136 20.9752C12.0136 20.4242 12.4616 19.9762 13.0126 19.9762ZM5.02155 15.9812C5.57355 15.9812 6.02056 16.4282 6.02056 16.9802C6.02056 17.5312 5.57355 17.9782 5.02155 17.9782C4.47054 17.9782 4.02354 17.5312 4.02354 16.9802C4.02354 16.4282 4.47054 15.9812 5.02155 15.9812ZM9.01758 15.9812C9.56859 15.9812 10.0156 16.4282 10.0156 16.9802C10.0156 17.5312 9.56859 17.9782 9.01758 17.9782C8.46558 17.9782 8.01857 17.5312 8.01857 16.9802C8.01857 16.4282 8.46558 15.9812 9.01758 15.9812ZM13.0126 15.9812C13.5636 15.9812 14.0116 16.4282 14.0116 16.9802C14.0116 17.5312 13.5636 17.9782 13.0126 17.9782C12.4616 17.9782 12.0136 17.5312 12.0136 16.9802C12.0136 16.4282 12.4616 15.9812 13.0126 15.9812ZM17.0077 15.9812C17.5587 15.9812 18.0067 16.4282 18.0067 16.9802C18.0067 17.5312 17.5587 17.9782 17.0077 17.9782C16.4567 17.9782 16.0087 17.5312 16.0087 16.9802C16.0087 16.4282 16.4567 15.9812 17.0077 15.9812ZM21.0027 15.9812C21.5547 15.9812 22.0017 16.4282 22.0017 16.9802C22.0017 17.5312 21.5547 17.9782 21.0027 17.9782C20.4517 17.9782 20.0047 17.5312 20.0047 16.9802C20.0047 16.4282 20.4517 15.9812 21.0027 15.9812ZM9.01758 11.9861C9.56859 11.9861 10.0156 12.4331 10.0156 12.9841C10.0156 13.5361 9.56859 13.9831 9.01758 13.9831C8.46558 13.9831 8.01857 13.5361 8.01857 12.9841C8.01857 12.4331 8.46558 11.9861 9.01758 11.9861ZM13.0126 11.9861C13.5636 11.9861 14.0116 12.4331 14.0116 12.9841C14.0116 13.5361 13.5636 13.9831 13.0126 13.9831C12.4616 13.9831 12.0136 13.5361 12.0136 12.9841C12.0136 12.4331 12.4616 11.9861 13.0126 11.9861ZM17.0077 11.9861C17.5587 11.9861 18.0067 12.4331 18.0067 12.9841C18.0067 13.5361 17.5587 13.9831 17.0077 13.9831C16.4567 13.9831 16.0087 13.5361 16.0087 12.9841C16.0087 12.4331 16.4567 11.9861 17.0077 11.9861ZM21.0027 11.9861C21.5547 11.9861 22.0017 12.4331 22.0017 12.9841C22.0017 13.5361 21.5547 13.9831 21.0027 13.9831C20.4517 13.9831 20.0047 13.5361 20.0047 12.9841C20.0047 12.4331 20.4517 11.9861 21.0027 11.9861Z" fill="#232323" fill-opacity="0.5"/>
</svg>
