<svg width="15" height="10" viewBox="0 0 15 10" fill="none" xmlns="http://www.w3.org/2000/svg">
<path d="M0 1.17531V0.833333C0 0.61232 0.0987721 0.400358 0.274587 0.244078C0.450403 0.0877974 0.68886 0 0.9375 0L14.0625 0C14.3111 0 14.5496 0.0877974 14.7254 0.244078C14.9012 0.400358 15 0.61232 15 0.833333V1.17531L7.5 5.34198L0 1.17531ZM7.74844 6.18677C7.67392 6.22811 7.58784 6.25003 7.5 6.25003C7.41216 6.25003 7.32608 6.22811 7.25156 6.18677L0 2.15802V9.16667C0 9.38768 0.0987721 9.59964 0.274587 9.75592C0.450403 9.9122 0.68886 10 0.9375 10H14.0625C14.3111 10 14.5496 9.9122 14.7254 9.75592C14.9012 9.59964 15 9.38768 15 9.16667V2.15802L7.74844 6.18677Z" fill="#232323" fill-opacity="0.66"/>
</svg>
