<svg width="63" height="17" viewBox="0 0 63 17" fill="none" xmlns="http://www.w3.org/2000/svg">
<path d="M48.7004 4.19995H45.3004C45.1004 4.19995 44.9004 4.39995 44.8004 4.59995L43.4004 13.4C43.4004 13.6 43.5004 13.7 43.7004 13.7H45.5004C45.7004 13.7 45.8004 13.6 45.8004 13.4L46.2004 10.9C46.2004 10.7 46.4004 10.5 46.7004 10.5H47.8004C50.1004 10.5 51.4004 9.39995 51.7004 7.19995C51.9004 6.29995 51.7004 5.49995 51.3004 4.99995C50.7004 4.49995 49.8004 4.19995 48.7004 4.19995ZM49.1004 7.49995C48.9004 8.69995 48.0004 8.69995 47.1004 8.69995H46.5004L46.9004 6.39995C46.9004 6.29995 47.0004 6.19995 47.2004 6.19995H47.4004C48.0004 6.19995 48.6004 6.19995 48.9004 6.59995C49.1004 6.69995 49.1004 6.99995 49.1004 7.49995Z" fill="#139AD6"/>
<path d="M24.2004 4.19995H20.8004C20.6004 4.19995 20.4004 4.39995 20.3004 4.59995L18.9004 13.4C18.9004 13.6 19.0004 13.7 19.2004 13.7H20.8004C21.0004 13.7 21.2004 13.4999 21.3004 13.2999L21.7004 10.9C21.7004 10.7 21.9004 10.5 22.2004 10.5H23.3004C25.6004 10.5 26.9004 9.39995 27.2004 7.19995C27.4004 6.29995 27.2004 5.49995 26.8004 4.99995C26.2004 4.49995 25.4004 4.19995 24.2004 4.19995ZM24.6004 7.49995C24.4004 8.69995 23.5004 8.69995 22.6004 8.69995H22.1004L22.5004 6.39995C22.5004 6.29995 22.6004 6.19995 22.8004 6.19995H23.0004C23.6004 6.19995 24.2004 6.19995 24.5004 6.59995C24.6004 6.69995 24.7004 6.99995 24.6004 7.49995Z" fill="#263B80"/>
<path d="M34.5 7.39995H32.9C32.8 7.39995 32.6 7.49995 32.6 7.59995L32.5 8.09995L32.4 7.89995C32 7.39995 31.3 7.19995 30.5 7.19995C28.7 7.19995 27.1 8.59995 26.8 10.5C26.6 11.5 26.9 12.4 27.4 13C27.9 13.6 28.6 13.7999 29.5 13.7999C31 13.7999 31.8 12.9 31.8 12.9L31.7 13.4C31.7 13.6 31.8 13.7 32 13.7H33.5C33.7 13.7 33.9 13.4999 34 13.2999L34.9 7.69995C34.8 7.59995 34.6 7.39995 34.5 7.39995ZM32.2 10.5999C32 11.4999 31.3 12.2 30.3 12.2C29.8 12.2 29.4 11.9999 29.2 11.7999C29 11.4999 28.9 11.0999 28.9 10.5999C29 9.69995 29.8 8.99995 30.7 8.99995C31.2 8.99995 31.5 9.19995 31.8 9.39995C32.1 9.69995 32.2 10.1999 32.2 10.5999Z" fill="#263B80"/>
<path d="M58.9003 7.39995H57.3003C57.2003 7.39995 57.0003 7.49995 57.0003 7.59995L56.9003 8.09995L56.8003 7.89995C56.4003 7.39995 55.7003 7.19995 54.9003 7.19995C53.1003 7.19995 51.5003 8.59995 51.2003 10.5C51.0003 11.5 51.3003 12.4 51.8003 13C52.3003 13.6 53.0003 13.7999 53.9003 13.7999C55.4003 13.7999 56.2003 12.9 56.2003 12.9L56.1003 13.4C56.1003 13.6 56.2003 13.7 56.4003 13.7H57.9003C58.1003 13.7 58.3003 13.4999 58.4003 13.2999L59.3003 7.69995C59.2003 7.59995 59.1003 7.39995 58.9003 7.39995ZM56.6003 10.5999C56.4003 11.4999 55.7003 12.2 54.7003 12.2C54.2003 12.2 53.8003 11.9999 53.6003 11.7999C53.4003 11.4999 53.3003 11.0999 53.3003 10.5999C53.4003 9.69995 54.2003 8.99995 55.1003 8.99995C55.6003 8.99995 55.9003 9.19995 56.2003 9.39995C56.6003 9.69995 56.7003 10.1999 56.6003 10.5999Z" fill="#139AD6"/>
<path d="M43.2 7.3999H41.5C41.3 7.3999 41.2 7.4999 41.1 7.5999L38.9 10.9999L37.9 7.7999C37.8 7.5999 37.7 7.4999 37.4 7.4999H35.8C35.6 7.4999 35.5 7.6999 35.5 7.8999L37.3 13.1999L35.6 15.5999C35.5 15.7999 35.6 16.0999 35.8 16.0999H37.4C37.6 16.0999 37.7 15.9999 37.8 15.8999L43.3 7.9999C43.6 7.6999 43.4 7.3999 43.2 7.3999Z" fill="#263B80"/>
<path d="M60.8004 4.49997L59.4004 13.5C59.4004 13.7 59.5004 13.8 59.7004 13.8H61.1004C61.3004 13.8 61.5004 13.6 61.6004 13.4L63.0004 4.59997C63.0004 4.39997 62.9004 4.29997 62.7004 4.29997H61.1004C61.0004 4.19997 60.9004 4.29997 60.8004 4.49997Z" fill="#139AD6"/>
<path d="M11.5 1.2C10.8 0.400001 9.5 0 7.7 0H2.7C2.4 0 2.1 0.3 2 0.6L0 13.7C0 14 0.2 14.2 0.4 14.2H3.5L4.3 9.3V9.5C4.4 9.2 4.7 8.9 5 8.9H6.5C9.4 8.9 11.6 7.7 12.3 4.4V4.1C12.2 4.1 12.2 4.1 12.3 4.1C12.4 2.8 12.2 2 11.5 1.2Z" fill="#263B80"/>
<path d="M12.2002 4.1001V4.4001C11.5002 7.8001 9.3002 8.9001 6.4002 8.9001H4.9002C4.6002 8.9001 4.3002 9.2001 4.2002 9.5001L3.2002 15.6001C3.2002 15.8001 3.3002 16.0001 3.6002 16.0001H6.2002C6.5002 16.0001 6.8002 15.8001 6.8002 15.5001V15.4001L7.3002 12.3001V12.1001C7.3002 11.8001 7.60019 11.6001 7.9002 11.6001H8.3002C10.8002 11.6001 12.8002 10.6001 13.3002 7.6001C13.5002 6.4001 13.4002 5.3001 12.8002 4.6001C12.7002 4.4001 12.5002 4.2001 12.2002 4.1001Z" fill="#139AD6"/>
<path d="M11.4998 3.8C11.3998 3.8 11.2998 3.7 11.1998 3.7C11.0998 3.7 10.9998 3.7 10.8998 3.6C10.4998 3.5 10.0998 3.5 9.5998 3.5H5.6998C5.5998 3.5 5.4998 3.5 5.3998 3.6C5.1998 3.7 5.0998 3.9 5.0998 4.1L4.2998 9.3V9.5C4.3998 9.2 4.6998 8.9 4.9998 8.9H6.4998C9.3998 8.9 11.5998 7.7 12.2998 4.4C12.2998 4.3 12.2998 4.2 12.3998 4.1C12.1998 4 12.0998 3.9 11.8998 3.9C11.5998 3.8 11.5998 3.8 11.4998 3.8Z" fill="#232C65"/>
</svg>
