<svg width="26" height="26" viewBox="0 0 26 26" fill="none" xmlns="http://www.w3.org/2000/svg">
<path d="M25.6642 2.30819L23.6918 0.335766C23.2376 -0.111922 22.5109 -0.111922 22.0633 0.335766L20 2.39903L23.601 6L25.6642 3.94323C26.1119 3.48256 26.1119 2.75588 25.6642 2.30819Z" fill="#232323"/>
<path d="M19.3757 3L7.93766 15.4948L7 20L11.256 19.0075L23 6.8294L19.3757 3Z" fill="#232323"/>
<path d="M21.8182 12.9091V23.1364C21.8182 23.4841 21.5523 23.825 21.1909 23.825C20.8295 23.825 2.85 23.8182 2.85 23.8182C2.46818 23.8182 2.18182 23.45 2.18182 23.1364V4.86364C2.18182 4.52273 2.50227 4.18182 2.90455 4.18182H13.0909L15.2727 2H1.59545C0.709091 2 0 2.70227 0 3.58864V24.4045C0 25.2841 0.715909 26 1.59545 26H22.4114C23.2909 26 24 25.2841 24 24.4045V10.7273L21.8182 12.9091Z" fill="#232323"/>
</svg>
