<svg width="188" height="209" viewBox="0 0 188 209" fill="none" xmlns="http://www.w3.org/2000/svg">
<path opacity="0.18" d="M104.827 20.6804C94.4961 28.2933 82.8099 32.4046 71.3017 36.6274C59.7936 40.8502 48.1518 45.296 38.0989 53.4733C28.046 61.6506 19.6207 74.1343 17.6619 88.9455C16.9413 94.4086 17.1054 100.063 15.8533 105.377C13.4187 115.728 6.09254 123.122 2.49763 132.919C-2.50241 146.472 0.466452 163.029 7.31125 175.255C16.2846 191.261 31.1039 201.006 46.3739 205.121C61.6439 209.236 77.4759 208.257 93.0298 206.473C110.412 204.452 127.986 201.351 144.018 192.676C160.05 184 174.569 169.119 181.389 148.991C185.871 135.752 188.949 120.913 187.059 106.739C172.357 -3.59367 111.377 15.8584 104.827 20.6804Z" fill="#68E1FD"/>
<path d="M70.3001 51.3475C70.0344 51.331 69.769 51.3891 69.5235 51.5175C69.278 51.6459 69.0585 51.8414 68.8811 52.0896C68.6629 52.4663 68.525 52.9064 68.4804 53.3683C68.2994 54.747 68.4132 56.1612 68.81 57.4671C69.2068 58.773 69.8726 59.9241 70.7397 60.8035C71.3157 61.3714 72.0363 61.8243 72.7598 61.6675C72.8427 61.6586 72.9209 61.6158 72.9824 61.5456C73.0446 61.4391 73.0733 61.3076 73.0631 61.1763C73.1215 58.7374 73.1688 56.2427 72.4203 54.0059C71.8972 52.4485 71.8583 51.3719 70.3001 51.3475Z" fill="url(#paint0_linear_502_1924)"/>
<path d="M115.37 51.3475C115.636 51.331 115.902 51.3891 116.148 51.5175C116.394 51.6459 116.614 51.8413 116.792 52.0896C117.008 52.4677 117.144 52.9072 117.19 53.3683C117.371 54.7467 117.258 56.1608 116.862 57.4667C116.465 58.7727 115.8 59.9239 114.933 60.8035C114.357 61.3714 113.634 61.8243 112.91 61.6676C112.828 61.6579 112.75 61.6151 112.688 61.5456C112.627 61.4384 112.598 61.3075 112.607 61.1763C112.549 58.7374 112.504 56.2427 113.253 54.0059C113.773 52.4485 113.812 51.3719 115.37 51.3475Z" fill="url(#paint1_linear_502_1924)"/>
<path d="M177.173 171.83H12.108C7.07684 171.83 2.99829 176.937 2.99829 183.237V196.501C2.99829 202.801 7.07684 207.908 12.108 207.908H177.173C182.204 207.908 186.283 202.801 186.283 196.501V183.237C186.283 176.937 182.204 171.83 177.173 171.83Z" fill="#68E1FD"/>
<path d="M177.173 171.83H12.108C7.07684 171.83 2.99829 176.937 2.99829 183.237V196.501C2.99829 202.801 7.07684 207.908 12.108 207.908H177.173C182.204 207.908 186.283 202.801 186.283 196.501V183.237C186.283 176.937 182.204 171.83 177.173 171.83Z" fill="url(#paint2_linear_502_1924)"/>
<path d="M73.4552 74.8307C73.4552 74.8307 52.0304 73.2593 42.6647 87.5792C33.2991 101.899 38.1822 169.398 38.1822 169.398L137.159 172.22L141.188 95.8541C141.586 79.7468 126.149 74.7575 109.869 74.8237H109.018C80.3612 75.1895 73.4552 74.8307 73.4552 74.8307Z" fill="#68E1FD"/>
<path d="M73.4552 74.8307C73.4552 74.8307 52.0304 73.2593 42.6647 87.5792C33.2991 101.899 38.1822 169.398 38.1822 169.398L137.159 172.22L141.188 95.8541C141.586 79.7468 126.149 74.7575 109.869 74.8237H109.018C80.3612 75.1895 73.4552 74.8307 73.4552 74.8307Z" fill="url(#paint3_linear_502_1924)"/>
<path d="M56.2596 78.0223C56.2596 78.0223 38.6301 78.0223 21.7852 132.992L43.3936 145.27L54.2896 128.274L56.2596 78.0223Z" fill="#68E1FD"/>
<path d="M128.353 78.0223C128.353 78.0223 145.982 78.0223 162.827 132.992L141.219 145.27L130.323 128.274L128.353 78.0223Z" fill="#68E1FD"/>
<path opacity="0.24" d="M32.225 134.19C31.7501 133.917 31.3241 133.526 30.9723 133.042C30.6204 132.558 30.35 131.99 30.1771 131.373C30.0042 130.755 29.9323 130.1 29.9658 129.447C29.9993 128.794 30.1374 128.155 30.3719 127.571C34.8016 116.522 48.3659 90.6385 57.573 89.1124C69.1062 87.1926 82.2532 85.1823 82.2532 85.1823C82.2532 85.1823 122.203 84.2694 128.84 90.0601C134.034 94.5895 145.812 113.92 152.229 124.647C153.712 127.132 153.158 131.689 150.91 133.009L135.05 149.11C134.53 149.413 134.069 149.856 133.7 150.406L123.058 166.335C122.671 166.915 122.181 167.374 121.629 167.676C121.076 167.978 120.474 168.116 119.872 168.077L63.981 164.624C63.2113 164.579 62.4697 164.248 61.8501 163.674C61.2305 163.101 60.7607 162.31 60.5001 161.402L53.8779 138.385C53.6265 137.5 53.1761 136.724 52.5811 136.152C51.986 135.579 51.2715 135.234 50.5235 135.158C49.7755 135.082 49.0259 135.278 48.3647 135.722C47.7036 136.167 47.1591 136.841 46.7966 137.664C46.318 138.744 45.53 139.557 44.5917 139.937C43.6534 140.318 42.6346 140.239 41.741 139.716L32.225 134.19Z" fill="white"/>
<path d="M178.89 164.955H13.825C8.79385 164.955 4.7153 170.063 4.7153 176.362V189.627C4.7153 195.927 8.79385 201.034 13.825 201.034H178.89C183.921 201.034 188 195.927 188 189.627V176.362C188 170.063 183.921 164.955 178.89 164.955Z" fill="#68E1FD"/>
<path opacity="0.18" d="M18.4911 177.983C19.1839 178.526 20.002 178.551 20.7838 178.568L35.2191 178.826C34.2464 179.488 33.3396 180.291 32.5174 181.219C29.3176 184.822 31.2402 191.463 35.5419 191.648C68.2216 193.041 100.929 192.557 133.617 192.073C138.72 191.996 143.843 191.919 148.921 191.268C149.652 191.177 150.351 190.846 150.947 190.308C151.544 189.77 152.016 189.045 152.317 188.205C152.618 187.366 152.736 186.442 152.66 185.526C152.584 184.611 152.316 183.737 151.884 182.993C151.781 182.663 151.74 182.308 151.764 181.955C151.789 181.602 151.877 181.261 152.024 180.958C152.17 180.655 152.37 180.398 152.608 180.207C152.846 180.016 153.116 179.896 153.398 179.857C158.734 179.08 164.249 179.328 169.536 178.195C170.579 177.972 171.798 177.561 172.221 176.105C172.499 175.202 172.34 174.154 172.112 173.23C171.041 168.934 168.256 165.99 165.309 164.673C162.363 163.356 159.23 163.426 156.155 163.503L35.3249 166.544C31.1512 166.649 24.4316 164.802 20.5167 167.035C18.0654 168.44 15.0075 175.255 18.4911 177.983Z" fill="#1D2741"/>
<path d="M44.2258 183.658L39.8991 168.635C39.8991 168.635 38.1295 166.077 42.8485 164.941C47.5675 163.806 138.876 164.941 138.876 164.941L141.002 183.644L44.2258 183.658Z" fill="url(#paint4_linear_502_1924)"/>
<path d="M141.002 183.658V185.205C141.002 186.442 140.609 187.627 139.911 188.502C139.213 189.376 138.266 189.867 137.279 189.867H47.9624C46.9751 189.867 46.0281 189.376 45.3299 188.502C44.6318 187.627 44.2395 186.442 44.2395 185.205V183.658C44.2381 183.045 44.3333 182.438 44.5199 181.872C44.7064 181.305 44.9805 180.79 45.3265 180.357C45.6725 179.923 46.0834 179.579 46.5358 179.345C46.9881 179.111 47.473 178.992 47.9624 178.993H137.279C137.768 178.992 138.253 179.111 138.705 179.345C139.158 179.579 139.569 179.923 139.915 180.357C140.261 180.79 140.535 181.305 140.721 181.872C140.908 182.438 141.003 183.045 141.002 183.658Z" fill="url(#paint5_linear_502_1924)"/>
<path d="M140.846 182.31C140.614 183.268 140.142 184.108 139.499 184.704C138.857 185.301 138.079 185.623 137.279 185.623H47.9627C47.1629 185.623 46.3844 185.301 45.7421 184.704C45.0998 184.108 44.6277 183.268 44.3956 182.31C44.6272 181.351 45.0991 180.511 45.7415 179.913C46.3838 179.316 47.1626 178.993 47.9627 178.993H137.279C138.079 178.993 138.858 179.316 139.5 179.913C140.142 180.511 140.614 181.351 140.846 182.31Z" fill="#68E1FD"/>
<path d="M44.2258 183.658L39.8991 168.635C39.8991 168.635 38.1295 166.077 42.8485 164.941C47.5675 163.806 138.876 164.941 138.876 164.941L141.002 183.644L44.2258 183.658Z" fill="url(#paint6_linear_502_1924)"/>
<path d="M140.846 182.31C140.614 183.268 140.142 184.108 139.499 184.704C138.857 185.301 138.079 185.623 137.279 185.623H47.9627C47.1629 185.623 46.3844 185.301 45.7421 184.704C45.0998 184.108 44.6277 183.268 44.3956 182.31C44.6272 181.351 45.0991 180.511 45.7415 179.913C46.3838 179.316 47.1626 178.993 47.9627 178.993L138.89 177.105C140.559 177.105 140.381 180.39 140.846 182.31Z" fill="url(#paint7_linear_502_1924)"/>
<path d="M138.876 107.739V172.22C138.876 174.016 138.306 175.739 137.292 177.009C136.277 178.279 134.901 178.993 133.467 178.993H51.7607C51.0501 178.994 50.3464 178.819 49.6898 178.479C49.0333 178.139 48.4367 177.64 47.9343 177.011C47.4318 176.382 47.0334 175.635 46.7619 174.813C46.4903 173.991 46.3509 173.11 46.3516 172.22V107.739C46.3516 105.942 46.9215 104.219 47.9359 102.949C48.9503 101.679 50.3261 100.965 51.7607 100.965H133.467C134.177 100.964 134.881 101.139 135.538 101.479C136.194 101.819 136.791 102.318 137.293 102.947C137.796 103.576 138.194 104.323 138.466 105.145C138.737 105.968 138.877 106.849 138.876 107.739Z" fill="#68E1FD"/>
<path d="M138.876 107.739V172.22C138.876 174.016 138.306 175.739 137.292 177.009C136.277 178.279 134.901 178.993 133.467 178.993H51.7607C51.0501 178.994 50.3464 178.819 49.6898 178.479C49.0333 178.139 48.4367 177.64 47.9343 177.011C47.4318 176.382 47.0334 175.635 46.7619 174.813C46.4903 173.991 46.3509 173.11 46.3516 172.22V107.739C46.3516 105.942 46.9215 104.219 47.9359 102.949C48.9503 101.679 50.3261 100.965 51.7607 100.965H133.467C134.177 100.964 134.881 101.139 135.538 101.479C136.194 101.819 136.791 102.318 137.293 102.947C137.796 103.576 138.194 104.323 138.466 105.145C138.737 105.968 138.877 106.849 138.876 107.739Z" fill="url(#paint8_linear_502_1924)"/>
<path d="M138.876 107.739V172.223C138.877 173.321 138.664 174.402 138.255 175.374C137.847 176.345 137.256 177.177 136.533 177.798C136.519 177.813 136.504 177.826 136.488 177.836C135.68 178.525 134.735 178.921 133.759 178.983C133.661 178.983 133.567 178.983 133.464 178.983H51.7577C50.9639 178.983 50.18 178.762 49.4622 178.338C49.122 177.439 48.9462 176.455 48.9474 175.46V110.989C48.9474 109.193 49.5173 107.47 50.5317 106.2C51.5461 104.93 52.9219 104.216 54.3565 104.216H136.063C136.857 104.214 137.642 104.433 138.361 104.857C138.701 105.758 138.877 106.742 138.876 107.739Z" fill="#68E1FD"/>
<path d="M25.9812 135.375C25.9812 135.375 16.5794 155.276 17.7898 162.854C19.0001 170.433 46.3515 167.704 46.3515 167.704V149.514H40.5501L43.3937 145.27L25.9812 135.375Z" fill="url(#paint9_linear_502_1924)"/>
<path d="M158.631 135.375C158.631 135.375 166.701 157.701 166.937 162.248C167.174 166.795 165.329 168.659 157.902 169.851C150.476 171.042 138.876 169.851 138.876 169.851V147.381L142.913 147.078L141.219 145.259L158.631 135.375Z" fill="url(#paint10_linear_502_1924)"/>
<path d="M82.2421 81.4751C82.2421 81.4751 81.9806 89.1716 87.1726 94.0181C92.3646 98.8646 98.3024 94.1749 99.7464 90.9904C101.191 87.8059 103.336 80.0641 103.336 80.0641L82.2421 81.4751Z" fill="url(#paint11_linear_502_1924)"/>
<path d="M71.1793 49.825C71.1793 49.825 73.0268 79.3776 87.1755 84.691C101.324 90.0043 113.194 71.3292 114.396 49.825C115.598 28.3208 104.379 8.82002 89.2985 12.8024C74.2177 16.7848 69.1231 36.8396 71.1793 49.825Z" fill="url(#paint12_linear_502_1924)"/>
<path d="M120.759 34.9965C121.091 36.5365 120.759 38.167 120.359 39.6792C118.936 45.0734 116.685 50.0671 113.731 54.3788C113.809 53.7865 113.876 53.1872 113.929 52.5915C114.365 47.8554 114.102 43.0592 113.152 38.4423C111.021 37.2821 108.767 40.5328 106.474 40.0276C104.432 39.5921 103.494 36.5434 101.689 35.2578C99.8828 33.9721 97.5149 34.8083 95.7314 36.1671C93.9478 37.526 92.3563 39.383 90.3974 40.3203C85.9122 42.456 81.0429 39.2262 76.9416 36.1044L76.1486 39.613C76.0679 39.613 75.9872 39.613 75.9093 39.613L75.4224 39.6374C74.5517 39.6823 73.7131 40.0614 73.0202 40.7233C72.3274 41.3852 71.8138 42.2978 71.5492 43.3375C70.6505 46.8217 71.1708 49.7972 71.6188 54.0409C71.6522 54.3544 71.833 55.7829 71.9165 56.0895C69.1341 50.3825 66.2765 42.5013 67.4646 35.9999C67.6935 34.9675 67.8792 33.9208 68.0211 32.8642C68.163 31.3834 67.9654 29.8887 67.8959 28.401C67.7262 24.8053 68.4134 20.9484 70.4752 18.4328C75.3695 12.4749 79.379 4.33939 85.8482 1.60781C89.0974 0.261403 92.5306 -0.247492 95.9411 0.111781C99.3515 0.471054 102.669 1.69106 105.692 3.6983C108.753 5.75395 111.422 8.57612 114.073 11.3634C116.093 13.5062 118.133 15.6803 119.538 18.4676C120.943 21.255 121.65 24.7774 120.754 27.8749C120.392 29.1292 119.772 30.3416 119.844 31.6691C119.908 32.8293 120.512 33.8537 120.759 34.9965Z" fill="#3F3D56"/>
<path opacity="0.24" d="M116.747 45.759C115.937 48.1038 115.092 50.5114 113.929 52.5914C114.365 47.8553 114.102 43.0591 113.152 38.4422C111.021 37.282 108.767 40.5327 106.474 40.0275C104.432 39.592 103.494 36.5434 101.689 35.2577C99.8828 33.9721 97.5149 34.8083 95.7314 36.1671C93.9479 37.5259 92.3563 39.383 90.3975 40.3202C85.9456 42.4421 81.1069 39.275 77.0251 36.1671C76.822 33.9059 80.812 31.8293 87.4536 35.0626C92.9017 37.7175 97.7487 25.3627 104.76 28.7319C105.559 29.1186 105.985 30.2858 106.783 30.6795C107.896 31.2231 109.118 30.791 110.292 30.582C111.466 30.3729 112.874 30.5437 113.5 31.8084C113.979 32.777 113.809 34.0278 114.026 35.1358C114.243 36.2437 115.35 37.2716 115.999 36.4737C116.229 38.2185 116.305 39.99 116.224 41.7557C116.629 41.1043 117.161 40.5933 117.768 40.2714C117.966 42.1598 117.351 44.0134 116.747 45.759Z" fill="white"/>
<path opacity="0.24" d="M72.69 39.7837C71.0373 44.118 70.9315 51.4661 71.9221 56.1C71.1847 53.8423 69.7128 49.4801 69.2788 47.0865C68.9059 45.0553 68.6917 42.7313 69.6739 41.045C69.9382 40.6772 70.1653 40.27 70.35 39.8325C70.4422 39.4705 70.501 39.0964 70.5253 38.7176C70.6783 37.4877 71.3879 36.1672 72.3812 36.2299C72.7833 36.2929 73.1662 36.4822 73.4942 36.7804C74.0924 37.2577 75.8092 38.4981 75.9177 39.6235L72.69 39.7837Z" fill="white"/>
<path d="M138.776 172.223C138.776 172.223 138.498 175.854 136.433 177.798C136.419 177.813 136.404 177.826 136.389 177.836C135.593 178.558 134.641 178.957 133.659 178.983C133.562 178.983 133.467 178.983 133.364 178.983H51.6578C50.8631 178.982 50.0784 178.762 49.3595 178.338C49.0215 177.438 48.8467 176.455 48.8475 175.46V141.605L138.776 172.223Z" fill="url(#paint13_linear_502_1924)"/>
<path opacity="0.24" d="M57.2671 178.042H49.4763L48.9615 168.722V110.989C48.9615 109.193 49.5314 107.47 50.5458 106.2C51.5602 104.93 52.936 104.216 54.3706 104.216H74.2177C74.2177 104.216 53.3717 104.307 52.4117 110.101C51.4518 115.895 52.4117 174.07 52.4117 174.07C52.4117 174.07 51.4462 177.136 57.2671 178.042Z" fill="white"/>
<defs>
<linearGradient id="paint0_linear_502_1924" x1="72.0781" y1="56.3716" x2="68.5661" y2="56.8361" gradientUnits="userSpaceOnUse">
<stop stop-color="#ECC4D7"/>
<stop offset="0.16" stop-color="#EDCBD5"/>
<stop offset="0.42" stop-color="#EFD4D1"/>
<stop offset="0.7" stop-color="#F2EAC9"/>
</linearGradient>
<linearGradient id="paint1_linear_502_1924" x1="113.592" y1="56.3716" x2="117.107" y2="56.8361" gradientUnits="userSpaceOnUse">
<stop stop-color="#ECC4D7"/>
<stop offset="0.16" stop-color="#EDCBD5"/>
<stop offset="0.42" stop-color="#EFD4D1"/>
<stop offset="0.7" stop-color="#F2EAC9"/>
</linearGradient>
<linearGradient id="paint2_linear_502_1924" x1="94.6128" y1="186.223" x2="95.4853" y2="259.079" gradientUnits="userSpaceOnUse">
<stop offset="0.01" stop-opacity="0"/>
<stop offset="0.26" stop-color="#0D0D12" stop-opacity="0.21"/>
<stop offset="0.77" stop-color="#2F2E40" stop-opacity="0.75"/>
<stop offset="0.99" stop-color="#3F3D56"/>
</linearGradient>
<linearGradient id="paint3_linear_502_1924" x1="89.1175" y1="108.975" x2="95.8283" y2="-8.0716" gradientUnits="userSpaceOnUse">
<stop offset="0.01" stop-opacity="0"/>
<stop offset="0.26" stop-color="#0D0D12" stop-opacity="0.21"/>
<stop offset="0.77" stop-color="#2F2E40" stop-opacity="0.75"/>
<stop offset="0.99" stop-color="#3F3D56"/>
</linearGradient>
<linearGradient id="paint4_linear_502_1924" x1="39.5736" y1="174.052" x2="141.002" y2="174.052" gradientUnits="userSpaceOnUse">
<stop offset="0.01" stop-opacity="0"/>
<stop offset="0.26" stop-color="#0D0D12" stop-opacity="0.21"/>
<stop offset="0.77" stop-color="#2F2E40" stop-opacity="0.75"/>
<stop offset="0.99" stop-color="#3F3D56"/>
</linearGradient>
<linearGradient id="paint5_linear_502_1924" x1="91.8164" y1="202.619" x2="93.4453" y2="178.908" gradientUnits="userSpaceOnUse">
<stop stop-color="#68E1FD"/>
<stop offset="1" stop-color="#69B9EB"/>
</linearGradient>
<linearGradient id="paint6_linear_502_1924" x1="90.2584" y1="184.202" x2="90.5071" y2="137.814" gradientUnits="userSpaceOnUse">
<stop offset="0.01" stop-opacity="0"/>
<stop offset="0.26" stop-color="#0D0D12" stop-opacity="0.21"/>
<stop offset="0.77" stop-color="#2F2E40" stop-opacity="0.75"/>
<stop offset="0.99" stop-color="#3F3D56"/>
</linearGradient>
<linearGradient id="paint7_linear_502_1924" x1="122.874" y1="168.603" x2="-0.089723" y2="204.12" gradientUnits="userSpaceOnUse">
<stop offset="0.01" stop-opacity="0"/>
<stop offset="0.26" stop-color="#0D0D12" stop-opacity="0.21"/>
<stop offset="0.77" stop-color="#2F2E40" stop-opacity="0.75"/>
<stop offset="0.99" stop-color="#3F3D56"/>
</linearGradient>
<linearGradient id="paint8_linear_502_1924" x1="90.9735" y1="83.771" x2="95.8737" y2="190.88" gradientUnits="userSpaceOnUse">
<stop offset="0.01" stop-opacity="0"/>
<stop offset="0.26" stop-color="#0D0D12" stop-opacity="0.21"/>
<stop offset="0.77" stop-color="#2F2E40" stop-opacity="0.75"/>
<stop offset="0.99" stop-color="#3F3D56"/>
</linearGradient>
<linearGradient id="paint9_linear_502_1924" x1="29.6262" y1="214.371" x2="40.237" y2="72.7695" gradientUnits="userSpaceOnUse">
<stop stop-color="#ECC4D7"/>
<stop offset="0.16" stop-color="#EDCBD5"/>
<stop offset="0.42" stop-color="#EFD4D1"/>
<stop offset="0.7" stop-color="#F2EAC9"/>
</linearGradient>
<linearGradient id="paint10_linear_502_1924" x1="148.456" y1="248.666" x2="160.273" y2="90.972" gradientUnits="userSpaceOnUse">
<stop stop-color="#ECC4D7"/>
<stop offset="0.16" stop-color="#EDCBD5"/>
<stop offset="0.42" stop-color="#EFD4D1"/>
<stop offset="0.7" stop-color="#F2EAC9"/>
</linearGradient>
<linearGradient id="paint11_linear_502_1924" x1="91.3407" y1="111.073" x2="96.8921" y2="36.9619" gradientUnits="userSpaceOnUse">
<stop stop-color="#ECC4D7"/>
<stop offset="0.16" stop-color="#EDCBD5"/>
<stop offset="0.42" stop-color="#EFD4D1"/>
<stop offset="0.7" stop-color="#F2EAC9"/>
</linearGradient>
<linearGradient id="paint12_linear_502_1924" x1="92.9658" y1="1.89352" x2="91.4476" y2="121.341" gradientUnits="userSpaceOnUse">
<stop stop-color="#ECC4D7"/>
<stop offset="0.16" stop-color="#EDCBD5"/>
<stop offset="0.42" stop-color="#EFD4D1"/>
<stop offset="0.7" stop-color="#F2EAC9"/>
</linearGradient>
<linearGradient id="paint13_linear_502_1924" x1="97.9297" y1="119.442" x2="55.7454" y2="364.327" gradientUnits="userSpaceOnUse">
<stop offset="0.01" stop-opacity="0"/>
<stop offset="0.26" stop-color="#0D0D12" stop-opacity="0.21"/>
<stop offset="0.77" stop-color="#2F2E40" stop-opacity="0.75"/>
<stop offset="0.99" stop-color="#3F3D56"/>
</linearGradient>
</defs>
</svg>
