<svg width="20" height="20" viewBox="0 0 20 20" fill="none" xmlns="http://www.w3.org/2000/svg">
<path d="M10.214 0.000359218C10.764 -0.00964066 11.285 0.189357 11.674 0.570352C12.065 0.939348 12.274 1.45034 12.274 1.99033C12.274 3.09032 13.184 3.98131 14.315 3.98131C14.664 3.98131 15.0139 3.88031 15.3249 3.71031C16.2939 3.18932 17.5039 3.52032 18.0539 4.4503L18.7349 5.62029C18.9049 5.92029 19.0039 6.26028 19.0039 6.61028C19.0039 7.32027 18.6149 7.98126 17.9849 8.33026C17.6739 8.50026 17.4139 8.76025 17.2349 9.06125C16.7039 10.0002 17.0349 11.1892 17.9849 11.7312C18.9439 12.2802 19.2739 13.4812 18.7349 14.4302L18.0539 15.5612C17.6939 16.1802 17.0239 16.5612 16.3039 16.5612C15.9439 16.5612 15.5839 16.4702 15.2849 16.2902C14.9639 16.1202 14.615 16.0202 14.264 16.0202C13.724 16.0202 13.204 16.2312 12.825 16.6102C12.434 16.9812 12.224 17.4901 12.224 18.0201C12.224 19.1101 11.315 20.0001 10.184 20.0001H8.81502C8.27403 20.0001 7.76403 19.7801 7.39404 19.4101C7.01404 19.0301 6.81505 18.5301 6.81505 18.0101C6.81505 16.9102 5.91406 16.0202 4.78507 16.0202C4.41407 16.0202 4.05408 16.1202 3.74408 16.3112C3.27409 16.5702 2.7141 16.6402 2.1941 16.5102C1.67411 16.3702 1.22411 16.0302 0.954117 15.5802L0.315125 14.4502C0.0141286 13.9812 -0.0758703 13.4202 0.065128 12.8902C0.204126 12.3602 0.565122 11.9102 1.05412 11.6402C1.36511 11.4702 1.62411 11.2202 1.80411 10.9102C2.3251 9.97024 1.9941 8.79025 1.05412 8.24026C0.104128 7.70027 -0.225868 6.51028 0.315125 5.57029L0.954117 4.4503C1.22411 3.98131 1.67411 3.64031 2.2041 3.50032C2.7351 3.36032 3.29409 3.43932 3.76408 3.71031C4.08408 3.88031 4.43407 3.97031 4.78507 3.97031C5.32506 3.97031 5.84406 3.76031 6.22405 3.39032C6.60405 3.02032 6.81505 2.51033 6.81505 1.99033C6.81505 0.890348 7.72403 0.000359218 8.85402 0.000359218H10.214ZM10.615 7.48127C9.56501 7.05027 8.35403 7.28027 7.54404 8.07026C6.74405 8.85025 6.49405 10.0402 6.93404 11.0612C7.36504 12.0902 8.38403 12.7602 9.52401 12.7602H9.53501C10.285 12.7702 10.985 12.4812 11.514 11.9602C12.044 11.4502 12.344 10.7502 12.344 10.0202C12.354 8.91025 11.664 7.90026 10.615 7.48127Z" fill="#200E32"/>
</svg>
