<svg width="16" height="16" viewBox="0 0 16 16" fill="none" xmlns="http://www.w3.org/2000/svg">
<path d="M5.09082 15.2727L5.09082 0.727273C5.09082 0.325611 4.76521 -1.42329e-08 4.36355 -3.17901e-08L0.727184 -1.90741e-07C0.325523 -2.08298e-07 -8.82291e-05 0.325611 -8.82467e-05 0.727272L-8.88825e-05 15.2727C-8.89e-05 15.6744 0.325522 16 0.727184 16L4.36355 16C4.76521 16 5.09082 15.6744 5.09082 15.2727Z" fill="#231F20"/>
<path d="M5.81817 7.99982C5.81817 8.1927 5.8948 8.37769 6.03119 8.51408C6.16758 8.65047 6.35256 8.72709 6.54545 8.72709L13.52 8.72709L12.5745 9.66527C12.5064 9.73288 12.4523 9.81332 12.4153 9.90194C12.3784 9.99057 12.3594 10.0856 12.3594 10.1816C12.3594 10.2776 12.3784 10.3727 12.4153 10.4613C12.4523 10.55 12.5064 10.6304 12.5745 10.698C12.6421 10.7662 12.7226 10.8203 12.8112 10.8572C12.8998 10.8941 12.9949 10.9131 13.0909 10.9131C13.1869 10.9131 13.282 10.8941 13.3706 10.8572C13.4592 10.8203 13.5397 10.7662 13.6073 10.698L15.7891 8.51618C15.85 8.45399 15.8971 8.37964 15.9273 8.298C15.9756 8.20608 16.0006 8.10367 16 7.99982L16 7.93436C15.9949 7.87018 15.9827 7.80675 15.9636 7.74527L15.9636 7.67982C15.9288 7.59888 15.8795 7.52495 15.8182 7.46164L13.6364 5.27982C13.4965 5.13901 13.3065 5.05952 13.108 5.05884C12.9096 5.05816 12.719 5.13634 12.5782 5.27618C12.4374 5.41602 12.3579 5.60607 12.3572 5.80452C12.3565 6.00297 12.4347 6.19356 12.5745 6.33436L13.52 7.27254L6.54545 7.27254C6.35256 7.27254 6.16758 7.34917 6.03119 7.48556C5.8948 7.62195 5.81817 7.80693 5.81817 7.99982Z" fill="#231F20"/>
</svg>
