<svg width="35" height="35" viewBox="0 0 35 35" fill="none" xmlns="http://www.w3.org/2000/svg">
<path d="M8.76903 0C3.93641 0 0 3.93666 0 8.76924V26.2308C0 31.0633 3.93641 35 8.76903 35H26.2307C31.0633 35 35 31.0633 35 26.2308V8.76924C35 3.93666 31.0633 0 26.2307 0H8.76903ZM8.76903 2.93004H26.2307C29.4912 2.93004 32.0702 5.50875 32.0702 8.76924V26.2308C32.0702 29.4912 29.4912 32.0699 26.2307 32.0699H8.76903C5.50853 32.0699 2.92978 29.4912 2.92978 26.2308V8.76924C2.92978 5.50875 5.50853 2.93004 8.76903 2.93004ZM17.8444 7.39618C17.4562 7.4018 17.0861 7.56129 16.8155 7.83961C16.5448 8.11794 16.3958 8.49233 16.401 8.88051V15.9394H9.34314C9.14785 15.9347 8.95357 15.969 8.77176 16.0405C8.58994 16.1119 8.42426 16.2191 8.28445 16.3555C8.14465 16.4919 8.03355 16.655 7.95769 16.835C7.88184 17.015 7.84276 17.2084 7.84276 17.4037C7.84276 17.5991 7.88184 17.7925 7.95769 17.9725C8.03355 18.1525 8.14465 18.3155 8.28445 18.452C8.42426 18.5884 8.58994 18.6955 8.77176 18.767C8.95357 18.8384 9.14785 18.8728 9.34314 18.868H16.401V25.9258C16.4009 26.1182 16.4388 26.3088 16.5124 26.4866C16.586 26.6644 16.6939 26.8259 16.8299 26.962C16.966 27.0981 17.1275 27.206 17.3053 27.2797C17.483 27.3533 17.6736 27.3912 17.866 27.3912C18.0584 27.3912 18.249 27.3533 18.4267 27.2797C18.6045 27.206 18.766 27.0981 18.9021 26.962C19.0381 26.8259 19.146 26.6644 19.2196 26.4866C19.2932 26.3088 19.3311 26.1182 19.331 25.9258V18.868H26.3886C26.5839 18.8728 26.7782 18.8384 26.96 18.767C27.1418 18.6955 27.3075 18.5884 27.4473 18.452C27.5871 18.3155 27.6982 18.1525 27.774 17.9725C27.8499 17.7925 27.889 17.5991 27.889 17.4037C27.889 17.2084 27.8499 17.015 27.774 16.835C27.6982 16.655 27.5871 16.4919 27.4473 16.3555C27.3075 16.2191 27.1418 16.1119 26.96 16.0405C26.7782 15.969 26.5839 15.9347 26.3886 15.9394H19.331V8.88051C19.3337 8.68466 19.297 8.49027 19.2232 8.30884C19.1494 8.12741 19.04 7.96263 18.9014 7.82423C18.7628 7.68584 18.5978 7.57665 18.4162 7.50313C18.2347 7.4296 18.0403 7.39324 17.8444 7.39618Z" fill="#232323"/>
</svg>
