<svg width="36" height="35" viewBox="0 0 36 35" fill="none" xmlns="http://www.w3.org/2000/svg">
<path d="M34.9997 22.1975C34.9946 23.1905 34.5965 24.1412 33.8925 24.8416C33.1885 25.542 32.2358 25.9352 31.2427 25.9352V18.4341C32.2397 18.4358 33.1953 18.8331 33.8997 19.5386C34.6041 20.2442 34.9997 21.2005 34.9997 22.1975ZM22.4402 16.0748C22.6901 20.0119 22.1607 23.9597 20.8823 27.6919C20.8118 27.9198 20.672 28.12 20.4824 28.2648C20.2928 28.4096 20.0628 28.4917 19.8244 28.4997H7.23924C6.99738 28.4973 6.76231 28.4194 6.5669 28.2768C6.37149 28.1343 6.2255 27.9343 6.14934 27.7047C4.87707 23.9711 4.34782 20.0245 4.59142 16.0876C4.60551 15.9264 4.5863 15.7641 4.53498 15.6106C4.48365 15.4572 4.40131 15.316 4.29308 15.1957C4.18484 15.0754 4.05303 14.9787 3.90582 14.9116C3.75862 14.8444 3.59917 14.8083 3.4374 14.8054H2.18722C1.96458 14.7974 1.74827 14.7292 1.56135 14.6079C1.37444 14.4867 1.22394 14.317 1.12588 14.117C1.02783 13.9169 0.985913 13.694 1.00459 13.472C1.02327 13.25 1.10185 13.0372 1.23196 12.8564C4.32759 8.24676 8.29071 4.28364 12.9003 1.188C13.0823 1.06562 13.2965 1.00026 13.5158 1.00026C13.7351 1.00026 13.9493 1.06562 14.1313 1.188C18.7386 4.28429 22.6995 8.24737 25.7932 12.8564C25.9161 13.0361 25.9891 13.2453 26.0048 13.4625C26.0204 13.6796 25.9782 13.8971 25.8824 14.0926C25.7866 14.2882 25.6406 14.4548 25.4594 14.5755C25.2781 14.6962 25.0681 14.7667 24.8508 14.7797H23.5685C23.4081 14.7868 23.2507 14.8265 23.1061 14.8962C22.9614 14.966 22.8324 15.0644 22.7269 15.1855C22.6214 15.3066 22.5415 15.4478 22.4923 15.6007C22.443 15.7536 22.4253 15.9149 22.4402 16.0748Z" fill="#FFC03D"/>
<path d="M9.47668 28.4997H7.28405C7.04006 28.4992 6.80251 28.4213 6.60553 28.2773C6.40856 28.1333 6.26229 27.9306 6.18774 27.6983C4.90356 23.9607 4.36978 20.0063 4.61699 16.062C4.63016 15.9005 4.61009 15.738 4.55802 15.5845C4.50595 15.4311 4.42299 15.2899 4.31425 15.1698C4.20552 15.0496 4.07331 14.953 3.9258 14.8859C3.77829 14.8189 3.61859 14.7827 3.45657 14.7798H2.17433C1.95643 14.7678 1.74563 14.6981 1.56353 14.5778C1.38143 14.4575 1.23458 14.291 1.13803 14.0953C1.04148 13.8996 0.998692 13.6817 1.01406 13.464C1.02942 13.2463 1.10239 13.0366 1.22547 12.8564C4.30219 8.30988 8.2191 4.39297 12.7656 1.31626C9.92546 6.8427 7.3674 15.7543 9.47668 28.4997Z" fill="#FFD180"/>
<path d="M22.4402 16.0748C22.6901 20.0119 22.1607 23.9597 20.8823 27.6919C20.8118 27.9198 20.672 28.12 20.4824 28.2648C20.2928 28.4096 20.0628 28.4917 19.8244 28.4997H7.23924C6.99738 28.4973 6.76231 28.4194 6.5669 28.2768C6.37149 28.1343 6.2255 27.9343 6.14934 27.7047C4.87707 23.9711 4.34782 20.0245 4.59142 16.0876C4.60551 15.9264 4.5863 15.7641 4.53498 15.6106C4.48365 15.4572 4.40131 15.316 4.29308 15.1957C4.18484 15.0754 4.05303 14.9787 3.90582 14.9116C3.75862 14.8444 3.59917 14.8083 3.4374 14.8054H2.18722C1.96458 14.7974 1.74827 14.7292 1.56135 14.6079C1.37444 14.4867 1.22394 14.317 1.12588 14.117C1.02783 13.9169 0.985913 13.694 1.00459 13.472C1.02327 13.25 1.10185 13.0372 1.23196 12.8564C4.32759 8.24676 8.29071 4.28364 12.9003 1.188C13.0823 1.06562 13.2965 1.00026 13.5158 1.00026C13.7351 1.00026 13.9493 1.06562 14.1313 1.188C18.7386 4.28429 22.6995 8.24737 25.7932 12.8564C25.9161 13.0361 25.9891 13.2453 26.0048 13.4625C26.0204 13.6796 25.9782 13.8971 25.8824 14.0926C25.7866 14.2882 25.6406 14.4548 25.4594 14.5755C25.2781 14.6962 25.0681 14.7667 24.8508 14.7797H23.5685C23.4081 14.7868 23.2507 14.8265 23.1061 14.8962C22.9614 14.966 22.8324 15.0644 22.7269 15.1855C22.6214 15.3066 22.5415 15.4478 22.4923 15.6007C22.443 15.7536 22.4253 15.9149 22.4402 16.0748V16.0748Z" stroke="#293149" stroke-width="2" stroke-linecap="round" stroke-linejoin="round"/>
<path d="M17.6895 26.4673H14.1698V33.1413H17.6895V26.4673Z" fill="#FFD180"/>
<path d="M31.2428 15.3118V29.083C31.2411 29.4821 31.0818 29.8643 30.7996 30.1465C30.5174 30.4287 30.1352 30.5879 29.7361 30.5896H28.2038C27.895 30.588 27.5936 30.4943 27.3383 30.3204L22.2094 26.7365C21.9541 26.5626 21.6527 26.4688 21.3439 26.4672H13.6761C13.2776 26.4655 12.896 26.3061 12.6149 26.0237C12.3337 25.7413 12.1759 25.3591 12.1759 24.9606V19.4277C12.1759 19.0299 12.3339 18.6483 12.6153 18.3669C12.8966 18.0856 13.2782 17.9275 13.6761 17.9275H21.331C21.641 17.9269 21.9433 17.8306 22.1966 17.6518L27.3255 14.0744C27.5794 13.8975 27.8817 13.8035 28.191 13.8051H29.7233C29.9222 13.8034 30.1195 13.8412 30.3038 13.9161C30.4881 13.9911 30.6557 14.1018 30.7969 14.2418C30.9382 14.3819 31.0503 14.5486 31.1269 14.7322C31.2034 14.9159 31.2428 15.1128 31.2428 15.3118Z" fill="#5C97E3"/>
<path d="M17.6895 28.8971V33.1413H14.1698V31.3333C16.6958 31.4487 17.6895 28.8971 17.6895 28.8971Z" fill="#FFC03D"/>
<path d="M31.2427 15.3118V29.083C31.241 29.4821 31.0818 29.8643 30.7996 30.1465C30.5174 30.4287 30.1352 30.5879 29.7361 30.5896H28.2038C27.8949 30.588 27.5936 30.4943 27.3383 30.3204L23.4339 27.5956C28.2615 24.7362 29.454 17.8634 29.7233 13.8051C29.9222 13.8034 30.1195 13.8412 30.3038 13.9161C30.488 13.9911 30.6557 14.1018 30.7969 14.2418C30.9382 14.3819 31.0503 14.5486 31.1268 14.7322C31.2033 14.9159 31.2427 15.1128 31.2427 15.3118Z" fill="#4A89DC"/>
<path d="M17.6895 26.4673H14.1698V33.1413H17.6895V26.4673Z" stroke="#293149" stroke-width="2" stroke-linecap="round" stroke-linejoin="round"/>
<path d="M31.2428 15.3118V29.083C31.2411 29.4821 31.0818 29.8643 30.7996 30.1465C30.5174 30.4287 30.1352 30.5879 29.7361 30.5896H28.2038C27.895 30.588 27.5936 30.4943 27.3383 30.3204L22.2094 26.7365C21.9541 26.5626 21.6527 26.4688 21.3439 26.4672H13.6761C13.2776 26.4655 12.896 26.3061 12.6149 26.0237C12.3337 25.7413 12.1759 25.3591 12.1759 24.9606V19.4277C12.1759 19.0299 12.3339 18.6483 12.6153 18.3669C12.8966 18.0856 13.2782 17.9275 13.6761 17.9275H21.331C21.641 17.9269 21.9433 17.8306 22.1966 17.6518L27.3255 14.0744C27.5794 13.8975 27.8817 13.8035 28.191 13.8051H29.7233C29.9222 13.8034 30.1195 13.8412 30.3038 13.9161C30.4881 13.9911 30.6557 14.1018 30.7969 14.2418C30.9382 14.3819 31.0503 14.5486 31.1269 14.7322C31.2034 14.9158 31.2428 15.1128 31.2428 15.3118Z" stroke="#293149" stroke-width="2" stroke-linecap="round" stroke-linejoin="round"/>
<path d="M34.9997 22.1976C34.9947 23.1906 34.5966 24.1413 33.8926 24.8417C33.1886 25.5421 32.2359 25.9353 31.2428 25.9353V18.4342C32.2398 18.4359 33.1954 18.8331 33.8998 19.5387C34.6041 20.2443 34.9998 21.2006 34.9997 22.1976V22.1976Z" stroke="#293149" stroke-width="2" stroke-linecap="round" stroke-linejoin="round"/>
</svg>
