<svg width="25" height="25" viewBox="0 0 25 25" fill="none" xmlns="http://www.w3.org/2000/svg">
<path d="M22.332 14.4531H15.9492C15.7702 14.4531 15.625 14.5983 15.625 14.7773V15.6914C15.625 15.8705 15.7702 16.0156 15.9492 16.0156H22.332C22.5111 16.0156 22.6562 15.8705 22.6562 15.6914V14.7773C22.6562 14.5983 22.5111 14.4531 22.332 14.4531Z" fill="black"/>
<path d="M22.7227 16.7969H16.3398C16.1608 16.7969 16.0156 16.942 16.0156 17.1211V18.0352C16.0156 18.2142 16.1608 18.3594 16.3398 18.3594H22.7227C22.9017 18.3594 23.0469 18.2142 23.0469 18.0352V17.1211C23.0469 16.942 22.9017 16.7969 22.7227 16.7969Z" fill="black"/>
<path d="M21.5508 19.1406H15.168C14.9889 19.1406 14.8438 19.2858 14.8438 19.4648V20.3789C14.8438 20.558 14.9889 20.7031 15.168 20.7031H21.5508C21.7298 20.7031 21.875 20.558 21.875 20.3789V19.4648C21.875 19.2858 21.7298 19.1406 21.5508 19.1406Z" fill="black"/>
<path d="M13.3477 21.4844H8.875C8.30946 22.1651 7.54866 22.656 6.69531 22.8906C6.72265 22.938 6.76192 22.9773 6.80922 23.0047C6.85651 23.0322 6.91018 23.0467 6.96484 23.0469H13.3477C13.4336 23.0469 13.5161 23.0127 13.5769 22.9519C13.6377 22.8911 13.6719 22.8086 13.6719 22.7227V21.8086C13.6719 21.7226 13.6377 21.6401 13.5769 21.5793C13.5161 21.5185 13.4336 21.4844 13.3477 21.4844Z" fill="black"/>
<path d="M22.7227 21.4844H16.3398C16.1608 21.4844 16.0156 21.6295 16.0156 21.8086V22.7227C16.0156 22.9017 16.1608 23.0469 16.3398 23.0469H22.7227C22.9017 23.0469 23.0469 22.9017 23.0469 22.7227V21.8086C23.0469 21.6295 22.9017 21.4844 22.7227 21.4844Z" fill="black"/>
<path d="M13.7384 19.1406H9.83215C9.83215 19.1719 9.83215 19.2031 9.83215 19.2305C9.77907 19.7035 9.64703 20.1644 9.44153 20.5938L9.37512 20.7031H13.7384C13.8244 20.7031 13.9069 20.669 13.9677 20.6082C14.0285 20.5474 14.0626 20.4649 14.0626 20.3789V19.4648C14.0626 19.3789 14.0285 19.2964 13.9677 19.2356C13.9069 19.1748 13.8244 19.1406 13.7384 19.1406ZM9.37512 16.7969C9.46165 16.9664 9.53732 17.1412 9.60169 17.3203C9.69641 17.5847 9.76318 17.8584 9.8009 18.1367C9.8009 18.207 9.82044 18.2852 9.82825 18.3594H12.5626C12.6486 18.3594 12.7311 18.3252 12.7919 18.2644C12.8527 18.2036 12.8868 18.1211 12.8868 18.0352V17.1211C12.8868 17.0351 12.8527 16.9526 12.7919 16.8918C12.7311 16.831 12.6486 16.7969 12.5626 16.7969H9.37512ZM6.37122 14.5313C7.35454 14.7188 8.24152 15.2438 8.87903 16.0156H12.9572C13.0431 16.0156 13.1256 15.9815 13.1864 15.9207C13.2472 15.8599 13.2814 15.7774 13.2814 15.6914V14.7773C13.2814 14.6914 13.2472 14.6089 13.1864 14.5481C13.1256 14.4873 13.0431 14.4531 12.9572 14.4531H6.57434C6.49946 14.454 6.42738 14.4817 6.37122 14.5313ZM8.74231 20.2578C8.91001 19.9059 9.01699 19.5282 9.05872 19.1406C9.07443 19.011 9.08225 18.8806 9.08215 18.75C9.08384 18.5838 9.07077 18.4178 9.04309 18.2539C9.01414 18.0232 8.9591 17.7965 8.87903 17.5781C8.63911 16.8887 8.19053 16.2911 7.59555 15.8681C7.00057 15.4452 6.28869 15.218 5.55872 15.218C4.82874 15.218 4.11687 15.4452 3.52188 15.8681C2.9269 16.2911 2.47833 16.8887 2.2384 17.5781C2.16043 17.7931 2.10543 18.0157 2.07434 18.2422V18.2891C2.07434 18.2891 2.07434 18.3398 2.07434 18.3594C2.05483 18.4886 2.04569 18.6193 2.047 18.75C2.04664 18.8806 2.05447 19.011 2.07044 19.1406C2.11166 19.5295 2.21865 19.9086 2.38684 20.2617C2.6721 20.8625 3.12191 21.37 3.68405 21.7254C4.24618 22.0807 4.89758 22.2694 5.56262 22.2694C6.22766 22.2694 6.87906 22.0807 7.4412 21.7254C8.00333 21.37 8.45314 20.8625 8.7384 20.2617L8.74231 20.2578ZM5.27356 18.3594H5.66419C5.92319 18.3335 6.18187 18.4115 6.38332 18.5764C6.58478 18.7412 6.7125 18.9793 6.7384 19.2383C6.7643 19.4973 6.68626 19.756 6.52143 19.9574C6.3566 20.1589 6.1185 20.2866 5.8595 20.3125V20.7031C5.8595 20.8067 5.81834 20.9061 5.74509 20.9793C5.67183 21.0526 5.57247 21.0938 5.46887 21.0938C5.36527 21.0938 5.26592 21.0526 5.19266 20.9793C5.1194 20.9061 5.07825 20.8067 5.07825 20.7031V20.3125H4.68762C4.58402 20.3125 4.48467 20.2713 4.41141 20.1981C4.33815 20.1248 4.297 20.0255 4.297 19.9219C4.297 19.8183 4.33815 19.7189 4.41141 19.6457C4.48467 19.5724 4.58402 19.5312 4.68762 19.5312H5.66419C5.71599 19.5312 5.76566 19.5107 5.80229 19.474C5.83892 19.4374 5.8595 19.3877 5.8595 19.3359C5.8595 19.2841 5.83892 19.2345 5.80229 19.1978C5.76566 19.1612 5.71599 19.1406 5.66419 19.1406H5.27356C5.01456 19.1665 4.75588 19.0885 4.55442 18.9236C4.35297 18.7588 4.22524 18.5207 4.19934 18.2617C4.17344 18.0027 4.25149 17.744 4.41632 17.5426C4.58114 17.3411 4.81925 17.2134 5.07825 17.1875V16.7969C5.07825 16.6933 5.1194 16.5939 5.19266 16.5207C5.26592 16.4474 5.36527 16.4062 5.46887 16.4062C5.57247 16.4062 5.67183 16.4474 5.74509 16.5207C5.81834 16.5939 5.8595 16.6933 5.8595 16.7969V17.1875H6.25012C6.35372 17.1875 6.45308 17.2287 6.52634 17.3019C6.59959 17.3752 6.64075 17.4745 6.64075 17.5781C6.64075 17.6817 6.59959 17.7811 6.52634 17.8543C6.45308 17.9276 6.35372 17.9688 6.25012 17.9688H5.27356C5.22176 17.9688 5.17208 17.9893 5.13545 18.026C5.09883 18.0626 5.07825 18.1123 5.07825 18.1641C5.07825 18.2159 5.09883 18.2655 5.13545 18.3022C5.17208 18.3388 5.22176 18.3594 5.27356 18.3594Z" fill="black"/>
<path d="M11.7852 12.1094H5.40234C5.22328 12.1094 5.07812 12.2545 5.07812 12.4336V13.3477C5.07812 13.5267 5.22328 13.6719 5.40234 13.6719H11.7852C11.9642 13.6719 12.1094 13.5267 12.1094 13.3477V12.4336C12.1094 12.2545 11.9642 12.1094 11.7852 12.1094Z" fill="black"/>
<path d="M16.3555 11.6641C16.6407 12.2648 17.0905 12.7724 17.6527 13.1277C18.2148 13.4831 18.8662 13.6717 19.5312 13.6717C20.1963 13.6717 20.8477 13.4831 21.4098 13.1277C21.972 12.7724 22.4218 12.2648 22.707 11.6641C22.8747 11.3122 22.9817 10.9345 23.0234 10.5469C23.0391 10.4173 23.047 10.2868 23.0469 10.1563C23.0486 9.99009 23.0355 9.82407 23.0078 9.66019C22.9789 9.42945 22.9238 9.20274 22.8437 8.98441C22.6038 8.29499 22.1552 7.69734 21.5603 7.27442C20.9653 6.8515 20.2534 6.62427 19.5234 6.62427C18.7935 6.62427 18.0816 6.8515 17.4866 7.27442C16.8916 7.69734 16.443 8.29499 16.2031 8.98441C16.1251 9.19935 16.0702 9.42195 16.0391 9.64847C16.0391 9.64847 16.0391 9.69144 16.0391 9.69535C16.0391 9.69925 16.0391 9.74613 16.0391 9.76566C16.0209 9.89503 16.013 10.0257 16.0156 10.1563C16.0153 10.2869 16.0231 10.4173 16.0391 10.5469C16.0807 10.9345 16.1877 11.3122 16.3555 11.6641ZM19.7266 10.5469H19.3359C19.0938 10.5472 18.8601 10.4574 18.6804 10.2951C18.5007 10.1328 18.3877 9.90944 18.3633 9.66849C18.339 9.42754 18.4051 9.18614 18.5487 8.99115C18.6923 8.79617 18.9033 8.66151 19.1406 8.61331V8.20316C19.1406 8.09956 19.1818 8.0002 19.255 7.92694C19.3283 7.85369 19.4276 7.81253 19.5312 7.81253C19.6348 7.81253 19.7342 7.85369 19.8075 7.92694C19.8807 8.0002 19.9219 8.09956 19.9219 8.20316V8.59378H20.3125C20.4161 8.59378 20.5155 8.63494 20.5887 8.70819C20.662 8.78145 20.7031 8.88081 20.7031 8.98441C20.7031 9.08801 20.662 9.18737 20.5887 9.26062C20.5155 9.33388 20.4161 9.37503 20.3125 9.37503H19.3359C19.2841 9.37503 19.2345 9.39561 19.1978 9.43224C19.1612 9.46887 19.1406 9.51855 19.1406 9.57035C19.1406 9.62215 19.1612 9.67182 19.1978 9.70845C19.2345 9.74508 19.2841 9.76566 19.3359 9.76566H19.7266C19.9856 9.73976 20.2442 9.81781 20.4457 9.98263C20.6472 10.1475 20.7749 10.3856 20.8008 10.6446C20.8267 10.9036 20.7486 11.1622 20.5838 11.3637C20.419 11.5652 20.1809 11.6929 19.9219 11.7188V12.1094C19.9219 12.213 19.8807 12.3124 19.8075 12.3856C19.7342 12.4589 19.6348 12.5 19.5312 12.5C19.4276 12.5 19.3283 12.4589 19.255 12.3856C19.1818 12.3124 19.1406 12.213 19.1406 12.1094V11.7188H18.75C18.6464 11.7188 18.547 11.6776 18.4738 11.6044C18.4005 11.5311 18.3594 11.4318 18.3594 11.3282C18.3594 11.2246 18.4005 11.1252 18.4738 11.0519C18.547 10.9787 18.6464 10.9375 18.75 10.9375H19.7266C19.7784 10.9375 19.828 10.917 19.8647 10.8803C19.9013 10.8437 19.9219 10.794 19.9219 10.7422C19.9219 10.6904 19.9013 10.6407 19.8647 10.6041C19.828 10.5675 19.7784 10.5469 19.7266 10.5469ZM6.19922 6.9766C6.48448 7.57735 6.93429 8.08487 7.49642 8.44023C8.05856 8.7956 8.70996 8.98423 9.375 8.98423C10.04 8.98423 10.6914 8.7956 11.2536 8.44023C11.8157 8.08487 12.2655 7.57735 12.5508 6.9766C12.7185 6.6247 12.8255 6.24698 12.8672 5.85941C12.8829 5.72979 12.8907 5.59935 12.8906 5.46878C12.8923 5.30259 12.8792 5.13657 12.8516 4.97269C12.8226 4.74195 12.7676 4.51524 12.6875 4.29691C12.4476 3.60749 11.999 3.00984 11.404 2.58692C10.809 2.164 10.0972 1.93677 9.36719 1.93677C8.63721 1.93677 7.92533 2.164 7.33035 2.58692C6.73537 3.00984 6.2868 3.60749 6.04687 4.29691C5.96889 4.51185 5.9139 4.73445 5.88281 4.96097C5.88281 4.96097 5.88281 5.00394 5.88281 5.00785C5.88281 5.01175 5.88281 5.05863 5.88281 5.07816C5.86461 5.20753 5.85677 5.33816 5.85937 5.46878C5.85902 5.59935 5.86685 5.72982 5.88281 5.85941C5.92446 6.24699 6.03145 6.62473 6.19922 6.9766ZM9.57031 5.85941H9.17969C8.93751 5.85965 8.70388 5.7699 8.52415 5.60758C8.34442 5.44526 8.23142 5.22194 8.20709 4.98099C8.18275 4.74004 8.24881 4.49864 8.39244 4.30365C8.53608 4.10867 8.74704 3.97401 8.98437 3.92581V3.51566C8.98437 3.41206 9.02553 3.3127 9.09878 3.23944C9.17204 3.16619 9.2714 3.12503 9.375 3.12503C9.4786 3.12503 9.57796 3.16619 9.65121 3.23944C9.72447 3.3127 9.76562 3.41206 9.76562 3.51566V3.90628H10.1562C10.2598 3.90628 10.3592 3.94744 10.4325 4.02069C10.5057 4.09395 10.5469 4.19331 10.5469 4.29691C10.5469 4.40051 10.5057 4.49987 10.4325 4.57312C10.3592 4.64638 10.2598 4.68753 10.1562 4.68753H9.17969C9.12789 4.68753 9.07821 4.70811 9.04158 4.74474C9.00495 4.78137 8.98437 4.83105 8.98437 4.88285C8.98437 4.93465 9.00495 4.98432 9.04158 5.02095C9.07821 5.05758 9.12789 5.07816 9.17969 5.07816H9.57031C9.82931 5.05226 10.088 5.13031 10.2894 5.29513C10.4909 5.45996 10.6186 5.69806 10.6445 5.95706C10.6704 6.21606 10.5924 6.47475 10.4276 6.6762C10.2627 6.87766 10.0246 7.00538 9.76562 7.03128V7.42191C9.76562 7.52551 9.72447 7.62487 9.65121 7.69812C9.57796 7.77138 9.4786 7.81253 9.375 7.81253C9.2714 7.81253 9.17204 7.77138 9.09878 7.69812C9.02553 7.62487 8.98437 7.52551 8.98437 7.42191V7.03128H8.59375C8.49015 7.03128 8.39079 6.99013 8.31753 6.91687C8.24428 6.84362 8.20312 6.74426 8.20312 6.64066C8.20312 6.53706 8.24428 6.4377 8.31753 6.36444C8.39079 6.29119 8.49015 6.25003 8.59375 6.25003H9.57031C9.62211 6.25003 9.67179 6.22946 9.70842 6.19283C9.74505 6.1562 9.76562 6.10652 9.76562 6.05472C9.76562 6.00292 9.74505 5.95324 9.70842 5.91661C9.67179 5.87999 9.62211 5.85941 9.57031 5.85941Z" fill="black"/>
<path d="M12.5664 9.76562H6.18359C6.00453 9.76562 5.85938 9.91078 5.85938 10.0898V11.0039C5.85938 11.183 6.00453 11.3281 6.18359 11.3281H12.5664C12.7455 11.3281 12.8906 11.183 12.8906 11.0039V10.0898C12.8906 9.91078 12.7455 9.76562 12.5664 9.76562Z" fill="black"/>
</svg>
