<svg width="14" height="8" viewBox="0 0 14 8" fill="none" xmlns="http://www.w3.org/2000/svg">
<path d="M13.8137 4.4723C13.933 4.34702 14 4.17714 14 4C14 3.82286 13.933 3.65297 13.8137 3.5277L10.6318 0.187526C10.5118 0.0658376 10.3511 -0.00149681 10.1842 2.52534e-05C10.0174 0.00154732 9.85774 0.071804 9.73976 0.195663C9.62177 0.319522 9.55484 0.487073 9.55339 0.66223C9.55194 0.837387 9.61608 1.00613 9.732 1.13213L11.8276 3.33196H0.63637C0.467594 3.33196 0.305731 3.40235 0.186388 3.52763C0.0670459 3.65291 0 3.82283 0 4C0 4.17717 0.0670459 4.34709 0.186388 4.47237C0.305731 4.59765 0.467594 4.66803 0.63637 4.66803H11.8276L9.732 6.86787C9.61608 6.99387 9.55194 7.16261 9.55339 7.33777C9.55484 7.51293 9.62177 7.68048 9.73976 7.80434C9.85774 7.92819 10.0174 7.99845 10.1842 7.99997C10.3511 8.0015 10.5118 7.93416 10.6318 7.81247L13.8137 4.4723Z" fill="black"/>
</svg>
