<svg width="15" height="15" viewBox="0 0 15 15" fill="none" xmlns="http://www.w3.org/2000/svg">
<path d="M6.08708 4.23053C6.99218 4.23053 7.72591 3.4968 7.72591 2.5917C7.72591 1.6866 6.99218 0.952867 6.08708 0.952867C5.18198 0.952867 4.44825 1.6866 4.44825 2.5917C4.44825 3.4968 5.18198 4.23053 6.08708 4.23053Z" fill="#B7DBF9"/>
<path d="M9.84938 7.65101V7.63228L8.09115 5.01015L8.06071 4.968C7.97782 4.86148 7.86669 4.78037 7.73997 4.73389C7.6597 4.70879 7.57588 4.69693 7.4918 4.69877H4.44825V4.74559C4.31324 4.79813 4.19732 4.89037 4.11581 5.01015L2.34118 7.63228L2.32948 7.65101C2.26194 7.74618 2.22518 7.85975 2.22412 7.97643C2.22412 8.13167 2.28579 8.28054 2.39555 8.3903C2.50532 8.50007 2.65419 8.56173 2.80942 8.56173H4.29374L4.24457 9.76276L3.48837 10.43L3.46027 10.4558C3.35923 10.5442 3.28409 10.6585 3.24286 10.7863C3.20163 10.9141 3.19586 11.0507 3.22615 11.1815L3.99406 14.4451C4.03998 14.62 4.15157 14.7705 4.30561 14.8651C4.45965 14.9598 4.64427 14.9914 4.82104 14.9534C4.99781 14.9154 5.15311 14.8107 5.25462 14.6611C5.35613 14.5115 5.39602 14.3285 5.366 14.1502L4.8205 11.3407L5.81785 10.5517H6.35632L7.35133 11.3337L6.80583 14.1431C6.77581 14.3214 6.81571 14.5044 6.91722 14.6541C7.01873 14.8037 7.17403 14.9084 7.3508 14.9464C7.52757 14.9844 7.71218 14.9528 7.86622 14.8581C8.02026 14.7634 8.13185 14.613 8.17777 14.4381L8.94568 11.1745C8.9754 11.0433 8.96935 10.9065 8.92817 10.7784C8.88699 10.6504 8.81218 10.5357 8.71156 10.4464L8.68347 10.423L7.92726 9.75574L7.8898 8.79585H7.02356C6.80624 8.79585 6.59782 8.70952 6.44415 8.55585C6.29048 8.40218 6.20415 8.19376 6.20415 7.97643C6.20415 7.75911 6.29048 7.55069 6.44415 7.39702C6.59782 7.24335 6.80624 7.15702 7.02356 7.15702H7.82425V6.95099L8.16841 7.39114H7.02356C6.86833 7.39114 6.71946 7.4528 6.6097 7.56257C6.49993 7.67233 6.43827 7.8212 6.43827 7.97643C6.43827 8.13167 6.49993 8.28054 6.6097 8.3903C6.71946 8.50007 6.86833 8.56173 7.02356 8.56173H9.36475C9.48092 8.5619 9.5944 8.5268 9.69018 8.46106C9.7539 8.4184 9.80859 8.36358 9.85109 8.29974C9.89359 8.23591 9.92308 8.16432 9.93787 8.08907C9.95266 8.01382 9.95246 7.93639 9.93727 7.86122C9.92209 7.78605 9.89222 7.71462 9.84938 7.65101ZM4.01279 7.39114L4.35695 6.95802L4.34056 7.39114H4.01279Z" fill="#88B8F9"/>
<path d="M4.21414 3.76229H0.468238C0.209637 3.76229 0 3.97192 0 4.23053V7.03995C0 7.29855 0.209637 7.50819 0.468238 7.50819H4.21414C4.47274 7.50819 4.68238 7.29855 4.68238 7.03995V4.23053C4.68238 3.97192 4.47274 3.76229 4.21414 3.76229Z" fill="#2F79F0"/>
<path d="M11.4718 8.44466H0.234119C0.104819 8.44466 0 8.54948 0 8.67878V9.14702C0 9.27632 0.104819 9.38114 0.234119 9.38114H11.4718C11.6011 9.38114 11.706 9.27632 11.706 9.14702V8.67878C11.706 8.54948 11.6011 8.44466 11.4718 8.44466Z" fill="#2F79F0"/>
<path d="M2.34125 15H1.40477L1.17066 10.3176H2.57537L2.34125 15Z" fill="#0C3798"/>
<path d="M10.3012 15H9.36474L9.13062 10.3176H10.5353L10.3012 15Z" fill="#0C3798"/>
<path d="M0.234131 9.38116H11.4718V10.7859C11.4718 10.9101 11.4225 11.0292 11.3347 11.117C11.2469 11.2048 11.1278 11.2541 11.0036 11.2541H0.702369C0.578185 11.2541 0.459087 11.2048 0.371275 11.117C0.283463 11.0292 0.234131 10.9101 0.234131 10.7859V9.38116Z" fill="#0C3798"/>
<path d="M2.34129 6.10349C2.59989 6.10349 2.80953 5.89385 2.80953 5.63525C2.80953 5.37665 2.59989 5.16701 2.34129 5.16701C2.08269 5.16701 1.87305 5.37665 1.87305 5.63525C1.87305 5.89385 2.08269 6.10349 2.34129 6.10349Z" fill="#FFFEFF"/>
<path d="M8.19413 7.97643H3.97998V8.44467H8.19413V7.97643Z" fill="#F8CF6D"/>
<path d="M3.04339 7.97644H1.63867L1.82831 7.21789C1.84113 7.16595 1.87135 7.11996 1.91395 7.08759C1.95655 7.05521 2.00895 7.0384 2.06243 7.03996H2.63368C2.68716 7.0384 2.73956 7.05521 2.78216 7.08759C2.82476 7.11996 2.85498 7.16595 2.8678 7.21789L3.04339 7.97644Z" fill="#B7DBF9"/>
<path d="M3.51185 7.97643H1.17066V8.44467H3.51185V7.97643Z" fill="#0C3798"/>
<path d="M11.7223 1.40471C11.679 1.40494 11.6367 1.39229 11.6007 1.36838C11.5647 1.34447 11.5366 1.31038 11.5201 1.27046C11.5035 1.23054 11.4992 1.18658 11.5077 1.1442C11.5162 1.10182 11.5371 1.06292 11.5678 1.03247C11.5884 1.01259 11.6047 0.988771 11.6159 0.962424C11.6271 0.936077 11.6329 0.907744 11.6329 0.879117C11.6329 0.850491 11.6271 0.822158 11.6159 0.79581C11.6047 0.769463 11.5884 0.745642 11.5678 0.725769L11.2142 0.369908C11.1735 0.329448 11.1183 0.306745 11.0609 0.306745C11.0034 0.306745 10.9483 0.329448 10.9075 0.369908C10.8772 0.400444 10.8385 0.421315 10.7964 0.429884C10.7542 0.438453 10.7105 0.434336 10.6706 0.418055C10.6308 0.401773 10.5967 0.374055 10.5726 0.338402C10.5485 0.302748 10.5355 0.260758 10.5353 0.217731C10.5353 0.159985 10.5124 0.104604 10.4715 0.0637719C10.4307 0.0229394 10.3753 0 10.3176 0H9.81655C9.7588 0 9.70342 0.0229394 9.66259 0.0637719C9.62175 0.104604 9.59881 0.159985 9.59881 0.217731C9.59857 0.260758 9.58559 0.302748 9.5615 0.338402C9.53742 0.374055 9.50331 0.401773 9.46348 0.418055C9.42365 0.434336 9.37989 0.438453 9.33773 0.429884C9.29556 0.421315 9.25688 0.400444 9.22657 0.369908C9.18578 0.329448 9.13066 0.306745 9.07322 0.306745C9.01577 0.306745 8.96065 0.329448 8.91987 0.369908L8.56635 0.718746C8.54574 0.738618 8.52936 0.762439 8.51816 0.788787C8.50697 0.815134 8.5012 0.843467 8.5012 0.872094C8.5012 0.90072 8.50697 0.929053 8.51816 0.9554C8.52936 0.981748 8.54574 1.00557 8.56635 1.02544C8.59703 1.0559 8.61795 1.09479 8.62644 1.13718C8.63494 1.17956 8.63062 1.22351 8.61405 1.26344C8.59748 1.30336 8.5694 1.33745 8.53338 1.36136C8.49737 1.38527 8.45506 1.39791 8.41183 1.39769C8.35409 1.39769 8.2987 1.42063 8.25787 1.46146C8.21704 1.5023 8.1941 1.55768 8.1941 1.61542V2.12346C8.1941 2.18121 8.21704 2.23659 8.25787 2.27742C8.2987 2.31825 8.35409 2.34119 8.41183 2.34119C8.45458 2.34143 8.49631 2.35424 8.53183 2.37803C8.56734 2.40183 8.59506 2.43555 8.61154 2.47499C8.62802 2.51444 8.63252 2.55786 8.62448 2.59985C8.61645 2.64183 8.59623 2.68053 8.56635 2.7111C8.54568 2.73117 8.52924 2.75519 8.51802 2.78174C8.5068 2.80828 8.50102 2.8368 8.50102 2.86562C8.50102 2.89443 8.5068 2.92296 8.51802 2.9495C8.52924 2.97604 8.54568 3.00006 8.56635 3.02014L8.91987 3.37366C8.93974 3.39426 8.96356 3.41065 8.98991 3.42184C9.01626 3.43304 9.04459 3.43881 9.07322 3.43881C9.10184 3.43881 9.13018 3.43304 9.15652 3.42184C9.18287 3.41065 9.20669 3.39426 9.22657 3.37366C9.25702 3.34298 9.29592 3.32206 9.3383 3.31356C9.38068 3.30507 9.42464 3.30938 9.46456 3.32596C9.50448 3.34253 9.53857 3.37061 9.56248 3.40662C9.58639 3.44263 9.59904 3.48495 9.59881 3.52817C9.59881 3.58592 9.62175 3.6413 9.66259 3.68213C9.70342 3.72297 9.7588 3.74591 9.81655 3.74591H10.3176C10.3753 3.74591 10.4307 3.72297 10.4715 3.68213C10.5124 3.6413 10.5353 3.58592 10.5353 3.52817C10.5351 3.48495 10.5477 3.44263 10.5716 3.40662C10.5955 3.37061 10.6296 3.34253 10.6695 3.32596C10.7095 3.30938 10.7534 3.30507 10.7958 3.31356C10.8382 3.32206 10.8771 3.34298 10.9075 3.37366C10.9274 3.39426 10.9512 3.41065 10.9776 3.42184C11.0039 3.43304 11.0323 3.43881 11.0609 3.43881C11.0895 3.43881 11.1178 3.43304 11.1442 3.42184C11.1705 3.41065 11.1944 3.39426 11.2142 3.37366L11.5678 3.02014C11.5884 3.00006 11.6049 2.97604 11.6161 2.9495C11.6273 2.92296 11.6331 2.89443 11.6331 2.86562C11.6331 2.8368 11.6273 2.80828 11.6161 2.78174C11.6049 2.75519 11.5884 2.73117 11.5678 2.7111C11.5379 2.68053 11.5177 2.64183 11.5096 2.59985C11.5016 2.55786 11.5061 2.51444 11.5226 2.47499C11.539 2.43555 11.5668 2.40183 11.6023 2.37803C11.6378 2.35424 11.6795 2.34143 11.7223 2.34119C11.78 2.34119 11.8354 2.31825 11.8762 2.27742C11.9171 2.23659 11.94 2.18121 11.94 2.12346V1.62245C11.94 1.5647 11.9171 1.50932 11.8762 1.46849C11.8354 1.42765 11.78 1.40471 11.7223 1.40471Z" fill="#F8CF6D"/>
<path d="M10.0671 2.57531C10.455 2.57531 10.7695 2.26085 10.7695 1.87295C10.7695 1.48505 10.455 1.17059 10.0671 1.17059C9.67921 1.17059 9.36476 1.48505 9.36476 1.87295C9.36476 2.26085 9.67921 2.57531 10.0671 2.57531Z" fill="#FFFEFF"/>
<path d="M14.5152 5.86936V5.40112C14.5152 5.33903 14.4905 5.27948 14.4466 5.23558C14.4027 5.19167 14.3432 5.167 14.2811 5.167H14.1476C14.0968 5.16983 14.0465 5.15604 14.0043 5.12775C13.9621 5.09945 13.9302 5.05817 13.9135 5.01014C13.8927 4.96629 13.886 4.91705 13.8944 4.86923C13.9028 4.82142 13.9258 4.77739 13.9603 4.74325L14.054 4.64726C14.0759 4.6255 14.0933 4.5996 14.1052 4.57107C14.1171 4.54254 14.1232 4.51194 14.1232 4.48104C14.1232 4.45013 14.1171 4.41953 14.1052 4.391C14.0933 4.36247 14.0759 4.33658 14.054 4.31481L13.7262 3.98704C13.7044 3.9651 13.6785 3.94768 13.65 3.9358C13.6215 3.92391 13.5909 3.91779 13.56 3.91779C13.5291 3.91779 13.4985 3.92391 13.4699 3.9358C13.4414 3.94768 13.4155 3.9651 13.3937 3.98704L13.2978 4.08069C13.2636 4.11521 13.2196 4.13825 13.1718 4.14664C13.124 4.15503 13.0747 4.14835 13.0309 4.12752C12.9828 4.11082 12.9416 4.07894 12.9133 4.0367C12.885 3.99446 12.8712 3.94416 12.874 3.8934V3.76229C12.874 3.7002 12.8493 3.64065 12.8054 3.59674C12.7615 3.55284 12.702 3.52817 12.6399 3.52817H12.174C12.1119 3.52817 12.0523 3.55284 12.0084 3.59674C11.9645 3.64065 11.9399 3.7002 11.9399 3.76229V3.89574C11.9427 3.9465 11.9289 3.9968 11.9006 4.03904C11.8723 4.08128 11.831 4.11316 11.783 4.12986C11.7392 4.15069 11.6899 4.15737 11.6421 4.14898C11.5943 4.14059 11.5503 4.11755 11.5161 4.08303L11.4201 3.98939C11.3984 3.96744 11.3725 3.95002 11.3439 3.93814C11.3154 3.92625 11.2848 3.92013 11.2539 3.92013C11.223 3.92013 11.1924 3.92625 11.1639 3.93814C11.1353 3.95002 11.1094 3.96744 11.0877 3.98939L10.7599 4.31715C10.738 4.33892 10.7205 4.36481 10.7087 4.39334C10.6968 4.42187 10.6907 4.45247 10.6907 4.48338C10.6907 4.51428 10.6968 4.54488 10.7087 4.57341C10.7205 4.60194 10.738 4.62784 10.7599 4.6496L10.8536 4.74559C10.8881 4.77973 10.9111 4.82376 10.9195 4.87158C10.9279 4.91939 10.9212 4.96863 10.9004 5.01249C10.8837 5.06051 10.8518 5.10179 10.8096 5.13009C10.7673 5.15839 10.717 5.17217 10.6663 5.16935H10.5352C10.4731 5.16935 10.4135 5.19401 10.3696 5.23792C10.3257 5.28182 10.301 5.34137 10.301 5.40346V5.8717C10.301 5.9338 10.3257 5.99334 10.3696 6.03725C10.4135 6.08116 10.4731 6.10582 10.5352 6.10582H10.6686C10.7194 6.103 10.7697 6.11678 10.8119 6.14508C10.8541 6.17338 10.886 6.21466 10.9027 6.26268C10.9236 6.30653 10.9302 6.35578 10.9218 6.40359C10.9135 6.45141 10.8904 6.49544 10.8559 6.52958L10.7623 6.62557C10.7403 6.64733 10.7229 6.67322 10.711 6.70175C10.6991 6.73028 10.693 6.76088 10.693 6.79179C10.693 6.8227 10.6991 6.8533 10.711 6.88183C10.7229 6.91036 10.7403 6.93625 10.7623 6.95802L11.09 7.28578C11.1118 7.30773 11.1377 7.32514 11.1662 7.33703C11.1947 7.34891 11.2253 7.35503 11.2562 7.35503C11.2871 7.35503 11.3177 7.34891 11.3463 7.33703C11.3748 7.32514 11.4007 7.30773 11.4225 7.28578L11.5185 7.19213C11.5526 7.15762 11.5966 7.13457 11.6444 7.12619C11.6923 7.1178 11.7415 7.12448 11.7854 7.14531C11.8334 7.16201 11.8747 7.19389 11.903 7.23613C11.9313 7.27836 11.945 7.32867 11.9422 7.37943V7.50819C11.9422 7.57029 11.9669 7.62984 12.0108 7.67374C12.0547 7.71765 12.1142 7.74231 12.1763 7.74231H12.6446C12.7067 7.74231 12.7662 7.71765 12.8101 7.67374C12.854 7.62984 12.8787 7.57029 12.8787 7.50819V7.37475C12.8759 7.32398 12.8896 7.27368 12.9179 7.23144C12.9462 7.18921 12.9875 7.15733 13.0355 7.14063C13.0794 7.1198 13.1286 7.11311 13.1765 7.1215C13.2243 7.12989 13.2683 7.15294 13.3024 7.18745L13.3984 7.2811C13.4202 7.30304 13.4461 7.32046 13.4746 7.33235C13.5031 7.34423 13.5337 7.35035 13.5647 7.35035C13.5956 7.35035 13.6262 7.34423 13.6547 7.33235C13.6832 7.32046 13.7091 7.30304 13.7309 7.2811L14.0586 6.95333C14.0806 6.93157 14.098 6.90567 14.1099 6.87715C14.1218 6.84862 14.1279 6.81801 14.1279 6.78711C14.1279 6.7562 14.1218 6.7256 14.1099 6.69707C14.098 6.66854 14.0806 6.64265 14.0586 6.62088L13.965 6.52489C13.9305 6.49075 13.9074 6.44673 13.8991 6.39891C13.8907 6.35109 13.8973 6.30185 13.9182 6.258C13.9349 6.20998 13.9668 6.1687 14.009 6.1404C14.0512 6.1121 14.1015 6.09832 14.1523 6.10114H14.2811C14.3427 6.10114 14.4019 6.0768 14.4458 6.0334C14.4896 5.99 14.5146 5.93105 14.5152 5.86936Z" fill="#EE7231"/>
<path d="M12.4082 6.57173C12.9254 6.57173 13.3446 6.15246 13.3446 5.63526C13.3446 5.11806 12.9254 4.69878 12.4082 4.69878C11.891 4.69878 11.4717 5.11806 11.4717 5.63526C11.4717 6.15246 11.891 6.57173 12.4082 6.57173Z" fill="#FFFEFF"/>
</svg>
